<?xml version="1.0" encoding="iso-8859-1"?>
<!-- Generator: Adobe Illustrator 19.0.0, SVG Export Plug-In . SVG Version: 6.00 Build 0)  -->
<svg version="1.1" id="Layer_1" xmlns="http://www.w3.org/2000/svg" xmlns:xlink="http://www.w3.org/1999/xlink" x="0px" y="0px"
	 viewBox="0 0 512 512" style="enable-background:new 0 0 512 512;" xml:space="preserve">
<path style="fill:#E2E0E1;" d="M93.49,310.358v36.916v97.377H134.2v-86.968C115.848,344.153,101.905,328.054,93.49,310.358z"/>
<g style="opacity:0.15;">
	<path style="fill:#231F20;" d="M93.49,310.358v36.916v97.377h8.032v26.418h17.425v-26.418v-38.816v-60.968
		C108.007,334.369,99.387,322.757,93.49,310.358z"/>
</g>
<g>
	<path style="fill:#D3D3D3;" d="M36.486,88.888c-15.636,0-28.318,12.683-28.318,28.317v55.278h17.11
		c15.634,0,28.318-12.682,28.318-28.318V88.888H36.486z"/>
	<path style="fill:#D3D3D3;" d="M212.372,88.888c15.634,0,28.318,12.683,28.318,28.317v55.278h-17.111
		c-15.633,0-28.317-12.682-28.317-28.318V88.888H212.372z"/>
</g>
<path style="fill:#EFEDEE;" d="M124.429,167.834c27.745,0,52.806,6.92,70.832,18.045v-72.566c0-19.762-16.022-35.79-35.786-35.79
	H89.38c-19.762,0-35.784,16.029-35.784,35.79v72.566C71.623,174.754,96.682,167.834,124.429,167.834z"/>
<g style="opacity:0.15;">
	<path style="fill:#231F20;" d="M79.196,113.313c0-19.762,16.022-35.79,35.784-35.79H90.476c-19.762,0-35.784,16.029-35.784,35.79
		v72.566c7.148-4.412,15.415-8.146,24.504-11.067C79.196,174.812,79.196,113.313,79.196,113.313z"/>
</g>
<path style="fill:#EFEDEE;" d="M479.038,272.047c0-71.279-88.338-129.07-197.31-129.07c-14.083,0-27.79,1.029-41.039,2.868v26.639
	h-17.111c-3.142,0-6.104-0.628-8.93-1.577c-7.988-0.673-14.92-4.815-19.387-10.946v25.919
	c17.606,10.871,28.496,25.761,28.496,42.204c0,33.273-44.474,60.248-99.328,60.248c-13.918,0-27.161-1.748-39.183-4.884
	c3.802,28.382,21.651,54.112,48.951,74.236v86.968h61.877v-56.342c25.907,8.193,54.944,12.811,85.652,12.811
	c42.763,0,82.314-8.929,114.633-24.05v67.582h61.877v-114.93C471.519,312.362,479.038,292.784,479.038,272.047z"/>
<path style="fill:#F98080;" d="M223.757,228.082c0,33.273-44.474,60.248-99.328,60.248c-54.855,0-99.33-26.976-99.33-60.248
	c0-33.273,44.474-60.248,99.33-60.248C179.283,167.834,223.757,194.809,223.757,228.082z"/>
<g style="opacity:0.15;">
	<path style="fill:#231F20;" d="M50.754,228.082c0-30.637,37.706-55.932,86.503-59.75c-4.198-0.328-8.479-0.499-12.826-0.499
		c-54.855,0-99.33,26.976-99.33,60.248c0,33.273,44.474,60.248,99.33,60.248c4.346,0,8.628-0.171,12.826-0.499
		C88.46,284.015,50.754,258.719,50.754,228.082z"/>
</g>
<path style="fill:#E2E0E1;" d="M359.536,390.644c0.266,2.04,0.417,4.115,0.417,6.227c0,6.996-1.516,13.633-4.217,19.621v28.16
	h40.627v-67.582C384.936,382.415,372.591,386.967,359.536,390.644z"/>
<g>
	<path style="fill:#918D8F;" d="M452.131,63.284c9.899,6.292,12.822,19.416,6.531,29.314c-6.292,9.899-19.417,12.823-29.316,6.531
		c-9.899-6.292-26.609-28.18-20.318-38.078C415.321,51.153,442.233,56.992,452.131,63.284z"/>
	<path style="fill:#918D8F;" d="M359.952,209.249c22.733,0,41.739-15.908,46.524-37.197c-25.782-13.78-56.988-23.375-91.206-27.208
		c-1.945,5.2-3.016,10.829-3.016,16.708C312.254,187.895,333.608,209.249,359.952,209.249z"/>
	<circle style="fill:#918D8F;" cx="288.516" cy="258.698" r="23.96"/>
</g>
<path style="fill:#F98080;" d="M281.729,401.119c-5.787,0-11.515-0.164-17.175-0.486c1.921,24.628,22.499,44.018,47.618,44.018
	c26.388,0,47.78-21.391,47.78-47.78c0-2.112-0.151-4.187-0.417-6.227C335.661,397.369,309.373,401.119,281.729,401.119z"/>
<polygon style="fill:#7C797B;" points="134.2,478.013 134.2,444.651 93.49,444.651 93.49,478.013 113.838,472.872 "/>
<polygon style="fill:#918D8F;" points="134.2,478.013 134.2,444.651 196.055,444.651 196.055,478.013 165.137,472.872 "/>
<polygon style="fill:#7C797B;" points="396.445,478.013 396.445,444.651 355.736,444.651 355.736,478.013 376.084,472.872 "/>
<polygon style="fill:#918D8F;" points="396.445,478.013 396.445,444.651 458.301,444.651 458.301,478.013 427.383,472.872 "/>
<g>
	<path style="fill:#231F20;" d="M88.79,214.212c-4.451,0-8.053,3.605-8.053,8.055c0,4.442,3.602,8.046,8.053,8.046
		c4.453,0,8.056-3.604,8.056-8.046C96.847,217.817,93.243,214.212,88.79,214.212z"/>
	<path style="fill:#231F20;" d="M159.027,230.306c4.452,0,8.055-3.605,8.055-8.046c0-4.452-3.604-8.055-8.055-8.055
		s-8.055,3.603-8.055,8.055C150.973,226.702,154.577,230.306,159.027,230.306z"/>
	<path style="fill:#231F20;" d="M84.835,145.839c4.512,0,8.168-3.656,8.168-8.168c0-2.627,2.135-4.765,4.759-4.765
		c2.628,0,4.767,2.138,4.767,4.765c0,4.512,3.656,8.168,8.168,8.168c4.512,0,8.168-3.656,8.168-8.168
		c0-11.636-9.466-21.101-21.103-21.101c-11.632,0-21.095,9.465-21.095,21.101C76.667,142.183,80.324,145.839,84.835,145.839z"/>
	<path style="fill:#231F20;" d="M139.569,145.827c4.512,0,8.168-3.656,8.168-8.168c0-2.627,2.137-4.764,4.764-4.764
		c2.627,0,4.764,2.137,4.764,4.764c0,4.512,3.656,8.168,8.168,8.168c4.512,0,8.168-3.656,8.168-8.168c0-11.635-9.465-21.1-21.1-21.1
		c-11.635,0-21.1,9.465-21.1,21.1C131.401,142.171,135.058,145.827,139.569,145.827z"/>
	<path style="fill:#231F20;" d="M512,162.019c0-30.041-16.485-57.257-43.254-71.855c3.969-12.419-0.726-26.46-12.234-33.774
		c-7.906-5.025-22.126-8.815-33.078-8.815c-12.826,0-18.662,4.945-21.3,9.095c-10.244,16.119,11.628,42.231,22.83,49.351
		c4.725,3.005,10.173,4.593,15.753,4.593c7.03,0,13.65-2.461,18.859-6.82c22.292,11.545,36.086,33.727,36.086,58.224
		c0,20.604-10.08,40.147-27.04,52.605c-10.303-15.017-24.724-28.784-42.904-40.678c-38.581-25.238-89.719-39.138-143.991-39.138
		c-10.84,0-21.859,0.612-32.871,1.806v-19.409c0-20.118-16.368-36.485-36.486-36.485h-2.023
		c9.705-5.596,19.462-13.274,24.629-23.228c4.284-8.252,4.916-17.309,1.827-26.188c-1.481-4.26-6.138-6.508-10.398-5.032
		c-4.26,1.482-6.513,6.138-5.031,10.398c1.642,4.72,1.359,8.939-0.888,13.277c-6.527,12.599-27.531,21.887-38.513,25.62
		c-6.587-3.942-14.282-6.215-22.5-6.215H89.38c-8.493,0-16.425,2.428-23.154,6.617c-10.555-3.412-32.886-12.883-39.698-26.006
		c-2.255-4.343-2.541-8.568-0.896-13.293c1.481-4.26-0.771-8.916-5.032-10.398c-4.258-1.476-8.916,0.771-10.398,5.031
		C7.114,40.183,7.745,49.24,12.03,57.492c5.168,9.954,14.925,17.632,24.629,23.228h-0.173C16.368,80.72,0,97.088,0,117.205v55.278
		c0,4.512,3.656,8.168,8.168,8.168h17.11c7.444,0,14.372-2.246,20.15-6.089v6.858c-18.421,12.592-28.497,29.004-28.497,46.662
		c0,19.058,11.729,36.668,33.026,49.585c8.352,5.066,17.835,9.168,28.071,12.245c4.914,25.578,20.201,49.255,44.593,69.122
		c0.047,0.038,0.093,0.076,0.139,0.114c1.075,0.873,2.161,1.741,3.269,2.6v74.733h-24.373v-89.209c0-4.512-3.656-8.168-8.168-8.168
		c-4.512,0-8.168,3.656-8.168,8.168v97.377v33.363c0,2.519,1.162,4.896,3.15,6.444c1.45,1.129,3.219,1.724,5.018,1.724
		c0.668,0,1.34-0.082,2.001-0.249l18.35-4.636l18.36,4.636c0.047,0.012,0.094,0.016,0.14,0.027c0.217,0.05,0.435,0.093,0.656,0.125
		c0.085,0.012,0.17,0.024,0.255,0.034c0.216,0.025,0.433,0.041,0.651,0.049c0.066,0.002,0.133,0.008,0.199,0.009
		c0.033,0,0.065,0.004,0.098,0.004c0.06,0,0.12-0.013,0.181-0.015c0.325-0.008,0.647-0.034,0.967-0.079
		c0.064-0.01,0.127-0.005,0.192-0.016l29.599-4.919l29.579,4.919c2.37,0.393,4.789-0.276,6.62-1.826
		c1.832-1.552,2.887-3.831,2.887-6.232v-32.963c0.007-0.133,0.021-0.265,0.021-0.399v-45.432c17.106,4.65,34.9,7.698,53.196,9.125
		c5.35,25.44,28.135,44.474,54.732,44.474c13.418,0,25.745-4.752,35.395-12.656v4.488v33.363c0,2.519,1.162,4.896,3.15,6.444
		c1.45,1.129,3.219,1.724,5.018,1.724c0.668,0,1.34-0.082,2.001-0.249l18.35-4.636l18.36,4.636c0.047,0.012,0.094,0.016,0.141,0.027
		c0.217,0.05,0.436,0.093,0.656,0.125c0.085,0.012,0.169,0.024,0.254,0.034c0.217,0.025,0.435,0.041,0.652,0.049
		c0.066,0.002,0.133,0.008,0.199,0.009c0.033,0,0.065,0.004,0.098,0.004c0.06,0,0.12-0.013,0.18-0.015
		c0.325-0.008,0.647-0.034,0.968-0.079c0.063-0.009,0.127-0.005,0.191-0.015l29.599-4.919l29.579,4.919
		c2.371,0.393,4.789-0.276,6.62-1.826c1.832-1.552,2.887-3.831,2.887-6.232v-33.363c0-0.329-0.025-0.651-0.063-0.97V332.435
		c3.541-4.85,6.635-9.848,9.292-14.955c2.192-4.02,3.307-6.799,3.719-7.919c5.126-12.164,7.789-24.821,7.789-37.514
		c0-14.963-3.518-29.524-10.278-43.274C498.894,213.306,512,188.376,512,162.019z M451.769,88.216
		c-2.413,3.795-6.544,6.062-11.051,6.062c-2.471,0-4.888-0.706-6.99-2.042c-3.438-2.186-9.142-7.919-13.389-14.648
		c-4.821-7.638-4.699-11.594-4.424-12.146c0.253-0.322,2.271-1.529,7.518-1.529c8.648,0,19.555,3.24,24.315,6.264
		C453.831,74.042,455.633,82.135,451.769,88.216z M396.661,176.195c-5.914,14.724-20.484,24.886-36.709,24.886
		c-21.798,0-39.53-17.733-39.53-39.53c0-2.617,0.254-5.206,0.759-7.741C348.511,157.551,374.352,165.217,396.661,176.195z
		 M232.522,117.205v28.639v18.471h-8.943c-0.518,0-1.028-0.039-1.537-0.078c-1.499-0.145-3.081-0.499-4.794-1.075
		c-0.349-0.117-0.706-0.204-1.066-0.272c-7.457-2.957-12.751-10.227-12.751-18.724v-30.852V97.056h8.942
		C223.483,97.056,232.522,106.096,232.522,117.205z M159.476,85.691c15.228,0,27.618,12.391,27.618,27.622v30.852v15.795v12.338
		c-2.185-0.989-4.435-1.908-6.721-2.787c-0.132-0.051-0.264-0.102-0.395-0.152c-1.043-0.398-2.098-0.783-3.16-1.157
		c-0.248-0.087-0.499-0.172-0.748-0.258c-1.034-0.356-2.071-0.707-3.121-1.041c-0.18-0.057-0.362-0.11-0.541-0.167
		c-2.107-0.661-4.247-1.279-6.419-1.849c-0.242-0.064-0.48-0.133-0.724-0.196c-0.821-0.211-1.652-0.407-2.481-0.606
		c-0.639-0.154-1.279-0.307-1.922-0.453c-0.758-0.171-1.519-0.333-2.283-0.493c-0.75-0.158-1.504-0.308-2.26-0.455
		c-0.704-0.136-1.407-0.272-2.117-0.4c-0.906-0.163-1.818-0.314-2.731-0.462c-0.58-0.094-1.158-0.195-1.743-0.283
		c-1.475-0.222-2.957-0.426-4.449-0.61c-0.423-0.052-0.851-0.093-1.275-0.142c-1.136-0.131-2.274-0.254-3.42-0.362
		c-0.565-0.053-1.133-0.098-1.7-0.146c-1.031-0.086-2.064-0.166-3.102-0.233c-0.579-0.038-1.159-0.074-1.74-0.107
		c-1.089-0.06-2.181-0.108-3.276-0.147c-0.51-0.019-1.018-0.042-1.529-0.056c-1.597-0.045-3.198-0.072-4.806-0.072
		s-3.209,0.027-4.806,0.072c-0.511,0.014-1.019,0.037-1.529,0.057c-1.096,0.039-2.188,0.087-3.276,0.147
		c-0.582,0.033-1.161,0.069-1.741,0.107c-1.037,0.069-2.069,0.146-3.101,0.233c-0.567,0.048-1.136,0.093-1.702,0.146
		c-1.144,0.108-2.281,0.231-3.414,0.362c-0.426,0.049-0.855,0.09-1.281,0.143c-1.491,0.183-2.973,0.387-4.447,0.61
		c-0.587,0.088-1.166,0.189-1.75,0.284c-0.91,0.147-1.82,0.297-2.723,0.46c-0.712,0.127-1.418,0.265-2.125,0.402
		c-0.753,0.146-1.503,0.297-2.249,0.454c-0.768,0.161-1.532,0.325-2.294,0.496c-0.638,0.144-1.271,0.296-1.905,0.449
		c-0.835,0.199-1.672,0.398-2.498,0.61c-0.22,0.057-0.437,0.12-0.657,0.178c-2.211,0.58-4.389,1.209-6.533,1.882
		c-0.159,0.05-0.321,0.097-0.481,0.147c-1.062,0.338-2.11,0.692-3.153,1.052c-0.237,0.082-0.476,0.163-0.712,0.246
		c-1.073,0.377-2.136,0.767-3.19,1.167c-0.119,0.046-0.237,0.091-0.356,0.137c-2.295,0.881-4.552,1.804-6.745,2.796v-28.132v-30.852
		c0-15.231,12.388-27.622,27.616-27.622h70.098V85.691z M25.278,164.315h-8.942v-47.11c0-11.11,9.039-20.149,20.15-20.149h8.942
		v16.257v30.852C45.428,155.276,36.389,164.315,25.278,164.315z M33.268,228.082c0-28.231,41.747-52.08,91.162-52.08
		c40.066,0,75.086,15.682,86.903,36.662c0.047,0.083,0.094,0.167,0.139,0.249c0.376,0.68,0.721,1.365,1.048,2.054
		c0.075,0.159,0.152,0.318,0.224,0.478c0.281,0.618,0.535,1.242,0.777,1.867c0.084,0.22,0.173,0.44,0.253,0.66
		c0.207,0.574,0.387,1.152,0.559,1.733c0.078,0.264,0.164,0.527,0.235,0.792c0.148,0.553,0.268,1.112,0.384,1.671
		c0.059,0.284,0.13,0.567,0.18,0.852c0.102,0.577,0.172,1.158,0.241,1.739c0.031,0.262,0.076,0.525,0.1,0.788
		c0.075,0.841,0.117,1.685,0.117,2.534c0,28.231-41.746,52.08-91.159,52.08c-1.548,0-3.089-0.025-4.624-0.07
		C72.438,278.663,33.268,255.428,33.268,228.082z M113.838,464.704c-0.672,0-1.344,0.083-2.001,0.249l-10.181,2.571v-14.706h24.373
		v14.708l-10.193-2.573C115.182,464.787,114.511,464.704,113.838,464.704z M187.887,468.375l-21.411-3.561
		c-0.886-0.147-1.793-0.147-2.679,0l-21.431,3.561v-15.556h45.521V468.375z M198.54,380.521c-2.483-0.781-5.191-0.34-7.29,1.2
		c-2.1,1.538-3.34,3.985-3.34,6.589v48.174h-45.541v-78.8c0-2.595-1.233-5.035-3.322-6.575c-1.247-0.919-2.461-1.851-3.66-2.789
		c-0.491-0.386-0.973-0.774-1.456-1.162c-0.649-0.521-1.291-1.042-1.925-1.567c-0.658-0.547-1.313-1.096-1.956-1.649
		c-0.305-0.261-0.602-0.525-0.903-0.787c-12.517-10.953-22.009-23.123-28.278-36.303c-0.229-0.48-0.501-0.925-0.805-1.337
		c-1.701-3.754-3.12-7.566-4.242-11.43c0.253,0.044,0.509,0.081,0.762,0.123c1.237,0.207,2.48,0.402,3.731,0.582
		c0.933,0.135,1.868,0.266,2.807,0.384c0.615,0.077,1.234,0.147,1.851,0.217c0.968,0.111,1.939,0.213,2.912,0.308
		c0.501,0.048,1.001,0.099,1.504,0.144c1.463,0.129,2.931,0.241,4.405,0.331c0.291,0.017,0.583,0.029,0.875,0.046
		c1.276,0.072,2.556,0.129,3.84,0.172c0.42,0.014,0.841,0.028,1.262,0.039c1.549,0.041,3.101,0.07,4.659,0.07
		c28.002,0,54.449-6.688,74.469-18.831c21.298-12.917,33.026-30.528,33.026-49.585c0-1.044-0.041-2.083-0.112-3.118
		c-0.005-0.081-0.008-0.162-0.014-0.244c-0.074-1.01-0.185-2.014-0.326-3.013c-0.013-0.09-0.023-0.181-0.037-0.27
		c-0.148-1.015-0.332-2.025-0.548-3.029c-0.012-0.054-0.023-0.109-0.035-0.163c-3.032-13.874-12.479-26.607-27.425-36.825v-4.959
		c2.797,1.173,5.76,1.966,8.812,2.377c3.571,1.171,7.38,1.812,11.337,1.812h17.111c4.512,0,8.168-3.656,8.168-8.168v-19.44
		c11.014-1.26,22.041-1.898,32.871-1.898c7.81,0,15.543,0.306,23.173,0.902c-0.538,3.125-0.817,6.298-0.817,9.504
		c0,30.804,25.062,55.866,55.866,55.866c22.659,0,42.408-13.289,51.145-33.355c1.922,1.159,3.82,2.34,5.68,3.556
		c34.883,22.818,54.094,52.802,54.094,84.428c0,10.311-2.023,20.415-6.035,30.224c-0.294,0.497-0.542,1.029-0.731,1.6
		c-0.014,0.042-0.301,0.832-0.952,2.23c-0.209,0.449-0.431,0.895-0.649,1.343c-3.824,7.656-15.399,26.668-43.878,47.529
		c-0.001,0-0.001,0.001-0.002,0.002c-1.387,1.016-2.814,2.037-4.28,3.062c-3.697,2.584-4.599,7.677-2.014,11.374
		c1.589,2.272,4.124,3.488,6.701,3.488c1.615,0,3.248-0.478,4.673-1.475c1.565-1.095,3.089-2.185,4.571-3.27
		c0.001-0.001,0.002-0.001,0.003-0.002c8.569-6.277,15.752-12.428,21.79-18.256v86.585h-45.541v-59.413
		c0-2.792-1.428-5.392-3.785-6.892c-2.213-1.407-4.956-1.647-7.375-0.69c-0.157,0.062-0.317,0.113-0.47,0.184
		c-1.751,0.819-3.529,1.609-5.314,2.386c-0.649,0.282-1.301,0.562-1.956,0.839c-1.085,0.461-2.179,0.907-3.276,1.353
		c-7.98,3.226-16.353,6.09-25.033,8.535c-8.864,2.496-17.932,4.535-27.165,6.116c-0.313,0.053-0.625,0.106-0.938,0.158
		c-2.196,0.368-4.403,0.705-6.617,1.02c-0.849,0.121-1.696,0.246-2.548,0.359c-1.023,0.136-2.05,0.261-3.076,0.387
		c-1.268,0.154-2.539,0.299-3.813,0.438c-0.739,0.079-1.477,0.167-2.218,0.241c-1.98,0.197-3.967,0.371-5.96,0.529
		c-0.647,0.051-1.295,0.098-1.944,0.145c-1.905,0.137-3.813,0.261-5.729,0.362c-0.256,0.013-0.512,0.032-0.768,0.045
		c-2.172,0.108-4.352,0.186-6.537,0.246c-0.534,0.015-1.068,0.027-1.603,0.039c-2.221,0.049-4.444,0.084-6.676,0.084
		c-2.544,0-5.101-0.042-7.656-0.109c-0.437-0.011-0.872-0.023-1.308-0.035c-2.591-0.078-5.181-0.183-7.748-0.329
		c-0.021-0.001-0.04,0.001-0.06,0C241.85,391.175,219.574,387.173,198.54,380.521z M363.904,418.178
		c0.124-0.302,0.231-0.608,0.351-0.909c0.188-0.478,0.379-0.954,0.554-1.439c0.15-0.415,0.284-0.833,0.424-1.25
		c0.146-0.437,0.297-0.87,0.432-1.311c0.155-0.501,0.29-1.005,0.43-1.509c0.101-0.366,0.209-0.729,0.303-1.097
		c0.149-0.586,0.279-1.177,0.408-1.768c0.065-0.297,0.138-0.592,0.199-0.892c0.132-0.65,0.243-1.305,0.351-1.96
		c0.042-0.254,0.093-0.504,0.131-0.76c0.103-0.684,0.184-1.372,0.262-2.062c0.027-0.237,0.063-0.473,0.087-0.711
		c0.071-0.708,0.119-1.419,0.162-2.132c0.014-0.227,0.038-0.452,0.049-0.68c0.047-0.939,0.072-1.882,0.072-2.828
		c0-0.075,0-0.15-0.001-0.225c6.856-2.118,13.562-4.483,20.075-7.115v46.952h-24.291v-18.303H363.904z M312.173,436.482
		c-0.191,0-0.379-0.009-0.569-0.012c-9.439-6.382-16.47-16.047-19.46-27.363c1.136-0.037,2.271-0.079,3.403-0.129
		c0.284-0.012,0.568-0.027,0.853-0.041c1.989-0.093,3.974-0.205,5.953-0.337c0.259-0.017,0.52-0.032,0.779-0.05
		c2.149-0.148,4.291-0.317,6.428-0.51c0.357-0.032,0.711-0.07,1.067-0.102c1.666-0.157,3.328-0.327,4.987-0.511
		c0.682-0.075,1.364-0.15,2.044-0.231c1.468-0.173,2.932-0.358,4.392-0.552c1.414-0.186,2.821-0.388,4.226-0.595
		c0.785-0.117,1.573-0.23,2.357-0.352c1.331-0.207,2.656-0.424,3.981-0.648c0.24-0.04,0.479-0.084,0.72-0.125
		c6.159-1.059,12.237-2.3,18.215-3.737c-0.068,0.617-0.148,1.233-0.244,1.844c-0.047,0.301-0.108,0.597-0.161,0.896
		c-0.063,0.349-0.123,0.697-0.195,1.043c-0.062,0.298-0.135,0.594-0.205,0.89c-0.082,0.35-0.163,0.699-0.255,1.047
		c-0.072,0.276-0.151,0.549-0.229,0.822c-0.107,0.375-0.218,0.747-0.337,1.118c-0.077,0.243-0.157,0.485-0.238,0.725
		c-0.139,0.412-0.288,0.821-0.441,1.228c-0.076,0.203-0.151,0.405-0.231,0.606c-0.182,0.46-0.376,0.916-0.576,1.37
		C342.298,426.722,328.358,436.482,312.173,436.482z M376.084,464.704c-0.672,0-1.344,0.083-2.001,0.249l-10.181,2.571v-14.706
		h24.373v14.708l-10.193-2.573C377.428,464.787,376.756,464.704,376.084,464.704z M450.133,468.375l-21.411-3.561
		c-0.887-0.147-1.793-0.147-2.679,0l-21.431,3.561v-15.556h45.521V468.375z"/>
	<path style="fill:#231F20;" d="M288.514,290.827c17.716,0,32.128-14.412,32.128-32.128s-14.412-32.128-32.128-32.128
		c-17.716,0-32.128,14.412-32.128,32.128S270.798,290.827,288.514,290.827z M288.514,242.908c8.707,0,15.792,7.084,15.792,15.792
		c0,8.707-7.084,15.792-15.792,15.792c-8.707,0-15.792-7.084-15.792-15.792C272.723,249.992,279.807,242.908,288.514,242.908z"/>
</g>
<g style="opacity:0.15;">
	<rect x="142.309" y="439.484" style="fill:#231F20;" width="17.425" height="30.679"/>
</g>
<g style="opacity:0.15;">
	<rect x="363.934" y="387.481" style="fill:#231F20;" width="17.425" height="81.68"/>
</g>
<g style="opacity:0.15;">
	<polygon style="fill:#231F20;" points="421.862,468.073 402.983,468.073 402.983,373.324 421.862,362.569 	"/>
</g>
<g style="opacity:0.15;">
	<path style="fill:#231F20;" d="M155.119,344.227c-0.467-0.368-0.916-0.747-1.377-1.117c-0.075-0.048-0.129-0.079-0.129-0.079
		l0.017-0.012c-19.458-15.724-33.404-34.481-39.864-55.037c-10.029-0.653-19.612-2.21-28.521-4.535
		c3.802,28.382,21.651,54.112,48.951,74.236v91.324h25.23v-10.164v-78.255v-4.552C159.43,349.492,156.843,345.899,155.119,344.227z"
		/>
</g>
<g>
</g>
<g>
</g>
<g>
</g>
<g>
</g>
<g>
</g>
<g>
</g>
<g>
</g>
<g>
</g>
<g>
</g>
<g>
</g>
<g>
</g>
<g>
</g>
<g>
</g>
<g>
</g>
<g>
</g>
</svg>
