<?xml version="1.0" encoding="iso-8859-1"?>
<!-- Generator: Adobe Illustrator 19.0.0, SVG Export Plug-In . SVG Version: 6.00 Build 0)  -->
<svg version="1.1" id="Layer_1" xmlns="http://www.w3.org/2000/svg" xmlns:xlink="http://www.w3.org/1999/xlink" x="0px" y="0px"
	 viewBox="0 0 512 512" style="enable-background:new 0 0 512 512;" xml:space="preserve">
<g>
	<g>
		<g>
			<path d="M88.79,214.212c-4.451,0-8.053,3.605-8.053,8.055c0,4.442,3.602,8.046,8.053,8.046c4.453,0,8.056-3.604,8.056-8.046
				C96.847,217.817,93.243,214.212,88.79,214.212z"/>
			<path d="M159.027,230.306c4.452,0,8.055-3.605,8.055-8.046c0-4.452-3.604-8.055-8.055-8.055s-8.055,3.603-8.055,8.055
				C150.973,226.702,154.577,230.306,159.027,230.306z"/>
			<path d="M84.835,145.839c4.512,0,8.168-3.656,8.168-8.168c0-2.627,2.135-4.765,4.759-4.765c2.628,0,4.767,2.138,4.767,4.765
				c0,4.512,3.656,8.168,8.168,8.168c4.512,0,8.168-3.656,8.168-8.168c0-11.636-9.466-21.101-21.103-21.101
				c-11.632,0-21.095,9.465-21.095,21.101C76.667,142.183,80.324,145.839,84.835,145.839z"/>
			<path d="M139.569,145.827c4.512,0,8.168-3.656,8.168-8.168c0-2.627,2.137-4.764,4.764-4.764s4.764,2.137,4.764,4.764
				c0,4.512,3.656,8.168,8.168,8.168s8.168-3.656,8.168-8.168c0-11.635-9.465-21.1-21.1-21.1c-11.635,0-21.1,9.465-21.1,21.1
				C131.401,142.171,135.058,145.827,139.569,145.827z"/>
			<path d="M512,162.02c0-30.041-16.485-57.257-43.253-71.855c3.969-12.419-0.726-26.46-12.234-33.774
				c-7.906-5.025-22.126-8.815-33.078-8.815c-12.826,0-18.662,4.945-21.3,9.095c-10.244,16.119,11.628,42.231,22.83,49.351
				c4.725,3.005,10.173,4.593,15.753,4.593c7.03,0,13.65-2.461,18.859-6.82c22.292,11.545,36.086,33.727,36.086,58.224
				c0,20.604-10.08,40.147-27.041,52.605c-10.301-15.017-24.724-28.784-42.904-40.678c-38.581-25.238-89.719-39.138-143.991-39.138
				c-10.84,0-21.859,0.612-32.871,1.806v-19.409c0-20.118-16.368-36.485-36.486-36.485h-2.023
				c9.705-5.596,19.462-13.274,24.629-23.228c4.284-8.252,4.916-17.309,1.827-26.188c-1.481-4.26-6.139-6.508-10.398-5.031
				c-4.26,1.482-6.513,6.138-5.031,10.398c1.642,4.72,1.359,8.939-0.888,13.277c-6.527,12.599-27.531,21.887-38.513,25.62
				c-6.587-3.942-14.282-6.215-22.5-6.215H89.38c-8.493,0-16.425,2.427-23.154,6.617c-10.555-3.412-32.886-12.883-39.698-26.006
				c-2.255-4.343-2.541-8.568-0.896-13.293c1.481-4.26-0.771-8.916-5.031-10.398c-4.259-1.476-8.916,0.771-10.398,5.031
				C7.114,40.183,7.745,49.24,12.03,57.492c5.168,9.954,14.925,17.632,24.629,23.228h-0.173C16.368,80.72,0,97.088,0,117.205v55.278
				c0,4.512,3.656,8.168,8.168,8.168h17.11c7.444,0,14.372-2.246,20.15-6.089v6.857c-18.421,12.592-28.497,29.004-28.497,46.662
				c0,19.058,11.729,36.668,33.026,49.585c8.352,5.066,17.835,9.168,28.071,12.245c4.914,25.578,20.201,49.255,44.593,69.122
				c0.047,0.038,0.093,0.076,0.139,0.114c1.075,0.873,2.16,1.741,3.269,2.6v74.733h-24.373v-89.209c0-4.512-3.656-8.168-8.168-8.168
				s-8.168,3.656-8.168,8.168v97.377v33.363c0,2.519,1.162,4.896,3.15,6.444c1.45,1.129,3.219,1.724,5.018,1.724
				c0.668,0,1.34-0.082,2.001-0.249l18.35-4.636l18.36,4.636c0.047,0.012,0.094,0.016,0.141,0.027
				c0.217,0.051,0.436,0.094,0.657,0.126c0.085,0.012,0.169,0.023,0.254,0.034c0.217,0.025,0.433,0.041,0.652,0.049
				c0.066,0.002,0.133,0.008,0.199,0.009c0.033,0,0.065,0.004,0.098,0.004c0.06,0,0.12-0.013,0.18-0.015
				c0.326-0.008,0.648-0.034,0.968-0.08c0.063-0.009,0.127-0.005,0.191-0.015l29.599-4.919l29.579,4.919
				c2.369,0.393,4.789-0.276,6.62-1.826c1.832-1.552,2.887-3.831,2.887-6.232v-32.963c0.007-0.133,0.021-0.265,0.021-0.399v-45.432
				c17.106,4.65,34.9,7.698,53.196,9.125c5.349,25.44,28.135,44.474,54.732,44.474c13.418,0,25.745-4.752,35.395-12.656v4.488
				v33.363c0,2.519,1.162,4.896,3.15,6.444c1.45,1.129,3.219,1.724,5.018,1.724c0.668,0,1.34-0.082,2.001-0.249l18.35-4.636
				l18.359,4.636c0.047,0.012,0.094,0.016,0.141,0.027c0.217,0.051,0.435,0.093,0.656,0.126c0.085,0.012,0.17,0.024,0.255,0.034
				c0.216,0.025,0.433,0.041,0.651,0.049c0.066,0.002,0.133,0.008,0.199,0.009c0.033,0,0.065,0.004,0.098,0.004
				c0.06,0,0.12-0.013,0.181-0.015c0.325-0.008,0.647-0.034,0.967-0.08c0.064-0.01,0.127-0.005,0.192-0.016l29.599-4.919
				l29.579,4.919c2.37,0.393,4.789-0.276,6.62-1.826c1.832-1.552,2.887-3.831,2.887-6.232v-33.363c0-0.329-0.025-0.651-0.063-0.97
				V332.435c3.541-4.851,6.636-9.85,9.293-14.956c2.192-4.019,3.306-6.798,3.718-7.917c5.126-12.164,7.789-24.821,7.789-37.514
				c0-14.963-3.518-29.524-10.278-43.274C498.894,213.306,512,188.376,512,162.02z M451.769,88.217
				c-2.413,3.795-6.544,6.062-11.051,6.062c-2.471,0-4.888-0.706-6.99-2.042c-3.438-2.186-9.142-7.919-13.389-14.648
				c-4.821-7.638-4.699-11.594-4.424-12.146c0.253-0.322,2.271-1.529,7.518-1.529c8.648,0,19.555,3.24,24.315,6.264
				C453.831,74.042,455.633,82.135,451.769,88.217z M126.03,467.526l-10.193-2.573c-0.656-0.166-1.326-0.249-2-0.249
				c-0.672,0-1.344,0.083-2.001,0.249l-10.181,2.571v-14.706h24.373V467.526z M321.181,153.81
				c27.33,3.741,53.172,11.407,75.48,22.385c-5.914,14.724-20.484,24.886-36.709,24.886c-21.798,0-39.53-17.733-39.53-39.53
				C320.422,158.934,320.675,156.345,321.181,153.81z M203.431,113.313V97.056h8.942c11.11,0,20.149,9.039,20.149,20.149v28.639
				v18.471h-8.943c-0.518,0-1.028-0.039-1.537-0.078c-1.499-0.145-3.081-0.499-4.794-1.075c-0.349-0.117-0.706-0.204-1.066-0.272
				c-7.457-2.957-12.751-10.227-12.751-18.724V113.313z M61.769,144.169v-30.852c0-15.231,12.388-27.622,27.616-27.622h70.091
				v-0.003c15.228,0,27.618,12.391,27.618,27.622v30.852v15.795v12.338c-2.185-0.989-4.435-1.908-6.721-2.787
				c-0.132-0.051-0.264-0.102-0.395-0.152c-1.043-0.398-2.098-0.783-3.16-1.157c-0.248-0.087-0.499-0.172-0.748-0.258
				c-1.034-0.356-2.071-0.707-3.121-1.041c-0.18-0.057-0.362-0.11-0.541-0.167c-2.107-0.661-4.247-1.279-6.419-1.849
				c-0.242-0.064-0.48-0.133-0.724-0.196c-0.821-0.211-1.652-0.407-2.481-0.606c-0.639-0.154-1.279-0.307-1.922-0.453
				c-0.758-0.171-1.519-0.333-2.283-0.493c-0.75-0.157-1.503-0.308-2.259-0.455c-0.704-0.136-1.408-0.272-2.117-0.4
				c-0.905-0.163-1.818-0.314-2.73-0.462c-0.582-0.094-1.159-0.195-1.742-0.283c-1.475-0.222-2.957-0.426-4.449-0.61
				c-0.424-0.052-0.852-0.093-1.276-0.142c-1.135-0.131-2.273-0.254-3.418-0.362c-0.565-0.053-1.134-0.099-1.701-0.146
				c-1.03-0.086-2.064-0.166-3.101-0.233c-0.579-0.038-1.159-0.074-1.741-0.107c-1.089-0.06-2.181-0.108-3.276-0.147
				c-0.51-0.018-1.018-0.042-1.529-0.056c-1.597-0.045-3.198-0.072-4.805-0.072c-1.609,0-3.209,0.027-4.806,0.072
				c-0.511,0.014-1.019,0.037-1.529,0.057c-1.096,0.039-2.188,0.087-3.276,0.147c-0.582,0.033-1.161,0.069-1.741,0.107
				c-1.037,0.069-2.069,0.147-3.099,0.233c-0.567,0.048-1.137,0.093-1.702,0.146c-1.143,0.108-2.281,0.231-3.415,0.362
				c-0.426,0.049-0.855,0.09-1.279,0.142c-1.491,0.183-2.974,0.387-4.448,0.61c-0.586,0.088-1.165,0.19-1.748,0.284
				c-0.912,0.148-1.821,0.297-2.725,0.46c-0.711,0.128-1.418,0.265-2.124,0.402c-0.753,0.146-1.503,0.297-2.249,0.454
				c-0.767,0.16-1.532,0.325-2.293,0.496c-0.639,0.145-1.272,0.297-1.907,0.449c-0.835,0.199-1.671,0.396-2.497,0.61
				c-0.221,0.057-0.438,0.12-0.658,0.177c-2.209,0.579-4.385,1.208-6.527,1.881c-0.161,0.05-0.326,0.098-0.487,0.149
				c-1.061,0.338-2.108,0.692-3.152,1.052c-0.237,0.082-0.476,0.163-0.712,0.246c-1.074,0.377-2.137,0.767-3.19,1.167
				c-0.119,0.046-0.236,0.091-0.355,0.137c-2.295,0.881-4.553,1.803-6.746,2.796V144.169z M25.278,164.315h-8.942v-47.11
				c0-11.11,9.039-20.149,20.15-20.149h8.942v16.257v30.852C45.428,155.276,36.389,164.315,25.278,164.315z M33.268,228.082
				c0-28.231,41.747-52.08,91.162-52.08c40.066,0,75.086,15.682,86.903,36.662c0.047,0.083,0.094,0.167,0.139,0.249
				c0.376,0.68,0.721,1.365,1.048,2.054c0.075,0.159,0.152,0.318,0.225,0.478c0.281,0.618,0.535,1.242,0.777,1.867
				c0.084,0.22,0.173,0.44,0.253,0.66c0.207,0.574,0.387,1.152,0.559,1.733c0.078,0.264,0.164,0.527,0.235,0.792
				c0.148,0.553,0.268,1.112,0.384,1.671c0.059,0.284,0.13,0.567,0.18,0.852c0.102,0.577,0.172,1.158,0.241,1.739
				c0.03,0.262,0.076,0.525,0.1,0.788c0.074,0.841,0.117,1.685,0.117,2.534c0,28.231-41.746,52.08-91.159,52.08
				c-1.548,0-3.089-0.025-4.624-0.07C72.438,278.663,33.268,255.428,33.268,228.082z M187.887,468.375l-21.411-3.561
				c-0.886-0.147-1.793-0.147-2.679,0l-21.431,3.561v-15.556h45.521V468.375z M351.304,403.034
				c-0.047,0.301-0.108,0.597-0.161,0.896c-0.063,0.349-0.123,0.697-0.195,1.043c-0.062,0.298-0.135,0.592-0.204,0.889
				c-0.082,0.351-0.163,0.7-0.255,1.049c-0.072,0.276-0.151,0.549-0.229,0.821c-0.107,0.375-0.218,0.747-0.336,1.119
				c-0.077,0.243-0.157,0.485-0.239,0.725c-0.139,0.412-0.288,0.821-0.441,1.228c-0.076,0.203-0.151,0.405-0.231,0.606
				c-0.182,0.458-0.375,0.914-0.574,1.368c-6.141,13.942-20.081,23.705-36.267,23.705c-17.336,0-32.391-11.417-37.626-27.279
				c0.301,0.007,0.601,0.008,0.902,0.014c0.901,0.017,1.802,0.031,2.705,0.041c0.851,0.01,1.7,0.017,2.548,0.021
				c0.343,0.001,0.684,0.008,1.027,0.008c0.267,0,0.533-0.009,0.799-0.009c2.035-0.004,4.068-0.024,6.094-0.069
				c0.083-0.002,0.166-0.002,0.248-0.004c2.233-0.05,4.459-0.127,6.679-0.225c0.283-0.012,0.565-0.027,0.848-0.041
				c1.992-0.093,3.978-0.205,5.96-0.336c0.257-0.017,0.515-0.032,0.772-0.049c2.15-0.148,4.294-0.317,6.432-0.511
				c0.354-0.032,0.706-0.069,1.059-0.102c1.67-0.157,3.336-0.328,4.998-0.512c0.68-0.075,1.358-0.15,2.037-0.23
				c1.475-0.173,2.944-0.359,4.411-0.554c1.404-0.185,2.802-0.386,4.198-0.59c0.791-0.117,1.582-0.231,2.371-0.354
				c1.329-0.206,2.653-0.424,3.974-0.647c0.243-0.041,0.486-0.084,0.729-0.126c6.156-1.059,12.234-2.3,18.209-3.737
				C351.481,401.808,351.4,402.423,351.304,403.034z M388.276,467.526l-10.193-2.573c-0.656-0.166-1.328-0.249-2-0.249
				c-0.672,0-1.344,0.083-2.001,0.249l-10.181,2.571v-14.706h24.373V467.526z M368.12,396.645
				c6.856-2.118,13.562-4.483,20.075-7.115v46.952h-24.291v-18.304h0c0.125-0.304,0.233-0.612,0.353-0.917
				c0.186-0.476,0.377-0.95,0.551-1.431c0.151-0.417,0.286-0.839,0.427-1.259c0.145-0.433,0.295-0.865,0.43-1.304
				c0.155-0.503,0.292-1.011,0.432-1.518c0.1-0.363,0.207-0.722,0.301-1.088c0.149-0.588,0.28-1.18,0.41-1.772
				c0.065-0.296,0.138-0.59,0.198-0.888c0.132-0.65,0.243-1.305,0.351-1.96c0.042-0.254,0.093-0.504,0.131-0.76
				c0.103-0.687,0.185-1.378,0.264-2.069c0.026-0.234,0.062-0.466,0.086-0.701c0.071-0.71,0.119-1.423,0.163-2.138
				c0.014-0.225,0.038-0.448,0.049-0.674c0.047-0.939,0.072-1.882,0.072-2.828C368.121,396.796,368.121,396.721,368.12,396.645z
				 M450.133,468.375l-21.411-3.561c-0.887-0.147-1.793-0.147-2.679,0l-21.431,3.561v-15.556h45.521V468.375z M464.837,302.269
				c-0.294,0.497-0.542,1.029-0.731,1.6c-0.014,0.042-0.302,0.833-0.953,2.234c-0.208,0.445-0.428,0.889-0.645,1.333
				c-3.822,7.653-15.395,26.669-43.881,47.535c-0.001,0.001-0.002,0.002-0.004,0.003c-1.388,1.016-2.813,2.036-4.279,3.061
				c-3.697,2.584-4.599,7.677-2.014,11.374c1.589,2.272,4.124,3.488,6.701,3.488c1.615,0,3.248-0.478,4.673-1.475
				c1.565-1.095,3.089-2.185,4.571-3.27c0.001-0.001,0.002-0.001,0.003-0.002c8.569-6.277,15.752-12.428,21.79-18.256v86.585
				h-45.541v-59.41c0-2.792-1.428-5.392-3.784-6.892c-2.213-1.407-4.956-1.647-7.375-0.69c-0.157,0.062-0.317,0.113-0.471,0.184
				c-1.751,0.819-3.529,1.609-5.314,2.386c-0.649,0.282-1.301,0.562-1.956,0.839c-1.085,0.461-2.179,0.907-3.276,1.353
				c-7.98,3.226-16.353,6.09-25.033,8.535c-8.864,2.496-17.933,4.535-27.166,6.116c-0.312,0.053-0.624,0.106-0.937,0.158
				c-2.196,0.368-4.403,0.705-6.617,1.022c-0.849,0.121-1.696,0.246-2.548,0.359c-1.023,0.136-2.05,0.261-3.077,0.387
				c-1.268,0.154-2.538,0.299-3.812,0.437c-0.739,0.081-1.478,0.167-2.219,0.241c-1.98,0.197-3.967,0.371-5.961,0.529
				c-0.647,0.051-1.295,0.098-1.944,0.145c-1.905,0.137-3.813,0.261-5.729,0.362c-0.257,0.013-0.512,0.032-0.768,0.045
				c-2.172,0.108-4.352,0.186-6.537,0.246c-0.534,0.015-1.068,0.027-1.603,0.039c-2.221,0.049-4.445,0.084-6.676,0.084
				c-2.544,0-5.101-0.042-7.656-0.109c-0.437-0.011-0.872-0.023-1.308-0.035c-2.591-0.078-5.181-0.183-7.748-0.329
				c-0.021-0.001-0.04,0.001-0.06,0c-23.106-1.305-45.382-5.307-66.416-11.959c-2.483-0.781-5.191-0.34-7.29,1.2
				c-2.1,1.538-3.34,3.985-3.34,6.589v48.174h-45.541v-78.8c0-2.595-1.233-5.035-3.322-6.575c-1.247-0.919-2.461-1.85-3.66-2.789
				c-0.492-0.386-0.975-0.775-1.458-1.164c-0.647-0.519-1.288-1.04-1.921-1.565c-0.66-0.548-1.317-1.098-1.96-1.652
				c-0.303-0.259-0.599-0.522-0.897-0.783c-12.518-10.954-22.012-23.124-28.281-36.306c-0.229-0.48-0.501-0.925-0.805-1.337
				c-1.701-3.754-3.12-7.566-4.242-11.43c0.253,0.044,0.509,0.081,0.762,0.123c1.237,0.207,2.48,0.402,3.731,0.582
				c0.933,0.135,1.868,0.266,2.807,0.384c0.615,0.077,1.234,0.147,1.851,0.217c0.968,0.111,1.939,0.213,2.912,0.308
				c0.501,0.048,1.002,0.099,1.505,0.144c1.463,0.128,2.931,0.241,4.405,0.331c0.291,0.017,0.583,0.029,0.873,0.046
				c1.276,0.072,2.557,0.129,3.841,0.172c0.42,0.014,0.841,0.028,1.261,0.039c1.549,0.041,3.101,0.07,4.659,0.07
				c28.002,0,54.449-6.688,74.469-18.831c21.298-12.917,33.026-30.528,33.026-49.585c0-1.044-0.041-2.083-0.112-3.118
				c-0.005-0.081-0.009-0.162-0.014-0.244c-0.074-1.011-0.185-2.015-0.326-3.016c-0.012-0.089-0.023-0.179-0.036-0.268
				c-0.148-1.016-0.332-2.026-0.548-3.031c-0.012-0.053-0.023-0.108-0.035-0.161c-3.031-13.874-12.479-26.608-27.425-36.825v-4.958
				c2.798,1.173,5.76,1.966,8.813,2.377c3.571,1.171,7.38,1.812,11.336,1.812h17.111c4.512,0,8.168-3.656,8.168-8.168v-19.44
				c11.014-1.26,22.041-1.898,32.871-1.898c7.81,0,15.543,0.306,23.173,0.902c-0.538,3.125-0.817,6.298-0.817,9.504
				c0,30.804,25.062,55.866,55.866,55.866c22.659,0,42.408-13.289,51.145-33.355c1.922,1.159,3.82,2.34,5.68,3.556
				c34.883,22.818,54.094,52.802,54.094,84.428C470.871,282.356,468.848,292.459,464.837,302.269z"/>
			<path d="M288.514,226.572c-17.716,0-32.128,14.412-32.128,32.128c0,17.716,14.412,32.128,32.128,32.128
				s32.128-14.412,32.128-32.128C320.642,240.984,306.23,226.572,288.514,226.572z M288.514,274.491
				c-8.707,0-15.792-7.084-15.792-15.792c0-8.707,7.084-15.792,15.792-15.792s15.792,7.084,15.792,15.792
				C304.306,267.407,297.221,274.491,288.514,274.491z"/>
		</g>
	</g>
</g>
<g>
</g>
<g>
</g>
<g>
</g>
<g>
</g>
<g>
</g>
<g>
</g>
<g>
</g>
<g>
</g>
<g>
</g>
<g>
</g>
<g>
</g>
<g>
</g>
<g>
</g>
<g>
</g>
<g>
</g>
</svg>
