<?xml version="1.0" encoding="iso-8859-1"?>
<!-- Generator: Adobe Illustrator 19.0.0, SVG Export Plug-In . SVG Version: 6.00 Build 0)  -->
<svg version="1.1" id="Layer_1" xmlns="http://www.w3.org/2000/svg" xmlns:xlink="http://www.w3.org/1999/xlink" x="0px" y="0px"
	 viewBox="0 0 511.998 511.998" style="enable-background:new 0 0 511.998 511.998;" xml:space="preserve">
<path style="fill:#EFC49A;" d="M461.698,210.973c-23.1,77.371-94.76,133.789-179.642,133.789c-23.335,0-45.653-4.292-66.26-12.081
	l0.048-0.085c-12.263-4.646-23.244-11.887-32.299-21.035c-0.001-0.001-0.002-0.002-0.003-0.003
	c-4.022-4.064-7.661-8.506-10.862-13.269c-0.036-0.053-0.071-0.106-0.107-0.157c-2.343-3.504-4.447-7.179-6.291-11.004
	c-0.087-0.181-0.173-0.362-0.258-0.544c-0.529-1.115-1.036-2.241-1.519-3.381c-0.066-0.154-0.135-0.307-0.198-0.462
	c-1.068-2.557-2.021-5.172-2.855-7.84c-0.086-0.277-0.166-0.556-0.25-0.832c-0.313-1.039-0.61-2.085-0.886-3.138
	c-0.09-0.347-0.182-0.693-0.269-1.039c-0.28-1.121-0.538-2.251-0.776-3.388c-0.046-0.218-0.099-0.433-0.143-0.652
	c-0.272-1.354-0.514-2.718-0.727-4.095c-0.044-0.289-0.078-0.579-0.12-0.869c-0.155-1.074-0.292-2.152-0.409-3.237
	c-0.047-0.442-0.088-0.884-0.13-1.327c-0.092-0.993-0.166-1.99-0.226-2.991c-0.025-0.421-0.055-0.841-0.073-1.264
	c-0.065-1.396-0.107-2.798-0.107-4.21c0-1.394,0.043-2.777,0.106-4.156c0.017-0.378,0.039-0.754,0.06-1.131
	c0.066-1.139,0.152-2.272,0.258-3.4c0.024-0.257,0.042-0.517,0.068-0.773c0.139-1.335,0.31-2.661,0.506-3.977
	c0.053-0.351,0.113-0.7,0.169-1.05c0.165-1.03,0.348-2.053,0.548-3.07c0.071-0.365,0.14-0.731,0.215-1.095
	c0.265-1.268,0.554-2.527,0.871-3.774c0.078-0.306,0.167-0.61,0.248-0.915c0.26-0.976,0.535-1.947,0.827-2.911
	c0.129-0.429,0.261-0.857,0.396-1.284c0.324-1.016,0.664-2.025,1.024-3.026c0.136-0.379,0.272-0.756,0.414-1.133
	c0.37-0.991,0.757-1.973,1.161-2.947c0.2-0.482,0.407-0.961,0.614-1.438c0.321-0.738,0.652-1.467,0.992-2.194
	c0.213-0.459,0.422-0.921,0.644-1.375c0.494-1.013,1.01-2.016,1.541-3.008c0.288-0.538,0.588-1.067,0.885-1.598
	c0.313-0.558,0.631-1.113,0.956-1.663c0.333-0.563,0.664-1.128,1.008-1.683c0.338-0.548,0.692-1.087,1.044-1.627
	c0.62-0.958,1.259-1.903,1.915-2.835c0.272-0.387,0.545-0.775,0.823-1.157c0.457-0.627,0.919-1.249,1.39-1.863
	c0.219-0.286,0.445-0.565,0.667-0.849c1.002-1.274,2.035-2.521,3.102-3.739c0.115-0.131,0.227-0.265,0.342-0.395
	c0.596-0.671,1.202-1.33,1.817-1.984c0.154-0.163,0.308-0.324,0.463-0.486c1.976-2.07,4.047-4.045,6.21-5.921
	c0.072-0.062,0.144-0.124,0.216-0.187c5.358-4.617,11.257-8.616,17.598-11.891l-1.539-28.853
	c2.713-28.803,12.662-65.114,12.941-66.121c2.504-8.153,2.907-16.59,0.768-24.821c-7.984-30.718-48.086-46.881-89.572-36.1
	C87.548,22.209,60.392,55.854,68.379,86.573c6.476,24.915,34.075,40.249,66.402,39.405c-7.457,27.079-23.145,45.509-43.729,72.378
	c-19.928,26.008-24.067,60.687-24.067,75.232c0,9.192,1.46,64.858,55.069,104.578c38.856,34.545,90.03,55.536,146.11,55.536
	c83.89,0,156.806-46.96,193.915-116.02c19.097-31.821,33.041-73.684,41.087-128.3C489.398,198.279,475.526,205.39,461.698,210.973z"
	/>
<g style="opacity:0.15;">
	<path style="fill:#231F20;" d="M288.088,416.472c-22.01,0-43.258-3.247-63.308-9.264l0.018,0.014
		c-0.076-0.025-0.152-0.052-0.228-0.076c-13.965-4.204-27.343-9.76-39.984-16.515c-60.499-30.902-80.276-71.65-80.293-71.684
		c-16.722-29.223-17.384-56.409-17.384-62.59c0-13.69,3.67-45.212,20.715-70.557h-6.903c-3.088,4.016-6.306,8.164-9.67,12.555
		c-19.927,26.009-24.066,60.688-24.066,75.233c0,9.192,1.46,64.858,55.069,104.578c38.856,34.545,90.03,55.536,146.11,55.536
		c59.728,0,113.888-23.808,153.527-62.447C384.652,399.616,338.342,416.472,288.088,416.472z"/>
</g>
<circle style="fill:#CCCACB;" cx="131.452" cy="59.574" r="13.071"/>
<g>
	<path style="fill:#F4D2B5;" d="M321.709,188.7c-7.866-4.852-14.219-9.399-17.684-11.971c-0.911-0.718-1.838-1.422-2.781-2.108
		c-0.052-0.039-0.094-0.075-0.094-0.075l-0.004,0.003c-14.941-10.868-33.308-17.304-53.2-17.304
		c-50.046,0-90.613,40.567-90.613,90.612c0,38.739,24.313,71.781,58.51,84.74l-0.048,0.085c20.608,7.789,42.926,12.081,66.26,12.081
		c92.287,0,168.949-66.688,184.56-154.489c-21.217,12.56-45.96,19.789-72.402,19.789c-6.417,0-12.728-0.452-18.922-1.275
		c-1.028-0.298-2.445-0.514-4.316-0.631c-7.736-1.274-15.256-3.183-22.515-5.65C338.95,198.709,329.574,193.551,321.709,188.7"/>
	<path style="fill:#F4D2B5;" d="M268.165,433.703c-9.402,0-18.659-0.604-27.75-1.748l7.767,17.619l10.648,24.153h31.879
		l5.342-41.781C286.917,433.103,277.612,433.703,268.165,433.703z"/>
</g>
<path style="fill:#F9BC50;" d="M108.446,122.798c-14.801-4.151-27.031-12.188-34.282-23.232
	c-12.907,9.527-35.897,25.752-65.335,32.507c0,0,47.824,22.233,99.632-9.267C108.454,122.806,108.45,122.803,108.446,122.798z"/>
<g>
	<path style="fill:#231F20;" d="M110.304,59.571c0,11.66,9.487,21.147,21.148,21.147S152.6,71.231,152.6,59.571
		c0-11.661-9.487-21.148-21.148-21.148S110.304,47.91,110.304,59.571z M136.446,59.571c0,2.753-2.24,4.993-4.994,4.993
		s-4.994-2.24-4.994-4.993c0-2.754,2.24-4.994,4.994-4.994S136.446,56.817,136.446,59.571z"/>
	<path style="fill:#231F20;" d="M386.568,278.105c1.895,0,3.798-0.663,5.333-2.014c1.136-0.999,2.257-2.014,3.363-3.045
		c3.265-3.039,3.447-8.15,0.408-11.416c-3.039-3.264-8.15-3.447-11.416-0.408c-0.997,0.927-2.006,1.842-3.029,2.742
		c-3.348,2.947-3.674,8.051-0.727,11.4C382.097,277.177,384.328,278.105,386.568,278.105z"/>
	<path style="fill:#231F20;" d="M373.206,290.282c3.74-2.434,4.799-7.436,2.365-11.176c-2.433-3.74-7.436-4.797-11.175-2.366
		c-23.517,15.3-50.848,23.387-79.037,23.387c-17.253,0-34.16-3.015-50.273-8.965c-0.321-0.173-0.654-0.327-0.999-0.459
		c-10.408-3.944-19.734-10.536-26.974-19.064c-2.887-3.402-7.985-3.819-11.385-0.931c-3.401,2.886-3.818,7.984-0.93,11.385
		c8.74,10.297,19.936,18.328,32.436,23.28c0.349,0.196,0.715,0.367,1.095,0.51c18.258,6.9,37.446,10.398,57.029,10.398
		C316.685,316.282,347.062,307.29,373.206,290.282z"/>
	<path style="fill:#231F20;" d="M507.538,182.589c-2.665-1.716-6.09-1.711-8.754,0.009c-8.173,5.28-16.611,10.04-25.213,14.241
		c0.353-1.712,0.69-3.429,0.997-5.153c0.554-3.108-0.756-6.254-3.35-8.052c-2.594-1.797-5.999-1.919-8.716-0.312
		c-20.625,12.21-44.239,18.663-68.288,18.663c-5.669,0-11.505-0.382-17.356-1.139c-1.396-0.346-3.025-0.584-4.945-0.722
		c-6.949-1.165-13.893-2.913-20.653-5.197c-7.737-3.106-16.25-7.513-25.31-13.101c-7.704-4.752-13.934-9.226-17.017-11.513
		c-0.897-0.705-1.813-1.4-2.723-2.068c-0.229-0.186-0.467-0.359-0.71-0.516c-16.868-12.144-36.758-18.56-57.554-18.56
		c-16.231,0-31.558,3.941-45.078,10.912c-0.047,0.024-0.097,0.041-0.144,0.066c-0.504,0.26-1.001,0.534-1.499,0.802
		c-0.121,0.065-0.242,0.128-0.363,0.194c-0.626,0.34-1.247,0.69-1.866,1.045c-0.08,0.046-0.16,0.092-0.24,0.138
		c-5.382,3.102-10.485,6.711-15.221,10.792l-0.21,0.181c-0.444,0.384-0.87,0.796-1.307,1.19c-0.269,0.242-0.537,0.487-0.804,0.731
		c-0.891,0.818-1.762,1.65-2.622,2.501c-0.254,0.252-0.508,0.505-0.76,0.759c-0.419,0.423-0.854,0.834-1.263,1.263l-0.505,0.53
		c-0.668,0.71-1.327,1.427-1.974,2.156l-0.378,0.435c-1.146,1.31-2.282,2.677-3.381,4.074l-0.209,0.265
		c-0.174,0.22-0.348,0.439-0.506,0.646c-0.515,0.67-1.018,1.348-1.519,2.037c-0.283,0.388-0.561,0.783-0.894,1.257
		c-0.334,0.474-0.646,0.956-0.971,1.437c-0.064,0.093-0.126,0.185-0.188,0.279c-0.308,0.458-0.63,0.912-0.924,1.368l-0.148,0.227
		c-0.336,0.516-0.671,1.032-0.994,1.554c-0.374,0.604-0.736,1.216-1.092,1.821c-0.354,0.601-0.7,1.205-1.049,1.823l-0.16,0.288
		c-0.272,0.484-0.544,0.968-0.798,1.446c-0.579,1.082-1.143,2.177-1.679,3.276c-0.184,0.377-0.36,0.757-0.535,1.138l-0.167,0.363
		c-0.154,0.327-0.298,0.663-0.449,0.993c-0.04,0.087-0.08,0.176-0.12,0.264c-0.172,0.38-0.349,0.756-0.516,1.143
		c-0.226,0.519-0.45,1.039-0.666,1.558c-0.154,0.372-0.293,0.748-0.443,1.122c-0.132,0.33-0.262,0.66-0.391,0.991
		c-0.142,0.366-0.295,0.729-0.432,1.097c-0.154,0.412-0.304,0.825-0.45,1.233c-0.099,0.275-0.185,0.556-0.281,0.831
		c-0.208,0.596-0.41,1.193-0.606,1.794c-0.075,0.229-0.158,0.454-0.232,0.685c-0.058,0.183-0.113,0.366-0.17,0.549
		c-0.03,0.097-0.059,0.193-0.089,0.29c-0.057,0.185-0.116,0.37-0.171,0.555c-0.042,0.141-0.079,0.285-0.121,0.426
		c-0.25,0.839-0.49,1.682-0.718,2.531c-0.02,0.075-0.043,0.148-0.064,0.224l-0.082,0.297c-0.065,0.23-0.127,0.462-0.185,0.691
		c-0.333,1.303-0.652,2.687-0.952,4.12c-0.011,0.054-0.022,0.109-0.032,0.163c-0.378,1.818-0.705,3.655-0.982,5.509v0.001
		c-0.001,0.004-0.001,0.008-0.001,0.012c-0.207,1.385-0.384,2.779-0.532,4.182c-0.005,0.048-0.012,0.099-0.017,0.148
		c0,0.002,0,0.004,0,0.006c-0.282,2.717-0.451,5.467-0.507,8.244c-0.017,0.709-0.026,1.381-0.026,2.033
		c0,1.032,0.02,2.116,0.062,3.28c0.014,0.417,0.032,0.834,0.051,1.249c0.001,0.014,0.001,0.027,0.002,0.042
		c0.016,0.351,0.037,0.701,0.059,1.052l0.018,0.293c0.065,1.093,0.146,2.184,0.247,3.272c0.001,0.014,0.002,0.027,0.003,0.041
		l0.018,0.185c0.004,0.051,0.011,0.102,0.015,0.153c0.324,3.375,0.813,6.719,1.477,10.019c0,0.002,0.001,0.004,0.001,0.005
		c0.005,0.025,0.011,0.05,0.016,0.074c2.292,11.348,6.576,22.184,12.717,32.113c0.029,0.046,0.058,0.094,0.087,0.14
		c0.572,0.922,1.159,1.835,1.763,2.741c0.014,0.02,0.027,0.043,0.041,0.064l0.143,0.213c0.023,0.033,0.047,0.066,0.07,0.099
		c0.37,0.549,0.73,1.105,1.113,1.649c10.077,14.331,23.577,25.577,39.316,32.857c0.363,0.169,0.727,0.337,1.093,0.502
		c0.463,0.207,0.925,0.415,1.391,0.615c0.912,0.394,1.828,0.778,2.751,1.143c0.015,0.007,0.03,0.013,0.045,0.019
		c0.377,0.218,0.773,0.407,1.187,0.562c22.125,8.363,45.379,12.603,69.116,12.603c1.425,0,2.845-0.017,4.265-0.047
		c0.137-0.003,0.274-0.009,0.41-0.012c39.04-0.906,76.116-13.145,107.889-35.592c0.051-0.036,0.101-0.072,0.152-0.109
		c0.993-0.702,1.981-1.414,2.963-2.137c0.338-0.248,0.674-0.499,1.01-0.75c0.391-0.292,0.785-0.576,1.175-0.87
		c0.336-0.254,0.667-0.516,1-0.773c0.431-0.33,0.859-0.661,1.287-0.994c0.559-0.436,1.114-0.877,1.667-1.318
		c0.573-0.458,1.146-0.915,1.715-1.38c0.292-0.239,0.582-0.481,0.872-0.722c0.616-0.508,1.236-1.011,1.847-1.528
		c22.234-18.825,39.859-42.294,51.765-68.435c0.084-0.184,0.168-0.369,0.252-0.555c0.391-0.866,0.779-1.735,1.157-2.607
		c0.224-0.514,0.443-1.029,0.661-1.543c0.256-0.605,0.514-1.209,0.765-1.817c0.384-0.928,0.758-1.862,1.128-2.796
		c0.094-0.237,0.191-0.473,0.283-0.71c1.437-3.677,2.766-7.395,3.972-11.155c8.166-3.447,16.227-7.375,24.114-11.744
		c-7.921,44.264-20.163,79.809-37.25,108.282c-0.067,0.11-0.129,0.221-0.19,0.334c-32.884,61.197-92.982,101.813-160.75,110.164
		c-1.733,0.212-3.471,0.406-5.214,0.576c-0.443,0.043-0.885,0.084-1.329,0.125c-1.894,0.172-3.792,0.325-5.692,0.448
		c-0.29,0.018-0.579,0.034-0.869,0.052c-2.016,0.122-4.033,0.221-6.05,0.285c-0.177,0.005-0.354,0.009-0.531,0.014
		c-2.124,0.064-4.246,0.101-6.365,0.101c-8.864,0-17.86-0.566-26.741-1.684c-0.764-0.096-1.523-0.073-2.263,0.043
		c-42.816-4.959-80.48-21.247-114.464-49.407C79.9,335.461,75.062,290.927,75.062,273.588c0-15.259,4.718-47.242,22.402-70.32
		c2.01-2.626,3.974-5.168,5.887-7.646c17.917-23.21,32.07-41.542,39.218-67.501c0.68-2.466,0.151-5.108-1.426-7.123
		c-1.577-2.014-3.978-3.192-6.573-3.095c-8.53,0.227-16.619-0.804-23.934-2.88c-0.003-0.001-0.006-0.002-0.01-0.003
		c-0.716-0.201-1.421-0.416-2.122-0.636c-0.283-0.089-0.564-0.182-0.845-0.275c-0.387-0.127-0.77-0.26-1.152-0.393
		c-0.545-0.192-1.088-0.388-1.622-0.592c-0.093-0.034-0.184-0.07-0.276-0.106c-14.531-5.637-25.107-15.761-28.412-28.478
		c-3.203-12.317,0.435-25.791,10.243-37.942c10.375-12.856,26.223-22.57,44.622-27.352c18.401-4.781,36.974-4.015,52.298,2.161
		c14.484,5.837,24.223,15.835,27.425,28.153c1.703,6.552,1.477,13.422-0.672,20.417c-0.022,0.071-0.042,0.144-0.062,0.216
		c-0.104,0.374-10.385,37.724-13.193,67.462l-0.252,2.309c-0.484,4.434,2.718,8.422,7.154,8.906
		c4.423,0.489,8.421-2.718,8.905-7.154l0.258-2.37c0.004-0.039,0.009-0.079,0.012-0.118c2.601-27.618,12.081-62.525,12.656-64.625
		c3.006-9.858,3.285-19.651,0.828-29.105c-4.521-17.396-17.669-31.273-37.021-39.072c-18.512-7.46-40.673-8.46-62.4-2.812
		C105.271,9.258,86.404,20.92,73.868,36.451c-13.103,16.235-17.83,34.757-13.306,52.154c0.778,2.991,1.818,5.866,3.087,8.622
		c-11.726,8.338-32.023,21.328-56.627,26.974c-3.363,0.771-5.865,3.595-6.226,7.027c-0.361,3.432,1.499,6.714,4.629,8.169
		c0.736,0.341,18.298,8.37,43.769,8.37c0.001,0,0,0,0.001,0c21.23,0,41.519-5.469,60.36-16.243c4.53,1.073,9.267,1.823,14.176,2.223
		c-6.944,18.037-18.302,32.747-33.166,52.001c-1.926,2.494-3.901,5.053-5.923,7.694c-25.011,32.642-25.734,75.381-25.734,80.146
		c0,14.09,2.343,28.349,6.966,42.382c8.813,26.756,25.057,50.592,48.28,70.848c0.051,0.044,0.102,0.087,0.154,0.13
		c35.932,29.796,75.67,47.22,120.726,52.826l16.405,37.212c1.29,2.929,4.19,4.819,7.39,4.819h6.479v12.997l-22.95-8.037
		c-2.342-0.823-4.934-0.518-7.025,0.821l-14.889,9.532c-3.756,2.405-4.853,7.401-2.447,11.157c1.542,2.408,4.148,3.723,6.81,3.723
		c1.491,0,2.999-0.412,4.348-1.276l11.576-7.412l23.503,8.232c0.858,0.3,1.762,0.454,2.671,0.454h29.79
		c4.462,0,8.077-3.615,8.077-8.077s-3.615-8.077-8.077-8.077h-15.23v-14.036h9.246c4.064,0,7.497-3.021,8.013-7.053l4.561-35.676
		c69.963-10.856,131.568-53.775,165.823-117.402c20.289-33.873,34.046-76.765,42.054-131.115
		C511.62,187.424,510.204,184.306,507.538,182.589z M219.808,325.557c-0.351-0.198-0.719-0.37-1.102-0.516
		c-1.244-0.472-2.474-0.983-3.695-1.517c-0.285-0.125-0.568-0.254-0.852-0.381c-1.081-0.488-2.154-0.995-3.216-1.53
		c-0.13-0.066-0.264-0.128-0.394-0.195c-1.259-0.644-2.505-1.318-3.732-2.028c-0.047-0.027-0.094-0.056-0.14-0.084
		c-1.118-0.648-2.219-1.33-3.306-2.031c-0.22-0.142-0.439-0.282-0.658-0.426c-1.039-0.684-2.065-1.39-3.073-2.119
		c-0.326-0.237-0.646-0.482-0.968-0.724c-0.692-0.516-1.375-1.044-2.051-1.581c-0.633-0.506-1.26-1.021-1.877-1.545
		c-0.159-0.135-0.317-0.272-0.476-0.408c-15.422-13.297-25.683-32.068-28.229-52.602c-0.029-0.236-0.062-0.471-0.089-0.706
		c-0.079-0.682-0.139-1.368-0.2-2.053c-0.059-0.688-0.114-1.377-0.157-2.07c-0.032-0.505-0.067-1.01-0.089-1.517
		c-0.013-0.291-0.026-0.579-0.036-0.856c-0.032-0.935-0.055-1.871-0.055-2.81c0-1.265,0.039-2.521,0.096-3.774
		c0-0.009,0-0.015,0.001-0.024l0.054-1.01c0.062-1.081,0.142-2.157,0.247-3.227l0.045-0.508c0.132-1.286,0.297-2.563,0.488-3.831
		l0.088-0.546c0.183-1.157,0.387-2.307,0.617-3.447l0.07-0.359c3.292-15.931,11.193-30.195,22.238-41.338
		c0.177-0.179,0.354-0.355,0.533-0.533c0.762-0.755,1.539-1.496,2.329-2.222c0.173-0.158,0.346-0.317,0.52-0.473
		c3.829-3.453,7.977-6.555,12.401-9.251c0.025-0.015,0.05-0.03,0.074-0.045c1.103-0.67,2.222-1.314,3.358-1.933
		c0.061-0.033,0.124-0.066,0.186-0.1c11.666-6.321,25.016-9.916,39.19-9.916c17.517,0,34.266,5.447,48.437,15.751
		c0.036,0.026,0.072,0.054,0.109,0.08c0.858,0.624,1.703,1.265,2.532,1.918c0.061,0.048,0.123,0.096,0.185,0.142
		c3.98,2.956,10.38,7.502,18.26,12.362c9.926,6.124,19.345,10.979,27.996,14.433c0.131,0.052,0.264,0.101,0.396,0.146
		c7.781,2.643,15.788,4.651,23.802,5.972c0.267,0.044,0.535,0.074,0.806,0.092c1.758,0.111,2.449,0.292,2.571,0.326
		c0.39,0.113,0.787,0.197,1.189,0.25c6.722,0.893,13.446,1.345,19.986,1.345c20.982,0,41.673-4.386,60.719-12.791
		c-0.279,1.012-0.572,2.018-0.868,3.023c-0.033,0.098-0.075,0.193-0.106,0.292c-22.504,75.376-93.194,128.022-171.902,128.022
		C260.691,336.684,239.754,332.941,219.808,325.557z M49.193,131.613c-4.183,0-8.119-0.252-11.753-0.661
		c14.839-6.535,26.91-14.415,35.128-20.243c4.548,5.061,10.089,9.426,16.441,12.962C76.299,128.948,62.964,131.613,49.193,131.613z
		 M286.746,441.028l-3.148,24.621h-19.502L253.4,441.385c3.86,0.204,7.758,0.324,11.695,0.366c0.572,0.008,1.144,0.013,1.716,0.016
		c0.452,0.002,0.901,0.013,1.355,0.013c0.414,0,0.826-0.009,1.24-0.011c0.47-0.002,0.94-0.006,1.41-0.012
		c0.882-0.011,1.763-0.026,2.643-0.045c0.489-0.011,0.979-0.024,1.468-0.038c0.867-0.025,1.734-0.057,2.6-0.092
		c0.495-0.02,0.992-0.04,1.487-0.064c0.853-0.04,1.704-0.087,2.555-0.137c0.516-0.03,1.032-0.059,1.548-0.093
		c0.789-0.052,1.577-0.11,2.364-0.169C285.901,441.088,286.323,441.063,286.746,441.028z"/>
</g>
<g>
</g>
<g>
</g>
<g>
</g>
<g>
</g>
<g>
</g>
<g>
</g>
<g>
</g>
<g>
</g>
<g>
</g>
<g>
</g>
<g>
</g>
<g>
</g>
<g>
</g>
<g>
</g>
<g>
</g>
</svg>
