<?xml version="1.0" encoding="iso-8859-1"?>
<!-- Generator: Adobe Illustrator 19.0.0, SVG Export Plug-In . SVG Version: 6.00 Build 0)  -->
<svg version="1.1" id="Layer_1" xmlns="http://www.w3.org/2000/svg" xmlns:xlink="http://www.w3.org/1999/xlink" x="0px" y="0px"
	 viewBox="0 0 512 512" style="enable-background:new 0 0 512 512;" xml:space="preserve">
<path style="fill:#6D523C;" d="M27.234,245.107c0,24.065,19.509,43.574,43.574,43.574l0,0v-98.043H27.234V245.107z"/>
<g>
	<path style="fill:#593E32;" d="M70.809,190.638v31.291c-0.086-0.022-0.171-0.045-0.257-0.068
		c-10.859-2.87-21.53,5.122-21.53,16.355v6.89l0,0c-0.064,0-0.129,0-0.193,0c-11.837-0.051-21.543-9.757-21.594-21.594
		c0-0.064,0-0.129,0-0.193v-32.681H70.809z"/>
	<path style="fill:#593E32;" d="M506.553,288.681L506.553,288.681c-30.082,0-54.468-24.386-54.468-54.468l0,0l0,0
		c25.336,0,47.151,17.884,52.121,42.728L506.553,288.681z"/>
</g>
<path style="fill:#856648;" d="M473.872,256v10.894c0,50.465-38.129,92.017-87.149,97.437l0,0v22.393v98.043v10.894
	c0,6.017-4.877,10.894-10.894,10.894h-21.787V495.66c0-6.017,4.877-10.894,10.894-10.894l-13.041-78.242
	c-17.694-5.543-30.534-22.065-30.534-41.587l0,0h-87.149c-15.28,0-29.944-2.631-43.574-7.449l0,0v7.449v21.787v98.043v10.894
	c0,6.017-4.877,10.894-10.894,10.894h-21.787V495.66c0-6.017,4.877-10.894,10.894-10.894l-13.041-78.242
	c-17.695-5.543-30.534-22.065-30.534-41.587l0,0v-58.452l0,0c-13.762-20.703-21.787-45.548-21.787-72.272l0,0l0,0
	c0-18.049-14.631-32.681-32.681-32.681H16.34c-6.017,0-10.894-4.877-10.894-10.894v-21.787l54.468-54.468l10.894-10.894
	l10.894-10.894h43.574v10.894h2.387c11.959,0,22.964,6.533,28.691,17.031l43.434,79.629c11.454,20.999,33.462,34.063,57.381,34.063
	h194.916C464.118,234.213,473.872,243.967,473.872,256z"/>
<g>
	<path style="fill:#593E32;" d="M190.638,357.487v29.236v98.043v10.894c0,6.017-4.877,10.894-10.894,10.894h-21.787V495.66
		c0-6.017,4.877-10.894,10.894-10.894l-13.041-78.242c-17.695-5.543-30.534-22.065-30.534-41.587v-58.452
		C140.826,329.875,163.705,347.967,190.638,357.487z"/>
	<path style="fill:#593E32;" d="M386.723,364.331v22.393v98.043v10.894c0,6.017-4.877,10.894-10.894,10.894h-21.787V495.66
		c0-6.017,4.877-10.894,10.894-10.894l-13.041-78.242c-17.694-5.543-30.534-22.065-30.534-41.587l0,0h54.468
		C379.513,364.936,383.146,364.726,386.723,364.331z"/>
</g>
<g>
	<path style="fill:#382620;" d="M168.851,484.766h21.787v10.894c0,6.017-4.877,10.894-10.894,10.894h-21.787V495.66
		C157.957,489.643,162.835,484.766,168.851,484.766z"/>
	<path style="fill:#382620;" d="M364.936,484.766c-6.017,0-10.894,4.877-10.894,10.894v10.894h21.787
		c6.017,0,10.894-4.877,10.894-10.894v-10.894H364.936z"/>
</g>
<path style="fill:#4F3327;" d="M38.128,136.17v32.681c0,6.017-4.877,10.894-10.894,10.894H5.447v-10.894L38.128,136.17z"/>
<path style="fill:#382620;" d="M81.702,130.724c0,3.008-2.439,5.447-5.447,5.447s-5.447-2.439-5.447-5.447
	c0-3.008,2.439-5.447,5.447-5.447S81.702,127.716,81.702,130.724z"/>
<g>
	<path style="fill:#6D523C;" d="M224.769,226.01c-10.838,4.604-22.62,7.42-34.978,8.06v0.143h-12.168
		c-18.756,0-35.408-12.001-41.338-29.795l0,0c-0.473-1.419,0.584-2.886,2.08-2.886h51.427v-0.229
		c3.129-0.239,6.195-0.695,9.197-1.326l0.095,0.173C205.128,211.233,214.114,220.102,224.769,226.01z"/>
	<path style="fill:#6D523C;" d="M356.688,336.067c-5.957-20.848-24.287-33.258-42.757-28.949l-43.13,10.064
		c-11.302,2.637-20.927,11.214-26.081,23.242l-10.506,24.513h130.723L356.688,336.067z"/>
</g>
<path style="fill:#AA9C7E;" d="M277.787,108.936c0,55.329-43.419,100.514-98.043,103.347v0.143h-12.168
	c-18.756,0-35.408-12.001-41.338-29.795l0,0c-0.473-1.419,0.584-2.886,2.08-2.886h51.427c36.558-2.784,65.362-33.537,65.362-70.809
	c0-39.106-31.703-70.809-70.809-70.809c-37.271,0-67.795,28.804-70.58,65.362H70.95c2.833-54.624,48.019-98.043,103.348-98.043
	C231.453,5.447,277.787,51.781,277.787,108.936z"/>
<path style="fill:#C4B395;" d="M184.99,6.01c-50.296,5.221-89.891,46.461-92.537,97.479H70.809
	c2.832-54.624,48.019-98.043,103.347-98.043C177.814,5.447,181.429,5.64,184.99,6.01z M195.942,38.128
	c-3.671,0-7.273,0.29-10.793,0.828c33.955,5.222,59.957,34.564,59.957,69.981c0,37.271-28.804,68.024-65.362,70.809h16.453
	c7.719,0,15.43-1.108,22.727-3.623c27.823-9.593,47.826-36.125,47.826-67.185C266.751,69.83,235.049,38.128,195.942,38.128z"/>
<g>
	<path style="fill:#82735A;" d="M125.134,103.49h-21.645c2.784-36.558,33.307-65.362,70.58-65.362c3.691,0,7.314,0.284,10.852,0.828
		C152.701,43.887,127.645,70.532,125.134,103.49z"/>
	<path style="fill:#82735A;" d="M147.036,182.631L147.036,182.631c-0.473-1.419,0.584-2.886,2.08-2.886h-21.645
		c-1.497,0-2.553,1.466-2.08,2.886l0,0c5.932,17.794,22.582,29.795,41.338,29.795h12.168v-0.143
		c1.215-0.063,2.421-0.155,3.624-0.259C166.227,209.821,152.341,198.547,147.036,182.631z"/>
</g>
<g>
	<path style="fill:#856648;" d="M168.851,299.575h65.362v54.468v32.681v98.043v10.894c0,6.017-4.877,10.894-10.894,10.894h-21.787
		V495.66c0-6.017,4.877-10.894,10.894-10.894l-13.041-78.242c-17.695-5.543-30.534-22.065-30.534-41.587V299.575z"/>
	<path style="fill:#856648;" d="M343.149,299.575l26.94,85.926c3.416,10.895,13.511,18.309,24.929,18.309l13.493,80.957
		c-6.017,0-10.894,4.877-10.894,10.894v10.894h21.787c6.017,0,10.894-4.877,10.894-10.894v-10.894v-82.1
		c13.021-7.535,21.787-21.604,21.787-37.73v-65.362H343.149z"/>
</g>
<g>
	<path style="fill:#4C3127;" d="M212.426,484.766h21.787v10.894c0,6.017-4.877,10.894-10.894,10.894h-21.787V495.66
		C201.532,489.643,206.409,484.766,212.426,484.766z"/>
	<path style="fill:#4C3127;" d="M408.511,484.766c-6.017,0-10.894,4.877-10.894,10.894v10.894h21.787
		c6.017,0,10.894-4.877,10.894-10.894v-10.894H408.511z"/>
</g>
<path style="fill:#856648;" d="M103.489,70.809L103.489,70.809c6.017,0,10.894,4.877,10.894,10.894v32.681H92.596V81.702
	C92.596,75.686,97.473,70.809,103.489,70.809z"/>
<path d="M511.894,287.613l-2.348-11.74c-5.46-27.296-29.625-47.107-57.462-47.107H257.168c-16.312,0-31.937-6.742-43.141-18.343
	c40.68-15.9,69.207-55.48,69.207-101.487C283.234,48.869,234.365,0,174.298,0C117.055,0,69.763,44.154,65.653,100.943
	l-31.361,31.361c-0.011,0.011-0.022,0.022-0.033,0.033L1.595,164.999C0.574,166.021,0,167.407,0,168.851v21.787
	c0,9.01,7.33,16.34,16.34,16.34h5.447v38.128c0,27.03,21.991,49.021,49.021,49.021c3.008,0,5.447-2.439,5.447-5.447v-81.155
	c12.415,2.531,21.787,13.535,21.787,26.687c0,26.36,7.527,51.873,21.787,73.898v56.825c0,20.403,12.377,38.344,31.137,45.656
	l11.659,69.959c-5.932,2.452-10.116,8.301-10.116,15.108v10.894c0,3.008,2.439,5.447,5.447,5.447h21.787
	c9.01,0,16.34-7.33,16.34-16.34v-75.804l10.116,60.696c-5.932,2.452-10.116,8.301-10.116,15.108v10.894
	c0,3.008,2.439,5.447,5.447,5.447h21.787c9.01,0,16.34-7.33,16.34-16.34V370.383h76.552c1.984,18.102,13.771,33.556,30.841,40.209
	l11.659,69.959c-5.932,2.452-10.116,8.301-10.116,15.108v10.894c0,3.008,2.439,5.447,5.447,5.447h21.787
	c9.01,0,16.34-7.33,16.34-16.34v-75.805l10.116,60.697c-5.932,2.452-10.116,8.301-10.116,15.108v10.894
	c0,3.008,2.439,5.447,5.447,5.447h21.787c9.01,0,16.34-7.33,16.34-16.34v-89.974c13.515-9.055,21.787-24.388,21.787-40.75v-34.52
	c10.001-12.853,16.795-27.93,19.886-43.83c8.862,4.954,18.795,7.542,29.135,7.542c1.632,0,3.178-0.732,4.213-1.993
	C511.801,290.873,512.215,289.213,511.894,287.613z M10.894,171.107l21.787-21.787v19.531c0,3.003-2.443,5.447-5.447,5.447h-16.34
	V171.107z M65.362,282.846c-18.448-2.65-32.673-18.556-32.681-37.724c4.503,3.385,10.08,5.403,16.103,5.43l0.237,0
	c3.008,0,5.447-2.439,5.447-5.447v-6.89c0-3.58,1.622-6.882,4.449-9.059c1.89-1.455,4.129-2.278,6.445-2.416V282.846z
	 M65.362,215.833c-4.701,0.139-9.26,1.744-13.09,4.693c-5.527,4.256-8.697,10.704-8.697,17.69v0.533
	c-6.305-2.217-10.863-8.233-10.894-15.283v-0.147v-16.34h32.681V215.833z M185.191,495.66c0,3.003-2.443,5.447-5.447,5.447h-16.34
	v-5.447c0-3.003,2.443-5.447,5.447-5.447h16.34V495.66z M228.766,495.66c0,3.003-2.443,5.447-5.447,5.447h-16.34v-5.447
	c0-3.003,2.443-5.447,5.447-5.447h16.34V495.66z M381.277,495.66c0,3.003-2.443,5.447-5.447,5.447h-16.34v-5.447
	c0-3.003,2.443-5.447,5.447-5.447h16.34V495.66z M381.277,479.319h-11.726l-12.281-73.691c-0.338-2.025-1.785-3.689-3.745-4.303
	c-15.98-5.005-26.716-19.628-26.716-36.389c0-3.008-2.439-5.447-5.447-5.447h-80.182l7.252-16.92
	c4.436-10.35,12.777-17.858,22.313-20.083l43.13-10.064c15.55-3.63,31.15,7.178,36.282,25.14l8.249,28.869
	c0.013,0.045,0.026,0.089,0.04,0.134l6.447,20.564c2.686,8.568,8.708,15.316,16.385,19.009v73.18H381.277z M424.851,495.66
	c0,3.003-2.443,5.447-5.447,5.447h-16.34v-5.447c0-3.003,2.443-5.447,5.447-5.447h16.34V495.66z M468.426,266.894
	c0,21.078-7.268,41.692-20.467,58.064c-0.838,0.972-1.32,2.227-1.32,3.556v36.423c0,13.558-7.307,26.21-19.068,33.016
	c-1.682,0.974-2.719,2.77-2.719,4.715v76.652h-11.726l-12.734-76.406c-0.438-2.626-2.71-4.551-5.373-4.551
	c-2.169,0-6.679-1.112-6.899-1.17c-6.02-2.113-10.835-6.949-12.833-13.322l-6.426-20.496l-8.23-28.803
	c-6.757-23.648-27.924-37.73-49.233-32.756l-43.13,10.064c-13.089,3.055-23.968,12.677-29.851,26.4l-9.212,21.493
	c-0.291,0.679-0.44,1.407-0.44,2.146v117.402H217.04l-12.281-73.691c-0.338-2.025-1.785-3.689-3.745-4.303
	c-0.748-0.234-1.485-0.49-2.21-0.766c-1.743-0.663-8.475-4.474-9.665-5.387c-9.196-7.052-14.84-18.082-14.84-30.236v-17.501
	c0-3.008-2.439-5.447-5.447-5.447s-5.447,2.439-5.447,5.447v17.501c0,16.783,8.375,31.9,21.787,40.805v73.578h-11.726
	l-12.281-73.691c-0.338-2.025-1.785-3.689-3.745-4.303c-15.98-5.005-26.715-19.628-26.715-36.389v-42.233
	c3.3,3.855,6.813,7.527,10.521,10.994c2.197,2.052,5.643,1.938,7.699-0.259c2.055-2.197,1.938-5.644-0.259-7.698
	c-7.124-6.659-13.471-14.149-18.863-22.259c-0.002-0.004-0.005-0.008-0.008-0.012c-13.657-20.544-20.877-44.493-20.877-69.255
	c0-21.024-17.104-38.128-38.128-38.128H16.34c-3.003,0-5.447-2.443-5.447-5.447v-5.447h16.34c9.01,0,16.34-7.33,16.34-16.34v-30.425
	l30.417-30.417c1.375-0.926,2.306-2.464,2.399-4.238c2.701-52.081,45.707-92.878,97.907-92.878
	c54.061,0,98.043,43.982,98.043,98.043c0,41.439-25.71,77.084-62.366,91.371c-1.741,0.679-11.44,3.674-12.902,4.021
	c-5.688,1.348-11.571,2.202-17.61,2.515c-0.329,0.017-11.886,0.135-11.886,0.135c-14.883,0-28.207-8.59-34.452-21.787
	c0,0,46.896-0.005,47.033-0.016c39.474-3.006,70.396-36.494,70.396-76.239c0-42.047-34.208-76.255-76.255-76.255
	c-25.732,0-49.639,13.016-63.68,34.319c-2.156-1.049-4.574-1.638-7.129-1.638c-9.01,0-16.34,7.33-16.34,16.34v32.681
	c0,3.008,2.439,5.447,5.447,5.447s5.447-2.439,5.447-5.447V81.702c0-3.003,2.443-5.447,5.447-5.447s5.447,2.443,5.447,5.447v32.681
	c0,3.008,2.439,5.447,5.447,5.447s5.447-2.439,5.447-5.447v-5.447h7.834c9.972,0,19.134,5.438,23.908,14.192l27.911,51.17h-51.163
	c-2.449,0-4.765,1.185-6.196,3.172c-1.431,1.987-1.825,4.559-1.05,6.883c6.683,20.049,25.372,33.52,46.506,33.52
	c0,0,13.224-0.077,13.714-0.223c7.376-0.467,14.551-1.663,21.442-3.515c13.37,16.053,33.422,25.525,54.435,25.525h194.915
	c9.01,0,16.34,7.33,16.34,16.34V266.894z M118.414,75.051c11.824-19.478,33.013-31.476,55.884-31.476
	c36.04,0,65.362,29.321,65.362,65.362c0,30.107-20.676,56.026-48.816,63.441l-29.708-54.465c-6.684-12.256-19.51-19.87-33.472-19.87
	h-7.834v-16.34C119.83,79.335,119.324,77.083,118.414,75.051z M479.016,274.776c0.202-2.617,0.303-5.247,0.303-7.883V256
	c0-3.047-0.503-5.981-1.431-8.719c10.569,6.82,18.378,17.733,20.977,30.729l0.953,4.77
	C492.357,281.762,485.288,279.05,479.016,274.776z"/>
<g>
</g>
<g>
</g>
<g>
</g>
<g>
</g>
<g>
</g>
<g>
</g>
<g>
</g>
<g>
</g>
<g>
</g>
<g>
</g>
<g>
</g>
<g>
</g>
<g>
</g>
<g>
</g>
<g>
</g>
</svg>
