<?xml version="1.0" encoding="iso-8859-1"?>
<!-- Generator: Adobe Illustrator 19.0.0, SVG Export Plug-In . SVG Version: 6.00 Build 0)  -->
<svg version="1.1" id="Layer_1" xmlns="http://www.w3.org/2000/svg" xmlns:xlink="http://www.w3.org/1999/xlink" x="0px" y="0px"
	 viewBox="0 0 512.002 512.002" style="enable-background:new 0 0 512.002 512.002;" xml:space="preserve">
<path style="fill:#CCCACB;" d="M391.002,294.207c-1.307,0-2.57-0.17-3.87-0.2c1.622,5.226,2.992,10.567,3.87,16.074
	c-20.801,32.264-56.972,53.685-98.213,53.685c-0.586,0-1.151-0.076-1.733-0.084c-83.177-6.281-100.62-90.575-100.628-90.605
	c4.736-31.514,29.937-46.239,29.967-46.262c9.654-5.364,20.162-9.343,31.253-11.783l0,0l-11.23-22.422
	c-7.688-18.817-11.975-39.37-11.975-60.96c0-3.428,0.188-6.81,0.403-10.183l0.63-10.429c0-33.386-27.068-60.453-60.458-60.453
	c-33.387,0-60.451,27.067-60.451,60.453c0,20.448,10.161,38.522,25.704,49.467c-16.216,26.634-25.704,57.799-25.704,91.266
	c0,97.353,78.919,176.268,176.268,176.268c88.028,0,160.968-64.532,174.142-148.872C438.276,288.729,415.3,294.207,391.002,294.207z
	"/>
<g style="opacity:0.15;">
	<path style="fill:#231F20;" d="M302.886,407.821c-97.349,0-176.268-78.914-176.268-176.268c0-24.297,5.022-47.369,13.967-68.385
		h-7.875c-15.249,26.041-24.141,56.238-24.141,88.601c0,97.353,78.919,176.268,176.268,176.268
		c57.149,0,107.932-27.206,140.137-69.368C393.298,389.106,350.282,407.821,302.886,407.821z"/>
</g>
<path style="fill:#DDDDDD;" d="M391.002,310.08c-8.851-55.39-56.637-97.788-114.529-97.788c-20.366,0-39.461,5.296-56.078,14.521
	c-0.03,0.022-25.231,14.749-29.967,46.262c0.008,0.03,17.452,84.324,100.628,90.605c0.582,0.009,1.147,0.084,1.733,0.084
	C334.03,363.765,370.201,342.344,391.002,310.08z"/>
<circle style="fill:#918D8F;" cx="160.093" cy="97.898" r="13.144"/>
<path style="fill:#BFBABD;" d="M284.836,428.036c-12.887,0-25.434-1.422-37.537-4.046l11.127,25.241l10.707,24.287h32.056
	l6.018-47.067C299.867,427.386,292.433,428.036,284.836,428.036z"/>
<polyline style="fill:#918D8F;" points="108.568,111.036 53.025,129.551 116.815,141.417 "/>
<path style="fill:#F25D4E;" d="M122.694,72.227c11.089-13.222,27.719-21.644,46.324-21.644c21.813,0,40.865,11.589,51.499,28.904
	c0.5,0.037,0.957,0.212,1.47,0.212c10.022,0,18.151-8.124,18.151-18.154c0-9.884-7.915-17.888-17.742-18.11
	c0,0,0.003-0.023,0.003-0.037c0-15.861-12.852-28.714-28.712-28.714c-7.934,0-15.11,3.222-20.308,8.424
	c-6.494-9.04-17.04-14.986-29.022-14.986c-19.765,0-35.789,16.021-35.789,35.79C108.568,55.494,114.161,65.684,122.694,72.227z"/>
<g>
	<path style="fill:#231F20;" d="M315.007,333.873c0.477,0,0.961-0.042,1.447-0.129c2.308-0.415,4.635-0.927,6.917-1.523
		c4.34-1.133,6.941-5.57,5.808-9.909s-5.572-6.942-9.909-5.808c-1.878,0.489-3.792,0.912-5.69,1.252
		c-4.414,0.794-7.35,5.016-6.557,9.431C307.73,331.115,311.152,333.873,315.007,333.873z"/>
	<path style="fill:#231F20;" d="M299.759,327.469c0.702-4.431-2.322-8.591-6.752-9.293c-37.568-5.946-52.309-38.171-56.903-51.749
		c-1.438-4.249-6.048-6.525-10.297-5.091c-4.249,1.437-6.528,6.047-5.091,10.297c5.54,16.376,23.427,55.256,69.75,62.59
		c0.43,0.068,0.858,0.101,1.28,0.101C295.673,334.322,299.126,331.468,299.759,327.469z"/>
	<path style="fill:#231F20;" d="M138.825,97.893c0,11.725,9.54,21.265,21.266,21.265s21.266-9.54,21.266-21.265
		c0-11.726-9.54-21.266-21.266-21.266C148.364,76.629,138.825,86.167,138.825,97.893z M165.112,97.893
		c0,2.768-2.253,5.021-5.022,5.021c-2.769,0-5.022-2.253-5.022-5.021c0-2.769,2.253-5.022,5.022-5.022
		C162.859,92.873,165.112,95.125,165.112,97.893z"/>
	<path style="fill:#231F20;" d="M463.87,272.682c-2.39-1.804-5.578-2.147-8.299-0.89c-19.883,9.187-40.891,13.972-62.47,14.265
		c-7.226-19.884-19.452-37.786-35.663-51.788c-22.473-19.41-51.226-30.098-80.964-30.098c-14.92,0-29.734,2.739-43.642,7.979
		c-0.146,0.055-0.292,0.112-0.439,0.167c-1.137,0.433-2.269,0.884-3.393,1.35c-0.309,0.128-0.617,0.256-0.925,0.386
		c-0.965,0.409-1.923,0.834-2.877,1.268c-0.389,0.177-0.779,0.35-1.164,0.531c-0.912,0.427-1.816,0.87-2.717,1.319
		c-0.379,0.188-0.761,0.37-1.139,0.563c-1.251,0.639-2.493,1.296-3.722,1.979c-0.081,0.045-0.162,0.092-0.243,0.141
		c-0.55,0.329-1.891,1.163-3.737,2.517c-0.009,0.006-0.016,0.012-0.025,0.018c-0.593,0.435-1.242,0.928-1.931,1.472
		c-0.035,0.027-0.067,0.052-0.102,0.079c-0.316,0.25-0.644,0.518-0.978,0.791c-0.05,0.041-0.097,0.078-0.148,0.119
		c-0.347,0.286-0.703,0.587-1.065,0.897c-0.041,0.035-0.08,0.067-0.121,0.102c-0.34,0.292-0.69,0.601-1.042,0.915
		c-0.068,0.061-0.132,0.116-0.201,0.177c-0.351,0.315-0.71,0.648-1.071,0.984c-0.073,0.068-0.143,0.13-0.216,0.198
		c-0.319,0.3-0.645,0.617-0.972,0.935c-0.119,0.116-0.236,0.225-0.356,0.343c-0.323,0.317-0.651,0.652-0.978,0.985
		c-0.127,0.129-0.25,0.249-0.377,0.381c-0.328,0.339-0.661,0.696-0.992,1.052c-0.129,0.139-0.257,0.269-0.387,0.409
		c-0.321,0.349-0.643,0.714-0.965,1.078c-0.143,0.161-0.285,0.314-0.428,0.478c-0.319,0.366-0.639,0.749-0.958,1.13
		c-0.146,0.174-0.293,0.341-0.44,0.519c-0.309,0.375-0.617,0.766-0.925,1.154c-0.158,0.198-0.315,0.389-0.473,0.59
		c-0.321,0.412-0.638,0.84-0.956,1.267c-0.143,0.192-0.287,0.376-0.43,0.571c-0.321,0.438-0.637,0.892-0.953,1.346
		c-0.139,0.198-0.279,0.388-0.417,0.589c-0.293,0.429-0.583,0.876-0.873,1.319c-0.157,0.239-0.317,0.471-0.472,0.715
		c-0.285,0.446-0.564,0.911-0.845,1.371c-0.155,0.255-0.313,0.499-0.467,0.758c-0.271,0.457-0.534,0.931-0.799,1.401
		c-0.156,0.277-0.316,0.545-0.471,0.825c-0.244,0.445-0.479,0.909-0.717,1.366c-0.168,0.322-0.34,0.634-0.504,0.961
		c-0.226,0.451-0.442,0.917-0.661,1.378c-0.167,0.35-0.339,0.69-0.501,1.046c-0.201,0.441-0.391,0.898-0.587,1.348
		c-0.17,0.392-0.347,0.776-0.511,1.176c-0.185,0.449-0.357,0.915-0.536,1.374c-0.162,0.417-0.331,0.824-0.487,1.249
		c-0.181,0.491-0.347,0.998-0.519,1.499c-0.141,0.409-0.289,0.809-0.423,1.225c-0.147,0.455-0.279,0.925-0.419,1.387
		c-0.145,0.479-0.298,0.95-0.434,1.438c-0.132,0.472-0.248,0.961-0.373,1.441c-0.128,0.495-0.264,0.98-0.383,1.484
		c-0.192,0.809-0.363,1.636-0.531,2.468c-0.038,0.188-0.083,0.37-0.12,0.56c-0.198,1.027-0.378,2.071-0.538,3.132
		c-0.145,0.962-0.115,1.94,0.086,2.888c0.012,0.059,0.043,0.201,0.093,0.422c0.056,0.248,0.141,0.605,0.248,1.045
		c0.89,3.626,3.611,13.503,9.332,25.575c0.161,0.341,0.327,0.686,0.494,1.03c0.487,1.009,0.993,2.031,1.524,3.066
		c0.611,1.193,1.254,2.404,1.923,3.626c0.518,0.945,1.046,1.895,1.6,2.852c1.617,2.798,3.387,5.645,5.326,8.5
		c1.855,2.732,3.79,5.357,5.795,7.882c0.096,0.121,0.19,0.247,0.286,0.367c0.981,1.226,1.986,2.417,3.002,3.593
		c20.087,23.255,46.897,36.689,78.342,39.064c0.14,0.011,0.35,0.02,0.489,0.023c0.123,0.003,0.245,0.015,0.366,0.023
		c0.493,0.034,0.985,0.063,1.488,0.063c14.642,0,28.892-2.536,42.229-7.324c25.462-9.141,47.602-26.492,62.811-50.082
		c0.362-0.561,0.642-1.162,0.854-1.785c0.265-0.778,0.418-1.591,0.439-2.414c0.013-0.494-0.02-0.991-0.099-1.486
		c-0.003-0.02-0.008-0.039-0.011-0.058c-0.209-1.305-0.457-2.629-0.724-3.968c-0.167-0.862-0.342-1.721-0.527-2.577
		c17.198-0.679,34.037-3.958,50.287-9.783c-16.518,67.269-72.043,116.766-140.186,125.956c-0.556-0.045-1.118-0.042-1.681,0.028
		c-7.065,0.9-13.1,1.38-18.763,1.492c-0.86,0.013-1.72,0.027-2.583,0.027c-11.95,0-24-1.3-35.815-3.861
		c-0.055-0.012-0.112-0.016-0.167-0.027c-75.483-16.521-132.164-83.889-132.164-164.257c0-27.901,7.049-55.384,20.452-79.986
		c3.265,1.71,6.697,3.176,10.281,4.365c0.151,0.05,0.302,0.084,0.454,0.126c6.775,2.206,13.885,3.347,21.14,3.347
		c4.486,0,8.122-3.635,8.122-8.122c0-4.487-3.637-8.122-8.122-8.122c-10.797,0-21.189-3.3-30.053-9.544
		c-0.253-0.179-0.517-0.338-0.785-0.484c-5.612-4.088-10.324-9.231-13.89-15.102c-0.261-0.613-0.6-1.187-1-1.716
		c-4.238-7.613-6.602-16.337-6.602-25.495c0-13.152,4.887-25.177,12.928-34.381c0.3-0.343,0.598-0.688,0.905-1.021
		c0.324-0.352,0.657-0.696,0.991-1.04c0.285-0.293,0.571-0.585,0.861-0.871c0.362-0.355,0.729-0.705,1.1-1.049
		c0.272-0.252,0.547-0.5,0.823-0.746c0.397-0.353,0.798-0.704,1.206-1.046c0.258-0.215,0.52-0.423,0.781-0.634
		c0.434-0.35,0.87-0.698,1.315-1.034c0.233-0.175,0.472-0.342,0.707-0.513c0.482-0.351,0.964-0.703,1.458-1.037
		c0.09-0.061,0.182-0.116,0.272-0.175c1.053-0.703,2.137-1.362,3.242-1.989c0.295-0.167,0.586-0.342,0.884-0.504
		c0.393-0.213,0.796-0.409,1.194-0.613c0.413-0.21,0.823-0.422,1.24-0.622c0.364-0.173,0.734-0.335,1.102-0.499
		c0.468-0.209,0.936-0.417,1.409-0.613c0.343-0.142,0.691-0.275,1.037-0.409c0.512-0.198,1.027-0.392,1.546-0.575
		c0.326-0.115,0.653-0.224,0.982-0.332c0.551-0.182,1.106-0.354,1.663-0.518c0.312-0.091,0.624-0.181,0.938-0.266
		c0.583-0.158,1.17-0.304,1.759-0.443c0.302-0.071,0.602-0.144,0.905-0.21c0.61-0.132,1.223-0.247,1.838-0.357
		c0.293-0.053,0.585-0.11,0.879-0.158c0.634-0.102,1.271-0.185,1.909-0.264c0.284-0.035,0.566-0.078,0.851-0.108
		c0.677-0.073,1.357-0.122,2.039-0.169c0.251-0.017,0.499-0.044,0.75-0.057c0.932-0.05,1.868-0.077,2.807-0.077
		c1.035,0,2.063,0.039,3.086,0.099c0.343,0.021,0.683,0.051,1.024,0.078c0.676,0.052,1.349,0.116,2.02,0.194
		c0.406,0.048,0.811,0.097,1.215,0.155c0.599,0.084,1.193,0.184,1.787,0.288c0.426,0.076,0.853,0.142,1.275,0.227
		c0.635,0.128,1.262,0.279,1.889,0.43c0.841,0.204,1.674,0.427,2.499,0.67c0.309,0.091,0.619,0.178,0.926,0.274
		c0.637,0.2,1.266,0.416,1.892,0.64c0.224,0.08,0.447,0.164,0.67,0.246c2.986,1.117,5.844,2.496,8.543,4.115
		c0.141,0.084,0.282,0.169,0.421,0.254c0.613,0.375,1.218,0.76,1.814,1.16c0.182,0.122,0.36,0.25,0.54,0.375
		c0.804,0.553,1.589,1.132,2.36,1.728c0.477,0.371,0.955,0.739,1.42,1.127c0.256,0.212,0.504,0.434,0.755,0.652
		c0.603,0.523,1.2,1.055,1.78,1.608c0.112,0.105,0.223,0.21,0.334,0.316c3.149,3.052,5.954,6.529,8.329,10.394
		c0.11,0.18,0.236,0.347,0.358,0.515c4.654,7.778,7.355,16.853,7.399,26.546l-0.614,10.15c-0.203,3.191-0.419,6.913-0.419,10.698
		c0,20.529,3.679,40.667,10.934,59.852c0,0,0,0.001,0.001,0.001c0.329,0.87,0.666,1.738,1.009,2.604
		c1.264,3.186,4.32,5.128,7.551,5.128c0.996,0,2.01-0.185,2.993-0.574c4.169-1.655,6.208-6.376,4.554-10.546
		c-0.311-0.783-0.615-1.569-0.914-2.359c0-0.001,0-0.001-0.001-0.002c-6.559-17.342-9.885-35.545-9.885-54.105
		c0-3.309,0.199-6.726,0.388-9.692l0.631-10.429c0.01-0.164,0.015-0.327,0.015-0.491c0-9.007-1.763-17.605-4.934-25.491
		c9.179-4.101,15.594-13.312,15.594-23.999c0-11.611-7.764-21.621-18.38-25.009c-3.218-17.038-18.221-29.967-36.189-29.967
		c-6.915,0-13.54,1.895-19.284,5.44C166.321,4.38,155.57,0,144.357,0c-24.212,0-43.911,19.699-43.911,43.912
		c0,10.979,4.083,21.314,11.395,29.328c-6.16,9.287-10.11,20.152-11.121,31.85l-50.264,16.755c-3.513,1.171-5.789,4.571-5.535,8.265
		c0.256,3.694,2.977,6.748,6.618,7.425l60.157,11.19c3.355,5.109,7.39,9.759,12.003,13.818
		c-15.227,27.356-23.255,58.047-23.255,89.226c0,100.015,80.042,181.685,179.432,184.322c0.014,0,0.028,0.001,0.042,0.001
		c1.633,0.043,3.272,0.067,4.915,0.067c1.063,0,2.133-0.012,3.214-0.036c3.273-0.057,6.536-0.199,9.786-0.429l-3.798,29.703h-19.609
		l-8.57-19.441c-1.809-4.105-6.606-5.966-10.708-4.155c-4.104,1.81-5.965,6.604-4.155,10.708l10.707,24.287
		c1.297,2.946,4.214,4.846,7.431,4.846h6.515v13.069l-23.079-8.083c-2.355-0.827-4.961-0.52-7.064,0.825l-14.972,9.585
		c-3.777,2.418-4.88,7.442-2.462,11.219c1.551,2.421,4.171,3.744,6.849,3.744c1.499,0,3.015-0.415,4.372-1.283l11.639-7.452
		l23.633,8.277c0.863,0.302,1.772,0.457,2.686,0.457h29.955c4.487,0,8.122-3.635,8.122-8.122s-3.635-8.122-8.122-8.122h-15.315
		v-14.114h9.297c4.087,0,7.538-3.038,8.056-7.092l5.215-40.793c33.436-5.442,64.932-20.017,90.825-42.381
		c33.086-28.577,55.004-67.98,61.717-110.957C467.465,277.459,466.261,274.486,463.87,272.682z M291.474,355.567
		c-0.424-0.033-0.843-0.077-1.264-0.114c-23.388-2.06-43.219-10.88-59.201-26.306c-5.27-5.087-10.123-10.885-14.546-17.4
		c-5.953-8.769-10.133-17.478-12.965-24.551c-0.257-0.641-0.504-1.27-0.739-1.883c-0.047-0.121-0.093-0.241-0.138-0.361
		c-2.159-5.687-3.379-10.069-3.914-12.174c4.501-25.445,24.075-37.905,25.759-38.934c1.063-0.589,2.14-1.157,3.224-1.709
		c0.314-0.16,0.632-0.31,0.949-0.467c0.799-0.396,1.601-0.789,2.411-1.166c0.3-0.14,0.603-0.273,0.904-0.41
		c0.874-0.396,1.752-0.786,2.638-1.16c0.207-0.088,0.415-0.173,0.623-0.259c1.055-0.436,2.115-0.861,3.186-1.265
		c0.038-0.014,0.075-0.028,0.113-0.043c4.818-1.81,9.79-3.282,14.882-4.403c0.127-0.028,0.248-0.068,0.371-0.102
		c7.443-1.611,15.059-2.446,22.707-2.446c47.65,0,88.491,30.585,102.628,74.729c0.061,0.427,0.142,0.852,0.272,1.271
		c1.323,4.26,2.332,8.177,3.06,11.883c-1.271,1.855-2.594,3.665-3.965,5.424c-0.19,0.244-0.388,0.48-0.579,0.722
		c-0.499,0.631-0.998,1.263-1.51,1.88c-0.541,0.654-1.096,1.294-1.65,1.933c-0.17,0.196-0.335,0.397-0.507,0.592
		c-20.499,23.279-49.915,36.789-81.42,36.794c-0.123-0.003-0.245-0.014-0.366-0.023
		C292.117,355.597,291.798,355.578,291.474,355.567z M144.357,16.244c8.823,0,17.206,4.338,22.426,11.604
		c1.391,1.937,3.563,3.164,5.939,3.358c2.379,0.196,4.717-0.668,6.403-2.355c3.893-3.898,9.065-6.043,14.562-6.043
		c11.298,0,20.5,9.147,20.59,20.424c-0.05,1.982,0.628,3.927,1.923,5.456c1.502,1.772,3.691,2.816,6.012,2.868
		c5.497,0.125,9.803,4.513,9.803,9.99c0,4.565-3.064,8.425-7.241,9.637c-1.175-1.64-2.42-3.225-3.732-4.752
		c-0.119-0.14-0.24-0.277-0.361-0.416c-0.426-0.487-0.851-0.975-1.291-1.45c-0.574-0.627-1.162-1.239-1.757-1.842
		c-0.088-0.089-0.175-0.178-0.264-0.265c-11.027-11.056-25.46-17.992-41.176-19.62c-0.105-0.011-0.21-0.023-0.316-0.034
		c-1.046-0.103-2.098-0.184-3.154-0.24c-0.161-0.009-0.323-0.014-0.485-0.022c-1.07-0.05-2.144-0.082-3.224-0.082
		c-1.132,0-2.258,0.03-3.381,0.086c-0.436,0.022-0.866,0.063-1.301,0.092c-0.678,0.047-1.356,0.089-2.031,0.155
		c-0.533,0.052-1.059,0.123-1.589,0.187c-0.567,0.069-1.136,0.134-1.701,0.217c-0.564,0.082-1.122,0.182-1.682,0.279
		c-0.526,0.091-1.053,0.179-1.575,0.282c-0.564,0.112-1.123,0.236-1.682,0.361c-0.517,0.115-1.034,0.231-1.548,0.358
		c-0.541,0.134-1.078,0.279-1.614,0.426c-0.533,0.146-1.065,0.295-1.593,0.454c-0.499,0.149-0.994,0.306-1.489,0.468
		c-0.569,0.185-1.135,0.376-1.698,0.576c-0.44,0.156-0.877,0.316-1.313,0.481c-0.622,0.235-1.239,0.48-1.853,0.732
		c-0.365,0.151-0.73,0.302-1.092,0.459c-0.689,0.298-1.371,0.609-2.049,0.928c-0.279,0.132-0.559,0.262-0.835,0.397
		c-0.761,0.371-1.515,0.76-2.262,1.161c-0.188,0.101-0.378,0.199-0.565,0.302c-0.835,0.457-1.66,0.933-2.477,1.426
		c-0.096,0.057-0.194,0.114-0.289,0.172c-0.901,0.549-1.789,1.12-2.666,1.711c-0.013,0.009-0.027,0.018-0.041,0.027
		c-2.881,1.947-5.631,4.107-8.21,6.494c-3.737-4.781-5.796-10.627-5.796-16.778C116.69,28.656,129.102,16.244,144.357,16.244z
		 M85.417,127.315l15.905-5.302c0.472,2.937,1.141,5.815,1.977,8.629L85.417,127.315z"/>
</g>
<g>
</g>
<g>
</g>
<g>
</g>
<g>
</g>
<g>
</g>
<g>
</g>
<g>
</g>
<g>
</g>
<g>
</g>
<g>
</g>
<g>
</g>
<g>
</g>
<g>
</g>
<g>
</g>
<g>
</g>
</svg>
