<?xml version="1.0" encoding="iso-8859-1"?>
<!-- Generator: Adobe Illustrator 19.0.0, SVG Export Plug-In . SVG Version: 6.00 Build 0)  -->
<svg version="1.1" id="Layer_1" xmlns="http://www.w3.org/2000/svg" xmlns:xlink="http://www.w3.org/1999/xlink" x="0px" y="0px"
	 viewBox="0 0 512.003 512.003" style="enable-background:new 0 0 512.003 512.003;" xml:space="preserve">
<g>
	<g>
		<g>
			<path d="M319.269,316.504c-1.878,0.49-3.792,0.912-5.69,1.252c-4.414,0.794-7.35,5.016-6.557,9.431
				c0.706,3.928,4.129,6.685,7.984,6.685c0.477,0,0.961-0.042,1.447-0.129c2.308-0.415,4.635-0.927,6.917-1.523
				c4.34-1.133,6.941-5.57,5.808-9.909C328.045,317.972,323.61,315.371,319.269,316.504z"/>
			<path d="M293.007,318.176c-37.568-5.946-52.309-38.171-56.903-51.749c-1.438-4.249-6.049-6.525-10.297-5.091
				c-4.249,1.437-6.528,6.047-5.091,10.297c5.54,16.376,23.427,55.256,69.75,62.59c0.431,0.068,0.858,0.101,1.28,0.101
				c3.927-0.001,7.379-2.855,8.013-6.854C300.46,323.038,297.436,318.878,293.007,318.176z"/>
			<path d="M160.09,76.628c-11.726,0.001-21.266,9.54-21.266,21.266c0,11.725,9.54,21.265,21.266,21.265s21.266-9.54,21.266-21.265
				C181.356,86.167,171.816,76.628,160.09,76.628z M160.09,102.914c-2.769,0-5.022-2.253-5.022-5.021
				c0-2.769,2.253-5.022,5.022-5.022c2.769,0.001,5.022,2.254,5.022,5.022S162.859,102.914,160.09,102.914z"/>
			<path d="M463.87,272.682c-2.391-1.804-5.577-2.147-8.299-0.89c-19.883,9.187-40.891,13.972-62.471,14.264
				c-7.226-19.884-19.452-37.786-35.663-51.788c-22.473-19.41-51.226-30.098-80.964-30.098c-14.92,0-29.733,2.739-43.641,7.979
				c-0.147,0.055-0.295,0.113-0.442,0.168c-1.137,0.433-2.267,0.883-3.391,1.349c-0.309,0.128-0.617,0.256-0.926,0.387
				c-0.965,0.409-1.923,0.835-2.878,1.269c-0.388,0.177-0.778,0.349-1.164,0.53c-0.913,0.427-1.817,0.871-2.719,1.32
				c-0.378,0.188-0.76,0.369-1.136,0.561c-1.251,0.639-2.494,1.296-3.723,1.98c-0.081,0.045-0.162,0.092-0.243,0.141
				c-0.448,0.268-1.424,0.875-2.766,1.819c-0.038,0.027-0.07,0.049-0.109,0.076c-0.271,0.192-0.557,0.397-0.856,0.616
				c-0.011,0.009-0.022,0.015-0.032,0.024c-0.304,0.223-0.624,0.462-0.954,0.714c-0.008,0.005-0.014,0.011-0.022,0.016
				c-0.265,0.203-0.544,0.42-0.824,0.64c-0.08,0.063-0.155,0.119-0.236,0.183c-0.283,0.224-0.577,0.464-0.873,0.706
				c-0.084,0.069-0.165,0.132-0.251,0.203c-0.295,0.244-0.6,0.504-0.906,0.765c-0.095,0.08-0.185,0.155-0.28,0.237
				c-0.307,0.264-0.623,0.545-0.94,0.826c-0.102,0.09-0.199,0.173-0.301,0.265c-0.323,0.289-0.652,0.596-0.983,0.903
				c-0.102,0.095-0.201,0.183-0.304,0.279c-0.295,0.276-0.595,0.57-0.895,0.86c-0.145,0.141-0.288,0.274-0.434,0.418
				c-0.292,0.288-0.589,0.592-0.886,0.893c-0.157,0.159-0.311,0.311-0.469,0.473c-0.282,0.29-0.566,0.598-0.85,0.901
				c-0.177,0.188-0.352,0.368-0.53,0.562c-0.299,0.325-0.6,0.667-0.901,1.006c-0.164,0.184-0.326,0.359-0.49,0.547
				c-0.319,0.366-0.639,0.749-0.958,1.13c-0.146,0.174-0.294,0.341-0.44,0.519c-0.309,0.375-0.617,0.766-0.925,1.154
				c-0.158,0.198-0.315,0.389-0.473,0.59c-0.299,0.383-0.596,0.785-0.892,1.183c-0.165,0.221-0.331,0.432-0.495,0.657
				c-0.288,0.394-0.573,0.806-0.859,1.212c-0.17,0.243-0.342,0.477-0.512,0.723c-0.263,0.383-0.521,0.784-0.781,1.179
				c-0.188,0.286-0.379,0.563-0.565,0.854c-0.272,0.426-0.537,0.869-0.804,1.306c-0.168,0.275-0.34,0.541-0.506,0.822
				c-0.271,0.457-0.534,0.931-0.799,1.401c-0.156,0.277-0.316,0.545-0.471,0.825c-0.244,0.445-0.479,0.909-0.717,1.366
				c-0.168,0.322-0.34,0.634-0.504,0.961c-0.225,0.449-0.441,0.916-0.661,1.376c-0.167,0.35-0.339,0.691-0.503,1.047
				c-0.224,0.49-0.435,0.997-0.652,1.499c-0.147,0.342-0.301,0.676-0.445,1.023c-0.205,0.496-0.396,1.01-0.592,1.517
				c-0.143,0.37-0.293,0.731-0.432,1.107c-0.158,0.429-0.302,0.874-0.454,1.309c-0.164,0.471-0.334,0.935-0.49,1.415
				c-0.146,0.451-0.276,0.916-0.416,1.375c-0.146,0.483-0.3,0.957-0.438,1.448c-0.165,0.587-0.311,1.193-0.464,1.793
				c-0.096,0.379-0.201,0.748-0.292,1.133c-0.192,0.809-0.363,1.636-0.531,2.468c-0.038,0.188-0.083,0.37-0.12,0.56
				c-0.198,1.027-0.378,2.071-0.538,3.132c-0.145,0.962-0.115,1.94,0.086,2.888c0.012,0.059,0.043,0.201,0.093,0.422
				c0.044,0.194,0.106,0.46,0.182,0.772c0.064,0.265,0.141,0.573,0.229,0.918c0.75,2.95,2.391,8.738,5.307,16.065
				c0.021,0.051,0.043,0.105,0.064,0.157c1.085,2.716,2.346,5.641,3.799,8.707c2.837,5.986,6.409,12.508,10.866,19.074
				c3.229,4.756,6.688,9.197,10.365,13.319c0.013,0.015,0.026,0.03,0.04,0.045c1.409,1.578,2.851,3.105,4.323,4.587
				c0.071,0.071,0.14,0.146,0.211,0.218c1.138,1.141,2.302,2.245,3.477,3.329c1.218,1.124,2.451,2.228,3.708,3.291
				c0.343,0.289,0.693,0.567,1.039,0.852c0.485,0.4,0.966,0.805,1.457,1.196c0.11,0.088,0.224,0.171,0.335,0.259
				c8.777,6.943,18.445,12.435,28.882,16.424c1.096,0.419,2.198,0.822,3.312,1.206c4.424,1.532,8.977,2.81,13.658,3.809
				c5.379,1.148,10.924,1.941,16.619,2.371c0.14,0.011,0.35,0.02,0.49,0.023c0.123,0.003,0.245,0.015,0.366,0.023
				c0.493,0.034,0.985,0.063,1.488,0.063c14.642,0,28.892-2.536,42.229-7.324c25.462-9.141,47.602-26.492,62.81-50.082
				c0.362-0.561,0.642-1.162,0.854-1.785c0.265-0.778,0.418-1.591,0.439-2.414c0.013-0.494-0.019-0.991-0.099-1.486
				c-0.003-0.02-0.008-0.039-0.011-0.058c-0.209-1.304-0.457-2.629-0.724-3.967c-0.167-0.862-0.342-1.721-0.527-2.578
				c17.198-0.679,34.037-3.958,50.287-9.783c-16.518,67.269-72.043,116.766-140.187,125.956c-0.556-0.045-1.118-0.042-1.68,0.028
				c-7.065,0.9-13.1,1.38-18.763,1.492c-0.86,0.013-1.72,0.027-2.583,0.027c-11.95,0-24-1.3-35.815-3.861
				c-0.055-0.012-0.109-0.016-0.165-0.027c-75.484-16.521-132.166-83.889-132.166-164.257c0-27.901,7.049-55.384,20.452-79.986
				c3.265,1.71,6.697,3.176,10.281,4.365c0.151,0.05,0.303,0.086,0.455,0.126c6.774,2.206,13.885,3.347,21.14,3.347
				c4.486,0,8.122-3.635,8.122-8.122s-3.636-8.122-8.122-8.122c-10.797,0-21.189-3.3-30.053-9.544
				c-0.253-0.179-0.517-0.338-0.785-0.484c-5.612-4.088-10.324-9.231-13.89-15.102c-0.261-0.613-0.6-1.187-1-1.716
				c-4.236-7.613-6.602-16.336-6.602-25.495c0-13.153,4.89-25.18,12.931-34.384c0.298-0.341,0.596-0.684,0.902-1.017
				c0.325-0.353,0.66-0.698,0.994-1.043c0.284-0.292,0.569-0.583,0.859-0.869c0.362-0.355,0.73-0.705,1.101-1.05
				c0.272-0.251,0.546-0.499,0.822-0.745c0.397-0.353,0.798-0.704,1.206-1.046c0.258-0.216,0.52-0.423,0.781-0.634
				c0.435-0.35,0.871-0.7,1.317-1.035c0.232-0.174,0.47-0.34,0.705-0.511c0.483-0.351,0.965-0.704,1.46-1.039
				c0.09-0.061,0.183-0.116,0.274-0.177c1.052-0.702,2.133-1.36,3.237-1.986c0.296-0.168,0.588-0.344,0.887-0.506
				c0.393-0.213,0.795-0.409,1.193-0.612c0.413-0.21,0.824-0.423,1.242-0.622c0.363-0.172,0.732-0.334,1.1-0.498
				c0.468-0.209,0.937-0.418,1.411-0.614c0.343-0.142,0.69-0.275,1.036-0.409c0.512-0.198,1.028-0.392,1.546-0.575
				c0.326-0.115,0.653-0.224,0.982-0.332c0.551-0.181,1.106-0.353,1.663-0.517c0.312-0.091,0.625-0.182,0.939-0.268
				c0.583-0.158,1.17-0.304,1.758-0.443c0.302-0.071,0.602-0.144,0.906-0.21c0.61-0.132,1.223-0.247,1.838-0.357
				c0.293-0.053,0.585-0.11,0.879-0.158c0.634-0.102,1.271-0.185,1.909-0.264c0.284-0.035,0.566-0.078,0.851-0.108
				c0.677-0.073,1.357-0.122,2.039-0.169c0.251-0.017,0.499-0.044,0.75-0.057c0.932-0.05,1.868-0.077,2.807-0.077
				c1.035,0,2.063,0.039,3.086,0.099c0.343,0.021,0.683,0.051,1.024,0.078c0.676,0.052,1.349,0.116,2.02,0.194
				c0.406,0.048,0.811,0.097,1.215,0.155c0.599,0.084,1.193,0.184,1.787,0.288c0.426,0.076,0.853,0.142,1.275,0.227
				c0.635,0.128,1.262,0.279,1.889,0.43c0.841,0.204,1.674,0.427,2.499,0.67c0.309,0.091,0.619,0.178,0.926,0.274
				c0.637,0.2,1.266,0.416,1.892,0.64c0.224,0.08,0.447,0.164,0.67,0.246c2.986,1.117,5.844,2.496,8.543,4.115
				c0.141,0.084,0.282,0.169,0.421,0.255c0.613,0.375,1.218,0.76,1.814,1.16c0.182,0.122,0.36,0.25,0.54,0.375
				c0.804,0.553,1.589,1.132,2.36,1.728c0.477,0.371,0.955,0.739,1.42,1.127c0.256,0.212,0.504,0.434,0.755,0.652
				c0.603,0.523,1.2,1.055,1.78,1.608c0.112,0.105,0.223,0.21,0.333,0.316c3.149,3.052,5.954,6.529,8.329,10.394
				c0.11,0.18,0.236,0.347,0.358,0.516c4.654,7.778,7.355,16.853,7.399,26.546l-0.614,10.15c-0.203,3.191-0.419,6.914-0.419,10.698
				c0,20.529,3.679,40.667,10.934,59.852c0,0,0,0.001,0.001,0.001c0.329,0.87,0.666,1.738,1.009,2.604
				c1.264,3.186,4.32,5.128,7.551,5.128c0.996,0,2.01-0.185,2.993-0.574c4.169-1.655,6.208-6.376,4.555-10.546
				c-0.312-0.784-0.616-1.571-0.916-2.362c-0.001-0.001-0.001-0.003-0.002-0.005c-6.557-17.34-9.882-35.542-9.882-54.098
				c0-3.309,0.199-6.726,0.388-9.692l0.631-10.429c0.01-0.164,0.015-0.327,0.015-0.491c0-9.007-1.763-17.605-4.934-25.491
				c9.179-4.101,15.594-13.312,15.594-23.999c0-11.611-7.764-21.621-18.38-25.009c-3.22-17.044-18.223-29.974-36.19-29.974
				c-6.915,0-13.539,1.895-19.284,5.44C166.32,4.38,155.57,0,144.357,0c-24.212,0-43.911,19.699-43.911,43.912
				c0,10.979,4.083,21.314,11.395,29.328c-6.16,9.287-10.11,20.152-11.12,31.85l-50.264,16.755
				c-3.513,1.171-5.789,4.571-5.535,8.265c0.256,3.694,2.977,6.748,6.618,7.425l60.157,11.19c3.355,5.109,7.39,9.759,12.003,13.818
				c-15.227,27.356-23.255,58.047-23.255,89.226c0,100.015,80.042,181.685,179.433,184.322c0.014,0,0.027,0.001,0.041,0.001
				c1.633,0.043,3.272,0.067,4.915,0.067c1.063,0,2.133-0.012,3.214-0.036c3.273-0.057,6.536-0.199,9.786-0.429l-3.798,29.703
				h-19.61l-8.57-19.441c-1.808-4.105-6.607-5.966-10.708-4.155c-4.104,1.81-5.965,6.604-4.155,10.708l10.707,24.287
				c1.297,2.946,4.214,4.846,7.431,4.846h6.515v13.069l-23.077-8.082c-2.355-0.827-4.961-0.521-7.064,0.825l-14.972,9.585
				c-3.777,2.418-4.88,7.442-2.46,11.219c1.551,2.421,4.171,3.744,6.849,3.744c1.499,0,3.015-0.415,4.372-1.283l11.639-7.452
				l23.633,8.277c0.863,0.302,1.772,0.457,2.685,0.457h29.955c4.487,0,8.122-3.635,8.122-8.122s-3.635-8.122-8.122-8.122h-15.315
				v-14.114h9.297c4.087,0,7.538-3.038,8.056-7.092l5.215-40.793c33.436-5.442,64.932-20.017,90.825-42.381
				c33.086-28.577,55.004-67.98,61.717-110.957C467.464,277.459,466.261,274.486,463.87,272.682z M378.47,313.722
				c-0.276,0.354-0.562,0.697-0.841,1.048c-0.415,0.519-0.825,1.043-1.248,1.554c-0.655,0.791-1.322,1.568-1.997,2.338
				c-0.054,0.062-0.106,0.126-0.16,0.187c-20.499,23.28-49.916,36.79-81.421,36.795c-0.123-0.003-0.245-0.014-0.366-0.023
				c-0.32-0.025-0.64-0.044-0.964-0.055c-0.424-0.032-0.843-0.077-1.264-0.114c-23.388-2.06-43.219-10.88-59.201-26.306
				c-5.27-5.087-10.123-10.885-14.546-17.4c-5.078-7.479-8.867-14.917-11.63-21.333c-0.011-0.025-0.023-0.052-0.034-0.077
				c-0.464-1.079-0.895-2.125-1.302-3.141c-2.712-6.772-4.188-12.044-4.79-14.419c4.501-25.445,24.075-37.905,25.759-38.934
				c1.063-0.589,2.14-1.157,3.224-1.709c0.314-0.16,0.632-0.31,0.949-0.467c0.799-0.396,1.601-0.789,2.411-1.166
				c0.3-0.14,0.603-0.273,0.904-0.41c0.874-0.396,1.752-0.786,2.638-1.16c0.207-0.088,0.415-0.172,0.622-0.259
				c1.055-0.438,2.116-0.862,3.187-1.265c0.037-0.014,0.075-0.028,0.112-0.042c4.818-1.81,9.79-3.282,14.883-4.403
				c0.127-0.028,0.248-0.068,0.371-0.102c7.443-1.611,15.059-2.446,22.707-2.446c47.65,0,88.491,30.586,102.628,74.729
				c0.061,0.427,0.142,0.852,0.272,1.271c1.323,4.26,2.332,8.177,3.06,11.883C381.162,310.154,379.84,311.963,378.47,313.722z
				 M144.357,16.244c8.823,0,17.206,4.338,22.426,11.604c1.391,1.937,3.563,3.164,5.939,3.358c2.38,0.196,4.718-0.668,6.403-2.355
				c3.893-3.897,9.065-6.043,14.562-6.043c11.298,0,20.5,9.146,20.59,20.424c-0.05,1.982,0.628,3.927,1.923,5.456
				c1.502,1.772,3.691,2.816,6.013,2.868c5.497,0.125,9.803,4.513,9.803,9.99c0,4.565-3.064,8.425-7.241,9.637
				c-1.176-1.641-2.421-3.226-3.734-4.754c-0.117-0.138-0.236-0.273-0.355-0.409c-0.428-0.491-0.855-0.98-1.297-1.458
				c-0.573-0.626-1.159-1.237-1.753-1.838c-0.089-0.089-0.177-0.179-0.265-0.267c-11.026-11.055-25.46-17.991-41.174-19.619
				c-0.105-0.011-0.21-0.023-0.316-0.034c-1.046-0.103-2.098-0.184-3.154-0.24c-0.161-0.009-0.323-0.014-0.485-0.022
				c-1.07-0.05-2.144-0.082-3.224-0.082c-1.132,0-2.258,0.03-3.381,0.086c-0.436,0.022-0.866,0.063-1.301,0.092
				c-0.678,0.047-1.356,0.089-2.029,0.155c-0.533,0.052-1.06,0.123-1.59,0.187c-0.567,0.069-1.136,0.134-1.7,0.217
				c-0.564,0.082-1.122,0.182-1.682,0.279c-0.526,0.091-1.053,0.179-1.575,0.282c-0.564,0.112-1.123,0.236-1.682,0.361
				c-0.517,0.115-1.034,0.231-1.548,0.358c-0.542,0.134-1.078,0.279-1.614,0.426c-0.533,0.146-1.065,0.295-1.593,0.454
				c-0.499,0.149-0.994,0.306-1.489,0.468c-0.569,0.185-1.135,0.376-1.698,0.576c-0.44,0.156-0.877,0.316-1.313,0.481
				c-0.622,0.235-1.239,0.48-1.853,0.732c-0.365,0.151-0.73,0.302-1.092,0.459c-0.689,0.298-1.371,0.609-2.049,0.928
				c-0.279,0.132-0.559,0.262-0.835,0.397c-0.762,0.371-1.515,0.76-2.263,1.161c-0.188,0.101-0.377,0.199-0.564,0.301
				c-0.835,0.457-1.66,0.933-2.477,1.425c-0.096,0.058-0.195,0.114-0.29,0.173c-0.901,0.549-1.79,1.12-2.666,1.711
				c-0.013,0.009-0.026,0.017-0.039,0.025c-2.881,1.947-5.631,4.108-8.21,6.494c-3.737-4.781-5.796-10.627-5.796-16.778
				C116.69,28.656,129.102,16.244,144.357,16.244z M85.417,127.315l15.905-5.302c0.472,2.937,1.141,5.815,1.977,8.629
				L85.417,127.315z"/>
		</g>
	</g>
</g>
<g>
</g>
<g>
</g>
<g>
</g>
<g>
</g>
<g>
</g>
<g>
</g>
<g>
</g>
<g>
</g>
<g>
</g>
<g>
</g>
<g>
</g>
<g>
</g>
<g>
</g>
<g>
</g>
<g>
</g>
</svg>
