<?xml version="1.0" encoding="iso-8859-1"?>
<!-- Generator: Adobe Illustrator 19.0.0, SVG Export Plug-In . SVG Version: 6.00 Build 0)  -->
<svg version="1.1" id="Layer_1" xmlns="http://www.w3.org/2000/svg" xmlns:xlink="http://www.w3.org/1999/xlink" x="0px" y="0px"
	 viewBox="0 0 511.999 511.999" style="enable-background:new 0 0 511.999 511.999;" xml:space="preserve">
<g>
	<g>
		<g>
			<path d="M208.187,200.595c0-21.892-23.167-39.702-51.644-39.702c-28.481,0-51.651,17.811-51.651,39.702
				c0,29.59,38.876,29.59,51.651,29.59C169.316,230.185,208.187,230.185,208.187,200.595z M156.543,214.08
				c-35.547,0-35.547-9.797-35.547-13.486c0-12.791,16.279-23.598,35.547-23.598c19.264,0,35.54,10.806,35.54,23.598
				C192.083,204.284,192.083,214.08,156.543,214.08z"/>
			<path d="M141.121,187.485c-4.448,0-8.052,3.604-8.052,8.052v0.603c0,4.448,3.605,8.052,8.052,8.052
				c4.448,0,8.052-3.604,8.052-8.052v-0.603C149.173,191.089,145.569,187.485,141.121,187.485z"/>
			<path d="M171.966,187.485c-4.448,0-8.052,3.604-8.052,8.052v0.603c0,4.448,3.604,8.052,8.052,8.052s8.052-3.604,8.052-8.052
				v-0.603C180.018,191.089,176.414,187.485,171.966,187.485z"/>
			<path d="M435.157,246.674c0.368,0,0.74-0.025,1.115-0.077c4.405-0.609,7.481-4.674,6.87-9.081
				c-8.006-57.813-56.013-88.998-83.917-102.44c-4-1.929-8.818-0.247-10.749,3.76c-1.93,4.006-0.247,8.819,3.76,10.749
				c24.999,12.044,67.979,39.77,74.955,90.142C427.75,243.756,431.201,246.674,435.157,246.674z"/>
			<path d="M436.466,252.001c-4.437-0.188-8.218,3.207-8.436,7.648c-0.071,1.45-0.171,2.92-0.295,4.366
				c-0.384,4.431,2.896,8.333,7.326,8.717c0.237,0.021,0.47,0.03,0.704,0.03c4.132,0,7.649-3.163,8.012-7.357
				c0.143-1.646,0.257-3.319,0.337-4.969C444.332,255.996,440.908,252.219,436.466,252.001z"/>
			<path d="M119.717,153.613c4.39,0,7.941-3.553,7.941-7.932c0-4.388-3.553-7.94-7.941-7.94c-4.388,0-7.938,3.554-7.938,7.94
				C111.779,150.061,115.329,153.613,119.717,153.613z"/>
			<path d="M195.399,153.605c4.389,0,7.94-3.554,7.94-7.932c0-4.389-3.553-7.94-7.94-7.94s-7.94,3.552-7.94,7.94
				C187.459,150.053,191.011,153.605,195.399,153.605z"/>
			<path d="M507.172,111.255c-4.349-5.799-9.15-6.866-12.425-6.74c-7.029,0.271-11.074,6.087-11.815,7.251
				c-0.77,1.211-1.202,2.607-1.252,4.041c-0.932,26.824-18.965,38.872-28.151,43.289c-9.068-12.164-20.198-23.481-33.275-33.667
				c-39.16-30.503-91.113-47.303-146.29-47.303c-0.919,0-1.832,0.026-2.744,0.055c-0.008,0-0.015,0-0.023,0
				c-10.255-3.674-18.928-5.369-21.391-5.81c-1.484-0.464-2.893-0.785-4.258-0.991c-24.618-18.209-55.762-28.22-87.991-28.22
				c-32.235,0-63.378,10.008-87.987,28.221c-1.363,0.206-2.771,0.526-4.254,0.99c-6.419,1.147-54.98,10.804-63.912,41.815
				c-4.664,16.193,2.291,34.384,20.663,54.217c2.062,29.694,16.7,57.271,41.464,77.948c0.906,0.757,1.826,1.499,2.753,2.231
				c2.301,45.189,27.734,86.892,70.735,116.486c0.553,0.381,1.108,0.76,1.666,1.137c0.612,0.412,1.223,0.825,1.841,1.232
				c1.273,0.841,2.557,1.673,3.857,2.491v50.644h-31.452v-65.266c0-4.448-3.604-8.052-8.052-8.052s-8.052,3.604-8.052,8.052v73.318
				v32.164c0,2.614,1.269,5.066,3.403,6.575c1.378,0.974,3.006,1.477,4.65,1.477c0.903,0,1.811-0.152,2.684-0.462l21.093-7.46
				l21.092,7.46c0.023,0.008,0.045,0.012,0.068,0.019c0.074,0.025,0.149,0.041,0.223,0.064c0.306,0.096,0.615,0.173,0.927,0.231
				c0.116,0.021,0.232,0.04,0.348,0.056c0.309,0.044,0.619,0.069,0.93,0.076c0.063,0.001,0.126,0.015,0.19,0.015
				c0.025,0,0.049-0.004,0.074-0.005c0.251-0.002,0.501-0.024,0.75-0.049c0.085-0.009,0.17-0.009,0.254-0.02
				c0.334-0.045,0.665-0.112,0.99-0.198c0.011-0.003,0.023-0.003,0.033-0.006l29.005-7.843l29.002,7.843
				c2.42,0.652,5.005,0.145,6.997-1.38c1.99-1.523,3.157-3.886,3.157-6.393v-32.164v-28.018c16.71,3.332,33.911,5.019,51.268,5.019
				c34.211,0,67.258-6.47,97-18.862c1.778-0.639,6.364-2.382,12.367-5.334v39.143H351.9v-6.933c0-4.448-3.604-8.052-8.052-8.052
				c-4.448,0-8.052,3.604-8.052,8.052v14.985v32.164c0,2.614,1.269,5.066,3.403,6.575c1.379,0.974,3.006,1.477,4.65,1.477
				c0.903,0,1.811-0.152,2.684-0.462l21.093-7.46l21.092,7.46c0.023,0.008,0.045,0.012,0.068,0.019
				c0.073,0.025,0.149,0.041,0.223,0.064c0.306,0.096,0.615,0.173,0.928,0.231c0.116,0.021,0.231,0.04,0.347,0.056
				c0.31,0.044,0.621,0.069,0.932,0.076c0.063,0.001,0.126,0.015,0.189,0.015c0.025,0,0.049-0.004,0.074-0.004
				c0.251-0.002,0.5-0.024,0.749-0.049c0.085-0.009,0.17-0.009,0.256-0.02c0.334-0.045,0.665-0.112,0.99-0.198
				c0.011-0.003,0.023-0.003,0.033-0.006l29.005-7.843l29.002,7.843c2.421,0.652,5.005,0.145,6.997-1.38
				c1.99-1.523,3.158-3.886,3.158-6.393v-32.164c0-0.063-0.008-0.126-0.01-0.189V312.48c13.435-22.128,20.243-45.871,20.243-70.61
				c0-14.688-2.439-29.065-7.143-42.857c18.313-11.78,30.79-29.37,35.397-50.218C513.471,133.775,512.218,117.987,507.172,111.255z
				 M144.383,449.399l-13.04-4.612c-1.739-0.616-3.635-0.614-5.371,0l-13.041,4.612v-12.723h31.452V449.399z M242.171,87.247
				c0.055-0.002,0.119-0.004,0.196-0.004c0.081-0.002,0.123,0.002,0.185,0.002c0.008-0.001,0.015-0.001,0.02,0
				c0.041,0,0.079-0.005,0.12-0.006c0.534,0.045,1.381,0.19,2.644,0.61c0.404,0.135,0.818,0.237,1.237,0.306
				c4.555,0.747,11.915,2.483,19.694,5.295c0.273,0.137,0.553,0.266,0.846,0.375c12.646,4.659,28.341,12.921,31.301,25.825
				c3.057,13.322-8.66,28.942-19.026,39.701c0,0,0,0-0.001,0.001c-3.541,3.671-6.77,6.773-10.16,9.767
				c-0.21,0.148-0.524,0.303-0.778,0.378c-0.094,0.027-0.184,0.046-0.253,0.046c-0.048,0-0.17-0.042-0.35-0.155
				c-0.163-0.101-0.381-0.271-0.633-0.508c-0.028-0.027-0.05-0.043-0.079-0.071c-0.58-0.566-1.354-1.529-2.227-3.12
				c-3.536-6.444-11.43-24.302-17.139-42.167C239.999,99.214,240.985,89.399,242.171,87.247z M35.734,159.346
				c-0.191-0.199-0.403-0.367-0.61-0.543c-15.02-15.742-21.311-29.477-18.249-40.142c5.422-18.89,39.147-28.427,51.677-30.505
				c0.42-0.069,0.833-0.171,1.237-0.306c1.3-0.432,2.157-0.58,2.687-0.62c0.06,0.001,0.119,0.014,0.179,0.014
				c0.057,0,0.114,0,0.172-0.002c0.048,0,0.09,0.001,0.129,0.003c1.185,2.149,2.172,11.964-5.601,36.277
				c-5.706,17.853-13.6,35.718-17.136,42.165c-0.218,0.396-0.428,0.754-0.631,1.075c-1.422,2.252-2.462,2.779-2.668,2.779
				c-0.258,0-0.753-0.224-1.041-0.429c-0.008-0.006-0.015-0.014-0.023-0.02C42.481,166.102,39.259,163,35.734,159.346z
				 M77.505,237.127c-17.835-13.635-30.808-31.805-36.452-52.531c0.058,0.021,0.123,0.038,0.182,0.058
				c0.297,0.104,0.603,0.202,0.919,0.294c0.097,0.028,0.19,0.059,0.289,0.086c0.403,0.111,0.819,0.208,1.249,0.292
				c0.102,0.02,0.208,0.034,0.312,0.054c0.348,0.062,0.703,0.113,1.067,0.154c0.133,0.015,0.266,0.03,0.402,0.042
				c0.471,0.042,0.951,0.071,1.448,0.071c0.001,0,0.001,0,0.001,0c4.888,0,11.876-2.119,17.415-12.208
				c3.798-6.92,11.878-25.06,17.949-43.723c10.842-33.333,7.867-44.898,4.562-50.64c20.496-12.838,45.191-19.812,70.711-19.812
				c25.516,0,50.214,6.974,70.719,19.812c-3.306,5.741-6.281,17.307,4.563,50.64c6.069,18.66,14.15,36.799,17.948,43.717
				c5.533,10.093,12.521,12.212,17.41,12.212c0.498,0,0.979-0.029,1.453-0.071c0.133-0.012,0.263-0.026,0.394-0.041
				c0.369-0.042,0.731-0.093,1.084-0.157c0.099-0.017,0.199-0.031,0.296-0.05c0.434-0.085,0.854-0.184,1.259-0.295
				c0.092-0.025,0.179-0.054,0.27-0.079c0.325-0.096,0.642-0.196,0.948-0.304c0.054-0.019,0.114-0.034,0.168-0.054
				c-0.003,0.012-0.005,0.024-0.009,0.034c-0.35,1.282-0.735,2.552-1.14,3.815c-0.063,0.196-0.123,0.393-0.188,0.589
				c-0.397,1.21-0.822,2.41-1.27,3.602c-0.083,0.219-0.166,0.437-0.25,0.655c-0.461,1.196-0.942,2.383-1.452,3.559
				c-0.069,0.159-0.142,0.317-0.211,0.476c-0.527,1.198-1.076,2.387-1.653,3.561c-0.021,0.044-0.041,0.087-0.062,0.131
				c-0.586,1.186-1.203,2.358-1.839,3.52c-0.1,0.181-0.196,0.364-0.297,0.545c-0.618,1.112-1.261,2.213-1.924,3.301
				c-0.123,0.203-0.248,0.405-0.374,0.607c-0.676,1.092-1.371,2.173-2.091,3.24c-0.101,0.149-0.205,0.297-0.307,0.446
				c-0.744,1.09-1.506,2.169-2.296,3.23c-0.027,0.035-0.052,0.072-0.078,0.108c-0.8,1.074-1.629,2.129-2.474,3.174
				c-0.131,0.162-0.261,0.325-0.393,0.487c-0.817,0.998-1.657,1.982-2.514,2.953c-0.161,0.183-0.322,0.363-0.484,0.544
				c-0.871,0.972-1.757,1.931-2.667,2.874c-0.129,0.133-0.26,0.264-0.39,0.396c-0.94,0.965-1.897,1.917-2.878,2.852
				c-0.029,0.028-0.058,0.057-0.087,0.085c-0.992,0.942-2.01,1.864-3.042,2.773c-0.159,0.14-0.316,0.281-0.475,0.42
				c-0.995,0.867-2.011,1.717-3.042,2.553c-0.193,0.157-0.388,0.312-0.582,0.468c-1.042,0.833-2.099,1.653-3.176,2.454
				c-0.156,0.116-0.315,0.23-0.471,0.345c-1.118,0.823-2.25,1.633-3.404,2.42c-0.025,0.017-0.049,0.035-0.075,0.053
				c-1.164,0.792-2.349,1.562-3.548,2.318c-0.181,0.115-0.362,0.231-0.544,0.345c-1.152,0.718-2.322,1.417-3.505,2.1
				c-0.22,0.127-0.441,0.253-0.662,0.38c-1.194,0.679-2.401,1.342-3.625,1.985c-0.178,0.093-0.359,0.185-0.537,0.277
				c-1.273,0.66-2.558,1.307-3.863,1.927c-0.023,0.011-0.044,0.023-0.067,0.032c-1.312,0.624-2.643,1.221-3.985,1.803
				c-0.201,0.087-0.4,0.176-0.601,0.262c-1.288,0.551-2.591,1.08-3.906,1.592c-0.244,0.096-0.488,0.189-0.733,0.282
				c-1.323,0.506-2.656,0.994-4.005,1.46c-0.199,0.069-0.4,0.134-0.6,0.202c-1.406,0.479-2.823,0.94-4.256,1.374
				c-0.017,0.005-0.033,0.011-0.049,0.015c-1.438,0.435-2.891,0.841-4.355,1.23c-0.217,0.058-0.433,0.118-0.651,0.174
				c-1.401,0.365-2.815,0.706-4.237,1.029c-0.265,0.06-0.529,0.119-0.796,0.178c-1.429,0.315-2.869,0.611-4.318,0.881
				c-0.217,0.041-0.435,0.077-0.652,0.117c-1.519,0.277-3.046,0.535-4.585,0.762c-0.009,0.001-0.018,0.003-0.027,0.004
				c-1.542,0.227-3.096,0.422-4.658,0.599c-0.23,0.026-0.457,0.055-0.687,0.079c-1.492,0.162-2.994,0.297-4.503,0.412
				c-0.282,0.021-0.565,0.042-0.848,0.062c-1.514,0.106-3.034,0.191-4.563,0.25c-0.233,0.009-0.466,0.014-0.699,0.021
				c-1.608,0.054-3.223,0.089-4.848,0.089c-28.82,0-56.727-8.927-78.579-25.136C78.517,237.629,78.018,237.358,77.505,237.127z
				 M181.439,444.605l-20.953,5.665v-13.594h46.106v13.594l-20.949-5.665C184.266,444.234,182.816,444.234,181.439,444.605z
				 M383.351,449.399l-13.04-4.612c-1.739-0.616-3.635-0.614-5.371,0l-13.041,4.612v-12.723h31.452V449.399z M420.407,444.605
				l-20.952,5.665v-13.594h46.106v13.594l-20.949-5.665C423.233,444.234,421.784,444.234,420.407,444.605z M446.784,305.913
				c-0.805,1.282-1.233,2.767-1.233,4.282v110.379h-46.115v-48.41c7.954-5.325,16.258-12.158,23.125-20.641
				c2.798-3.456,2.264-8.526-1.192-11.324s-8.527-2.263-11.324,1.192c-6.963,8.601-15.925,15.3-24.019,20.199
				c-1.402,0.781-2.811,1.554-4.234,2.303c-1.373,0.718-2.766,1.419-4.168,2.112c-0.344,0.171-0.685,0.346-1.03,0.514
				c-10.868,5.285-22.594,9.777-35.004,13.396c-0.467,0.136-0.908,0.318-1.33,0.527c-21.027,5.988-43.368,9.081-66.296,9.081
				c-19.548,0-38.87-2.274-57.427-6.76c-2.399-0.579-4.933-0.027-6.872,1.499c-1.939,1.526-3.072,3.86-3.072,6.328v29.986h-46.106
				V365.42c0-1.587-0.48-3.097-1.317-4.385c-0.658-1.011-1.531-1.886-2.6-2.526c-1.201-0.719-2.389-1.449-3.564-2.187
				c-0.482-0.303-0.957-0.612-1.434-0.918c-0.644-0.412-1.288-0.823-1.924-1.241c-0.752-0.494-1.496-0.995-2.236-1.498
				c-0.301-0.204-0.602-0.407-0.902-0.611c-13.668-9.392-25.536-20.255-35.373-32.4c-0.261-0.321-0.547-0.609-0.843-0.879
				c-14.102-17.712-23.227-37.598-26.607-58.515c20.356,11.502,43.92,18.033,68.558,18.856c0.273,0.01,0.546,0.017,0.82,0.026
				c1.496,0.042,2.993,0.071,4.495,0.071c35.255,0,68.648-11.671,94.029-32.862c0.789-0.659,1.568-1.325,2.336-1.998
				c0.24-0.21,0.475-0.426,0.713-0.638c0.522-0.464,1.045-0.927,1.557-1.397c0.292-0.268,0.577-0.541,0.865-0.812
				c0.45-0.421,0.902-0.841,1.344-1.266c0.304-0.292,0.6-0.589,0.9-0.885c0.417-0.409,0.835-0.817,1.245-1.23
				c0.306-0.309,0.604-0.623,0.906-0.933c0.395-0.407,0.791-0.813,1.179-1.224c0.302-0.32,0.597-0.644,0.895-0.967
				c0.376-0.407,0.753-0.813,1.122-1.223c0.301-0.334,0.594-0.672,0.89-1.008c0.356-0.405,0.713-0.808,1.063-1.217
				c0.296-0.346,0.586-0.696,0.878-1.045c0.338-0.405,0.677-0.808,1.01-1.216c0.291-0.357,0.575-0.717,0.861-1.077
				c0.323-0.406,0.645-0.812,0.962-1.22c0.282-0.365,0.559-0.732,0.837-1.1c0.309-0.409,0.617-0.818,0.92-1.229
				c0.275-0.374,0.544-0.75,0.815-1.126c0.294-0.411,0.587-0.821,0.876-1.235c0.266-0.382,0.528-0.767,0.79-1.151
				c0.28-0.413,0.559-0.827,0.834-1.242c0.258-0.39,0.51-0.781,0.762-1.172c0.268-0.417,0.535-0.835,0.797-1.254
				c0.247-0.395,0.49-0.791,0.731-1.188c0.255-0.421,0.508-0.842,0.758-1.265c0.238-0.404,0.472-0.808,0.705-1.214
				c0.242-0.421,0.48-0.843,0.715-1.266c0.228-0.41,0.453-0.821,0.675-1.234c0.23-0.425,0.455-0.852,0.678-1.28
				c0.217-0.415,0.432-0.831,0.643-1.249c0.217-0.428,0.429-0.858,0.641-1.288c0.206-0.421,0.411-0.842,0.611-1.265
				c0.205-0.433,0.406-0.867,0.604-1.303c0.194-0.424,0.388-0.849,0.577-1.275c0.193-0.437,0.381-0.876,0.568-1.315
				c0.184-0.429,0.366-0.859,0.543-1.289c0.18-0.44,0.355-0.881,0.53-1.324c0.172-0.435,0.345-0.869,0.51-1.305
				c0.169-0.444,0.332-0.89,0.495-1.337c0.16-0.437,0.32-0.873,0.473-1.311c0.158-0.451,0.309-0.904,0.461-1.356
				c0.147-0.438,0.295-0.876,0.437-1.315c0.147-0.457,0.286-0.916,0.426-1.375c0.134-0.439,0.271-0.877,0.399-1.317
				c0.136-0.466,0.263-0.935,0.393-1.402c0.12-0.436,0.244-0.871,0.359-1.308c0.127-0.482,0.244-0.966,0.364-1.45
				c0.105-0.426,0.215-0.851,0.315-1.279c0.117-0.501,0.224-1.005,0.335-1.507c0.09-0.414,0.186-0.828,0.272-1.242
				c0.108-0.525,0.205-1.053,0.306-1.58c0.075-0.396,0.156-0.79,0.227-1.187c0.105-0.593,0.199-1.188,0.294-1.784
				c0.054-0.332,0.113-0.662,0.162-0.995c0.13-0.865,0.248-1.734,0.356-2.602c0.009-0.065,0.018-0.13,0.027-0.195
				c0.115-0.939,0.218-1.881,0.307-2.825c0.023-0.237,0.038-0.477,0.059-0.714c0.057-0.648,0.115-1.298,0.16-1.95
				c18.363-19.831,25.315-38.018,20.652-54.206c-2.084-7.234-6.325-13.305-11.683-18.378
				c61.608,6.979,113.771,36.589,141.759,77.462c0.087,0.137,0.18,0.268,0.275,0.399c13.873,20.414,21.731,43.614,21.731,68.203
				C465.794,264.277,459.399,285.824,446.784,305.913z M493.612,148.603c-2.88,10.425-9.577,24.379-25.064,35.228
				c-1.815-3.788-3.809-7.518-5.981-11.187c12.649-6.66,27.998-20.155,33.325-42.226
				C496.057,135.196,495.589,141.45,493.612,148.603z"/>
		</g>
	</g>
</g>
<g>
</g>
<g>
</g>
<g>
</g>
<g>
</g>
<g>
</g>
<g>
</g>
<g>
</g>
<g>
</g>
<g>
</g>
<g>
</g>
<g>
</g>
<g>
</g>
<g>
</g>
<g>
</g>
<g>
</g>
</svg>
