<?xml version="1.0" encoding="iso-8859-1"?>
<!-- Generator: Adobe Illustrator 19.0.0, SVG Export Plug-In . SVG Version: 6.00 Build 0)  -->
<svg version="1.1" id="Layer_1" xmlns="http://www.w3.org/2000/svg" xmlns:xlink="http://www.w3.org/1999/xlink" x="0px" y="0px"
	 viewBox="0 0 511.998 511.998" style="enable-background:new 0 0 511.998 511.998;" xml:space="preserve">
<path style="fill:#EF5252;" d="M450.577,168.944c0,0,37.695-11.01,39.15-52.859c0,0,5.049-7.94,11.003,0
	c5.953,7.941,8.339,55.716-35.88,79.452"/>
<polygon style="fill:#7C797B;" points="128.657,428.623 104.878,428.623 104.878,460.787 128.657,452.376 152.434,460.787 
	152.434,428.623 "/>
<polygon style="fill:#918D8F;" points="183.541,428.623 152.434,428.623 152.434,460.787 183.541,452.376 214.645,460.787 
	214.645,428.623 "/>
<polygon style="fill:#7C797B;" points="367.625,428.623 343.846,428.623 343.846,460.787 367.625,452.376 391.402,460.787 
	391.402,428.623 "/>
<polygon style="fill:#918D8F;" points="422.509,428.623 391.402,428.623 391.402,460.787 422.509,452.376 453.613,460.787 
	453.613,428.623 "/>
<g>
	<path style="fill:#F9A2A2;" d="M67.248,80.207c0,0-113.158,18.568-26.569,95.053c0,0,9.064,8.024,16.599-5.7
		C66.013,153.646,101.361,68.859,67.248,80.207z"/>
	<path style="fill:#F9A2A2;" d="M247.878,80.207c0,0,113.15,18.568,26.559,95.053c0,0-9.064,8.024-16.589-5.7
		C249.112,153.646,213.758,68.859,247.878,80.207z"/>
</g>
<path style="fill:#F98080;" d="M274.437,175.26c0,0-9.064,8.024-16.589-5.7c-8.218-14.976-39.98-90.886-15.297-90.37
	c-22.604-17.349-52.319-27.98-84.992-27.98S95.17,61.84,72.575,79.192c24.683-0.524-7.086,75.394-15.297,90.37
	c-7.535,13.723-16.599,5.7-16.599,5.7c-4.05-3.576-7.527-6.993-10.74-10.325c2.317,58.989,58.484,106.225,127.62,106.225
	s125.302-47.236,127.628-106.225C281.974,168.268,278.496,171.684,274.437,175.26z"/>
<path style="fill:#EF5252;" d="M104.878,324.722v33.536v70.364h47.557v-63.204C133.645,354.182,117.554,340.371,104.878,324.722z"/>
<path style="fill:#F9A2A2;" d="M200.135,200.595c0,17.478-19.517,21.538-43.591,21.538c-24.082,0-43.599-4.058-43.599-21.538
	s19.518-31.65,43.599-31.65C180.618,168.944,200.135,183.116,200.135,200.595z"/>
<polyline style="fill:#EF5252;" points="343.846,387.642 343.846,428.623 391.385,428.623 391.385,367.837 "/>
<path style="fill:#F97373;" d="M273.964,86.177c-1.363,0-2.707,0.068-4.068,0.092c25.961,9.564,60.131,32.133,15.289,78.666
	c-2.327,58.989-58.491,106.225-127.628,106.225c-31.897,0-60.985-10.112-83.376-26.722c1.023,49.3,31.481,92.999,78.253,120.979
	v63.204h62.21v-38.038c18.746,4.532,38.669,6.986,59.32,6.986c43.895,0,84.459-11.054,117.419-29.734v60.785h62.219V310.193
	c12.955-20.632,20.243-43.811,20.243-68.324C473.846,155.887,384.366,86.177,273.964,86.177z"/>
<g style="opacity:0.15;">
	<path style="fill:#231F20;" d="M175.705,349.13c-0.311-0.193-0.627-0.38-0.937-0.574c-0.001,0-0.004-0.002-0.004-0.002h0.001
		c-34.713-21.718-59.932-52.261-70.006-87.268c-11.13-4.372-21.421-10.054-30.576-16.846c1.023,49.3,31.481,92.999,78.253,120.979
		v90.045h25.767V354.679C178.201,351.568,176.724,349.908,175.705,349.13z"/>
</g>
<g style="opacity:0.15;">
	<polygon style="fill:#231F20;" points="130.141,454.077 104.878,454.077 104.878,332.759 130.141,348.014 	"/>
</g>
<g>
	<path style="fill:#231F20;" d="M156.543,230.184c12.773,0,51.644,0,51.644-29.59c0-21.892-23.167-39.702-51.644-39.702
		c-28.481,0-51.651,17.811-51.651,39.702C104.892,230.184,143.768,230.184,156.543,230.184z M156.543,176.996
		c19.264,0,35.54,10.806,35.54,23.598c0,3.689,0,13.486-35.54,13.486c-35.547,0-35.547-9.797-35.547-13.486
		C120.996,187.803,137.275,176.996,156.543,176.996z"/>
	<path style="fill:#231F20;" d="M141.121,204.192c4.448,0,8.052-3.604,8.052-8.052v-0.603c0-4.448-3.604-8.052-8.052-8.052
		c-4.448,0-8.052,3.604-8.052,8.052v0.603C133.069,200.588,136.674,204.192,141.121,204.192z"/>
	<path style="fill:#231F20;" d="M171.966,204.192c4.448,0,8.052-3.604,8.052-8.052v-0.603c0-4.448-3.604-8.052-8.052-8.052
		c-4.448,0-8.052,3.604-8.052,8.052v0.603C163.914,200.588,167.518,204.192,171.966,204.192z"/>
	<path style="fill:#231F20;" d="M435.157,246.673c0.368,0,0.74-0.025,1.115-0.077c4.405-0.609,7.481-4.674,6.87-9.081
		c-8.006-57.813-56.013-88.998-83.917-102.44c-4.001-1.929-8.819-0.247-10.749,3.76c-1.93,4.006-0.247,8.819,3.76,10.749
		c24.999,12.044,67.979,39.77,74.955,90.142C427.75,243.755,431.201,246.673,435.157,246.673z"/>
	<path style="fill:#231F20;" d="M436.466,252.001c-4.441-0.188-8.218,3.207-8.436,7.648c-0.071,1.45-0.171,2.92-0.295,4.366
		c-0.384,4.431,2.896,8.333,7.326,8.717c0.237,0.021,0.47,0.03,0.704,0.03c4.132,0,7.649-3.163,8.012-7.357
		c0.143-1.646,0.257-3.319,0.337-4.969C444.332,255.995,440.908,252.219,436.466,252.001z"/>
	<path style="fill:#231F20;" d="M119.717,153.612c4.39,0,7.941-3.553,7.941-7.932c0-4.388-3.553-7.94-7.941-7.94
		c-4.388,0-7.938,3.554-7.938,7.94C111.779,150.06,115.329,153.612,119.717,153.612z"/>
	<path style="fill:#231F20;" d="M195.399,153.604c4.389,0,7.94-3.554,7.94-7.932c0-4.389-3.553-7.94-7.94-7.94
		s-7.94,3.551-7.94,7.94C187.459,150.052,191.011,153.604,195.399,153.604z"/>
	<path style="fill:#231F20;" d="M507.172,111.254c-4.349-5.799-9.16-6.866-12.425-6.74c-7.029,0.271-11.074,6.087-11.815,7.251
		c-0.77,1.211-1.202,2.607-1.252,4.041c-0.932,26.824-18.965,38.872-28.151,43.289c-9.068-12.164-20.198-23.481-33.275-33.667
		c-39.16-30.503-91.113-47.303-146.29-47.303c-0.919,0-1.832,0.026-2.744,0.055c-0.008,0-0.015,0-0.023,0
		c-10.255-3.674-18.928-5.369-21.391-5.81c-1.484-0.464-2.893-0.785-4.258-0.991c-24.618-18.209-55.762-28.22-87.991-28.22
		c-32.235,0-63.378,10.008-87.987,28.221c-1.363,0.206-2.771,0.526-4.254,0.99c-6.419,1.147-54.98,10.804-63.912,41.815
		c-4.664,16.193,2.291,34.384,20.663,54.218c2.062,29.694,16.7,57.27,41.464,77.948c0.906,0.757,1.826,1.499,2.753,2.231
		c2.301,45.19,27.736,86.893,70.737,116.489c0.551,0.38,1.105,0.758,1.661,1.133c0.613,0.413,1.226,0.828,1.846,1.236
		c1.273,0.841,2.556,1.673,3.856,2.49v50.644h-31.452v-65.266c0-4.448-3.604-8.052-8.052-8.052s-8.052,3.604-8.052,8.052v73.318
		v32.164c0,2.614,1.269,5.066,3.403,6.575c1.379,0.974,3.006,1.477,4.65,1.477c0.903,0,1.811-0.152,2.684-0.462l21.093-7.461
		l21.092,7.461c0.023,0.007,0.045,0.012,0.068,0.019c0.074,0.025,0.149,0.041,0.223,0.064c0.306,0.096,0.615,0.173,0.927,0.231
		c0.116,0.021,0.232,0.04,0.348,0.056c0.309,0.044,0.619,0.069,0.931,0.076c0.063,0.001,0.126,0.015,0.189,0.015
		c0.025,0,0.049-0.004,0.074-0.005c0.251-0.002,0.5-0.024,0.749-0.049c0.085-0.009,0.17-0.009,0.256-0.02
		c0.334-0.045,0.663-0.112,0.99-0.198c0.011-0.003,0.023-0.003,0.033-0.006l29.005-7.843l29.002,7.843
		c2.42,0.652,5.006,0.145,6.997-1.38c1.99-1.523,3.157-3.886,3.157-6.393v-32.164v-28.019c16.71,3.332,33.911,5.019,51.268,5.019
		c34.21,0,67.257-6.47,96.999-18.861c1.778-0.639,6.364-2.382,12.368-5.334v39.143H351.9v-6.933c0-4.448-3.604-8.052-8.052-8.052
		c-4.448,0-8.052,3.604-8.052,8.052v14.985v32.164c0,2.614,1.269,5.066,3.403,6.575c1.379,0.974,3.006,1.477,4.65,1.477
		c0.903,0,1.811-0.152,2.684-0.462l21.093-7.461l21.092,7.461c0.023,0.007,0.045,0.012,0.067,0.019
		c0.074,0.026,0.15,0.042,0.224,0.064c0.306,0.096,0.614,0.172,0.925,0.23c0.116,0.021,0.232,0.04,0.349,0.056
		c0.309,0.044,0.619,0.069,0.93,0.076c0.063,0.001,0.126,0.015,0.19,0.015c0.025,0,0.049-0.004,0.074-0.005
		c0.252-0.002,0.502-0.024,0.753-0.049c0.084-0.009,0.168-0.009,0.251-0.019c0.334-0.045,0.666-0.112,0.991-0.199
		c0.011-0.002,0.021-0.003,0.032-0.006l29.005-7.843l29.002,7.843c2.421,0.652,5.005,0.145,6.997-1.38
		c1.99-1.523,3.158-3.886,3.158-6.393v-32.164c0-0.063-0.008-0.125-0.01-0.187V312.479c13.435-22.128,20.243-45.871,20.243-70.61
		c0-14.688-2.439-29.065-7.143-42.857c18.313-11.78,30.79-29.37,35.397-50.218C513.471,133.774,512.218,117.986,507.172,111.254z
		 M267.213,168.878c-0.028-0.027-0.05-0.043-0.079-0.071c-0.58-0.566-1.354-1.529-2.227-3.12
		c-3.536-6.444-11.43-24.302-17.139-42.167c-7.769-24.306-6.782-34.121-5.597-36.274c0.055-0.002,0.119-0.004,0.196-0.004
		c0.072-0.002,0.123,0.002,0.185,0.002c0.008-0.001,0.015-0.001,0.02,0c0.041,0,0.081-0.005,0.12-0.006
		c0.534,0.045,1.381,0.19,2.644,0.61c0.404,0.135,0.818,0.237,1.237,0.306c4.555,0.747,11.915,2.483,19.694,5.295
		c0.273,0.137,0.553,0.266,0.846,0.375c12.646,4.659,28.341,12.921,31.301,25.825c3.057,13.322-8.66,28.942-19.026,39.701l0,0
		c-3.541,3.672-6.771,6.774-10.161,9.768c-0.21,0.148-0.524,0.303-0.777,0.378c-0.094,0.027-0.184,0.046-0.253,0.046
		c-0.048,0-0.17-0.042-0.35-0.155C267.683,169.285,267.465,169.115,267.213,168.878z M16.875,118.66
		c5.422-18.89,39.147-28.427,51.677-30.505c0.42-0.069,0.833-0.171,1.237-0.306c1.3-0.432,2.158-0.58,2.687-0.619
		c0.06,0.001,0.118,0.014,0.179,0.014c0.057,0,0.114,0,0.172-0.002c0.048,0,0.09,0.001,0.129,0.003
		c1.185,2.149,2.172,11.964-5.601,36.277c-5.706,17.853-13.6,35.718-17.136,42.165c-1.739,3.167-3.063,3.853-3.299,3.854
		c-0.258,0-0.753-0.224-1.041-0.429c-0.011-0.01-0.02-0.018-0.031-0.028c-3.372-2.986-6.592-6.084-10.113-9.737
		c-0.191-0.199-0.403-0.367-0.61-0.542C20.105,143.06,13.813,129.325,16.875,118.66z M41.053,184.595
		c0.059,0.021,0.125,0.038,0.184,0.059c0.296,0.104,0.601,0.202,0.916,0.293c0.098,0.028,0.191,0.059,0.29,0.086
		c0.403,0.111,0.818,0.208,1.249,0.292c0.102,0.02,0.208,0.034,0.312,0.054c0.348,0.062,0.703,0.113,1.067,0.154
		c0.133,0.015,0.266,0.03,0.402,0.042c0.471,0.042,0.951,0.071,1.448,0.071c0.001,0,0.001,0,0.001,0
		c4.888,0,11.876-2.119,17.415-12.208c3.798-6.92,11.878-25.06,17.949-43.723c10.842-33.333,7.867-44.898,4.562-50.64
		c20.497-12.838,45.192-19.812,70.712-19.812c25.516,0,50.214,6.974,70.719,19.812c-3.306,5.741-6.281,17.307,4.563,50.64
		c6.069,18.66,14.15,36.799,17.947,43.717c5.533,10.093,12.521,12.212,17.41,12.212c0.498,0,0.979-0.029,1.453-0.071
		c0.133-0.012,0.263-0.026,0.394-0.041c0.369-0.042,0.731-0.093,1.084-0.157c0.099-0.017,0.199-0.031,0.296-0.05
		c0.434-0.085,0.854-0.184,1.259-0.295c0.092-0.025,0.179-0.054,0.269-0.079c0.325-0.096,0.642-0.196,0.948-0.304
		c0.054-0.019,0.114-0.034,0.167-0.054c-0.003,0.012-0.005,0.024-0.009,0.034c-0.35,1.282-0.735,2.552-1.14,3.815
		c-0.063,0.196-0.123,0.393-0.188,0.589c-0.397,1.21-0.822,2.41-1.27,3.602c-0.083,0.219-0.166,0.437-0.25,0.655
		c-0.461,1.196-0.942,2.383-1.452,3.559c-0.069,0.159-0.142,0.317-0.212,0.476c-0.527,1.198-1.076,2.387-1.653,3.561
		c-0.021,0.044-0.041,0.087-0.062,0.131c-0.586,1.186-1.204,2.358-1.839,3.52c-0.1,0.181-0.196,0.364-0.297,0.545
		c-0.618,1.112-1.261,2.213-1.924,3.301c-0.123,0.203-0.248,0.405-0.374,0.607c-0.676,1.092-1.371,2.173-2.091,3.24
		c-0.101,0.149-0.205,0.297-0.307,0.446c-0.744,1.09-1.506,2.169-2.296,3.23c-0.027,0.035-0.052,0.072-0.078,0.108
		c-0.8,1.074-1.629,2.129-2.474,3.174c-0.131,0.162-0.261,0.325-0.393,0.487c-0.817,0.998-1.657,1.982-2.514,2.953
		c-0.161,0.183-0.322,0.363-0.484,0.544c-0.871,0.972-1.757,1.931-2.667,2.874c-0.129,0.133-0.26,0.264-0.389,0.396
		c-0.942,0.966-1.9,1.921-2.883,2.855c-0.028,0.027-0.055,0.054-0.083,0.081c-0.992,0.943-2.01,1.864-3.043,2.774
		c-0.159,0.14-0.316,0.28-0.475,0.42c-0.996,0.867-2.012,1.718-3.044,2.554c-0.192,0.156-0.384,0.31-0.578,0.465
		c-1.044,0.835-2.102,1.656-3.181,2.459c-0.154,0.115-0.31,0.227-0.465,0.34c-1.119,0.825-2.252,1.634-3.408,2.423
		c-0.026,0.017-0.049,0.035-0.075,0.053c-1.164,0.793-2.35,1.563-3.55,2.319c-0.18,0.114-0.36,0.23-0.541,0.342
		c-1.153,0.718-2.323,1.417-3.506,2.101c-0.22,0.127-0.441,0.253-0.662,0.38c-1.195,0.68-2.403,1.343-3.627,1.986
		c-0.176,0.092-0.355,0.183-0.533,0.275c-1.277,0.662-2.565,1.31-3.871,1.931c-0.019,0.01-0.039,0.019-0.058,0.028
		c-1.313,0.624-2.644,1.222-3.987,1.804c-0.201,0.087-0.4,0.176-0.601,0.262c-1.288,0.551-2.592,1.081-3.907,1.593
		c-0.244,0.094-0.486,0.189-0.731,0.281c-1.324,0.506-2.658,0.995-4.007,1.461c-0.199,0.069-0.398,0.134-0.597,0.202
		c-1.408,0.479-2.826,0.942-4.26,1.375c-0.016,0.004-0.031,0.01-0.046,0.015c-1.438,0.435-2.892,0.841-4.356,1.23
		c-0.217,0.058-0.433,0.117-0.65,0.174c-1.401,0.365-2.815,0.706-4.238,1.03c-0.264,0.06-0.529,0.119-0.794,0.177
		c-1.43,0.315-2.869,0.611-4.319,0.881c-0.216,0.041-0.434,0.077-0.651,0.117c-1.519,0.276-3.046,0.535-4.585,0.762
		c-0.01,0.001-0.018,0.003-0.028,0.004c-1.542,0.227-3.096,0.422-4.658,0.599c-0.23,0.026-0.457,0.055-0.687,0.079
		c-1.492,0.162-2.994,0.297-4.503,0.412c-0.282,0.021-0.565,0.042-0.848,0.062c-1.514,0.106-3.034,0.191-4.563,0.25
		c-0.232,0.009-0.466,0.014-0.699,0.021c-1.608,0.054-3.224,0.089-4.848,0.089c-28.82,0-56.727-8.927-78.579-25.136
		c-0.463-0.344-0.962-0.614-1.474-0.846C59.67,223.491,46.697,205.321,41.053,184.595z M125.972,444.786l-13.041,4.612v-12.723
		h31.452v12.723l-13.04-4.612C129.604,444.17,127.708,444.172,125.972,444.786z M206.593,450.27l-20.95-5.665
		c-1.377-0.371-2.827-0.371-4.204,0l-20.953,5.665v-13.594h46.106v13.594H206.593z M364.94,444.786l-13.041,4.612v-12.723h31.452
		v12.723l-13.04-4.612C368.572,444.17,366.676,444.172,364.94,444.786z M445.561,450.27l-20.95-5.665
		c-1.377-0.371-2.827-0.371-4.204,0l-20.953,5.665v-13.594h46.106v13.594H445.561z M446.784,305.912
		c-0.805,1.282-1.233,2.767-1.233,4.282v110.379h-46.115v-48.41c7.954-5.325,16.258-12.158,23.125-20.641
		c2.798-3.456,2.264-8.526-1.192-11.324c-3.456-2.798-8.527-2.263-11.324,1.192c-6.963,8.601-15.924,15.3-24.018,20.198
		c-1.402,0.78-2.81,1.553-4.233,2.303c-1.374,0.719-2.769,1.421-4.173,2.114c-0.341,0.17-0.682,0.344-1.024,0.512
		c-10.868,5.285-22.595,9.777-35.005,13.398c-0.467,0.136-0.908,0.318-1.33,0.527c-21.026,5.987-43.368,9.081-66.296,9.081
		c-19.548,0-38.87-2.274-57.427-6.76c-2.401-0.579-4.932-0.027-6.872,1.499c-1.94,1.527-3.072,3.86-3.072,6.328v29.986H160.49
		V365.42c0-1.72-0.555-3.357-1.53-4.708c-0.029-0.04-0.052-0.084-0.081-0.123c-0.018-0.025-0.041-0.045-0.06-0.07
		c-0.609-0.792-1.363-1.479-2.248-2.009c-1.201-0.718-2.387-1.448-3.561-2.185c-0.487-0.306-0.967-0.619-1.452-0.93
		c-0.638-0.408-1.277-0.816-1.908-1.23c-0.754-0.496-1.5-0.998-2.244-1.503c-0.298-0.202-0.598-0.403-0.894-0.605
		c-13.669-9.393-25.537-20.255-35.375-32.401c-0.26-0.321-0.545-0.609-0.842-0.879c-14.102-17.713-23.227-37.599-26.608-58.516
		c20.356,11.502,43.92,18.033,68.558,18.856c0.273,0.01,0.546,0.017,0.82,0.026c1.496,0.042,2.993,0.071,4.495,0.071
		c35.255,0,68.648-11.671,94.029-32.862c0.789-0.659,1.567-1.325,2.336-1.998c0.24-0.21,0.475-0.426,0.713-0.638
		c0.522-0.464,1.045-0.927,1.557-1.397c0.29-0.266,0.571-0.537,0.858-0.805c0.453-0.424,0.908-0.846,1.353-1.274
		c0.302-0.29,0.595-0.585,0.892-0.877c0.419-0.411,0.84-0.821,1.252-1.237c0.306-0.309,0.604-0.623,0.906-0.933
		c0.395-0.407,0.791-0.813,1.179-1.224c0.303-0.321,0.599-0.646,0.898-0.969c0.375-0.405,0.75-0.809,1.118-1.219
		c0.302-0.336,0.598-0.676,0.895-1.015c0.354-0.403,0.71-0.805,1.059-1.212c0.296-0.347,0.586-0.696,0.878-1.045
		c0.338-0.405,0.677-0.808,1.01-1.216c0.291-0.357,0.577-0.718,0.862-1.078c0.322-0.405,0.643-0.808,0.959-1.216
		c0.283-0.367,0.563-0.737,0.842-1.106c0.308-0.408,0.615-0.815,0.917-1.225c0.275-0.374,0.544-0.75,0.815-1.127
		c0.294-0.411,0.587-0.821,0.876-1.235c0.266-0.382,0.528-0.767,0.79-1.151c0.28-0.413,0.559-0.827,0.834-1.242
		c0.258-0.39,0.511-0.782,0.762-1.173c0.267-0.415,0.533-0.832,0.793-1.25c0.249-0.398,0.494-0.798,0.736-1.198
		c0.253-0.417,0.505-0.835,0.752-1.254c0.238-0.405,0.475-0.812,0.707-1.219c0.241-0.42,0.479-0.842,0.714-1.264
		c0.229-0.412,0.455-0.825,0.679-1.238c0.228-0.422,0.451-0.845,0.673-1.269c0.22-0.42,0.437-0.842,0.651-1.264
		c0.214-0.423,0.424-0.847,0.632-1.272c0.208-0.426,0.415-0.852,0.619-1.281c0.203-0.427,0.4-0.857,0.598-1.287
		c0.197-0.428,0.392-0.858,0.582-1.288c0.192-0.434,0.378-0.87,0.565-1.306c0.185-0.433,0.368-0.864,0.546-1.298
		c0.18-0.438,0.354-0.878,0.528-1.318c0.173-0.436,0.345-0.871,0.511-1.309c0.167-0.441,0.33-0.885,0.492-1.328
		c0.161-0.441,0.323-0.881,0.479-1.324c0.156-0.446,0.305-0.892,0.455-1.34c0.149-0.443,0.298-0.886,0.441-1.33
		c0.145-0.453,0.282-0.907,0.422-1.362c0.135-0.443,0.274-0.886,0.403-1.33c0.134-0.462,0.261-0.924,0.389-1.388
		c0.122-0.44,0.247-0.88,0.363-1.323c0.125-0.472,0.239-0.948,0.358-1.424c0.108-0.436,0.22-0.871,0.322-1.308
		c0.114-0.486,0.218-0.976,0.325-1.464c0.094-0.428,0.192-0.856,0.281-1.285c0.106-0.516,0.202-1.035,0.301-1.552
		c0.077-0.404,0.159-0.805,0.231-1.21c0.104-0.583,0.195-1.169,0.29-1.755c0.055-0.342,0.116-0.683,0.167-1.026
		c0.13-0.862,0.247-1.726,0.354-2.593c0.009-0.068,0.019-0.135,0.028-0.203c0.115-0.939,0.218-1.881,0.307-2.825
		c0.023-0.237,0.038-0.477,0.059-0.714c0.057-0.648,0.115-1.298,0.16-1.95c18.363-19.831,25.315-38.017,20.652-54.206
		c-2.084-7.234-6.325-13.305-11.683-18.378c61.608,6.98,113.772,36.589,141.759,77.463c0.087,0.137,0.18,0.268,0.275,0.398
		c13.873,20.414,21.731,43.614,21.731,68.203C465.794,264.276,459.399,285.823,446.784,305.912z M493.612,148.603
		c-2.881,10.425-9.577,24.379-25.064,35.228c-1.815-3.788-3.81-7.518-5.981-11.187c12.649-6.66,27.998-20.155,33.325-42.226
		C496.057,135.195,495.589,141.449,493.612,148.603z"/>
</g>
<g style="opacity:0.15;">
	<rect x="343.843" y="381.978" style="fill:#231F20;" width="17.178" height="76.527"/>
</g>
<g style="opacity:0.15;">
	<rect x="399.542" y="357.993" style="fill:#231F20;" width="17.178" height="100.511"/>
</g>
<g>
</g>
<g>
</g>
<g>
</g>
<g>
</g>
<g>
</g>
<g>
</g>
<g>
</g>
<g>
</g>
<g>
</g>
<g>
</g>
<g>
</g>
<g>
</g>
<g>
</g>
<g>
</g>
<g>
</g>
</svg>
