<?xml version="1.0" encoding="iso-8859-1"?>
<!-- Generator: Adobe Illustrator 19.0.0, SVG Export Plug-In . SVG Version: 6.00 Build 0)  -->
<svg version="1.1" id="Layer_1" xmlns="http://www.w3.org/2000/svg" xmlns:xlink="http://www.w3.org/1999/xlink" x="0px" y="0px"
	 viewBox="0 0 512 512" style="enable-background:new 0 0 512 512;" xml:space="preserve">
<g>
	<g>
		<g>
			<path d="M512,228.809c0-15.926-9.008-30.255-22.556-37.498c18.536-31.686,16.086-59.369,10.457-77.424
				c-6.463-20.732-18.328-33.362-18.83-33.89c-3.063-3.219-8.156-3.344-11.377-0.283c-3.22,3.063-3.346,8.158-0.283,11.378
				c0.356,0.374,31.804,34.313,11.653,81.204c-7.581-17.924-25.336-30.538-45.99-30.538c-3.15,0-6.293,0.33-9.492,1.001
				c-11.32-20.509-32.862-33.416-56.679-33.416c-11.981,0-23.667,3.344-33.793,9.56c-11.797-22.235-35.055-36.568-60.749-36.568
				c-22.208,0-42.732,10.681-55.563,28.404c-0.923-0.68-1.814-1.312-2.664-1.889c0.018-0.417,0.032-0.836,0.032-1.258
				c0-11.056-6.472-20.872-16.251-25.399c-4.173-14.845-17.319-25.768-32.777-26.937c-4.797-15.072-18.785-25.697-35.13-25.697
				c-17.758,0-32.636,12.568-36.209,29.276c-0.437-0.018-0.872-0.027-1.308-0.027c-16.473,0-30.525,11.01-34.869,26.445
				c-11.312,3.354-19.474,13.764-19.53,26.02c-12.656,9.525-31.213,28.811-38.572,63.264c-4.333,20.302,1.428,32.806,7.023,39.721
				c6.992,8.641,18.101,13.8,29.715,13.8c7.186,0,13.463-1.997,18.057-5.384c6.061,10.971,13.626,20.969,22.35,29.171
				c1.103,21.244,14.77,39.64,34.29,47.04c-1.301,4.883-1.957,9.903-1.957,15.009c0,28.847,20.926,52.885,48.392,57.772
				c0.019,0.003,0.039,0.006,0.058,0.011c1.093,0.193,2.196,0.357,3.31,0.489c0.12,0.015,0.24,0.032,0.36,0.045
				c1.154,0.13,2.315,0.236,3.488,0.297c0.369,0.738,0.76,1.47,1.171,2.194c0.041,0.072,0.087,0.142,0.129,0.212
				c0.374,0.652,0.762,1.3,1.169,1.94v56.62H151.4v-48.928c0-4.445-3.602-8.047-8.047-8.047s-8.047,3.602-8.047,8.047v56.975v32.869
				c0,2.544,1.203,4.938,3.242,6.456c2.041,1.519,4.681,1.982,7.116,1.252l14.576-4.371l14.567,4.371
				c0.054,0.016,0.108,0.021,0.162,0.035c0.265,0.074,0.533,0.133,0.805,0.179c0.084,0.014,0.167,0.033,0.251,0.045
				c0.348,0.047,0.697,0.075,1.05,0.076c0.014,0,0.029,0.003,0.043,0.003c0.045,0,0.09-0.01,0.135-0.011
				c0.324-0.005,0.648-0.032,0.971-0.077c0.106-0.015,0.211-0.031,0.317-0.049c0.088-0.016,0.177-0.023,0.264-0.042l21.934-4.704
				l21.959,4.705c0.559,0.119,1.124,0.178,1.686,0.178c1.824,0,3.614-0.621,5.059-1.79c1.891-1.528,2.988-3.827,2.988-6.257v-32.869
				V408.27c7.407,4.012,15.769,6.181,24.367,6.181c14.914,0,28.715-6.433,38.292-17.369c10.504,12.895,26.464,20.749,43.421,20.749
				c2.07,0,4.116-0.121,6.135-0.342v24.035v32.869c0,2.544,1.203,4.939,3.244,6.457c2.041,1.518,4.68,1.981,7.117,1.251
				l14.564-4.371l14.566,4.371c0.208,0.062,0.422,0.095,0.632,0.141c0.138,0.03,0.273,0.069,0.413,0.091
				c0.422,0.068,0.844,0.108,1.266,0.108c0.377,0,0.754-0.036,1.131-0.09c0.094-0.013,0.188-0.028,0.281-0.045
				c0.091-0.016,0.183-0.025,0.275-0.044l21.944-4.704l21.959,4.705c2.378,0.51,4.854-0.083,6.745-1.612
				c1.891-1.528,2.988-3.827,2.988-6.257v-32.869v-62.908c12.093-8.639,20.179-21.905,22.363-36.487
				c26.633-1.421,47.861-23.537,47.861-50.517c0-12.241-4.423-23.819-12.38-32.934C507.5,250.823,512,240.204,512,228.809z
				 M48.207,207.616c-0.067,2.357-4.623,4.351-9.95,4.351c-6.806,0-13.238-2.928-17.205-7.83
				c-4.863-6.011-6.175-15.085-3.794-26.238c5.492-25.714,18.045-41.381,28.186-50.256c0.21,0.284,0.428,0.561,0.649,0.837
				c-0.025,0.068-0.045,0.136-0.07,0.204c-0.44,1.216-0.857,2.438-1.249,3.667c-0.029,0.092-0.061,0.183-0.09,0.276
				c-0.393,1.244-0.754,2.495-1.097,3.751c-0.057,0.208-0.115,0.416-0.169,0.626c-0.326,1.227-0.629,2.459-0.907,3.697
				c-0.047,0.208-0.091,0.417-0.136,0.627c-0.278,1.275-0.536,2.552-0.764,3.837c-0.014,0.078-0.026,0.158-0.039,0.237
				c-0.22,1.262-0.413,2.528-0.584,3.799c-0.023,0.163-0.046,0.324-0.068,0.487c-0.164,1.266-0.299,2.536-0.415,3.811
				c-0.021,0.238-0.043,0.476-0.063,0.716c-0.105,1.264-0.19,2.532-0.247,3.804c-0.01,0.207-0.015,0.413-0.024,0.62
				c-0.053,1.333-0.087,2.669-0.087,4.011c0,0.842,0.012,1.688,0.032,2.534c0.004,0.168,0.013,0.339,0.018,0.509
				c0.02,0.692,0.045,1.385,0.079,2.079c0.008,0.146,0.017,0.292,0.026,0.438c0.04,0.737,0.085,1.475,0.139,2.215
				c0.006,0.082,0.013,0.163,0.019,0.245c0.062,0.821,0.134,1.644,0.215,2.467c0,0.005,0.001,0.011,0.002,0.016
				c1.063,10.805,3.719,21.767,7.719,32.291C48.27,206.133,48.222,206.869,48.207,207.616z M169.074,463.575l-6.519-1.956
				c-1.508-0.452-3.116-0.453-4.624,0l-6.53,1.958V449.57h17.674V463.575z M219.337,158.439c-0.012-0.285-0.023-0.571-0.036-0.856
				c-0.066-1.354-0.158-2.704-0.278-4.047c-0.021-0.245-0.049-0.487-0.073-0.732c-0.122-1.265-0.267-2.527-0.437-3.782
				c-0.023-0.163-0.04-0.327-0.063-0.491c-0.189-1.34-0.41-2.673-0.652-4.001c-0.054-0.291-0.107-0.582-0.163-0.872
				c-0.254-1.324-0.529-2.643-0.837-3.953c-0.039-0.166-0.083-0.33-0.123-0.496c-0.293-1.218-0.611-2.429-0.951-3.635
				c-0.068-0.24-0.132-0.482-0.202-0.721c-0.37-1.279-0.769-2.552-1.192-3.816c-0.091-0.274-0.187-0.546-0.28-0.82
				c-0.447-1.3-0.913-2.596-1.415-3.882c-0.001-0.002-0.002-0.005-0.003-0.008c0.794,0.659,1.609,1.366,2.437,2.113
				c0.092,0.092,0.167,0.196,0.264,0.285c8.182,7.463,18.602,20.228,24.678,40.171c0.002,0.009,0.005,0.017,0.008,0.025
				c0.425,1.397,0.828,2.831,1.209,4.3c0.02,0.077,0.039,0.158,0.059,0.235c0.371,1.447,0.723,2.926,1.046,4.443
				c0.251,1.177,0.453,2.325,0.622,3.455c0.059,0.396,0.114,0.79,0.163,1.179c0.177,1.402,0.289,2.764,0.336,4.086
				c0.259,7.195-1.389,13.162-4.912,17.517c-3.967,4.903-10.399,7.831-17.206,7.831c-5.329,0-9.887-1.992-9.953-4.335
				c-0.021-0.76-0.067-1.526-0.135-2.308c-0.001-0.016-0.001-0.031-0.003-0.046c4.599-12.145,7.407-24.869,8.045-37.255
				c0.004-0.082,0.01-0.163,0.014-0.245c0.035-0.731,0.062-1.46,0.084-2.189c0.004-0.137,0.011-0.276,0.014-0.412
				c0.02-0.846,0.032-1.69,0.032-2.531C219.433,161.239,219.394,159.837,219.337,158.439z M66.863,100.23
				c3.952-0.202,7.17-3.247,7.59-7.182c1.104-10.345,9.718-18.146,20.035-18.146c1.887,0,3.926,0.364,6.232,1.11
				c2.525,0.819,5.285,0.34,7.384-1.275c2.102-1.615,3.274-4.161,3.133-6.808c-0.025-0.482-0.081-0.958-0.147-1.433l-0.015-0.114
				c0.109-11.449,9.456-20.73,20.93-20.73c10.672,0,19.563,8.064,20.684,18.757c0.225,2.147,1.304,4.115,2.994,5.459
				c1.69,1.343,3.855,1.959,5.993,1.688c0.335-0.041,0.668-0.086,1.002-0.132c0.668-0.092,1.299-0.179,1.702-0.179
				c10.332,0,19.198,7.777,20.62,18.089c0.448,3.249,2.823,5.901,6.003,6.703c5.339,1.349,9.067,6.1,9.067,11.555
				c0,0.795-0.082,1.572-0.231,2.324c-0.1,0.258-0.191,0.518-0.264,0.788c-0.588,2.163-1.721,4.077-3.275,5.536
				c-0.043,0.041-0.08,0.085-0.122,0.127c-1.656,1.524-3.647,2.544-5.783,2.968c-0.09,0.018-0.185,0.027-0.276,0.043
				c-0.279,0.048-0.558,0.094-0.84,0.123c-0.384,0.038-0.774,0.059-1.167,0.059c-0.451,0-0.897-0.027-1.339-0.078
				c-0.413-0.048-0.822-0.122-1.225-0.215c-0.026-0.006-0.053-0.008-0.078-0.014c-2.576-0.605-4.912-2.089-6.643-4.269
				c-0.261-0.328-0.545-0.631-0.847-0.909c-2.053-1.96-5.016-2.718-7.797-1.913c-2.245,0.651-4.09,0.956-5.804,0.956
				c-1.476,0-3.052-0.216-4.957-0.68c-2.614-0.638-5.369,0.073-7.349,1.894c-4.164,3.825-9.484,5.932-14.98,5.932
				c-6.867,0-13.266-3.205-17.553-8.793c-1.357-1.768-3.387-2.895-5.606-3.11c-2.223-0.212-4.429,0.499-6.101,1.973
				c-2.665,2.35-7.145,5.152-13.345,5.152c-1.105,0-2.295-0.124-3.612-0.376l-0.251-0.061c-0.193-0.047-0.386-0.093-0.584-0.137
				c-1.057-0.253-1.959-0.527-2.825-0.864c-0.387-0.147-0.719-0.244-1.014-0.318c-0.42-0.129-0.844-0.216-1.27-0.274
				c-0.027-0.003-0.055-0.01-0.082-0.013c-0.402-0.05-0.805-0.065-1.205-0.055c-0.046,0.001-0.092,0-0.138,0.002
				c-0.388,0.017-0.774,0.065-1.153,0.137c-0.054,0.011-0.107,0.019-0.161,0.03c-0.373,0.079-0.74,0.186-1.099,0.317
				c-0.054,0.019-0.106,0.04-0.16,0.06c-0.356,0.138-0.702,0.302-1.035,0.489c-0.047,0.027-0.093,0.055-0.141,0.083
				c-0.334,0.197-0.656,0.416-0.96,0.662c-0.036,0.03-0.072,0.062-0.108,0.092c-0.307,0.258-0.6,0.534-0.869,0.84
				c-0.021,0.025-0.041,0.052-0.062,0.076c-0.278,0.323-0.536,0.666-0.765,1.039c-2.093,3.409-5.668,5.444-9.563,5.444
				c-3.064,0-5.397-1.306-6.839-2.428c-0.024-0.019-0.043-0.043-0.067-0.061c-2.156-1.698-3.619-4.033-4.122-6.576
				c-0.005-0.025-0.014-0.048-0.019-0.074c-0.132-0.688-0.207-1.396-0.207-2.121C56.179,105.443,60.872,100.538,66.863,100.23z
				 M91.978,242.133c-0.313-0.273-0.646-0.513-0.99-0.73c-11.445-10.307-20.784-24.503-26.896-39.847
				c-0.02-0.055-0.032-0.111-0.054-0.164c-3.529-8.899-5.915-18.002-7.066-26.841c-0.008-0.059-0.014-0.118-0.021-0.177
				c-0.089-0.691-0.168-1.379-0.242-2.065c-0.019-0.179-0.036-0.358-0.055-0.536c-0.058-0.57-0.109-1.137-0.157-1.704
				c-0.019-0.227-0.038-0.454-0.055-0.681c-0.04-0.525-0.074-1.047-0.104-1.569c-0.014-0.242-0.03-0.486-0.042-0.729
				c-0.027-0.528-0.046-1.053-0.063-1.577c-0.008-0.222-0.017-0.445-0.024-0.666c-0.018-0.736-0.03-1.47-0.03-2.2
				c0-1.271,0.038-2.538,0.093-3.8c0.017-0.378,0.042-0.753,0.063-1.13c0.054-0.923,0.121-1.843,0.205-2.762
				c0.034-0.384,0.068-0.768,0.108-1.151c0.119-1.134,0.258-2.264,0.422-3.389c0.017-0.118,0.029-0.236,0.047-0.354
				c0.187-1.238,0.408-2.47,0.649-3.697c0.069-0.35,0.147-0.698,0.221-1.048c0.191-0.906,0.396-1.809,0.618-2.708
				c0.092-0.377,0.185-0.752,0.282-1.128c0.27-1.035,0.56-2.065,0.87-3.091c0.055-0.179,0.102-0.362,0.158-0.541
				c0.014-0.046,0.032-0.092,0.046-0.138c1.183,0.337,2.398,0.598,3.641,0.773c0.044,0.006,0.088,0.011,0.133,0.017
				c0.514,0.07,1.032,0.124,1.555,0.165c0.135,0.011,0.27,0.023,0.407,0.031c0.575,0.036,1.152,0.061,1.736,0.061
				c0.46,0,0.918-0.012,1.376-0.034c0.164-0.009,0.326-0.026,0.489-0.036c0.292-0.019,0.584-0.036,0.873-0.065
				c0.138-0.014,0.275-0.035,0.413-0.052c0.312-0.036,0.626-0.071,0.935-0.117c0.133-0.02,0.264-0.047,0.397-0.07
				c0.311-0.052,0.623-0.102,0.932-0.164c0.145-0.029,0.289-0.067,0.432-0.099c0.294-0.064,0.588-0.127,0.879-0.201
				c0.138-0.035,0.274-0.078,0.411-0.115c0.294-0.079,0.588-0.158,0.878-0.247c0.141-0.044,0.279-0.094,0.419-0.141
				c0.283-0.092,0.568-0.182,0.848-0.284c0.144-0.053,0.284-0.112,0.427-0.166c0.273-0.104,0.545-0.206,0.813-0.319
				c0.151-0.063,0.298-0.134,0.447-0.201c0.256-0.113,0.514-0.223,0.766-0.344c0.151-0.073,0.299-0.153,0.45-0.229
				c0.246-0.123,0.494-0.245,0.735-0.376c0.147-0.079,0.291-0.167,0.436-0.249c0.24-0.136,0.482-0.269,0.719-0.413
				c0.145-0.088,0.286-0.183,0.43-0.275c0.232-0.146,0.464-0.291,0.691-0.444c0.143-0.097,0.281-0.201,0.423-0.3
				c0.222-0.157,0.446-0.311,0.664-0.474c0.137-0.103,0.27-0.214,0.406-0.32c0.216-0.168,0.433-0.335,0.644-0.51
				c0.13-0.108,0.255-0.223,0.384-0.334c0.211-0.181,0.424-0.362,0.63-0.55c0.12-0.11,0.235-0.226,0.353-0.339
				c0.197-0.187,0.396-0.371,0.588-0.564c2.01,0.446,4.047,0.712,6.103,0.807c0.56,0.03,1.115,0.045,1.666,0.045
				c6.166,0,12.214-1.615,17.595-4.634c6.908,6.051,15.696,9.413,25.01,9.413c8.145,0,16.032-2.634,22.608-7.488
				c1.752,0.249,3.417,0.362,5.084,0.34c1.706-0.015,3.38-0.157,5.061-0.409c4.425,3.851,9.896,6.209,15.74,6.738
				c0.835,0.076,1.678,0.115,2.526,0.115c0.459,0,0.916-0.013,1.371-0.034c0.188-0.01,0.373-0.027,0.559-0.04
				c0.262-0.018,0.525-0.034,0.785-0.06c0.24-0.024,0.479-0.055,0.718-0.084c0.2-0.025,0.4-0.047,0.6-0.076
				c0.274-0.04,0.545-0.087,0.817-0.134c0.157-0.028,0.314-0.054,0.47-0.085c0.303-0.058,0.604-0.123,0.903-0.192
				c0.117-0.027,0.234-0.053,0.351-0.082c0.332-0.079,0.66-0.166,0.987-0.259c0.076-0.021,0.153-0.043,0.23-0.065
				c0.364-0.105,0.724-0.218,1.082-0.337c0.03-0.01,0.059-0.02,0.089-0.03c0.389-0.132,0.776-0.271,1.158-0.42
				c0.045,0.122,0.088,0.246,0.132,0.369c0.329,0.908,0.643,1.82,0.939,2.737c0.058,0.179,0.119,0.358,0.176,0.539
				c0.32,1.012,0.617,2.029,0.897,3.05c0.062,0.229,0.122,0.457,0.184,0.687c0.277,1.045,0.541,2.093,0.776,3.149
				c0.002,0.009,0.004,0.017,0.006,0.025c0.237,1.062,0.445,2.132,0.639,3.204c0.042,0.233,0.085,0.465,0.126,0.697
				c0.181,1.049,0.345,2.103,0.487,3.162c0.024,0.177,0.043,0.355,0.065,0.532c0.123,0.974,0.231,1.952,0.32,2.933
				c0.016,0.179,0.036,0.358,0.051,0.539c0.091,1.071,0.159,2.146,0.209,3.224c0.011,0.236,0.019,0.472,0.029,0.709
				c0.043,1.108,0.072,2.219,0.072,3.335c0,0.73-0.011,1.462-0.03,2.2c-0.005,0.202-0.015,0.404-0.021,0.606
				c-0.018,0.547-0.039,1.097-0.067,1.648c-0.011,0.209-0.024,0.418-0.036,0.628c-0.033,0.564-0.069,1.129-0.113,1.696
				c-0.013,0.175-0.028,0.35-0.042,0.525c-0.053,0.642-0.112,1.285-0.177,1.93c-0.01,0.093-0.018,0.187-0.029,0.281
				c-1.005,9.519-3.475,19.416-7.29,29.089c-0.001,0.002-0.001,0.005-0.002,0.008c-10.075,25.534-31.24,51.273-57.42,55.911
				c-0.041,0.008-0.083,0.015-0.123,0.023c-1.691,0.295-3.404,0.496-5.135,0.609c-0.195,0.013-0.391,0.025-0.586,0.034
				c-0.834,0.044-1.669,0.074-2.511,0.074c-0.76,0-1.519-0.023-2.28-0.06c-0.12-0.005-0.239-0.015-0.358-0.021
				C115.127,257.134,103.032,251.747,91.978,242.133z M216.34,464.438h-0.001l-13.913-2.981c-0.557-0.118-1.121-0.178-1.686-0.178
				c-0.565,0-1.132,0.06-1.687,0.179l-13.886,2.977v-14.866h31.172V464.438z M378.406,463.574l-6.519-1.956
				c-0.755-0.225-1.534-0.339-2.313-0.339c-0.78,0-1.559,0.113-2.313,0.339l-6.517,1.956v-14.005h17.663V463.574z M360.742,433.475
				v-20.24c6.63-2.868,12.628-6.985,17.663-12.11v32.35H360.742z M425.682,464.438h-0.001l-13.912-2.981
				c-0.557-0.118-1.121-0.178-1.686-0.178c-0.564,0-1.131,0.06-1.687,0.179l-13.897,2.977v-14.866h31.182V464.438z M461.41,326.106
				c-0.605,0-1.378-0.105-2.271-0.225c-0.529-0.071-1.058-0.143-1.592-0.202c-2.276-0.263-4.548,0.475-6.252,2.003
				c-1.705,1.526-2.679,3.706-2.679,5.995c0,0.223,0.009,0.446,0.023,0.681c-0.073,13.467-7.339,26.086-19.001,32.971
				c-2.451,1.447-3.956,4.083-3.956,6.929v59.216h-31.182V387.23c3.727,1.041,7.667,1.579,11.772,1.579
				c0.812,0,1.632-0.021,2.455-0.063c4.44-0.224,7.855-4.003,7.631-8.442c-0.224-4.439-4.014-7.865-8.442-7.631
				c-5.908,0.298-11.063-0.983-15.4-3.769c-0.547-0.631-1.185-1.191-1.922-1.634c-0.369-0.221-0.748-0.423-1.131-0.618l-0.205-0.107
				c-0.055-0.034-0.113-0.059-0.167-0.091c-0.177-0.105-0.357-0.204-0.54-0.294c-0.083-0.041-0.164-0.081-0.247-0.118
				c-0.2-0.09-0.401-0.169-0.606-0.242c-0.073-0.026-0.145-0.055-0.219-0.078c-0.248-0.081-0.499-0.148-0.751-0.204
				c-0.032-0.008-0.064-0.017-0.097-0.025c-0.286-0.059-0.575-0.102-0.865-0.129c-0.078-0.008-0.157-0.008-0.234-0.013
				c-0.207-0.014-0.413-0.023-0.62-0.02c-0.112,0.001-0.222,0.009-0.334,0.014c-0.178,0.01-0.355,0.024-0.532,0.045
				c-0.115,0.014-0.229,0.029-0.343,0.047c-0.187,0.03-0.372,0.07-0.558,0.114c-0.097,0.023-0.193,0.042-0.289,0.069
				c-0.567,0.157-1.118,0.376-1.644,0.656c-0.071,0.038-0.137,0.079-0.207,0.119c-0.188,0.107-0.372,0.221-0.553,0.344
				c-0.082,0.056-0.161,0.114-0.24,0.173c-0.158,0.117-0.311,0.241-0.462,0.371c-0.082,0.07-0.163,0.14-0.241,0.212
				c-0.138,0.13-0.271,0.268-0.402,0.41c-0.056,0.06-0.118,0.113-0.172,0.175c-0.018,0.021-0.033,0.045-0.052,0.067
				c-0.02,0.024-0.042,0.044-0.062,0.068c-0.128,0.153-0.241,0.313-0.356,0.473c-0.04,0.055-0.084,0.106-0.122,0.162
				c-0.171,0.25-0.324,0.507-0.462,0.769c-0.025,0.046-0.044,0.094-0.068,0.142c-0.112,0.222-0.215,0.447-0.305,0.677
				c-0.03,0.076-0.056,0.153-0.083,0.231c-0.075,0.209-0.142,0.421-0.199,0.634c-0.013,0.046-0.031,0.09-0.043,0.137
				c-0.004,0.018-0.011,0.036-0.015,0.055c-0.19,0.762-0.407,1.515-0.641,2.26c-0.031,0.099-0.061,0.196-0.093,0.294
				c-3.942,12.176-13.742,21.923-26.133,25.781c-0.399,0.124-0.781,0.282-1.148,0.461c-3.402,0.94-6.972,1.446-10.643,1.446
				c-15.477,0-29.257-8.71-35.962-22.734c-1.324-2.77-4.11-4.545-7.18-4.576c-0.027,0-0.054,0-0.079,0
				c-3.04,0-5.823,1.713-7.19,4.433c-6.045,12.026-18.039,19.496-31.302,19.496c-10.082,0-19.694-4.355-26.371-11.947
				c-2.211-2.514-5.748-3.395-8.882-2.215c-3.134,1.182-5.208,4.18-5.208,7.53v41.751h-31.17v-42.538
				c4.497,2.339,9.895,4.217,16.381,5.216c0.416,0.064,0.828,0.095,1.235,0.095c3.904,0,7.331-2.845,7.943-6.822
				c0.677-4.394-2.335-8.502-6.727-9.179c-13.468-2.075-19.796-9.394-22.516-14.033c-0.032-0.06-0.07-0.118-0.102-0.178
				c-0.042-0.072-0.08-0.142-0.12-0.212c-0.686-1.31-1.264-2.648-1.73-4.005c-0.011-0.032-0.029-0.059-0.04-0.091
				c-0.133-0.375-0.29-0.735-0.472-1.077c-0.019-0.036-0.042-0.072-0.061-0.108c-0.407-0.736-0.918-1.391-1.514-1.953
				c-0.005-0.005-0.01-0.01-0.015-0.014c-1.543-1.448-3.625-2.263-5.806-2.181c-0.021,0.001-0.043-0.003-0.064-0.002
				c-0.021,0.001-0.043,0.003-0.064,0.003c-0.025,0.001-0.05,0.003-0.075,0.004c-0.289,0.014-0.575,0.031-0.863,0.052
				c-0.289,0.019-0.576,0.045-0.869,0.045c-0.897,0-1.793-0.036-2.687-0.093c-0.182-0.012-0.364-0.028-0.546-0.042
				c-0.832-0.064-1.662-0.146-2.488-0.26c-0.036-0.005-0.073-0.009-0.109-0.014c-5.734-0.805-11.287-2.791-16.312-5.858
				c-0.158-0.097-0.32-0.177-0.481-0.262c-11.988-7.546-19.976-20.889-19.976-36.07c0-5.924,1.221-11.694,3.63-17.154
				c0.989-2.244,0.902-4.816-0.238-6.988c-1.141-2.172-3.208-3.705-5.618-4.164c-11.427-2.179-20.804-9.491-25.936-19.268
				c7.762,3.969,16.056,6.547,24.732,7.38c0.168,0.016,0.337,0.031,0.505,0.046c0.465,0.041,0.93,0.079,1.397,0.111
				c0.354,0.024,0.708,0.041,1.062,0.059c0.329,0.016,0.658,0.035,0.987,0.047c0.715,0.025,1.429,0.04,2.144,0.04
				c0.858,0,1.712-0.02,2.564-0.055c0.187-0.008,0.372-0.021,0.558-0.031c0.692-0.034,1.383-0.076,2.071-0.133
				c0.153-0.013,0.307-0.029,0.461-0.043c0.754-0.068,1.505-0.147,2.254-0.24c0.073-0.01,0.145-0.018,0.218-0.028
				c7.102-0.911,13.936-2.988,20.419-6.034c0.105-0.049,0.21-0.097,0.315-0.146c0.529-0.251,1.054-0.513,1.577-0.777
				c16.925-8.467,32.077-23.732,43.062-43.839c0.041,0.03,0.087,0.056,0.128,0.085c0.506,0.368,1.031,0.72,1.576,1.054
				c0.078,0.048,0.159,0.094,0.239,0.143c0.554,0.331,1.124,0.644,1.716,0.938c0.079,0.04,0.161,0.077,0.242,0.116
				c0.602,0.292,1.219,0.565,1.856,0.819c0.078,0.031,0.158,0.06,0.237,0.09c0.649,0.251,1.314,0.483,1.997,0.692
				c0.072,0.023,0.145,0.042,0.217,0.063c0.697,0.208,1.41,0.396,2.141,0.559c0.062,0.014,0.127,0.026,0.19,0.039
				c0.746,0.161,1.506,0.301,2.283,0.414c0.049,0.008,0.099,0.012,0.148,0.019c0.796,0.112,1.606,0.201,2.432,0.259
				c0.027,0.002,0.055,0.002,0.083,0.004c0.85,0.058,1.715,0.09,2.593,0.09c11.617,0,22.728-5.16,29.718-13.802
				c5.595-6.915,11.354-19.42,7.018-39.719c-0.318-1.486-0.66-2.939-1.017-4.369c-0.098-0.391-0.203-0.77-0.304-1.157
				c-0.277-1.067-0.562-2.121-0.86-3.157c-0.103-0.356-0.209-0.708-0.314-1.061c-0.33-1.109-0.673-2.202-1.026-3.275
				c-0.072-0.217-0.143-0.436-0.216-0.65c-5.936-17.677-14.859-30.457-23.405-39.408c9.757-14.339,25.914-23.033,43.433-23.033
				c22.432,0,42.441,14.271,49.791,35.511c0.873,2.526,2.945,4.453,5.527,5.143c2.579,0.693,5.338,0.056,7.354-1.698
				c8.87-7.705,20.187-11.947,31.87-11.947c19.713,0,37.353,11.767,44.942,29.977c1.639,3.938,6.068,5.918,10.1,4.495
				c3.934-1.384,7.575-2.058,11.13-2.058c18.65,0,33.821,15.172,33.821,33.821c0,0.177-0.065,0.65-0.117,1.032
				c-0.078,0.578-0.156,1.158-0.203,1.747c-0.335,4.046,2.398,7.708,6.371,8.539c12.145,2.542,20.959,13.4,20.959,25.818
				c0,9.192-4.761,17.587-12.733,22.453c-2.257,1.378-3.693,3.777-3.842,6.417c-0.147,2.643,1.011,5.187,3.1,6.808
				c8.563,6.649,13.476,16.535,13.476,27.124C495.905,310.632,480.43,326.106,461.41,326.106z"/>
			<path d="M93.525,164.276c-4.385,0-7.933,3.551-7.933,7.935c0,4.377,3.548,7.927,7.933,7.927c4.387,0,7.937-3.55,7.937-7.927
				C101.461,167.827,97.911,164.276,93.525,164.276z"/>
			<path d="M162.722,180.131c4.386,0,7.935-3.551,7.935-7.927c0-4.386-3.55-7.935-7.935-7.935s-7.935,3.549-7.935,7.935
				C154.787,176.581,158.337,180.131,162.722,180.131z"/>
			<path d="M136.351,209.856l5.182-7.399c1.721-2.458,1.932-5.669,0.546-8.333c-1.385-2.661-4.136-4.331-7.137-4.331h-10.365
				c-3.001,0-5.752,1.671-7.137,4.331c-1.386,2.662-1.176,5.874,0.546,8.333l5.18,7.399c1.506,2.15,3.967,3.43,6.592,3.43
				S134.844,212.006,136.351,209.856z"/>
		</g>
	</g>
</g>
<g>
</g>
<g>
</g>
<g>
</g>
<g>
</g>
<g>
</g>
<g>
</g>
<g>
</g>
<g>
</g>
<g>
</g>
<g>
</g>
<g>
</g>
<g>
</g>
<g>
</g>
<g>
</g>
<g>
</g>
</svg>
