<?xml version="1.0" encoding="iso-8859-1"?>
<!-- Generator: Adobe Illustrator 19.0.0, SVG Export Plug-In . SVG Version: 6.00 Build 0)  -->
<svg version="1.1" id="Layer_1" xmlns="http://www.w3.org/2000/svg" xmlns:xlink="http://www.w3.org/1999/xlink" x="0px" y="0px"
	 viewBox="0 0 512 512" style="enable-background:new 0 0 512 512;" xml:space="preserve">
<path style="fill:#C6836F;" d="M67.432,130.708c6.973,0,13.026-3.75,16.421-9.281c0.165,0.063,0.355,0.087,0.521,0.15
	c1.242,0.483,2.541,0.864,3.868,1.179c0.373,0.08,0.73,0.182,1.1,0.253c1.671,0.319,3.379,0.523,5.145,0.523
	c7.186,0,13.666-2.753,18.667-7.163c5.531,7.209,14.15,11.942,23.938,11.942c7.904,0,15.027-3.094,20.425-8.055
	c2.208,0.538,4.488,0.909,6.861,0.909c2.835,0,5.564-0.42,8.144-1.179c3.656,4.606,9.242,7.621,15.589,7.621
	c5.364,0,10.223-2.145,13.825-5.595c5.989,12.139,9.449,25.924,9.449,40.636c0,48.35-36.546,103.309-81.628,103.309
	c-45.081,0-81.625-54.959-81.625-103.309c0-12.923,2.682-25.141,7.399-36.155C58.805,129.078,62.906,130.708,67.432,130.708z"/>
<g style="opacity:0.15;">
	<path style="fill:#231F20;" d="M73.16,162.646c0-12.923,2.682-25.141,7.398-36.155c3.276,2.587,7.376,4.217,11.903,4.217
		c6.972,0,13.024-3.75,16.421-9.281c0.165,0.063,0.354,0.087,0.521,0.15c1.242,0.483,2.54,0.864,3.868,1.179
		c0.373,0.08,0.73,0.182,1.1,0.253c1.671,0.319,3.378,0.523,5.145,0.523c0.455,0,0.907-0.012,1.356-0.033
		c-2.96-1.918-5.572-4.335-7.717-7.13c-5.001,4.409-11.482,7.163-18.667,7.163c-1.766,0-3.474-0.204-5.145-0.523
		c-0.371-0.071-0.727-0.173-1.1-0.253c-1.327-0.315-2.625-0.696-3.868-1.179c-0.166-0.063-0.356-0.087-0.521-0.15
		c-3.396,5.531-9.448,9.281-16.421,9.281c-4.526,0-8.626-1.63-11.902-4.217c-4.717,11.015-7.399,23.232-7.399,36.155
		c0,48.35,36.544,103.309,81.625,103.309c4.255,0,8.434-0.491,12.514-1.418C103.132,255.638,73.16,206.433,73.16,162.646z"/>
</g>
<g>
	<path style="fill:#EFC49A;" d="M384.997,373.374c0.467,0.3,0.981,0.514,1.455,0.798v67.351h-33.757v-34.011
		C368.586,402.566,380.961,389.659,384.997,373.374z"/>
	<path style="fill:#EFC49A;" d="M143.353,357.095c7.683,4.693,16.681,7.447,26.336,7.447c0.751,0,1.487-0.079,2.232-0.113
		c1.233,3.595,3.021,6.934,5.199,9.956v67.137h-33.768v-56.975"/>
	<path style="fill:#EFC49A;" d="M66.451,92.194c1.519-14.228,13.42-25.339,28.037-25.339c3.063,0,5.958,0.609,8.712,1.502
		c-0.031-0.593-0.174-1.162-0.174-1.771c0-16.007,12.979-28.98,28.978-28.98c14.982,0,27.159,11.388,28.687,25.965
		c1.225-0.151,2.429-0.372,3.687-0.372c14.663,0,26.644,10.921,28.592,25.037c8.69,2.193,15.146,9.988,15.146,19.356
		c0,11.048-8.959,20.014-20.005,20.014c-6.394,0-12.02-3.055-15.685-7.716c-2.563,0.744-5.238,1.275-8.047,1.275
		c-2.373,0-4.653-0.371-6.861-0.909c-5.398,4.96-12.52,8.055-20.425,8.055c-9.788,0-18.406-4.733-23.938-11.942
		c-5.001,4.409-11.482,7.163-18.667,7.163c-3.767,0-7.352-0.768-10.635-2.105c-3.396,5.531-9.448,9.281-16.421,9.281
		c-10.666,0-19.3-8.649-19.3-19.308C48.132,101.088,56.258,92.716,66.451,92.194z"/>
</g>
<g style="opacity:0.15;">
	<path style="fill:#231F20;" d="M146.984,51.408c-5.314-4.885-12.223-7.576-19.45-7.576c-15.978,0-28.978,13-28.978,28.98
		c0,0.209,0.012,0.42,0.036,0.628c0.009,0.071,0.023,0.18,0.054,0.377c0.035,0.256,0.07,0.513,0.084,0.768
		c-3.117-1.011-5.968-1.502-8.712-1.502c-14.441,0-26.494,10.894-28.037,25.339c-10.272,0.526-18.319,8.963-18.319,19.206
		c0,10.647,8.658,19.308,19.3,19.308c0.455,0,0.908-0.016,1.358-0.048c2.679-0.191,4.806-2.334,4.973-5.015
		c0.528-8.4,6.642-15.597,14.866-17.503c1.991-0.461,1.02,1.619,1.161-0.421c1.311-18.957,17.142-25.397,30.291-25.397
		c0.941,0,1.91,0.059,2.882,0.176c2.898,0.332,5.652-1.667,5.949-4.566c1.425-13.847,10.947-23.37,28.383-25.65
		c1.913-0.25-0.103-3.618,0.332-5.499C153.589,51.13,148.406,52.714,146.984,51.408z"/>
</g>
<g>
	<path style="fill:#EFC49A;" d="M211.386,162.646c0-14.711-3.46-28.496-9.449-40.636c-0.04,0.04-0.086,0.064-0.127,0.095
		c2.636-2.476,4.55-5.689,5.53-9.29c9.665,5.586,34.314,23.344,42.86,63.401c10.731,50.242-46.293,51.945-46.864,31.624
		c-0.031-1.204-0.142-2.407-0.315-3.641C208.323,190.755,211.386,176.449,211.386,162.646z"/>
	<path style="fill:#EFC49A;" d="M9.388,176.218c7.605-35.602,27.903-53.574,39.124-61.059c0.911,4.598,3.489,8.538,7.035,11.334
		c-0.008,0-0.016,0-0.016,0c-4.717,11.015-7.399,23.232-7.399,36.155c0,13.857,3.078,28.227,8.427,41.712
		c-0.157,1.163-0.284,2.334-0.307,3.483C55.681,228.163-1.335,226.46,9.388,176.218z"/>
</g>
<path style="fill:#EDCF9A;" d="M129.757,265.956c32.209,0,59.985-28.093,73.264-61.755c0.174,1.233,0.284,2.437,0.315,3.641
	c0.57,20.322,57.595,18.619,46.864-31.624c-5.713-26.795-18.627-43.57-29.445-53.439c10.183-19.245,30.315-32.396,53.604-32.396
	c26.606,0,49.159,17.124,57.396,40.927c9.956-8.649,22.917-13.919,37.146-13.919c23.597,0,43.824,14.418,52.37,34.93
	c4.337-1.527,8.942-2.515,13.801-2.515c23.123,0,41.868,18.745,41.868,41.868c0,1.179-0.252,2.286-0.348,3.441
	c15.622,3.269,27.358,17.102,27.358,33.695c0,12.456-6.68,23.273-16.588,29.321c10.019,7.779,16.588,19.815,16.588,33.48
	c0,23.504-19.048,42.542-42.542,42.542c-1.632,0-3.166-0.3-4.749-0.475c0,0.159,0.024,0.318,0.024,0.475
	c0,17.094-9.234,32.003-22.957,40.106v67.263h-47.276V374.17c-0.474-0.285-0.988-0.498-1.455-0.798
	c-5.174,20.891-23.992,36.41-46.483,36.41c-19.087,0-35.507-11.174-43.221-27.309c-7.107,14.14-21.589,23.93-38.492,23.93
	c-12.924,0-24.501-5.681-32.414-14.68v49.799h-47.266v-67.137c-2.177-3.021-3.966-6.361-5.199-9.956
	c-0.745,0.033-1.481,0.113-2.232,0.113c-27.965,0-50.646-22.681-50.646-50.646c0-7.265,1.559-14.156,4.314-20.402
	c-20.908-3.987-36.727-22.346-36.727-44.425c0-0.293,0.057-0.569,0.065-0.863C99.205,259.087,113.931,265.956,129.757,265.956z"/>
<polygon style="fill:#7C797B;" points="143.353,474.391 143.353,441.523 177.121,441.523 177.121,474.391 160.242,469.326 "/>
<polygon style="fill:#918D8F;" points="224.386,474.391 224.386,441.523 177.121,441.523 177.121,474.391 200.741,469.326 "/>
<polygon style="fill:#7C797B;" points="352.695,474.391 352.695,441.523 386.452,441.523 386.452,474.391 369.574,469.326 "/>
<polygon style="fill:#918D8F;" points="433.728,474.391 433.728,441.523 386.452,441.523 386.452,474.391 410.084,469.326 "/>
<g>
	<path style="fill:#231F20;" d="M512,228.809c0-15.926-9.008-30.255-22.557-37.498c18.536-31.686,16.086-59.369,10.457-77.424
		c-6.463-20.732-18.328-33.362-18.83-33.89c-3.064-3.219-8.156-3.344-11.378-0.283c-3.22,3.063-3.346,8.158-0.283,11.377
		c0.356,0.374,31.804,34.313,11.653,81.204c-7.581-17.924-25.337-30.538-45.99-30.538c-3.15,0-6.293,0.33-9.492,1.001
		c-11.32-20.509-32.862-33.416-56.679-33.416c-11.98,0-23.667,3.344-33.793,9.56c-11.797-22.235-35.055-36.568-60.749-36.568
		c-22.208,0-42.732,10.681-55.563,28.404c-0.923-0.68-1.814-1.312-2.664-1.889c0.018-0.417,0.032-0.836,0.032-1.257
		c0-11.056-6.472-20.872-16.251-25.399c-4.173-14.845-17.319-25.768-32.777-26.937c-4.797-15.072-18.785-25.697-35.13-25.697
		c-17.758,0-32.636,12.568-36.209,29.276c-0.437-0.018-0.872-0.027-1.308-0.027c-16.473,0-30.525,11.009-34.869,26.445
		c-11.312,3.354-19.474,13.764-19.53,26.02c-12.656,9.525-31.213,28.811-38.572,63.264c-4.333,20.302,1.428,32.806,7.023,39.721
		c6.992,8.641,18.101,13.8,29.715,13.8c7.186,0,13.463-1.997,18.057-5.384c6.061,10.971,13.626,20.969,22.35,29.171
		c1.103,21.244,14.77,39.64,34.29,47.04c-1.301,4.883-1.957,9.903-1.957,15.009c0,28.847,20.927,52.885,48.393,57.772
		c0.019,0.003,0.038,0.006,0.057,0.01c1.094,0.193,2.198,0.358,3.312,0.49c0.119,0.014,0.239,0.032,0.358,0.045
		c1.154,0.13,2.315,0.236,3.489,0.297c0.406,0.811,0.842,1.613,1.298,2.407c0.374,0.652,0.762,1.3,1.17,1.94v56.62H151.4v-48.928
		c0-4.445-3.602-8.047-8.047-8.047c-4.445,0-8.047,3.602-8.047,8.047v56.975v32.869c0,2.544,1.203,4.938,3.242,6.456
		c2.041,1.519,4.681,1.982,7.116,1.252l14.576-4.371l14.567,4.371c0.054,0.016,0.108,0.021,0.162,0.035
		c0.265,0.074,0.533,0.133,0.805,0.179c0.084,0.014,0.167,0.033,0.251,0.045c0.348,0.047,0.697,0.075,1.049,0.076
		c0.014,0,0.029,0.003,0.043,0.003c0.045,0,0.09-0.01,0.135-0.011c0.324-0.005,0.648-0.032,0.972-0.077
		c0.106-0.015,0.211-0.031,0.317-0.049c0.088-0.016,0.177-0.023,0.264-0.042l21.934-4.704l21.959,4.705
		c0.559,0.119,1.124,0.178,1.686,0.178c1.824,0,3.614-0.621,5.059-1.79c1.891-1.528,2.988-3.827,2.988-6.257v-32.869V408.27
		c7.407,4.012,15.769,6.181,24.367,6.181c14.914,0,28.715-6.433,38.292-17.369c10.504,12.895,26.464,20.749,43.421,20.749
		c2.07,0,4.116-0.121,6.135-0.342v24.035v32.869c0,2.544,1.203,4.939,3.244,6.457c2.042,1.518,4.678,1.981,7.117,1.251l14.564-4.371
		l14.566,4.371c0.208,0.062,0.422,0.095,0.632,0.141c0.138,0.03,0.274,0.069,0.413,0.091c0.421,0.068,0.844,0.108,1.266,0.108l0,0
		l0,0c0.377,0,0.754-0.036,1.131-0.09c0.094-0.013,0.188-0.028,0.281-0.045c0.091-0.016,0.183-0.025,0.275-0.044l21.944-4.704
		l21.959,4.705c2.378,0.51,4.855-0.083,6.745-1.612c1.891-1.528,2.988-3.827,2.988-6.257v-32.869v-62.908
		c12.093-8.639,20.179-21.905,22.363-36.487c26.633-1.421,47.861-23.537,47.861-50.517c0-12.241-4.423-23.819-12.38-32.934
		C507.5,250.823,512,240.204,512,228.809z M211.247,205.325c-0.001-0.016-0.001-0.031-0.003-0.046
		c4.599-12.145,7.407-24.869,8.045-37.255c0.004-0.082,0.01-0.163,0.014-0.245c0.036-0.731,0.062-1.46,0.084-2.189
		c0.004-0.137,0.011-0.276,0.014-0.412c0.021-0.845,0.032-1.69,0.032-2.531c0-1.409-0.039-2.81-0.096-4.208
		c-0.012-0.285-0.023-0.571-0.036-0.856c-0.067-1.354-0.158-2.704-0.278-4.047c-0.021-0.245-0.049-0.487-0.073-0.732
		c-0.122-1.265-0.267-2.527-0.437-3.782c-0.023-0.163-0.04-0.327-0.063-0.491c-0.189-1.34-0.41-2.672-0.652-3.999
		c-0.054-0.292-0.108-0.584-0.164-0.876c-0.254-1.323-0.529-2.641-0.837-3.951c-0.04-0.167-0.084-0.335-0.124-0.502
		c-0.293-1.217-0.611-2.427-0.95-3.632c-0.068-0.239-0.131-0.48-0.201-0.718c-0.37-1.28-0.769-2.551-1.193-3.818
		c-0.091-0.275-0.187-0.547-0.281-0.821c-0.447-1.3-0.912-2.595-1.415-3.88c-0.001-0.002-0.002-0.005-0.003-0.008
		c0.794,0.659,1.609,1.366,2.437,2.113c0.092,0.092,0.166,0.196,0.264,0.284c8.182,7.463,18.602,20.228,24.678,40.171
		c0.002,0.009,0.005,0.017,0.008,0.025c0.425,1.397,0.828,2.831,1.209,4.3c0.02,0.077,0.039,0.158,0.059,0.235
		c0.371,1.447,0.723,2.926,1.046,4.443c0.251,1.177,0.453,2.325,0.622,3.455c0.059,0.396,0.114,0.79,0.163,1.179
		c0.177,1.402,0.289,2.764,0.336,4.086c0.259,7.195-1.389,13.162-4.912,17.517c-3.967,4.903-10.399,7.831-17.206,7.831
		c-5.329,0-9.887-1.992-9.953-4.335C211.361,206.873,211.316,206.107,211.247,205.325z M66.863,100.23
		c3.952-0.202,7.17-3.247,7.59-7.182c1.104-10.345,9.718-18.146,20.035-18.146c1.887,0,3.926,0.364,6.232,1.11
		c2.525,0.819,5.285,0.34,7.384-1.275c2.102-1.615,3.274-4.161,3.133-6.808c-0.025-0.482-0.08-0.958-0.147-1.433l-0.015-0.114
		c0.109-11.449,9.456-20.73,20.93-20.73c10.671,0,19.563,8.064,20.684,18.757c0.225,2.147,1.304,4.115,2.993,5.459
		c1.691,1.343,3.853,1.959,5.993,1.688c0.335-0.041,0.668-0.086,1.002-0.132c0.668-0.092,1.299-0.179,1.702-0.179
		c10.332,0,19.198,7.777,20.62,18.089c0.448,3.249,2.823,5.901,6.003,6.703c5.339,1.349,9.067,6.1,9.067,11.555
		c0,0.795-0.082,1.572-0.231,2.324c-0.1,0.257-0.191,0.518-0.264,0.788c-0.588,2.163-1.721,4.077-3.275,5.536
		c-0.043,0.041-0.079,0.085-0.121,0.126c-1.656,1.524-3.648,2.545-5.784,2.968c-0.09,0.017-0.183,0.027-0.274,0.042
		c-0.279,0.048-0.559,0.095-0.842,0.123c-0.384,0.038-0.774,0.059-1.167,0.059c-0.451,0-0.897-0.027-1.339-0.078
		c-0.413-0.048-0.822-0.122-1.225-0.215c-0.026-0.006-0.053-0.008-0.078-0.014c-2.576-0.605-4.912-2.089-6.643-4.269
		c-0.261-0.328-0.544-0.631-0.847-0.909c-2.053-1.96-5.016-2.718-7.797-1.913c-2.245,0.651-4.09,0.956-5.804,0.956
		c-1.476,0-3.053-0.216-4.957-0.68c-2.613-0.638-5.369,0.073-7.349,1.894c-4.164,3.825-9.484,5.932-14.98,5.932
		c-6.867,0-13.266-3.205-17.553-8.793c-1.357-1.768-3.387-2.895-5.606-3.11c-2.216-0.212-4.428,0.499-6.101,1.973
		c-2.665,2.35-7.145,5.152-13.345,5.152c-1.105,0-2.295-0.124-3.612-0.376l-0.251-0.061c-0.193-0.047-0.386-0.093-0.584-0.137
		c-1.057-0.253-1.959-0.527-2.825-0.864c-0.387-0.147-0.719-0.244-1.015-0.318c-0.421-0.129-0.847-0.217-1.273-0.274
		c-0.027-0.003-0.053-0.01-0.079-0.013c-0.402-0.05-0.805-0.065-1.206-0.055c-0.046,0.001-0.092,0-0.138,0.002
		c-0.388,0.017-0.773,0.065-1.151,0.137c-0.055,0.011-0.109,0.019-0.163,0.031c-0.372,0.078-0.738,0.185-1.095,0.315
		c-0.055,0.02-0.108,0.04-0.162,0.061c-0.355,0.138-0.701,0.301-1.033,0.489c-0.047,0.027-0.094,0.056-0.142,0.083
		c-0.334,0.197-0.656,0.416-0.959,0.662c-0.036,0.029-0.071,0.061-0.106,0.091c-0.308,0.257-0.601,0.536-0.871,0.842
		c-0.02,0.023-0.039,0.048-0.059,0.072c-0.279,0.323-0.538,0.668-0.767,1.042c-2.093,3.409-5.668,5.444-9.563,5.444
		c-3.063,0-5.396-1.306-6.838-2.427c-0.024-0.019-0.043-0.043-0.068-0.062c-2.156-1.698-3.619-4.033-4.122-6.576
		c-0.005-0.026-0.014-0.049-0.019-0.074c-0.132-0.688-0.207-1.396-0.207-2.121C56.179,105.443,60.872,100.538,66.863,100.23z
		 M48.207,207.616c-0.067,2.357-4.623,4.351-9.95,4.351c-6.806,0-13.238-2.928-17.205-7.83c-4.863-6.011-6.175-15.085-3.794-26.238
		c5.492-25.714,18.045-41.381,28.186-50.256c0.21,0.284,0.428,0.561,0.649,0.837c-0.026,0.069-0.046,0.139-0.071,0.208
		c-0.439,1.212-0.855,2.432-1.246,3.658c-0.03,0.094-0.062,0.188-0.092,0.282c-0.392,1.241-0.753,2.491-1.095,3.746
		c-0.057,0.21-0.116,0.421-0.172,0.631c-0.325,1.226-0.628,2.458-0.906,3.695c-0.047,0.208-0.091,0.417-0.136,0.627
		c-0.278,1.275-0.536,2.553-0.764,3.837c-0.014,0.078-0.026,0.158-0.039,0.237c-0.22,1.262-0.413,2.528-0.584,3.799
		c-0.023,0.163-0.046,0.324-0.068,0.487c-0.164,1.266-0.299,2.536-0.415,3.811c-0.021,0.238-0.043,0.476-0.063,0.716
		c-0.105,1.264-0.19,2.532-0.247,3.804c-0.01,0.207-0.015,0.413-0.024,0.62c-0.053,1.333-0.087,2.669-0.087,4.011
		c0,0.842,0.012,1.688,0.032,2.534c0.004,0.168,0.013,0.339,0.018,0.509c0.02,0.692,0.045,1.385,0.079,2.079
		c0.008,0.146,0.017,0.292,0.026,0.438c0.04,0.737,0.085,1.475,0.139,2.215c0.006,0.08,0.013,0.162,0.019,0.244
		c0.062,0.823,0.134,1.647,0.216,2.472c0,0.001,0,0.003,0,0.004c1.063,10.807,3.719,21.772,7.72,32.299
		C48.27,206.133,48.222,206.869,48.207,207.616z M64.092,201.557c-0.02-0.055-0.032-0.111-0.054-0.164
		c-3.529-8.899-5.915-18.002-7.066-26.84c-0.008-0.06-0.015-0.12-0.023-0.18c-0.088-0.689-0.168-1.374-0.241-2.06
		c-0.019-0.181-0.038-0.362-0.056-0.543c-0.058-0.569-0.109-1.135-0.157-1.701c-0.019-0.227-0.038-0.454-0.055-0.681
		c-0.04-0.525-0.074-1.047-0.104-1.569c-0.014-0.242-0.03-0.486-0.042-0.729c-0.027-0.528-0.046-1.053-0.063-1.577
		c-0.008-0.222-0.017-0.445-0.024-0.666c-0.018-0.736-0.03-1.47-0.03-2.2c0-1.271,0.038-2.538,0.093-3.8
		c0.017-0.378,0.042-0.753,0.063-1.13c0.054-0.923,0.121-1.843,0.205-2.762c0.035-0.384,0.068-0.768,0.108-1.151
		c0.119-1.134,0.258-2.264,0.422-3.389c0.017-0.118,0.029-0.236,0.047-0.354c0.187-1.238,0.408-2.47,0.649-3.697
		c0.069-0.35,0.147-0.697,0.22-1.046c0.191-0.908,0.397-1.812,0.619-2.713c0.092-0.374,0.183-0.749,0.281-1.122
		c0.269-1.034,0.559-2.063,0.869-3.088c0.055-0.181,0.103-0.365,0.159-0.546c0.014-0.045,0.032-0.09,0.046-0.136
		c1.183,0.337,2.398,0.598,3.64,0.773c0.044,0.006,0.088,0.011,0.133,0.017c0.514,0.07,1.032,0.124,1.555,0.165
		c0.135,0.011,0.27,0.023,0.407,0.031c0.575,0.036,1.152,0.061,1.736,0.061c0.46,0,0.918-0.012,1.376-0.034
		c0.164-0.009,0.326-0.026,0.489-0.036c0.292-0.019,0.584-0.036,0.873-0.065c0.138-0.014,0.275-0.035,0.413-0.051
		c0.312-0.036,0.626-0.071,0.935-0.117c0.133-0.02,0.264-0.047,0.397-0.07c0.311-0.052,0.623-0.102,0.932-0.164
		c0.145-0.029,0.289-0.067,0.432-0.099c0.294-0.064,0.588-0.127,0.879-0.201c0.138-0.035,0.274-0.078,0.411-0.115
		c0.294-0.079,0.588-0.158,0.878-0.247c0.139-0.043,0.275-0.093,0.413-0.138c0.285-0.093,0.572-0.185,0.854-0.286
		c0.139-0.05,0.276-0.108,0.414-0.162c0.276-0.105,0.553-0.209,0.825-0.323c0.148-0.062,0.293-0.133,0.441-0.197
		c0.259-0.114,0.518-0.225,0.773-0.348c0.146-0.07,0.288-0.147,0.432-0.22c0.252-0.127,0.504-0.25,0.752-0.384
		c0.142-0.076,0.279-0.161,0.42-0.24c0.246-0.138,0.494-0.276,0.735-0.423c0.139-0.085,0.276-0.177,0.413-0.265
		c0.237-0.149,0.475-0.297,0.707-0.454c0.138-0.093,0.271-0.193,0.408-0.29c0.227-0.16,0.457-0.319,0.68-0.486
		c0.133-0.1,0.26-0.206,0.391-0.308c0.221-0.172,0.443-0.342,0.66-0.521c0.126-0.104,0.246-0.216,0.37-0.322
		c0.216-0.186,0.433-0.37,0.644-0.562c0.115-0.106,0.225-0.218,0.339-0.326c0.202-0.191,0.405-0.38,0.601-0.577
		c2.01,0.446,4.047,0.712,6.103,0.807c0.56,0.03,1.115,0.045,1.666,0.045c6.166,0,12.214-1.615,17.595-4.634
		c6.908,6.051,15.696,9.413,25.01,9.413c8.145,0,16.032-2.634,22.608-7.488c1.752,0.249,3.417,0.362,5.084,0.34
		c1.706-0.015,3.38-0.157,5.061-0.409c4.425,3.851,9.896,6.209,15.74,6.738c0.835,0.076,1.678,0.115,2.526,0.115
		c0.459,0,0.916-0.013,1.372-0.034c0.188-0.01,0.373-0.027,0.559-0.04c0.262-0.018,0.525-0.034,0.784-0.06
		c0.24-0.024,0.48-0.055,0.718-0.084c0.2-0.025,0.4-0.047,0.599-0.076c0.275-0.04,0.546-0.087,0.818-0.134
		c0.157-0.028,0.313-0.054,0.47-0.085c0.303-0.058,0.604-0.123,0.903-0.192c0.117-0.027,0.234-0.053,0.35-0.08
		c0.332-0.08,0.661-0.167,0.988-0.259c0.076-0.021,0.152-0.043,0.229-0.065c0.364-0.105,0.724-0.218,1.082-0.337
		c0.029-0.01,0.059-0.02,0.088-0.03c0.389-0.132,0.776-0.271,1.158-0.42c0.045,0.122,0.088,0.246,0.132,0.369
		c0.329,0.908,0.643,1.82,0.939,2.737c0.058,0.179,0.119,0.358,0.176,0.539c0.32,1.012,0.618,2.03,0.898,3.053
		c0.062,0.226,0.122,0.454,0.182,0.681c0.277,1.044,0.54,2.09,0.775,3.145c0.002,0.011,0.005,0.023,0.008,0.034
		c0.236,1.062,0.445,2.131,0.639,3.202c0.042,0.233,0.085,0.465,0.126,0.697c0.181,1.049,0.345,2.103,0.487,3.162
		c0.024,0.177,0.043,0.355,0.065,0.532c0.123,0.973,0.23,1.951,0.32,2.93c0.017,0.181,0.036,0.363,0.052,0.544
		c0.09,1.07,0.159,2.145,0.209,3.223c0.011,0.236,0.019,0.472,0.029,0.709c0.043,1.108,0.072,2.219,0.072,3.335
		c0,0.73-0.011,1.462-0.03,2.2c-0.005,0.202-0.015,0.404-0.021,0.606c-0.018,0.547-0.039,1.097-0.067,1.648
		c-0.011,0.209-0.025,0.418-0.036,0.628c-0.033,0.564-0.069,1.129-0.113,1.696c-0.013,0.175-0.028,0.35-0.042,0.525
		c-0.053,0.642-0.112,1.285-0.177,1.93c-0.01,0.093-0.019,0.187-0.029,0.281c-1.005,9.519-3.475,19.416-7.29,29.089
		c-0.001,0.002-0.001,0.004-0.002,0.008c-10.075,25.534-31.239,51.274-57.42,55.912c-0.041,0.008-0.083,0.015-0.123,0.023
		c-1.691,0.295-3.404,0.496-5.135,0.609c-0.195,0.013-0.391,0.025-0.587,0.034c-0.833,0.044-1.67,0.074-2.511,0.074
		c-0.76,0-1.519-0.023-2.28-0.06c-0.12-0.005-0.239-0.015-0.358-0.021c-11.993-0.692-24.089-6.079-35.143-15.693
		c-0.313-0.273-0.646-0.513-0.99-0.73C79.542,231.097,70.203,216.901,64.092,201.557z M157.93,461.619l-6.53,1.958V449.57h17.674
		v14.005l-6.519-1.956C161.047,461.167,159.439,461.166,157.93,461.619z M216.339,464.438l-13.913-2.981
		c-0.557-0.118-1.121-0.178-1.686-0.178c-0.565,0-1.132,0.06-1.687,0.179l-13.886,2.977v-14.866h31.172v14.868H216.339z
		 M378.405,401.125v32.35h-17.663v-20.24C367.372,410.368,373.37,406.251,378.405,401.125z M369.574,461.279
		c-0.78,0-1.559,0.113-2.313,0.339l-6.517,1.956v-14.005h17.663v14.005l-6.519-1.956
		C371.132,461.392,370.353,461.279,369.574,461.279z M425.681,464.438l-13.912-2.981c-0.557-0.118-1.121-0.178-1.686-0.178
		s-1.131,0.06-1.687,0.179l-13.897,2.977v-14.866h31.182v14.868H425.681z M482.429,264.487c8.563,6.649,13.476,16.535,13.476,27.124
		c0,19.021-15.475,34.495-34.495,34.495c-0.605,0-1.378-0.105-2.271-0.225c-0.529-0.071-1.058-0.143-1.592-0.202
		c-2.272-0.263-4.548,0.475-6.252,2.003c-1.705,1.526-2.679,3.706-2.679,5.995c0,0.223,0.009,0.446,0.023,0.681
		c-0.073,13.466-7.339,26.086-19.001,32.97c-2.451,1.447-3.956,4.083-3.956,6.929v59.216h-31.182V387.23
		c3.727,1.041,7.667,1.579,11.772,1.579c0.812,0,1.632-0.021,2.455-0.063c4.44-0.224,7.855-4.003,7.631-8.442
		c-0.224-4.439-4.011-7.865-8.442-7.631c-5.9,0.298-11.062-0.983-15.4-3.769c-0.547-0.631-1.185-1.191-1.922-1.634
		c-0.369-0.221-0.748-0.423-1.131-0.618l-0.205-0.107c-0.055-0.034-0.114-0.059-0.17-0.092c-0.176-0.104-0.354-0.202-0.535-0.291
		c-0.084-0.042-0.167-0.082-0.253-0.12c-0.197-0.089-0.397-0.168-0.599-0.24c-0.075-0.027-0.149-0.056-0.225-0.081
		c-0.246-0.079-0.494-0.147-0.744-0.202c-0.034-0.008-0.069-0.019-0.104-0.026c-0.286-0.059-0.574-0.101-0.864-0.129
		c-0.078-0.008-0.157-0.008-0.235-0.013c-0.207-0.014-0.413-0.023-0.62-0.02c-0.112,0.001-0.222,0.009-0.334,0.014
		c-0.178,0.01-0.356,0.024-0.533,0.045c-0.114,0.014-0.227,0.029-0.341,0.047c-0.188,0.031-0.374,0.07-0.56,0.114
		c-0.095,0.023-0.191,0.042-0.285,0.068c-0.568,0.157-1.119,0.376-1.645,0.657c-0.07,0.036-0.135,0.078-0.204,0.118
		c-0.189,0.108-0.374,0.222-0.556,0.347c-0.082,0.056-0.16,0.114-0.239,0.172c-0.158,0.117-0.312,0.241-0.464,0.372
		c-0.082,0.07-0.162,0.139-0.24,0.212c-0.138,0.13-0.271,0.268-0.402,0.41c-0.056,0.06-0.118,0.113-0.172,0.175
		c-0.018,0.021-0.033,0.045-0.051,0.067c-0.02,0.024-0.042,0.044-0.062,0.068c-0.128,0.153-0.241,0.313-0.356,0.473
		c-0.04,0.055-0.084,0.106-0.122,0.162c-0.171,0.25-0.324,0.508-0.462,0.769c-0.025,0.046-0.044,0.095-0.068,0.142
		c-0.112,0.222-0.214,0.446-0.304,0.676c-0.03,0.076-0.056,0.155-0.084,0.232c-0.075,0.209-0.142,0.421-0.197,0.634
		c-0.013,0.046-0.031,0.09-0.043,0.137c-0.005,0.02-0.011,0.04-0.016,0.06c-0.19,0.76-0.405,1.51-0.638,2.253
		c-0.031,0.1-0.062,0.198-0.094,0.298c-3.942,12.175-13.742,21.922-26.133,25.779c-0.399,0.124-0.781,0.282-1.148,0.461
		c-3.402,0.94-6.972,1.446-10.643,1.446c-15.477,0-29.257-8.71-35.962-22.734c-1.324-2.77-4.11-4.545-7.18-4.576
		c-0.027,0-0.054,0-0.079,0c-3.04,0-5.823,1.713-7.19,4.433c-6.045,12.026-18.039,19.496-31.302,19.496
		c-10.082,0-19.694-4.355-26.371-11.947c-2.211-2.514-5.747-3.395-8.882-2.215c-3.134,1.182-5.208,4.18-5.208,7.53v41.751h-31.17
		V390.94c4.497,2.339,9.895,4.217,16.381,5.216c0.416,0.064,0.828,0.095,1.235,0.095c3.904,0,7.331-2.845,7.943-6.822
		c0.677-4.394-2.335-8.502-6.727-9.179c-13.467-2.075-19.795-9.393-22.515-14.032c-0.034-0.064-0.075-0.127-0.108-0.191
		c-0.039-0.068-0.076-0.134-0.114-0.201c-0.686-1.31-1.264-2.649-1.73-4.006c-0.011-0.032-0.029-0.06-0.04-0.092
		c-0.133-0.372-0.289-0.731-0.469-1.072c-0.021-0.041-0.046-0.079-0.069-0.12c-0.402-0.726-0.908-1.373-1.494-1.93
		c-0.014-0.013-0.028-0.027-0.043-0.04c-1.542-1.442-3.62-2.252-5.794-2.171c-0.021,0.001-0.043-0.003-0.064-0.002
		c-0.021,0.001-0.043,0.003-0.064,0.003c-0.026,0.001-0.05,0.003-0.076,0.004c-0.289,0.014-0.575,0.031-0.862,0.051
		c-0.289,0.019-0.576,0.045-0.869,0.045c-0.898,0-1.793-0.036-2.687-0.093c-0.182-0.012-0.364-0.028-0.546-0.042
		c-0.833-0.064-1.662-0.146-2.488-0.26c-0.036-0.005-0.073-0.009-0.109-0.014c-5.734-0.805-11.287-2.79-16.312-5.858
		c-0.158-0.097-0.32-0.177-0.482-0.262c-11.988-7.546-19.976-20.889-19.976-36.07c0-5.924,1.221-11.694,3.63-17.154
		c0.989-2.243,0.902-4.816-0.238-6.988c-1.141-2.172-3.208-3.705-5.618-4.164c-11.428-2.179-20.804-9.491-25.936-19.268
		c7.762,3.969,16.057,6.547,24.732,7.38c0.168,0.016,0.337,0.031,0.505,0.046c0.465,0.041,0.93,0.079,1.397,0.111
		c0.354,0.024,0.708,0.041,1.062,0.059c0.329,0.016,0.658,0.035,0.987,0.047c0.715,0.025,1.429,0.04,2.144,0.04
		c0.858,0,1.712-0.02,2.564-0.055c0.187-0.008,0.372-0.021,0.558-0.031c0.693-0.034,1.383-0.076,2.071-0.133
		c0.153-0.013,0.307-0.029,0.461-0.043c0.754-0.068,1.505-0.147,2.254-0.24c0.073-0.01,0.146-0.018,0.219-0.028
		c7.103-0.911,13.938-2.988,20.42-6.035c0.104-0.048,0.208-0.095,0.312-0.145c0.531-0.252,1.057-0.515,1.583-0.78
		c16.922-8.468,32.074-23.731,43.057-43.836c0.041,0.03,0.087,0.056,0.128,0.085c0.506,0.368,1.031,0.72,1.576,1.054
		c0.078,0.048,0.159,0.094,0.237,0.142c0.554,0.33,1.126,0.644,1.717,0.939c0.079,0.04,0.161,0.077,0.242,0.116
		c0.602,0.292,1.219,0.565,1.856,0.819c0.078,0.031,0.158,0.06,0.236,0.09c0.649,0.251,1.314,0.483,1.998,0.692
		c0.072,0.023,0.145,0.042,0.217,0.063c0.697,0.208,1.41,0.396,2.141,0.558c0.063,0.014,0.128,0.026,0.19,0.04
		c0.746,0.161,1.505,0.301,2.282,0.414c0.049,0.008,0.1,0.012,0.148,0.019c0.796,0.112,1.606,0.201,2.432,0.259
		c0.028,0.002,0.056,0.002,0.083,0.004c0.85,0.058,1.715,0.09,2.593,0.09c11.617,0,22.728-5.16,29.718-13.802
		c5.595-6.915,11.354-19.42,7.018-39.719c-0.318-1.486-0.66-2.939-1.017-4.369c-0.098-0.391-0.203-0.77-0.304-1.157
		c-0.277-1.067-0.562-2.121-0.86-3.157c-0.103-0.356-0.209-0.708-0.314-1.061c-0.33-1.109-0.673-2.202-1.026-3.275
		c-0.072-0.217-0.143-0.436-0.216-0.65c-5.936-17.677-14.859-30.457-23.404-39.408c9.757-14.339,25.913-23.033,43.433-23.033
		c22.432,0,42.441,14.271,49.791,35.511c0.873,2.526,2.945,4.453,5.527,5.143c2.577,0.693,5.339,0.056,7.354-1.698
		c8.87-7.705,20.187-11.947,31.87-11.947c19.713,0,37.353,11.767,44.942,29.977c1.641,3.938,6.07,5.918,10.1,4.495
		c3.934-1.384,7.575-2.058,11.13-2.058c18.65,0,33.821,15.173,33.821,33.821c0,0.177-0.065,0.65-0.117,1.032
		c-0.078,0.578-0.156,1.158-0.203,1.747c-0.335,4.046,2.398,7.708,6.371,8.538c12.145,2.542,20.959,13.4,20.959,25.818
		c0,9.192-4.761,17.587-12.733,22.453c-2.257,1.378-3.693,3.777-3.842,6.417C479.183,260.322,480.34,262.866,482.429,264.487z"/>
	<path style="fill:#231F20;" d="M93.525,180.139c4.387,0,7.937-3.55,7.937-7.927c0-4.385-3.55-7.935-7.937-7.935
		c-4.385,0-7.933,3.551-7.933,7.935C85.591,176.588,89.14,180.139,93.525,180.139z"/>
	<path style="fill:#231F20;" d="M162.722,180.131c4.386,0,7.935-3.551,7.935-7.927c0-4.386-3.55-7.935-7.935-7.935
		c-4.385,0-7.935,3.549-7.935,7.935C154.787,176.581,158.337,180.131,162.722,180.131z"/>
	<path style="fill:#231F20;" d="M123.167,209.856c1.506,2.15,3.967,3.43,6.592,3.43s5.085-1.28,6.592-3.43l5.182-7.399
		c1.721-2.458,1.932-5.669,0.546-8.332c-1.385-2.661-4.136-4.331-7.137-4.331h-10.365c-3.001,0-5.752,1.671-7.137,4.331
		c-1.386,2.662-1.176,5.874,0.546,8.332L123.167,209.856z"/>
</g>
<g style="opacity:0.15;">
	<rect x="143.356" y="363.179" style="fill:#231F20;" width="17.167" height="103.99"/>
</g>
<g style="opacity:0.15;">
	<rect x="360.766" y="398.501" style="fill:#231F20;" width="17.167" height="68.218"/>
</g>
<g style="opacity:0.15;">
	<rect x="394.521" y="385.625" style="fill:#231F20;" width="17.167" height="81.093"/>
</g>
<g style="opacity:0.15;">
	<path style="fill:#231F20;" d="M190.875,342.515l0.003-0.009c-25.698-2.336-46.084-24.281-46.084-50.426
		c0-5.14,0.778-10.218,2.311-15.089c0.884-2.808-0.658-5.802-3.458-6.713c-2.887-0.94-5.701-2.183-8.361-3.698
		c-0.893-0.51-1.913-0.754-2.939-0.695c-0.926,0.049-1.774,0.073-2.59,0.073c-11.34,0-22.553-3.505-33.323-10.418
		c-1.88-1.206-4.31-1.121-6.102,0.211c-1.791,1.333-2.571,3.637-1.954,5.784c4.738,16.504,18.14,28.751,34.978,31.961
		c-2.862,6.489-4.313,13.353-4.313,20.402c0,27.927,22.721,50.646,50.646,50.646c0.422,0,0.838-0.024,1.255-0.053l0.153-0.011
		c0.277-0.019,0.554-0.038,0.823-0.05v0.001c1.19,3.468,2.94,6.818,5.199,9.955v92.888c0,2.963,2.401,5.365,5.365,5.365h15.021
		c2.963,0,5.365-2.401,5.365-5.365V358.533C202.872,344.405,190.875,342.515,190.875,342.515z"/>
</g>
<g>
</g>
<g>
</g>
<g>
</g>
<g>
</g>
<g>
</g>
<g>
</g>
<g>
</g>
<g>
</g>
<g>
</g>
<g>
</g>
<g>
</g>
<g>
</g>
<g>
</g>
<g>
</g>
<g>
</g>
</svg>
