<svg width="314" height="31" viewBox="0 0 314 31" fill="none" xmlns="http://www.w3.org/2000/svg">
<path d="M1.52637 23H0.0322266V1.58398H11.7656V2.96094H1.52637V12.043H11.1943V13.4346H1.52637V23ZM24.3926 23L24.0264 20.4805H23.9092C23.1084 21.5059 22.2832 22.2334 21.4336 22.6631C20.5938 23.083 19.5977 23.293 18.4453 23.293C16.8828 23.293 15.667 22.8926 14.7979 22.0918C13.9287 21.291 13.4941 20.1826 13.4941 18.7666C13.4941 17.2139 14.1387 16.0078 15.4277 15.1484C16.7266 14.2891 18.6016 13.835 21.0527 13.7861L24.085 13.6982V12.6436C24.085 11.1299 23.7773 9.9873 23.1621 9.21582C22.5469 8.44434 21.5557 8.05859 20.1885 8.05859C18.7139 8.05859 17.1855 8.46875 15.6035 9.28906L15.0615 8.0293C16.8096 7.20898 18.5381 6.79883 20.2471 6.79883C21.9951 6.79883 23.2988 7.25293 24.1582 8.16113C25.0273 9.06934 25.4619 10.4854 25.4619 12.4092V23H24.3926ZM18.5332 21.9746C20.2324 21.9746 21.5703 21.4912 22.5469 20.5244C23.5332 19.5479 24.0264 18.1953 24.0264 16.4668V14.8994L21.2432 15.0166C19.0068 15.124 17.4102 15.4756 16.4531 16.0713C15.5059 16.6572 15.0322 17.5752 15.0322 18.8252C15.0322 19.8213 15.335 20.5977 15.9404 21.1543C16.5557 21.7012 17.4199 21.9746 18.5332 21.9746ZM36.9023 6.76953C37.5762 6.76953 38.2988 6.83789 39.0703 6.97461L38.792 8.36621C38.1279 8.2002 37.4395 8.11719 36.7266 8.11719C35.3691 8.11719 34.2559 8.69336 33.3867 9.8457C32.5176 10.998 32.083 12.4531 32.083 14.2109V23H30.6328V7.07715H31.8633L32.0098 9.94824H32.1123C32.7666 8.77637 33.4648 7.95605 34.207 7.4873C34.9492 7.00879 35.8477 6.76953 36.9023 6.76953ZM62.2148 23V12.5557C62.2148 11.0029 61.9121 9.87012 61.3066 9.15723C60.7012 8.44434 59.7734 8.08789 58.5234 8.08789C56.8926 8.08789 55.6865 8.53711 54.9053 9.43555C54.124 10.334 53.7334 11.7451 53.7334 13.6689V23H52.2539V12.1162C52.2539 9.43066 51.0234 8.08789 48.5625 8.08789C46.8926 8.08789 45.6768 8.57617 44.915 9.55273C44.1533 10.5195 43.7725 12.0723 43.7725 14.2109V23H42.3223V7.07715H43.5234L43.8311 9.25977H43.9189C44.3584 8.46875 44.9834 7.8584 45.7939 7.42871C46.6045 6.98926 47.498 6.76953 48.4746 6.76953C50.9844 6.76953 52.5957 7.71191 53.3086 9.59668H53.3672C53.8848 8.68848 54.5781 7.99023 55.4473 7.50195C56.3262 7.01367 57.3223 6.76953 58.4355 6.76953C60.1738 6.76953 61.4775 7.2334 62.3467 8.16113C63.2158 9.08887 63.6504 10.5635 63.6504 12.585V23H62.2148ZM88.7871 17.4775C88.7871 19.2646 88.1279 20.6807 86.8096 21.7256C85.501 22.7705 83.7578 23.293 81.5801 23.293C78.9629 23.293 76.9561 23.0049 75.5596 22.4287V20.9346C77.1025 21.5889 79.0703 21.916 81.4629 21.916C83.2207 21.916 84.6123 21.5156 85.6377 20.7148C86.6729 19.9043 87.1904 18.8447 87.1904 17.5361C87.1904 16.7256 87.0195 16.0566 86.6777 15.5293C86.3359 14.9922 85.7793 14.5039 85.0078 14.0645C84.2363 13.625 83.1035 13.1514 81.6094 12.6436C79.4219 11.8916 77.9082 11.0811 77.0684 10.2119C76.2383 9.33301 75.8232 8.16602 75.8232 6.71094C75.8232 5.10938 76.4482 3.80566 77.6982 2.7998C78.958 1.78418 80.5742 1.27637 82.5469 1.27637C84.5586 1.27637 86.4482 1.65723 88.2158 2.41895L87.6738 3.70801C85.8965 2.96582 84.1973 2.59473 82.5762 2.59473C80.9941 2.59473 79.7344 2.96094 78.7969 3.69336C77.8594 4.42578 77.3906 5.42188 77.3906 6.68164C77.3906 7.47266 77.5322 8.12207 77.8154 8.62988C78.1084 9.1377 78.582 9.59668 79.2363 10.0068C79.8906 10.4072 81.0137 10.8906 82.6055 11.457C84.2754 12.0332 85.5303 12.5947 86.3701 13.1416C87.21 13.6787 87.8203 14.2939 88.2012 14.9873C88.5918 15.6709 88.7871 16.501 88.7871 17.4775ZM94.207 7.07715V17.3896C94.207 18.9912 94.5439 20.1582 95.2178 20.8906C95.8916 21.6133 96.9365 21.9746 98.3525 21.9746C100.247 21.9746 101.639 21.4961 102.527 20.5391C103.426 19.582 103.875 18.0244 103.875 15.8662V7.07715H105.311V23H104.08L103.816 20.8027H103.729C102.693 22.4629 100.853 23.293 98.2061 23.293C94.583 23.293 92.7715 21.3545 92.7715 17.4775V7.07715H94.207ZM120.516 18.8545C120.516 20.2803 119.974 21.3789 118.89 22.1504C117.806 22.9121 116.268 23.293 114.275 23.293C112.146 23.293 110.457 22.9658 109.207 22.3115V20.7441C110.809 21.5449 112.498 21.9453 114.275 21.9453C115.848 21.9453 117.039 21.6865 117.85 21.1689C118.67 20.6416 119.08 19.9434 119.08 19.0742C119.08 18.2734 118.753 17.5996 118.099 17.0527C117.454 16.5059 116.39 15.9688 114.905 15.4414C113.313 14.8652 112.195 14.3721 111.551 13.9619C110.906 13.542 110.418 13.0732 110.086 12.5557C109.764 12.0283 109.603 11.3887 109.603 10.6367C109.603 9.44531 110.101 8.50293 111.097 7.80957C112.103 7.11621 113.504 6.76953 115.301 6.76953C117.02 6.76953 118.65 7.0918 120.193 7.73633L119.651 9.05469C118.089 8.41016 116.639 8.08789 115.301 8.08789C114.002 8.08789 112.972 8.30273 112.21 8.73242C111.448 9.16211 111.067 9.75781 111.067 10.5195C111.067 11.3496 111.36 12.0137 111.946 12.5117C112.542 13.0098 113.699 13.5664 115.418 14.1816C116.854 14.6992 117.898 15.168 118.553 15.5879C119.207 15.998 119.695 16.4668 120.018 16.9941C120.35 17.5215 120.516 18.1416 120.516 18.8545ZM128.821 22.0039C129.739 22.0039 130.54 21.9258 131.224 21.7695V22.9414C130.521 23.1758 129.71 23.293 128.792 23.293C127.386 23.293 126.346 22.917 125.672 22.165C125.008 21.4131 124.676 20.2314 124.676 18.6201V8.33691H122.317V7.4873L124.676 6.82812L125.408 3.22461H126.155V7.07715H130.828V8.33691H126.155V18.415C126.155 19.6357 126.37 20.5391 126.8 21.125C127.229 21.7109 127.903 22.0039 128.821 22.0039ZM144.334 23L143.968 20.4805H143.851C143.05 21.5059 142.225 22.2334 141.375 22.6631C140.535 23.083 139.539 23.293 138.387 23.293C136.824 23.293 135.608 22.8926 134.739 22.0918C133.87 21.291 133.436 20.1826 133.436 18.7666C133.436 17.2139 134.08 16.0078 135.369 15.1484C136.668 14.2891 138.543 13.835 140.994 13.7861L144.026 13.6982V12.6436C144.026 11.1299 143.719 9.9873 143.104 9.21582C142.488 8.44434 141.497 8.05859 140.13 8.05859C138.655 8.05859 137.127 8.46875 135.545 9.28906L135.003 8.0293C136.751 7.20898 138.479 6.79883 140.188 6.79883C141.937 6.79883 143.24 7.25293 144.1 8.16113C144.969 9.06934 145.403 10.4854 145.403 12.4092V23H144.334ZM138.475 21.9746C140.174 21.9746 141.512 21.4912 142.488 20.5244C143.475 19.5479 143.968 18.1953 143.968 16.4668V14.8994L141.185 15.0166C138.948 15.124 137.352 15.4756 136.395 16.0713C135.447 16.6572 134.974 17.5752 134.974 18.8252C134.974 19.8213 135.276 20.5977 135.882 21.1543C136.497 21.7012 137.361 21.9746 138.475 21.9746ZM152.024 23H150.574V7.07715H152.024V23ZM150.369 2.65332C150.369 1.71582 150.677 1.24707 151.292 1.24707C151.595 1.24707 151.829 1.36914 151.995 1.61328C152.171 1.85742 152.259 2.2041 152.259 2.65332C152.259 3.09277 152.171 3.43945 151.995 3.69336C151.829 3.94727 151.595 4.07422 151.292 4.07422C150.677 4.07422 150.369 3.60059 150.369 2.65332ZM168.475 23V12.6729C168.475 11.0713 168.138 9.90918 167.464 9.18652C166.79 8.4541 165.745 8.08789 164.329 8.08789C162.425 8.08789 161.028 8.57129 160.14 9.53809C159.261 10.4951 158.821 12.0527 158.821 14.2109V23H157.371V7.07715H158.602L158.88 9.25977H158.968C160.003 7.59961 161.844 6.76953 164.49 6.76953C168.104 6.76953 169.91 8.70801 169.91 12.585V23H168.475ZM184.734 23L184.368 20.4805H184.251C183.45 21.5059 182.625 22.2334 181.775 22.6631C180.936 23.083 179.939 23.293 178.787 23.293C177.225 23.293 176.009 22.8926 175.14 22.0918C174.271 21.291 173.836 20.1826 173.836 18.7666C173.836 17.2139 174.48 16.0078 175.77 15.1484C177.068 14.2891 178.943 13.835 181.395 13.7861L184.427 13.6982V12.6436C184.427 11.1299 184.119 9.9873 183.504 9.21582C182.889 8.44434 181.897 8.05859 180.53 8.05859C179.056 8.05859 177.527 8.46875 175.945 9.28906L175.403 8.0293C177.151 7.20898 178.88 6.79883 180.589 6.79883C182.337 6.79883 183.641 7.25293 184.5 8.16113C185.369 9.06934 185.804 10.4854 185.804 12.4092V23H184.734ZM178.875 21.9746C180.574 21.9746 181.912 21.4912 182.889 20.5244C183.875 19.5479 184.368 18.1953 184.368 16.4668V14.8994L181.585 15.0166C179.349 15.124 177.752 15.4756 176.795 16.0713C175.848 16.6572 175.374 17.5752 175.374 18.8252C175.374 19.8213 175.677 20.5977 176.282 21.1543C176.897 21.7012 177.762 21.9746 178.875 21.9746ZM197.698 6.76953C199.925 6.76953 201.6 7.47266 202.723 8.87891C203.855 10.2754 204.422 12.3213 204.422 15.0166C204.422 17.6631 203.826 19.7041 202.635 21.1396C201.453 22.5752 199.788 23.293 197.64 23.293C196.507 23.293 195.486 23.0586 194.578 22.5898C193.67 22.1211 192.952 21.457 192.425 20.5977H192.293L191.883 23H190.975V0.207031H192.425V5.93457C192.425 6.79395 192.405 7.58496 192.366 8.30762L192.322 9.55273H192.425C193.03 8.5957 193.758 7.89258 194.607 7.44336C195.467 6.99414 196.497 6.76953 197.698 6.76953ZM197.669 8.08789C195.794 8.08789 194.451 8.625 193.641 9.69922C192.83 10.7734 192.425 12.5459 192.425 15.0166V15.2656C192.425 17.668 192.845 19.3916 193.685 20.4365C194.534 21.4814 195.853 22.0039 197.64 22.0039C199.378 22.0039 200.687 21.3984 201.565 20.1875C202.444 18.9668 202.884 17.2334 202.884 14.9873C202.884 10.3877 201.146 8.08789 197.669 8.08789ZM210.296 23H208.846V7.07715H210.296V23ZM208.641 2.65332C208.641 1.71582 208.948 1.24707 209.563 1.24707C209.866 1.24707 210.101 1.36914 210.267 1.61328C210.442 1.85742 210.53 2.2041 210.53 2.65332C210.53 3.09277 210.442 3.43945 210.267 3.69336C210.101 3.94727 209.866 4.07422 209.563 4.07422C208.948 4.07422 208.641 3.60059 208.641 2.65332ZM217.093 23H215.643V0.207031H217.093V23ZM223.89 23H222.439V7.07715H223.89V23ZM222.234 2.65332C222.234 1.71582 222.542 1.24707 223.157 1.24707C223.46 1.24707 223.694 1.36914 223.86 1.61328C224.036 1.85742 224.124 2.2041 224.124 2.65332C224.124 3.09277 224.036 3.43945 223.86 3.69336C223.694 3.94727 223.46 4.07422 223.157 4.07422C222.542 4.07422 222.234 3.60059 222.234 2.65332ZM233.44 22.0039C234.358 22.0039 235.159 21.9258 235.843 21.7695V22.9414C235.14 23.1758 234.329 23.293 233.411 23.293C232.005 23.293 230.965 22.917 230.291 22.165C229.627 21.4131 229.295 20.2314 229.295 18.6201V8.33691H226.937V7.4873L229.295 6.82812L230.027 3.22461H230.774V7.07715H235.447V8.33691H230.774V18.415C230.774 19.6357 230.989 20.5391 231.419 21.125C231.849 21.7109 232.522 22.0039 233.44 22.0039ZM236.619 7.07715H238.113L241.482 16.0127C242.508 18.7568 243.157 20.6074 243.431 21.5645H243.519C243.929 20.3047 244.598 18.4248 245.525 15.9248L248.895 7.07715H250.389L243.255 25.5781C242.679 27.082 242.195 28.0977 241.805 28.625C241.414 29.1523 240.955 29.5479 240.428 29.8115C239.91 30.0752 239.28 30.207 238.538 30.207C237.981 30.207 237.361 30.1045 236.678 29.8994V28.6396C237.244 28.7959 237.854 28.874 238.509 28.874C239.007 28.874 239.446 28.7568 239.827 28.5225C240.208 28.2881 240.55 27.9219 240.853 27.4238C241.165 26.9355 241.521 26.1543 241.922 25.0801C242.332 24.0156 242.596 23.3223 242.713 23L236.619 7.07715ZM266.795 23H265.286V2.99023H258.328V1.58398H273.753V2.99023H266.795V23ZM289.749 15.0166C289.749 17.6143 289.119 19.6455 287.859 21.1104C286.6 22.5654 284.861 23.293 282.645 23.293C281.248 23.293 280.018 22.9561 278.953 22.2822C277.889 21.6084 277.073 20.6416 276.507 19.3818C275.94 18.1221 275.657 16.667 275.657 15.0166C275.657 12.4189 276.287 10.3975 277.547 8.95215C278.807 7.49707 280.535 6.76953 282.732 6.76953C284.92 6.76953 286.634 7.50684 287.874 8.98145C289.124 10.4463 289.749 12.458 289.749 15.0166ZM277.181 15.0166C277.181 17.2041 277.659 18.9131 278.616 20.1436C279.583 21.3643 280.945 21.9746 282.703 21.9746C284.461 21.9746 285.818 21.3643 286.775 20.1436C287.742 18.9131 288.226 17.2041 288.226 15.0166C288.226 12.8193 287.737 11.1152 286.761 9.9043C285.794 8.69336 284.432 8.08789 282.674 8.08789C280.916 8.08789 279.559 8.69336 278.602 9.9043C277.654 11.1055 277.181 12.8096 277.181 15.0166ZM307.327 15.0166C307.327 17.6143 306.697 19.6455 305.438 21.1104C304.178 22.5654 302.439 23.293 300.223 23.293C298.826 23.293 297.596 22.9561 296.531 22.2822C295.467 21.6084 294.651 20.6416 294.085 19.3818C293.519 18.1221 293.235 16.667 293.235 15.0166C293.235 12.4189 293.865 10.3975 295.125 8.95215C296.385 7.49707 298.113 6.76953 300.311 6.76953C302.498 6.76953 304.212 7.50684 305.452 8.98145C306.702 10.4463 307.327 12.458 307.327 15.0166ZM294.759 15.0166C294.759 17.2041 295.237 18.9131 296.194 20.1436C297.161 21.3643 298.523 21.9746 300.281 21.9746C302.039 21.9746 303.396 21.3643 304.354 20.1436C305.32 18.9131 305.804 17.2041 305.804 15.0166C305.804 12.8193 305.315 11.1152 304.339 9.9043C303.372 8.69336 302.01 8.08789 300.252 8.08789C298.494 8.08789 297.137 8.69336 296.18 9.9043C295.232 11.1055 294.759 12.8096 294.759 15.0166ZM313.187 23H311.736V0.207031H313.187V23Z" fill="#3B4A5E"/>
</svg>
