<svg class="weather-icon" viewBox="-20 -20 639 640" xmlns="http://www.w3.org/2000/svg"><path d="m370.011719 50v-40c0-5.523438-4.480469-10-10-10-5.523438 0-10 4.476562-10 10v40c0 5.523438 4.476562 10 10 10 5.519531 0 10-4.476562 10-10zm0 0"/><path d="m590.011719 230h-40c-5.523438 0-10 4.476562-10 10s4.476562 10 10 10h40c5.519531 0 10-4.476562 10-10s-4.480469-10-10-10zm0 0"/><path d="m480.011719 360c-4.792969 0-9.578125.289062-14.332031.859375-.089844-.296875-.21875-.582031-.3125-.878906 53.695312-46.996094 69.714843-123.894531 39.253906-188.421875-30.464844-64.523438-100.019532-101.027344-170.425782-89.433594-70.410156 11.59375-124.589843 68.46875-132.753906 139.355469-63.886718 9.257812-111.320312 63.964843-111.429687 128.519531.003906 10.542969 1.316406 21.039062 3.894531 31.257812-56.765625 8.664063-97.324219 59.542969-93.105469 116.820313 4.214844 57.273437 51.78125 101.664063 109.210938 101.921875h370c66.273437 0 120-53.726562 120-120s-53.726563-120-120-120zm-120-260c57.101562-.03125 108.496093 34.648438 129.84375 87.609375 21.351562 52.960937 8.378906 113.585937-32.773438 153.171875-.191406-.320312-.429687-.609375-.613281-.933594-1.710938-2.925781-3.558594-5.753906-5.539062-8.484375-1.003907-1.394531-2.0625-2.726562-3.132813-4.054687-1.066406-1.328125-2.230469-2.652344-3.386719-3.941406-2.355468-2.632813-4.847656-5.140626-7.472656-7.507813-.617188-.570313-1.238281-1.128906-1.867188-1.679687-5.527343-4.765626-11.5625-8.902344-18-12.339844-.894531-.476563-1.800781-.898438-2.699218-1.351563-3.039063-1.496093-6.148438-2.828125-9.320313-4-1.808593-.664062-3.644531-1.300781-5.507812-1.910156-1.515625-.457031-3.003907-.941406-4.542969-1.328125-3.347656-.863281-6.742188-1.546875-10.160156-2.058594-1-.140625-2.003906-.25-3-.363281-14.824219-1.914063-29.890625-.34375-44.003906 4.582031-1.332032-2.828125-2.738282-5.589844-4.21875-8.292968-.65625-1.1875-1.410157-2.316407-2.097657-3.480469-.890625-1.480469-1.738281-2.996094-2.679687-4.425781-.9375-1.433594-1.769532-2.523438-2.664063-3.78125-.886719-1.257813-1.707031-2.507813-2.617187-3.71875-.910156-1.210938-2-2.484376-3-3.722657-.996094-1.238281-1.796875-2.28125-2.75-3.371093-.949219-1.085938-2.148438-2.289063-3.21875-3.4375-1.070313-1.148438-2-2.171876-3.003906-3.203126-.996094-1.027343-2.296876-2.148437-3.445313-3.207031-1.152344-1.058593-2.121094-2-3.234375-3.003906-1.105469-.992187-2.414062-1.996094-3.636719-2.945313-1.21875-.949218-2.269531-1.871093-3.441406-2.75-1.167969-.878906-2.53125-1.777343-3.800781-2.664062-1.269532-.875-2.410156-1.726562-3.644532-2.527344-1.242187-.800781-2.644531-1.597656-4.003906-2.386718-1.359375-.792969-2.53125-1.5625-3.828125-2.28125-1.300781-.722657-2.722656-1.390626-4.082031-2.078126-1.359375-.691406-2.667969-1.402343-4-2.003906-1.328125-.601562-2.789062-1.199218-4.191406-1.785156-1.398438-.59375-2.777344-1.210938-4.199219-1.753906-1.417969-.539063-2.859375-1.003906-4.300781-1.5s-2.878906-1-4.351563-1.46875c-1.46875-.46875-2.882812-.78125-4.324219-1.171875-1.441406-.390625-3.003906-.832031-4.5625-1.175781-1.5625-.351563-2.910156-.582032-4.378906-.859376-1.46875-.285156-3.109375-.621093-4.683594-.867187-1.566406-.238281-2.996093-.367187-4.476562-.546875s-3.148438-.390625-4.75-.523438c-1.601562-.125-3-.15625-4.523438-.21875-1.417968-.105468-2.71875-.257812-4.121093-.257812 9.996093-68.785156 68.898437-119.851562 138.40625-120zm120 480h-370c-49.304688.214844-89.585938-39.300781-90.324219-88.597656-.730469-49.296875 38.355469-89.996094 87.640625-91.25 3.199219-.09375 6.164063-1.710938 7.96875-4.351563 1.8125-2.636719 2.246094-5.988281 1.171875-9-11.566406-32.1875-7.445312-67.933593 11.144531-96.644531 18.589844-28.710938 49.511719-47.101562 83.617188-49.71875 2.902343-.226562 5.796875-.445312 8.75-.445312 45.917969.183593 86.933593 28.765624 103 71.789062.96875 2.609375 2.980469 4.699219 5.554687 5.757812 2.574219 1.0625 5.472656 1.007813 8.003906-.160156 10.488282-4.871094 21.910157-7.382812 33.472657-7.378906 3.613281.035156 7.21875.304688 10.800781.8125.734375.09375 1.496094.179688 2.246094.296875 3.070312.515625 6.113281 1.210937 9.101562 2.078125 1.238282.363281 2.460938.753906 3.679688 1.171875 2.347656.792969 4.640625 1.699219 6.890625 2.710937 1.757812.789063 3.464843 1.660157 5.152343 2.570313 1.257813.667969 2.472657 1.390625 3.683594 2.125 2.382813 1.460937 4.6875 3.039063 6.902344 4.734375 1.09375.828125 2.179688 1.667969 3.222656 2.558594 1.335938 1.132812 2.660156 2.269531 3.917969 3.488281 1.886719 1.828125 3.679687 3.75 5.367187 5.765625.863282 1 1.671876 1.996094 2.480469 3.097656 1.894531 2.449219 3.644531 5 5.238281 7.648438.34375.570312.644532 1.160156 1.003907 1.730468 1.808593 3.1875 3.410156 6.484376 4.777343 9.878907 1.734376 4.351562 3.074219 8.855469 4 13.441406 1.09375 5.417969 6.367188 8.921875 11.78125 7.828125 6.503907-1.289062 13.121094-1.9375 19.753907-1.9375 55.226562 0 100 44.769531 100 100s-44.773438 100-100 100zm0 0"/><path d="m220.011719 110c4.042969 0 7.6875-2.4375 9.230469-6.171875 1.550781-3.734375.695312-8.039063-2.160157-10.898437l-40-40c-2.511719-2.597657-6.230469-3.640626-9.726562-2.726563-3.496094.914063-6.226563 3.644531-7.144531 7.140625-.914063 3.496094.125 7.21875 2.730468 9.726562l40 40c1.875 1.875 4.417969 2.929688 7.070313 2.929688zm0 0"/><path d="m507.082031 107.070312 40-40c2.597657-2.507812 3.640625-6.230468 2.722657-9.726562-.914063-3.496094-3.640626-6.226562-7.136719-7.140625-3.503907-.914063-7.21875.128906-9.726563 2.726563l-40 40c-2.605468 2.507812-3.644531 6.230468-2.730468 9.726562.917968 3.496094 3.648437 6.226562 7.144531 7.140625 3.496093.914063 7.214843-.128906 9.726562-2.726563zm0 0"/></svg>
