<svg class="weather-icon" viewBox="-20 -20 639 639.9991" xmlns="http://www.w3.org/2000/svg"><path d="m.492188 490.019531c.074218 60.710938 49.273437 109.910157 109.980468 109.980469h369.925782c61.457031-.015625 112.964843-46.472656 119.300781-107.601562 6.34375-61.128907-34.539063-117.164063-94.683594-129.789063 44.871094-21.351563 79.105469-60.066406 94.8125-107.210937 1.390625-4.046876.054687-8.527344-3.324219-11.148438-3.378906-2.628906-8.050781-2.808594-11.625-.460938-18.21875 11.777344-39.597656 17.707032-61.277344 17-65.632812-.867187-118.179687-54.6875-117.476562-120.316406.421875-50.671875 31.464844-96.042968 78.535156-114.796875 3.976563-1.503906 6.570313-5.363281 6.457032-9.613281-.105469-4.253906-2.898438-7.96875-6.945313-9.265625-18.789063-5.105469-38.234375-7.355469-57.6875-6.679687-55.390625.910156-107.59375 26.050781-142.828125 68.789062-35.242188 42.738281-49.972656 98.777344-40.3125 153.320312-7.550781-1.40625-15.210938-2.121093-22.894531-2.152343-71.75.082031-129.890625 58.226562-129.972657 129.972656.007813 10.542969 1.316407 21.039063 3.898438 31.253906-54.054688 7.710938-94.132812 54.121094-93.882812 108.71875zm264.289062-262.125c-2.835938-12.402343-4.292969-25.085937-4.339844-37.8125-.964844-92.738281 73.304688-168.761719 166.042969-169.96875 7.695313 0 15.933594.152344 24.109375.800781-39.839844 26.8125-63.945312 71.503907-64.464844 119.527344-.683594 76.667969 60.808594 139.429688 137.472656 140.3125 15.910157.246094 31.738282-2.28125 46.777344-7.46875-21.566406 41.710938-60.378906 71.835938-106.136718 82.390625-.820313-2.242187-1.726563-4.457031-2.707032-6.621093-.132812-.273438-.238281-.554688-.371094-.832032-.878906-1.894531-1.816406-3.75-2.808593-5.570312-.300781-.5625-.589844-1.109375-.902344-1.660156-.867187-1.542969-1.785156-3-2.738281-4.53125-.507813-.800782-1-1.601563-1.558594-2.386719-.820312-1.210938-1.660156-2.390625-2.53125-3.558594-.757812-1-1.53125-2-2.320312-3-.785157-1.003906-1.488282-1.824219-2.246094-2.699219-1.011719-1.167968-2.046875-2.3125-3.109375-3.429687-.640625-.667969-1.285157-1.34375-1.941407-2-1.246093-1.246094-2.535156-2.460938-3.859374-3.636719-.550782-.503906-1.085938-1-1.648438-1.46875-1.480469-1.269531-3.003906-2.480469-4.539062-3.664062-.46875-.359376-.9375-.726563-1.421876-1.078126-1.660156-1.21875-3.355468-2.382812-5.085937-3.492187l-1.289063-.835937c-1.792968-1.109376-3.632812-2.160157-5.492187-3.160157l-1.269531-.699219c-1.878906-1-3.808594-1.878906-5.757813-2.742187-.441406-.199219-.882812-.410156-1.332031-.597656-1.925781-.820313-3.898438-1.550781-5.878906-2.25-.511719-.179688-1-.378907-1.507813-.550781-1.933593-.640626-3.890625-1.199219-5.855469-1.71875-.601562-.160157-1.183593-.351563-1.785156-.503907-1.917968-.46875-3.859375-.847656-5.808594-1.195312-.667968-.132813-1.328124-.292969-1.996093-.398438-2-.324219-3.949219-.542969-5.949219-.742187-.679688-.070313-1.339844-.183594-2.003906-.238282-2.707032-.230468-5.398438-.351562-8.109375-.351562-10.9375-.007812-21.800781 1.804688-32.148438 5.359375-1.671875-3.578125-3.542969-7-5.5-10.398437-.4375-.757813-.902343-1.488282-1.351562-2.242188-1.738281-2.851562-3.574219-5.625-5.496094-8.316406-.371094-.507813-.722656-.996094-1.089844-1.539063-2.363281-3.167969-4.832031-6.238281-7.449219-9.167969-.351562-.390624-.722656-.753906-1.078124-1.136718-2.203126-2.40625-4.488282-4.742188-6.859376-7-.847656-.800782-1.699218-1.59375-2.574218-2.371094-2.121094-1.902344-4.304688-3.722656-6.546875-5.472656-1-.792969-2-1.605469-3.070313-2.375-2.507812-1.851563-5.074218-3.589844-7.707031-5.257813-1.578125-1-3.199219-1.925781-4.816406-2.863281-1.621094-.941406-3-1.695312-4.601563-2.507812-1.789062-.933594-3.566406-1.871094-5.398437-2.71875-2-.941407-4.140625-1.792969-6.230469-2.632813-1.25-.457031-2.449219-1.058594-3.71875-1.527344zm-156.964844 172.296875c3.195313-.089844 6.160156-1.703125 7.964844-4.347656 1.808594-2.640625 2.242188-5.984375 1.171875-9-14.269531-39.636719-4.566406-83.9375 24.960937-113.980469 29.527344-30.050781 73.652344-40.515625 113.527344-26.945312 2.542969.855469 5 1.8125 7.488282 2.84375 1.480468.625 2.945312 1.292969 4.390624 2 2.191407.996093 4.328126 2.15625 6.4375 3.339843 1.523438.847657 3.003907 1.726563 4.511719 2.65625 2.28125 1.417969 4.519531 2.910157 6.6875 4.5 1 .722657 2.003907 1.46875 3.003907 2.230469 2.777343 2.179688 5.507812 4.429688 8.074218 6.871094.121094.105469.230469.238281.339844.34375 2.625 2.511719 5.078125 5.171875 7.453125 7.917969.488281.582031.992187 1.164062 1.46875 1.746094 4.796875 5.832031 8.992187 12.144531 12.507813 18.832031.390624.753906.78125 1.507812 1.15625 2.269531 1.703124 3.382812 3.222656 6.855469 4.558593 10.398438 1.484375 3.988281 5.328125 6.597656 9.578125 6.507812 1.382813-.019531 2.742188-.328125 4-.90625 10.441406-4.859375 21.8125-7.386719 33.320313-7.410156 2.335937 0 4.644531.109375 6.933593.308594.609376.050781 1.195313.164062 1.796876.230468 1.679687.179688 3.359374.371094 5 .660156.628906.113282 1.25.277344 1.867187.398438 1.613281.332031 3.222656.652344 4.789063 1.070312.59375.160157 1.164062.363282 1.753906.53125 1.585937.460938 3.179687.9375 4.734375 1.492188.535156.199219 1.066406.425781 1.59375.628906 1.570312.597656 3.117187 1.21875 4.636719 1.917969.523437.230469 1 .503906 1.53125.75 1.5.71875 3 1.460937 4.417968 2.269531.527344.300782 1.003906.632813 1.570313.9375 1.371093.8125 2.730469 1.652344 4.050781 2.539063.570312.390625 1.128906.800781 1.6875 1.203125 1.210938.867187 2.414062 1.746094 3.570312 2.679687.640626.507813 1.257813 1 1.878907 1.582031 1 .859376 2 1.738282 3.003906 2.65625.726563.683594 1.425781 1.378907 2.128906 2.089844.695313.710938 1.566407 1.617188 2.328125 2.457032.761719.839843 1.601563 1.824218 2.367188 2.75.570312.691406 1.132812 1.382812 1.667968 2.078124.882813 1.148438 1.738282 2.324219 2.574219 3.53125.355469.523438.707031 1 1.050781 1.570313.925782 1.433594 1.828126 2.882813 2.667969 4.371094l.539063 1c.929687 1.710937 1.808594 3.445312 2.621094 5.230469l.167968.375c1.796875 4.027343 3.261719 8.195312 4.378906 12.457031.367188 1.449219.777344 2.882812 1.070313 4.359375 1.089844 5.414062 6.363281 8.921875 11.777344 7.832031 6.527343-1.308594 13.167969-1.96875 19.824219-1.972656 55.21875 0 99.980468 44.765625 99.980468 99.980469 0 55.21875-44.761718 99.980468-99.980468 99.980468h-369.925782c-49.292968.214844-89.570312-39.292968-90.300781-88.582031-.738281-49.285156 38.347656-89.976563 87.625-91.230469zm0 0"/><path d="m579.859375 105.097656c-1.195313-3.558594-4.285156-6.152344-7.996094-6.707031l-29.265625-4.46875-13.15625-28.066406c-1.652344-3.503907-5.175781-5.746094-9.050781-5.746094-3.871094 0-7.398437 2.242187-9.046875 5.746094l-13.1875 28.085937-29.265625 4.46875c-3.703125.566406-6.78125 3.152344-7.972656 6.707032-1.191407 3.554687-.292969 7.480468 2.324219 10.160156l21.476562 21.996094-5.085938 31.195312c-.621093 3.777344.976563 7.578125 4.109376 9.78125 3.128906 2.203125 7.246093 2.429688 10.59375.574219l26.054687-14.386719 26.058594 14.394531c3.347656 1.855469 7.464843 1.632813 10.59375-.570312 3.128906-2.207031 4.726562-6.003907 4.109375-9.785157l-5.085938-31.191406 21.476563-22c2.625-2.6875 3.523437-6.625 2.316406-10.1875zm-41.632813 21.816406c-2.214843 2.269532-3.214843 5.457032-2.707031 8.585938l2.585938 15.859375-12.871094-7.121094c-3.015625-1.664062-6.671875-1.664062-9.683594 0l-12.878906 7.121094 2.59375-15.859375c.507813-3.128906-.496094-6.316406-2.710937-8.585938l-11.40625-11.6875 15.308593-2.335937c3.296875-.507813 6.121094-2.625 7.539063-5.640625l6.394531-13.609375 6.398437 13.628906c1.417969 3.015625 4.242188 5.132813 7.539063 5.640625l15.308594 2.335938zm0 0"/></svg>
