<svg class="weather-icon" viewBox="-20 -84 638.6697 638" xmlns="http://www.w3.org/2000/svg"><path d="m109.371094 375.476562c5.515625 0 9.988281-4.472656 9.988281-9.988281 0-5.511719-4.472656-9.984375-9.988281-9.984375-49.238282.214844-89.472656-39.253906-90.207032-88.484375-.730468-49.234375 38.304688-89.882812 87.527344-91.136719 3.195313-.089843 6.15625-1.699218 7.960938-4.339843 1.808594-2.636719 2.242187-5.980469 1.167968-8.992188-19.820312-56.734375 9.667969-118.855469 66.152344-139.363281s118.964844 8.222656 140.152344 64.460938c.972656 2.601562 2.980469 4.691406 5.550781 5.753906 2.574219 1.058594 5.464844 1 7.992188-.160156 10.453125-4.863282 21.839843-7.382813 33.371093-7.394532 37.996094.070313 70.71875 26.835938 78.316407 64.070313 1.085937 5.40625 6.359375 8.90625 11.765625 7.820312 37.308594-7.539062 75.65625 6.789063 98.890625 36.941407 23.230469 30.144531 27.300781 70.878906 10.503906 105.035156-16.800781 34.15625-51.558594 55.789062-89.617187 55.789062h-9.988282c-5.515625 0-9.988281 4.472656-9.988281 9.984375 0 5.515625 4.472656 9.988281 9.988281 9.988281h9.988282c44.53125.003907 85.390624-24.683593 106.101562-64.105468s17.859375-87.082032-7.410156-123.75c-25.269532-36.664063-68.789063-56.300782-113.003906-50.980469-12.886719-41.984375-51.628907-70.679687-95.546876-70.765625-10.933593-.007812-21.792968 1.808594-32.132812 5.363281-25.582031-55.296875-86.195312-85.339843-145.6875-72.226562-59.5 13.117187-101.855469 65.863281-101.824219 126.785156.007813 10.527344 1.316407 21.011719 3.894531 31.21875-56.695312 8.652344-97.203124 59.464844-92.988281 116.667969 4.207031 57.203125 51.714844 101.535156 109.070313 101.792968zm0 0"/><path d="m418.972656 395.453125c0-5.515625-4.46875-9.988281-9.984375-9.988281h-99.875c-5.515625 0-9.984375 4.472656-9.984375 9.988281s4.46875 9.984375 9.984375 9.984375h99.875c5.515625 0 9.984375-4.46875 9.984375-9.984375zm0 0"/><path d="m129.34375 405.4375h79.898438c5.515624 0 9.988281-4.46875 9.988281-9.984375s-4.472657-9.988281-9.988281-9.988281h-79.898438c-5.515625 0-9.984375 4.472656-9.984375 9.988281s4.46875 9.984375 9.984375 9.984375zm0 0"/><path d="m269.164062 405.4375c5.515626 0 9.988282-4.46875 9.988282-9.984375s-4.472656-9.988281-9.988282-9.988281h-19.972656c-5.515625 0-9.988281 4.472656-9.988281 9.988281s4.472656 9.984375 9.988281 9.984375zm0 0"/><path d="m169.292969 465.363281h119.847656c5.515625 0 9.988281-4.472656 9.988281-9.988281s-4.472656-9.988281-9.988281-9.988281h-119.847656c-5.515625 0-9.988281 4.472656-9.988281 9.988281s4.472656 9.988281 9.988281 9.988281zm0 0"/><path d="m408.988281 465.363281h39.949219c5.511719 0 9.984375-4.472656 9.984375-9.988281s-4.472656-9.988281-9.984375-9.988281h-39.949219c-5.515625 0-9.988281 4.472656-9.988281 9.988281s4.472656 9.988281 9.988281 9.988281zm0 0"/><path d="m379.023438 455.375c0-5.515625-4.46875-9.988281-9.984376-9.988281h-39.949218c-5.515625 0-9.988282 4.472656-9.988282 9.988281s4.472657 9.988281 9.988282 9.988281h39.949218c5.515626 0 9.984376-4.472656 9.984376-9.988281zm0 0"/><path d="m418.972656 275.605469c0-5.515625-4.46875-9.988281-9.984375-9.988281h-99.875c-5.515625 0-9.984375 4.472656-9.984375 9.988281s4.46875 9.988281 9.984375 9.988281h99.875c5.515625 0 9.984375-4.472656 9.984375-9.988281zm0 0"/><path d="m129.34375 285.59375h79.898438c5.515624 0 9.988281-4.472656 9.988281-9.988281s-4.472657-9.988281-9.988281-9.988281h-79.898438c-5.515625 0-9.984375 4.472656-9.984375 9.988281s4.46875 9.988281 9.984375 9.988281zm0 0"/><path d="m269.164062 285.59375c5.515626 0 9.988282-4.472656 9.988282-9.988281s-4.472656-9.988281-9.988282-9.988281h-19.972656c-5.515625 0-9.988281 4.472656-9.988281 9.988281s4.472656 9.988281 9.988281 9.988281zm0 0"/><path d="m289.140625 325.542969h-119.847656c-5.515625 0-9.988281 4.46875-9.988281 9.984375s4.472656 9.988281 9.988281 9.988281h119.847656c5.515625 0 9.988281-4.472656 9.988281-9.988281s-4.472656-9.984375-9.988281-9.984375zm0 0"/><path d="m448.9375 325.542969h-39.949219c-5.515625 0-9.988281 4.46875-9.988281 9.984375s4.472656 9.988281 9.988281 9.988281h39.949219c5.511719 0 9.984375-4.472656 9.984375-9.988281s-4.472656-9.984375-9.984375-9.984375zm0 0"/><path d="m329.089844 325.542969c-5.515625 0-9.988282 4.46875-9.988282 9.984375s4.472657 9.988281 9.988282 9.988281h39.949218c5.515626 0 9.984376-4.472656 9.984376-9.988281s-4.46875-9.984375-9.984376-9.984375zm0 0"/></svg>
