<svg class="weather-icon" viewBox="-20 -69 638.67144 638" xmlns="http://www.w3.org/2000/svg"><path d="m478.90625 136.808594c-4.785156.003906-9.5625.292968-14.3125.863281-12.890625-41.988281-51.628906-70.683594-95.550781-70.777344-10.933594-.007812-21.789063 1.804688-32.121094 5.367188-25.578125-55.308594-86.195313-85.367188-145.699219-72.2500002-59.511718 13.1171872-101.867187 65.8750002-101.824218 126.8085932.003906 10.527344 1.316406 21.019532 3.890624 31.21875-56.695312 8.65625-97.203124 59.472657-92.988281 116.671876 4.207031 57.203124 51.71875 101.539062 109.070313 101.792968 5.515625 0 9.988281-4.464844 9.988281-9.984375 0-5.515625-4.472656-9.988281-9.988281-9.988281-49.238282.207031-89.460938-39.257812-90.191406-88.492188-.734376-49.230468 38.304687-89.878906 87.523437-91.128906 3.191406-.097656 6.144531-1.714844 7.945313-4.351562 1.804687-2.632813 2.234374-5.972656 1.164062-8.984375-20.128906-56.816407 9.339844-119.238281 65.996094-139.808594 56.664062-20.570313 119.308594 8.410156 140.324218 64.90625.96875 2.605469 2.984376 4.695313 5.554688 5.757813 2.574219 1.0625 5.46875 1 7.996094-.167969 10.449218-4.859375 21.835937-7.382813 33.359375-7.390625 38 .066406 70.722656 26.835937 78.3125 64.070312 1.085937 5.410156 6.359375 8.914063 11.765625 7.820313 37.308594-7.539063 75.65625 6.789062 98.890625 36.9375 23.226562 30.152343 27.304687 70.886719 10.503906 105.039062-16.796875 34.152344-51.546875 55.792969-89.609375 55.792969h-9.988281c-5.515625 0-9.988281 4.472656-9.988281 9.988281 0 5.519531 4.472656 9.984375 9.988281 9.984375h9.988281c66.191406 0 119.847656-53.65625 119.847656-119.847656s-53.65625-119.847656-119.847656-119.847656zm0 0"/><path d="m149.320312 436.429688c0 33.097656 26.828126 59.925781 59.925782 59.925781 33.09375 0 59.925781-26.828125 59.925781-59.925781 0-33.09375-26.832031-59.925782-59.925781-59.925782-33.082032.035156-59.890625 26.847656-59.925782 59.925782zm99.875 0c0 22.066406-17.886718 39.949218-39.949218 39.949218-22.066406 0-39.949219-17.882812-39.949219-39.949218 0-22.0625 17.882813-39.949219 39.949219-39.949219 22.0625 0 39.949218 17.886719 39.949218 39.949219zm0 0"/><path d="m379.03125 456.402344c33.09375 0 59.925781-26.824219 59.925781-59.921875 0-33.09375-26.832031-59.925781-59.925781-59.925781-33.097656 0-59.921875 26.832031-59.921875 59.925781.03125 33.082031 26.839844 59.894531 59.921875 59.921875zm0-99.871094c22.0625 0 39.949219 17.886719 39.949219 39.949219 0 22.066406-17.886719 39.949219-39.949219 39.949219-22.066406 0-39.949219-17.882813-39.949219-39.949219 0-22.0625 17.882813-39.949219 39.949219-39.949219zm0 0"/><path d="m279.15625 236.679688c-33.097656 0-59.921875 26.832031-59.921875 59.925781 0 33.097656 26.824219 59.925781 59.921875 59.925781 33.09375 0 59.925781-26.828125 59.925781-59.925781-.035156-33.078125-26.84375-59.890625-59.925781-59.925781zm0 99.875c-22.066406 0-39.949219-17.882813-39.949219-39.949219 0-22.0625 17.882813-39.949219 39.949219-39.949219 22.0625 0 39.953125 17.886719 39.953125 39.949219 0 22.066406-17.890625 39.949219-39.953125 39.949219zm0 0"/></svg>
