<svg class="weather-icon" viewBox="-30 -20 640 640.00145" xmlns="http://www.w3.org/2000/svg"><path d="m299.214844 599.984375c125.691406 1.304687 238.152344-77.851563 279.335937-196.601563 1.425781-4.035156.132813-8.527343-3.226562-11.179687-3.351563-2.652344-8.023438-2.875-11.621094-.558594-31.222656 19.707031-67.636719 29.597657-104.542969 28.402344-110.363281-.125-199.804687-89.566406-199.929687-199.929687 1.273437-84.847657 54.140625-160.34375 133.433593-190.554688 4.011719-1.480469 6.632813-5.351562 6.523438-9.628906s-2.921875-8.003906-7-9.285156c-30.3125-8.023438-61.632812-11.546876-92.972656-10.453126-165.625 0-299.894532 134.265626-299.894532 299.894532 0 165.625 134.269532 299.894531 299.894532 299.894531zm0-579.796875c19.59375-.273438 39.1875.828125 58.625 3.304688-72.074219 39.386718-117.382813 114.5-118.601563 196.625.140625 121.402343 98.519531 219.78125 219.921875 219.925781 30.976563.667969 61.726563-5.398438 90.121094-17.789063-45.121094 97.148438-142.953125 158.859375-250.066406 157.738282-154.582032 0-279.902344-125.316407-279.902344-279.902344 0-154.589844 125.320312-279.902344 279.902344-279.902344zm0 0"/></svg>
