<svg class="weather-icon" viewBox="-16 -16 533.33331 533.33331" xmlns="http://www.w3.org/2000/svg"><path d="m500 250c0-5.523438-4.476562-10-10-10h-35.859375l22.929687-22.929688c3.789063-3.925781 3.734376-10.160156-.121093-14.019531-3.859375-3.855469-10.09375-3.910156-14.019531-.121093l-37.070313 37.070312h-106.660156c-1.65625-11.554688-6.195313-22.503906-13.199219-31.839844l17.558594-17.558594 65 9.300782c5.46875.78125 10.539062-3.011719 11.320312-8.480469.785156-5.46875-3.011718-10.539063-8.476562-11.324219l-50.210938-7.167968 13.894532-13.902344 77.316406-19.324219c3.578125-.894531 6.378906-3.691406 7.277344-7.273437l20-80c.851562-3.40625-.144532-7.007813-2.628907-9.496094-2.480469-2.484375-6.082031-3.484375-9.492187-2.636719l-80 20c-3.578125.894531-6.382813 3.691406-7.28125 7.273437l-19.277344 77.308594-13.898438 13.910156-7.171874-50.210937c-.785157-5.46875-5.851563-9.261719-11.320313-8.480469-5.464844.785156-9.265625 5.855469-8.476563 11.324219l9.285157 65-17.578125 17.578125c-9.335938-7.003906-20.285156-11.542969-31.839844-13.199219v-106.660156l37.070312-37.070313c3.789063-3.925781 3.734376-10.160156-.121093-14.019531-3.859375-3.855469-10.09375-3.910156-14.019531-.121093l-22.929688 22.929687v-35.859375c0-5.523438-4.476562-10-10-10s-10 4.476562-10 10v35.859375l-22.929688-22.929687c-3.925781-3.789063-10.160156-3.734376-14.019531.121093-3.855469 3.859375-3.910156 10.09375-.121093 14.019531l37.070312 37.070313v106.660156c-11.554688 1.65625-22.503906 6.195313-31.839844 13.199219l-17.550781-17.550781 9.292969-65c.78125-5.46875-3.011719-10.535157-8.480469-11.316407-5.46875-.789062-10.539063 3.011719-11.324219 8.476563l-7.167968 50.210937-13.929688-13.941406-19.296875-77.308594c-.898437-3.582031-3.703125-6.378906-7.28125-7.273437l-80-20c-3.40625-.847656-7.011719.152344-9.496094 2.636719-2.480469 2.488281-3.476562 6.089844-2.628906 9.496094l20 80c.898437 3.582031 3.703125 6.378906 7.28125 7.273437l77.308594 19.296875 13.902343 13.898438-50.210937 7.171874c-5.46875.785157-9.261719 5.851563-8.480469 11.320313.785156 5.464844 5.855469 9.265625 11.324219 8.476563l65-9.296876 17.578125 17.589844c-7.003906 9.335938-11.542969 20.285156-13.199219 31.839844h-106.660156l-37.070313-37.070312c-3.925781-3.789063-10.160156-3.734376-14.019531.121093-3.855469 3.859375-3.910156 10.09375-.121093 14.019531l22.929687 22.929688h-35.859375c-5.523438 0-10 4.476562-10 10s4.476562 10 10 10h35.859375l-22.929687 22.929688c-2.597657 2.507812-3.640626 6.230468-2.726563 9.726562s3.644531 6.226562 7.140625 7.140625 7.21875-.128906 9.726562-2.726563l37.070313-37.070312h106.660156c1.65625 11.554688 6.195313 22.503906 13.199219 31.839844l-17.539062 17.558594-65-9.300782c-5.46875-.78125-10.539063 3.011719-11.320313 8.480469-.785156 5.46875 3.015625 10.539063 8.476563 11.324219l50.210937 7.167968-13.898437 13.902344-77.351563 19.324219c-3.578125.894531-6.382813 3.691406-7.28125 7.273437l-20 80c-.847656 3.40625.148437 7.007813 2.628906 9.496094 2.484375 2.484375 6.089844 3.484375 9.496094 2.636719l80-20c3.578125-.894531 6.382813-3.691406 7.28125-7.273437l19.296875-77.308594 13.898438-13.910156 7.171874 50.210937c.785157 5.46875 5.851563 9.261719 11.320313 8.480469 5.464844-.785156 9.265625-5.855469 8.476563-11.324219l-9.285157-65 17.578125-17.578125c9.335938 7.003906 20.285156 11.542969 31.839844 13.199219v106.660156l-37.070312 37.070313c-3.789063 3.925781-3.734376 10.160156.121093 14.019531 3.859375 3.855469 10.09375 3.910156 14.019531.121093l22.929688-22.929687v35.859375c0 5.523438 4.476562 10 10 10s10-4.476562 10-10v-35.859375l22.929688 22.929687c3.925781 3.789063 10.160156 3.734376 14.019531-.121093 3.855469-3.859375 3.910156-10.09375.121093-14.019531l-37.070312-37.070313v-106.660156c11.554688-1.65625 22.503906-6.195313 31.839844-13.199219l17.550781 17.550781-9.292969 65c-.78125 5.46875 3.011719 10.535157 8.480469 11.316407 5.46875.789062 10.539063-3.011719 11.324219-8.476563l7.167968-50.210937 13.902344 13.90625 19.324219 77.316406c.898437 3.578125 3.703125 6.371094 7.28125 7.265625l80 20c3.40625.847656 7.011719-.144531 9.496094-2.632813 2.480469-2.484375 3.476562-6.089844 2.628906-9.496094l-20-80c-.898437-3.578124-3.703125-6.375-7.28125-7.269531l-77.308594-19.269531-13.902343-13.898438 50.210937-7.171874c5.46875-.785157 9.261719-5.851563 8.480469-11.320313-.785156-5.464844-5.855469-9.265625-11.324219-8.476563l-65 9.296876-17.578125-17.589844c7.003906-9.335938 11.542969-20.285156 13.199219-31.839844h106.660156l37.070313 37.070312c3.925781 3.789063 10.160156 3.734376 14.019531-.121093 3.855469-3.859375 3.910156-10.09375.121093-14.019531l-22.929687-22.929688h35.859375c5.523438 0 10-4.476562 10-10zm-121.757812-171.75 58-14.5-14.503907 58-57.996093 14.5zm-300 43.5-14.5-58 57.996093 14.5 14.503907 58zm43.515624 300-58 14.5 14.503907-58 57.996093-14.5zm300-43.5 14.5 58-57.996093-14.5-14.503907-58zm-171.757812-78.25c-27.613281 0-50-22.386719-50-50s22.386719-50 50-50 50 22.386719 50 50c-.035156 27.601562-22.398438 49.964844-50 50zm0 0"/></svg>
