<svg class="weather-icon" viewBox="-20 -50 640 640" xmlns="http://www.w3.org/2000/svg"><path d="m10 308c5.523438 0 10-4.476562 10-10 0-154.640625 125.359375-280 280-280s280 125.359375 280 280c0 123.359375-101 220-230 220s-230-96.640625-230-220c0-93.886719 76.113281-170 170-170s170 76.113281 170 170c0 60.75-49.25 110-110 110s-110-49.25-110-110c0-27.613281 22.386719-50 50-50s50 22.386719 50 50c0 5.523438 4.476562 10 10 10s10-4.476562 10-10c0-38.664062-31.335938-70-70-70s-70 31.335938-70 70c0 71.796875 58.203125 130 130 130s130-58.203125 130-130c0-104.9375-85.0625-190-190-190s-190 85.0625-190 190c0 134.578125 109.808594 240 250 240s250-105.421875 250-240c0-165.683594-134.316406-300-300-300s-300 134.316406-300 300c0 5.523438 4.476562 10 10 10zm0 0"/></svg>
