<svg height="64" preserveAspectRatio="xMidYMid meet" viewBox="0 0 24 24" width="64" xmlns="http://www.w3.org/2000/svg">
  <g transform="matrix(.16109146 0 0 .16109146 -12.687601 6.374671)">
    <path
      fill="#FFFFFF"
      d="m152.18906-37.40716c-1.28705 4.9727-7.63455 15.73712-14.45007 24.48322-1.78432 2.28159-3.24688 4.2121704-3.24688 4.2414204 0 .0585 2.01833-.78978 4.47543-1.8720704 5.35296-2.3986 10.26715-4.06592 14.91809-5.08971 3.74415-.84828 10.79368-1.93057 12.60725-1.93057.87753 0 1.08229-.0878.93604-.46802-.46802-1.1993-11.99298-18.25273-13.98206-20.68057l-.70203-.84829z"/>
    <path
      fill="#FFFFFF"
      d="m166.9609-11.81239c-5.85023 6.9910204-10.15016 13.4262804-13.07527 19.5690204-1.49181 3.1883796-3.30538 7.5175496-3.15913 7.6638096.0292.0585 2.54485-.64353 5.55772-1.55031 3.01287-.90679 5.49922-1.60882 5.55772-1.55032s-.90678 2.13534-2.16458 4.65094c-4.06591 8.21958-6.72777 15.76637-7.89782 22.5819-.64352 3.65639-1.4333 13.25077-1.11154 13.54328.11701.11701 1.87207-.58502 3.91966-1.55031 2.07683-.99454 3.7734-1.75507 3.8319-1.69657s-.29251 1.90133-.78978 4.15367c-1.93058 8.98011-2.77886 16.81942-2.74961 26.26754 0 7.63456.23401 10.53042 1.40405 17.87246 1.11155 6.84477 2.13534 10.93994 2.74961 10.93994 1.49181 0 7.51755-1.31631 10.58892-2.3401 17.31669-5.67472 30.62597-20.09554 34.92589-37.7925 2.28159-9.36037 2.07683-18.89625-.61427-27.6716-3.04213-9.97464-7.51755-17.8432-20.56357-36.1836796-2.95437-4.18291996-7.22504-10.29641-9.44813-13.60179-2.25234-3.3053804-4.18291-6.0257404-4.29992-6.0842404-.14625-.0585-1.34555 1.19929-2.66185 2.77886z"/>
    <path
      fill="#FFFFFF"
      d="m127.9106-.96020956c-16.64391 19.68602956-24.01521 32.79054956-26.82332 47.73788956-.93604 4.9142-.93604 14.18682 0 19.07176 2.04758 10.73518 6.87402 19.94929 14.47933 27.70085 7.7223 7.83931 17.37519 12.98752 27.99336 14.94734 3.30538.61428 12.60725 1.17005 13.57254.78978.35101-.14625-.0292-.99453-1.90133-4.06591-5.06045-8.30733-8.33658-15.73712-10.20865-23.13767-1.0823-4.29992-2.3401-10.99843-2.3401-12.49024 0-1.60882-.35101-1.60882-3.15912 0-1.46256.81903-2.77886 1.43331-2.95437 1.34555-.32176-.20476-2.13533-7.63455-2.80811-11.4372-1.3163-7.4883-1.87208-16.84867-1.40406-23.19617.14626-1.84283.17551-3.36389.0878-3.39314-.0878-.0585-1.78432.58503-3.80265 1.46256l-3.6564 1.52106-.23401-.90679c-.26326-1.05304-.0292-9.21411.40952-14.24531.58502-6.90328 2.19383-14.5085796 4.50468-21.47034956.58502-1.72582004 1.02379-3.21763004.96528-3.24688004-.0585-.0585-1.28705 1.28705-2.72035 3.01287004z"/>
  </g>
</svg>
