<?xml version="1.0" encoding="ISO-8859-1" standalone="no"?>
<svg xmlns="http://www.w3.org/2000/svg" width="316px" height="316px" viewBox="0.23 0.23 0.1 0.1" >
  <g transform="translate(-0.03125,1.1875) scale(1,-1) scale(0.0017361) " xml:space="preserve" style="stroke:black;stroke-linecap:butt;stroke-linejoin:miter;stroke-miterlimit:10.433;stroke-dasharray:none;stroke-dashoffset:0;stroke-opacity:1;fill:none;fill-rule:even-odd;fill-opacity:1;font-style:normal;font-variant:normal;font-weight:normal;font-stretch:normal;font-size-adjust:none;letter-spacing:normal;word-spacing:normal;text-anchor:start;">
    <path d="M192.5,523.47 L192.5,523.78 L192.49,524.09 L192.47,524.4 L192.44,524.7 L192.41,525 L192.37,525.31 L192.32,525.61 L192.26,525.9 L192.2,526.2 L192.13,526.49 L192.05,526.79 L191.97,527.07 L191.88,527.36 L191.78,527.65 L191.68,527.93 L191.57,528.21 L191.45,528.48 L191.32,528.76 L191.19,529.03 L191.05,529.29 L190.91,529.56 L190.75,529.82 L190.6,530.07 L190.43,530.33 L190.26,530.58 L190.08,530.82 L189.9,531.07 L189.71,531.3 L189.51,531.54 L189.31,531.77 L189.1,531.99 L188.88,532.22 C188.42,532.67,187.93,533.09,187.42,533.47 L185.48,530.22 C187.51,528.6,188.95,526.27,188.95,523.47 C188.95,518.61,185.01,514.66,180.14,514.66 C179,514.66,177.91,514.88,176.91,515.27 L175.12,512.17 C176.68,511.48,178.38,511.11,180.14,511.11 C186.96,511.11,192.5,516.66,192.5,523.47 Z " style="stroke:#005e9c;stroke-width:0;fill:#005e9c;fill-rule:nonzero;"/>
    <path d="M189.36,545.85 L189.35,546.07 L189.35,546.28 L189.34,546.48 L189.33,546.69 L189.32,546.9 L189.3,547.1 L189.28,547.31 L189.27,547.51 L189.24,547.71 L189.22,547.91 L189.2,548.1 L189.17,548.3 L189.14,548.49 L189.11,548.68 L189.07,548.87 L189.04,549.06 L188.97,549.4 L188.72,549.17 C187.95,548.47,187.21,547.67,186.51,546.76 C182.85,542.06,180.99,535.77,182.08,531.8 L182.11,531.68 L182.23,531.66 C182.47,531.61,182.68,531.56,182.88,531.5 C183.12,531.42,183.36,531.33,183.59,531.22 L183.7,531.17 L183.79,531.25 C187.09,533.82,189.43,539.96,189.36,545.85 Z " style="stroke:#009490;stroke-width:0;fill:#009490;fill-rule:nonzero;"/>
    <path d="M176.77,550.32 L176.57,550.59 L176.44,550.27 C176.06,549.32,175.75,548.26,175.52,547.14 C174.32,541.31,175.43,534.84,178.16,531.77 L178.25,531.68 L178.36,531.71 C178.59,531.77,178.81,531.82,179.02,531.85 C179.27,531.89,179.52,531.91,179.77,531.91 L179.89,531.92 L179.94,532.02 C181.77,535.79,181.15,542.34,178.48,547.59 C177.96,548.59,177.39,549.52,176.77,550.32 Z " style="stroke:#009490;stroke-width:0;fill:#009490;fill-rule:nonzero;"/>
    <path d="M167.95,544.33 L167.78,544.46 L167.61,544.58 L167.44,544.7 L167.27,544.82 L167.1,544.93 L166.93,545.05 L166.75,545.16 L166.58,545.27 L166.41,545.37 L166.24,545.47 L166.07,545.57 L165.9,545.67 L165.73,545.76 L165.56,545.86 L165.38,545.94 L165.21,546.03 L164.91,546.18 L164.93,545.84 C165.01,544.81,165.2,543.73,165.49,542.62 C167,536.86,170.86,531.55,174.67,530 L174.78,529.96 L174.87,530.04 C175.05,530.2,175.22,530.33,175.4,530.45 C175.6,530.6,175.82,530.73,176.04,530.85 L176.15,530.9 V531.02 C176.12,535.21,172.67,540.8,167.95,544.33 Z " style="stroke:#009490;stroke-width:0;fill:#009490;fill-rule:nonzero;"/>
    <path d="M158.5,534.14 L158.87,533.72 L159.25,533.31 L159.64,532.91 L160.04,532.52 L160.45,532.14 L160.87,531.77 L161.29,531.41 L161.72,531.06 L162.16,530.73 L162.6,530.4 L163.05,530.09 L163.5,529.79 L163.95,529.5 L164.41,529.22 L164.87,528.96 L165.32,528.71 L165.78,528.47 L166.24,528.25 L166.7,528.05 L167.16,527.86 L167.62,527.68 L168.07,527.52 L168.52,527.38 L168.97,527.25 L169.41,527.14 L169.84,527.05 L170.27,526.98 L170.69,526.92 L171.11,526.88 L171.52,526.86 L171.92,526.86 L172.31,526.88 L172.43,526.89 L172.47,527 C172.56,527.22,172.66,527.41,172.76,527.6 C172.88,527.82,173.02,528.04,173.17,528.24 L173.24,528.34 L173.18,528.44 C171.31,532.18,165.74,535.68,159.95,536.76 C158.84,536.96,157.76,537.07,156.74,537.07 H156.4 L156.57,536.78 C157.1,535.89,157.75,535,158.5,534.14 Z " style="stroke:#009490;stroke-width:0;fill:#009490;fill-rule:nonzero;"/>
    <path d="M171.57,523.03 L171.68,523.09 L171.67,523.21 C171.65,523.45,171.65,523.67,171.66,523.88 C171.67,524.13,171.7,524.39,171.74,524.63 L171.76,524.75 L171.66,524.82 C168.33,527.35,161.79,528.02,156.12,526.43 C155.03,526.12,154.01,525.74,153.1,525.29 L152.79,525.14 L153.08,524.95 C153.95,524.39,154.92,523.88,155.97,523.44 C161.46,521.12,168.02,520.95,171.57,523.03 Z " style="stroke:#009490;stroke-width:0;fill:#009490;fill-rule:nonzero;"/>
    <path d="M172.53,519.17 L172.6,519.27 L172.54,519.38 C172.42,519.59,172.32,519.78,172.23,519.98 C172.13,520.21,172.05,520.45,171.97,520.69 L171.94,520.8 L171.82,520.83 C167.71,521.61,161.55,519.33,157.17,515.39 C156.33,514.63,155.59,513.84,154.97,513.04 L154.76,512.77 L155.1,512.73 C156.12,512.6,157.22,512.58,158.36,512.64 C164.31,512.99,170.27,515.74,172.53,519.17 Z " style="stroke:#009490;stroke-width:0;fill:#009490;fill-rule:nonzero;"/>
    <path d="M174.51,516.8 L174.44,516.86 L174.37,516.92 L174.3,516.98 L174.23,517.05 L174.16,517.12 L174.09,517.18 L174.03,517.25 L173.96,517.32 L173.88,517.41 L173.77,517.38 C169.73,516.27,165.22,511.49,163.03,506.02 C162.61,504.97,162.29,503.93,162.09,502.94 L162.03,502.6 L162.35,502.72 C163.32,503.06,164.32,503.52,165.31,504.09 C170.49,507.03,174.62,512.13,175.13,516.21 L175.15,516.33 L175.05,516.4 C174.85,516.53,174.68,516.66,174.51,516.8 Z " style="stroke:#009490;stroke-width:0;fill:#009490;fill-rule:nonzero;"/>
    <path d="M203.56,519.76 L203.91,519.85 L204.26,519.95 L204.6,520.05 L204.77,520.1 L204.94,520.16 L205.11,520.21 L205.28,520.27 L205.44,520.33 L205.6,520.38 L205.76,520.44 L205.91,520.5 L206.06,520.56 L206.21,520.62 C206.31,521.56,206.3,523.96,206.29,524.23 C205.55,524.59,204.69,524.97,203.79,525.26 C202.14,525.78,199.77,526.01,198.13,526.14 C197.93,527.43,198.07,526.74,197.71,528.05 C199.16,528.85,201.24,530.05,202.53,531.23 C203.24,531.88,203.86,532.54,204.39,533.19 C203.93,534.33,203.4,535.43,202.79,536.49 C201.96,536.46,201.08,536.36,200.15,536.19 C198.45,535.88,196.25,534.97,194.75,534.31 C193.96,535.35,194.4,534.82,193.47,535.8 C194.38,537.19,195.65,539.23,196.24,540.87 C196.56,541.78,196.75,542.57,196.91,543.39 C196.15,544.03,195.34,544.63,194.51,545.18 L188.86,535.4 C189.46,534.96,190.05,534.47,190.59,533.92 C193.38,531.13,194.92,527.42,194.92,523.47 C194.92,519.53,193.38,515.82,190.59,513.02 C187.8,510.23,184.09,508.7,180.14,508.7 C178.05,508.7,176.02,509.13,174.16,509.95 L168.48,500.1 C169.35,499.67,170.24,499.28,171.16,498.94 C171.73,499.46,172.29,500.06,172.85,500.73 C173.95,502.07,175.05,504.18,175.79,505.65 C177.06,505.36,176.37,505.48,177.72,505.33 C177.91,503.68,178.25,501.3,178.85,499.67 C179.17,498.82,179.52,497.93,179.9,497.24 C179.98,497.24,182.52,497.32,183.68,497.48 C183.95,498.22,184.17,499.14,184.35,500.01 C184.69,501.7,184.68,504.09,184.63,505.73 C185.89,506.07,185.23,505.86,186.49,506.35 C187.44,504.99,188.85,503.05,190.15,501.89 C190.84,501.27,191.61,500.71,192.29,500.27 C193.4,500.85,194.46,501.5,195.47,502.23 C195.36,503.02,195.1,503.9,194.84,504.77 C194.35,506.43,193.22,508.52,192.41,509.95 C193.36,510.84,192.87,510.35,193.75,511.38 C195.23,510.62,197.39,509.56,199.08,509.15 C200,508.93,200.95,508.75,201.77,508.68 C202.47,509.7,203.1,510.76,203.65,511.87 C203.16,512.53,202.52,513.23,201.87,513.9 C200.66,515.13,198.68,516.45,197.29,517.33 C197.71,518.57,197.51,517.9,197.81,519.22 C199.47,519.24,201.87,519.33,203.56,519.76 Z " style="stroke:#005e9c;stroke-width:0;fill:#005e9c;fill-rule:nonzero;"/>
  </g>
</svg>
