<svg width="300" height="300" viewBox="0 0 300 300" fill="none" xmlns="http://www.w3.org/2000/svg">
<path d="M150 300C232.843 300 300 232.843 300 150C300 67.1573 232.843 0 150 0C67.1573 0 0 67.1573 0 150C0 232.843 67.1573 300 150 300Z" fill="#0052B4"/>
<path d="M150 58.6958L154.857 73.6425H170.572L157.858 82.8798L162.715 97.8265L150 88.5886L137.286 97.8265L142.142 82.8798L129.428 73.6425H145.144L150 58.6958Z" fill="#FFDA44"/>
<path d="M85.4379 85.4378L99.4419 92.5722L110.554 81.4604L108.095 96.9819L122.098 104.117L106.576 106.575L104.118 122.098L96.9827 108.095L81.4612 110.554L92.5735 99.4417L85.4379 85.4378Z" fill="#FFDA44"/>
<path d="M58.6963 150L73.643 145.143V129.428L82.8797 142.143L97.8269 137.286L88.5885 150L97.8269 162.714L82.8797 157.858L73.643 170.572V154.857L58.6963 150Z" fill="#FFDA44"/>
<path d="M85.4379 214.562L92.5729 200.558L81.4612 189.446L96.9833 191.906L104.117 177.902L106.576 193.424L122.098 195.883L108.096 203.018L110.554 218.539L99.4419 207.427L85.4379 214.562Z" fill="#FFDA44"/>
<path d="M150 241.304L145.143 226.358H129.428L142.143 217.12L137.286 202.175L150 211.412L162.715 202.175L157.858 217.12L170.572 226.358H154.857L150 241.304Z" fill="#FFDA44"/>
<path d="M214.563 214.562L200.559 207.428L189.447 218.54L191.906 203.017L177.904 195.883L193.425 193.424L195.884 177.902L203.018 191.906L218.539 189.446L207.427 200.559L214.563 214.562Z" fill="#FFDA44"/>
<path d="M241.304 150L226.358 154.857V170.572L217.12 157.857L202.175 162.714L211.412 150L202.175 137.286L217.121 142.143L226.358 129.428V145.144L241.304 150Z" fill="#FFDA44"/>
<path d="M214.563 85.4382L207.428 99.4421L218.54 110.554L203.017 108.095L195.884 122.098L193.425 106.576L177.904 104.117L191.906 96.9823L189.447 81.4614L200.56 92.5731L214.563 85.4382Z" fill="#FFDA44"/>
</svg>
