<?xml version="1.0" encoding="iso-8859-1"?>
<!-- Generator: Adobe Illustrator 19.0.0, SVG Export Plug-In . SVG Version: 6.00 Build 0)  -->
<svg xmlns="http://www.w3.org/2000/svg" xmlns:xlink="http://www.w3.org/1999/xlink" version="1.1" id="Capa_1" x="0px" y="0px" viewBox="0 0 489.687 489.687" style="enable-background:new 0 0 489.687 489.687;" xml:space="preserve" width="512px" height="512px">
<g>
	<path d="M162.264,210.336c0.005,0.001,0.013,0.004,0.018,0.005c-0.504-2.431-0.906-4.851-1.218-7.246   C161.371,205.529,161.773,207.946,162.264,210.336z" fill="#FFFFFF"/>
	<path d="M218.666,107.026c10.168-3.389,19.007-5.451,27.01-6.296c7.84-0.829,13.736-1.215,18.554-1.215   c5.154,0,8.964,0.438,13.333,1.149l1.236-7.846c0,0-12.063-3.708-27.903-2.413l-1.244-4.27c4.918-1.043,8.61-5.407,8.61-10.636   c0-6.005-4.869-10.872-10.873-10.872c-6.005,0-10.874,4.867-10.874,10.872c0,5.227,3.69,9.592,8.607,10.634l1.383,4.751   c-16.816,2.323-30.209,8.894-30.209,8.894L218.666,107.026z" fill="#FFFFFF"/>
	<path d="M170.949,139.149c0.394-0.501,0.781-0.979,1.162-1.445l-3.206-2.334l-5.029-3.677   c-0.295,0.404-8.187,7.662-14.421,21.094c-0.271-0.424-0.579-0.836-0.931-1.224c-1.87-2.062-4.488-3.087-7.8-3.031   c-0.048,0.002-0.097,0.002-0.146,0.002c-2.07,0-3.473-0.701-4.406-1.525c0.92-1.17,1.474-2.642,1.474-4.248   c0-3.803-3.083-6.885-6.886-6.885c-3.804,0-6.887,3.083-6.887,6.885c0,3.803,3.083,6.886,6.887,6.886   c0.589,0,1.158-0.082,1.705-0.221c1.696,1.885,4.391,3.525,8.327,3.456c2.021-0.033,3.492,0.487,4.497,1.589   c1.144,1.252,1.526,3.046,1.64,4.4c-0.007,0.017-0.013,0.033-0.02,0.051c-4.496,12.25-3.203,27.485-3.203,27.485l10.875,0.434   c0.222-5.552,1.02-15.252,3.826-22.969c5.424-14.904,12.199-24.255,12.484-24.646L170.949,139.149z" fill="#FFFFFF"/>
	<path d="M358.927,108.618c-3.803,0-6.885,3.083-6.885,6.886c0,0.591,0.082,1.162,0.223,1.709   c-1.88,1.697-3.519,4.39-3.456,8.322c0.031,2.021-0.488,3.492-1.589,4.498c-0.862,0.787-1.982,1.212-3.037,1.439   c-8.112-11.325-18.088-18.266-18.088-18.266l-7.809,8.377c5.906,5.381,11.929,12.101,17.8,20.493   c4.047,5.786,8.21,13.278,11.692,20.726l10.544-4.991c0,0-4.813-11.899-11.598-22.561c1.182-0.419,2.37-1.047,3.404-1.985   c2.062-1.868,3.081-4.492,3.029-7.798c-0.034-2.151,0.68-3.598,1.523-4.552c1.171,0.92,2.644,1.474,4.247,1.474   c3.803,0,6.887-3.084,6.887-6.887S362.73,108.618,358.927,108.618z" fill="#FFFFFF"/>
	<path d="M331.569,203.349c-14.505,7.062-38.389,16.397-69.802,20.771c-12.333,1.717-24.299,2.36-35.289,2.36   c-14.309,0-26.853-1.089-36.557-2.309c-11.075-1.392-19.921-3.104-24.921-4.292c0,0,0-0.001,0-0.001   c0-0.003-0.136-0.005-0.147-0.007c1.284,4.07,2.777,8.016,4.57,11.789c0.023,0.05,0.015,0.1,0.039,0.15   c0.044,0.092,0.076,0.186,0.122,0.279c0.222,0.464,0.441,0.925,0.671,1.384c0.219,0.436,0.438,0.868,0.663,1.298   c0.059,0.114,0.116,0.225,0.174,0.337c3.118,5.878,6.852,11.266,11.122,15.94c14.813,16.222,29.914,18.77,30.063,18.793   l0.234,0.037l0.226,0.076c0.13,0.042,13.521,4.376,33.886,4.376c20.023,0,39.672-4.037,58.396-12   c13.867-7.093,27.001-17.878,33.48-27.497c5.036-7.429,8.676-15.371,10.827-23.614c1.144-4.39,2.038-11.384,1.519-18.775   C346.751,195.166,340.302,199.097,331.569,203.349z M165.531,222.177c0.427,1.246,0.871,2.489,1.352,3.723   C166.401,224.665,165.957,223.423,165.531,222.177z" fill="#FFFFFF"/>
	<path d="M260.568,215.502c30.127-4.193,53.006-13.098,66.896-19.829   c11.545-5.595,18.958-10.655,21.831-12.745c-2.854-10.582-10.73-27.19-17.961-37.526c-20.629-29.492-42.881-37.064-54.308-38.952   c-4.363-0.721-7.855-1.137-12.795-1.137c-4.609,0-10.311,0.375-17.946,1.182c-7.653,0.81-16.178,2.813-26.064,6.125   c-13.879,4.649-26.433,11.941-36.307,21.091l-0.331,0.307c-1.47,1.361-4.524,4.189-8.033,8.662   c-0.433,0.605-6.875,9.519-11.842,23.173c-3.727,10.244-3.708,25.179-3.708,25.329v0.042c0,3.484,0.349,6.965,0.734,10.417   c0.006,0.055,0.089,0.11,0.095,0.165c0.049,0.431,0.142,0.859,0.197,1.288c0.312,2.396,0.733,4.815,1.237,7.246   C169.466,212.161,212.49,222.195,260.568,215.502z M301.841,135.823c9.907,0,17.94,8.032,17.94,17.94   c0,9.909-8.033,17.94-17.94,17.94c-9.909,0-17.941-8.031-17.941-17.94C283.9,143.855,291.932,135.823,301.841,135.823z    M188.018,164.093c0.001-16.013,12.983-28.994,28.995-28.994s28.995,12.981,28.995,28.994s-12.983,28.993-28.995,28.993   C201.001,193.086,188.018,180.106,188.018,164.093z" fill="#FFFFFF"/>
</g>
<g>
	<path d="M37.716,296.874c1.259-2.242,3.76-3.255,7.445-3.255c1.444,0,3.094,0.185,5.181,0.461   c1.813,0.184,3.266,0.46,4.065,0.46c1.628,0,3.262-0.645,4.52-2.087c1.259-1.259,1.816-3.072,1.816-4.884   c0-5.958-5.957-9.028-18.241-9.028c-6.756,0-12.283,0.798-16.153,2.611c-3.87,1.627-6.526,4.514-8.154,8.383   C16.568,293.404,16,298.563,16,305.074v6.553h-5.344c-6.94,0-10.471,2.313-10.656,7.288c0,2.241,0.799,4.117,2.427,5.56   c1.627,1.444,4.053,2.152,7.124,2.152H15v55.008c0,4.054,0.915,7.125,3.004,9.397c2.088,2.242,4.573,3.255,7.459,3.255   c3.071,0,5.529-0.982,7.618-3.255c1.812-2.087,2.92-5.313,2.92-9.397v-55.008h5.152c3.716,0,6.756-0.765,8.752-1.563   c2.242-0.982,3.255-2.926,3.255-6.458c0-4.699-3.869-6.979-11.824-6.979H36v-5.294C36,302.218,36.734,299.147,37.716,296.874z" fill="#FFFFFF"/>
	<path d="M115.348,321.72c0-3.717-2.089-6.604-6.142-8.753c-4.054-2.18-8.384-3.256-12.715-3.256   c-4.329,0-7.769,0.984-10.472,3.256c-2.61,2.088-5.313,5.313-7.77,9.644c0-4.054-0.982-7.402-2.426-9.644   c-1.627-2.242-4.074-3.256-7.606-3.256c-6.756,0-10.217,4.7-10.217,14.097v58.133c0,4.055,1.003,7.402,2.908,9.398   c1.813,2.243,4.341,3.256,7.411,3.256c3.071,0,5.509-0.983,7.598-3.072C78.005,389.282,79,386.21,79,381.88v-17.412   c0-6.327,0.178-11.64,0.454-15.97c0.46-4.33,1.256-8.199,2.239-11.271c0.982-3.255,2.424-5.496,4.512-7.125   c2.088-1.627,4.514-2.426,7.585-2.426c2.242,0,4.883,0.461,7.77,1.444c2.887,0.982,4.698,1.443,5.497,1.443   c2.089,0,3.869-0.798,5.682-2.427C114.549,326.387,115.348,324.145,115.348,321.72z" fill="#FFFFFF"/>
	<path d="M187.025,354.814c3.071-1.628,4.514-4.97,4.514-10.283c0-5.498-1.443-11.067-4.33-16.657   c-2.887-5.313-7.124-9.85-13.083-13.289c-5.958-3.532-12.897-5.17-21.036-5.17c-6.326,0-12.1,0.977-17.137,3.065   c-5.313,1.813-9.642,4.881-13.083,8.565c-3.532,3.716-6.142,8.199-7.954,13.542c-1.812,5.313-2.611,11.024-2.611,17.136   c0,13.083,3.87,23.555,11.271,31.14c7.585,7.586,17.781,11.455,31.324,11.455c5.958,0,11.025-0.799,15.54-2.242   c4.514-1.444,8.199-3.532,11.271-5.682c3.07-2.242,5.313-4.699,6.756-7.124c1.444-2.427,2.242-4.7,2.242-6.604   c0-2.088-0.798-3.715-2.088-4.883c-1.259-1.259-3.071-1.812-5.159-1.812c-1.813,0-3.532,0.461-4.514,1.443   c-2.611,2.427-4.7,4.33-6.327,5.683c-1.628,1.442-3.532,2.887-5.313,4.053c-1.812,1.259-3.87,2.089-5.958,2.611   c-2.089,0.551-4.331,0.797-6.757,0.797c-3.716,0-7.125-0.797-10.195-2.61c-3.071-1.812-5.498-4.341-7.401-8.027   c-1.813-3.531-2.887-8.294-2.887-12.294h40.905C180.238,357.627,184.568,356.625,187.025,354.814z M134.05,345.627   c0.799-7,2.887-12.553,6.142-16.055c3.532-3.532,7.77-5.355,12.898-5.355c5.313,0,9.827,1.875,13.083,5.376   c3.255,3.532,5.159,9.033,5.681,16.033H134.05z" fill="#FFFFFF"/>
	<path d="M273.567,354.814c3.07-1.628,4.515-4.97,4.515-10.283c0-5.498-1.444-11.067-4.331-16.657   c-2.887-5.313-7.124-9.85-13.083-13.289c-5.957-3.532-12.898-5.17-21.036-5.17c-6.327,0-12.101,0.977-17.137,3.065   c-5.159,1.813-9.396,4.881-12.897,8.565c-3.532,3.716-6.142,8.199-7.955,13.542c-1.812,5.344-2.609,11.024-2.609,17.136   c0,13.083,3.869,23.555,11.27,31.14c7.586,7.586,17.782,11.455,31.325,11.455c5.958,0,11.025-0.799,15.539-2.242   c4.515-1.444,8.201-3.532,11.271-5.682c3.071-2.242,5.313-4.699,6.757-7.124c1.442-2.427,2.241-4.7,2.241-6.604   c0-2.088-0.799-3.715-2.088-4.883c-1.259-1.259-3.071-1.812-5.159-1.812c-1.812,0-3.531,0.461-4.514,1.443   c-2.611,2.427-4.699,4.33-6.326,5.683c-1.628,1.442-3.532,2.887-5.313,4.053c-1.812,1.259-3.869,2.089-5.958,2.611   c-2.088,0.644-4.33,0.797-6.756,0.797c-3.716,0-7.125-0.797-10.196-2.61c-3.071-1.812-5.497-4.341-7.402-8.027   c-1.811-3.531-2.887-8.294-2.887-12.294h40.876C267.178,357.627,271.324,356.625,273.567,354.814z M220.776,345.627   c0.798-7,2.887-12.553,6.142-16.055c3.532-3.532,7.769-5.355,12.898-5.355c5.313,0,9.828,1.875,13.083,5.376   c3.255,3.532,5.313,9.033,5.682,16.033H220.776z" fill="#FFFFFF"/>
	<path d="M351.662,314.472c-5.497-3.256-11.455-4.884-17.781-4.884c-5.313,0-10.14,1.26-14.469,3.532   c-4.331,2.242-8.412,5.683-12.412,10.657v-2.425c0-3.717-0.671-6.604-2.298-9.03c-1.813-2.089-4.267-3.071-7.061-3.071   c-3.071,0-5.266,0.798-7.078,2.887c-1.813,2.088-2.563,5.16-2.563,9.029v89.889c0,4.698,0.63,7.953,1.796,10.471   c1.26,2.243,4.081,3.532,7.982,3.532c6.756,0,10.222-4.514,10.222-13.727v-31.324c3,4.698,7.367,8.199,11.419,10.656   c3.87,2.427,8.92,3.715,14.787,3.715c4.882,0,9.588-0.797,13.856-2.887c4.237-2.087,8.173-4.697,11.244-8.383   c3.071-3.715,5.483-8.2,7.387-13.543c1.812-5.497,2.604-11.456,2.604-17.782c0-8.752-1.631-16.337-4.702-22.755   C361.308,322.701,356.976,317.82,351.662,314.472z M345.797,366.648c-1.813,3.869-4.331,6.941-7.125,9.029   c-2.887,2.088-6.143,3.071-9.644,3.071c-5.681,0-10.656-2.241-14.525-6.941c-3.87-4.698-5.958-11.024-5.958-19.408   c0-8.752,2.088-15.54,5.958-20.023c3.869-4.514,8.751-6.756,14.525-6.756c3.532,0,6.757,0.982,9.828,3.07   c2.887,2.089,5.313,5.16,6.941,9.028c1.627,3.87,2.426,8.569,2.426,14.097C348.223,357.282,347.425,362.134,345.797,366.648z" fill="#FFFFFF"/>
	<path d="M390.388,279.553c-2.887,0-5.313,0.983-7.401,2.887c-2.242,2.089-3.255,4.515-3.255,7.402   c0,3.255,0.983,5.681,3.071,7.585c2.088,1.812,4.514,2.609,7.401,2.609c2.887,0,5.313-0.982,7.401-2.609   c2.089-1.812,3.072-4.331,3.072-7.585c0-3.256-0.982-5.681-3.072-7.585C395.516,280.353,392.998,279.553,390.388,279.553z" fill="#FFFFFF"/>
	<path d="M389.927,309.619c-3.071,0-5.318,0.983-7.221,3.071c-1.811,2.243-2.706,5.313-2.706,9.398v59.761   c0,4.054,0.802,7.125,2.706,9.397c1.813,2.242,4.241,3.255,7.311,3.255s5.66-1.259,7.748-3.255   c2.088-1.996,3.234-5.313,3.234-9.397v-60.406c0-3.716-1.19-6.603-3.279-8.753C395.724,310.602,392.998,309.619,389.927,309.619z" fill="#FFFFFF"/>
	<path d="M488.753,379.576c-0.799-1.442-1.813-3.255-3.532-5.681l-21.467-33.597l11.025-10.197   c5.497-5.159,8.383-9.213,8.383-12.283c0-2.427-0.982-4.515-2.61-6.143c-1.811-1.628-3.869-2.427-6.602-2.427   c-2.089,0-4.054,0.646-5.497,1.628c-1.628,1.258-3.941,3.255-6.828,6.326L438,341.739v-50.548c0-4.054-0.912-7.402-2.816-9.644   c-1.812-2.242-4.295-3.256-7.551-3.256c-3.255,0-5.9,1.259-7.803,3.717c-1.812,2.426-2.83,5.957-2.83,10.656v88.998   c0,4.053,1.036,7.402,2.848,9.397c1.812,2.242,4.449,3.255,7.703,3.255c2.887,0,5.302-0.982,7.389-3.255   c2.089-2.089,3.06-5.159,3.06-9.213v-16.615l11.341-10.656l18.461,30.249c2.242,3.717,4.072,6.143,6.161,6.941   c1.444,1.444,3.54,2.088,5.967,2.088c3.071,0,5.318-0.983,7.129-2.887c1.813-1.812,2.613-4.515,2.613-7.771   C489.764,382.003,489.398,380.836,488.753,379.576z" fill="#FFFFFF"/>
</g>
<g>
</g>
<g>
</g>
<g>
</g>
<g>
</g>
<g>
</g>
<g>
</g>
<g>
</g>
<g>
</g>
<g>
</g>
<g>
</g>
<g>
</g>
<g>
</g>
<g>
</g>
<g>
</g>
<g>
</g>
</svg>
