<svg width="512" height="512" viewBox="0 0 512 512" fill="none" xmlns="http://www.w3.org/2000/svg">
<path d="M256 512C397.385 512 512 397.385 512 256C512 114.615 397.385 0 256 0C114.615 0 0 114.615 0 256C0 397.385 114.615 512 256 512Z" fill="#273B7A"/>
<path d="M280.379 510.838C401.988 499.346 498.829 402.797 510.755 281.315L384.975 155.534L190.205 300.535L195.546 305.876L131.548 362.005L280.379 510.838Z" fill="#121149"/>
<path d="M256 419.478C346.286 419.478 419.478 346.286 419.478 256C419.478 165.714 346.286 92.522 256 92.522C165.714 92.522 92.522 165.714 92.522 256C92.522 346.286 165.714 419.478 256 419.478Z" fill="#FFEDB5"/>
<path d="M419.483 256C419.483 165.902 346.598 92.8339 256.574 92.5239V419.478C346.6 419.166 419.483 346.098 419.483 256Z" fill="#FEE187"/>
<path d="M256 362.882C315.029 362.882 362.882 315.029 362.882 256C362.882 196.971 315.029 149.118 256 149.118C196.971 149.118 149.118 196.971 149.118 256C149.118 315.029 196.971 362.882 256 362.882Z" fill="#71E2EF"/>
<path d="M362.882 256C362.882 197.163 315.338 149.444 256.574 149.132V362.867C315.339 362.556 362.882 314.837 362.882 256Z" fill="#38C6D9"/>
<path d="M229.226 268.524C208.498 262.046 209.361 239.59 225.339 235.272C241.318 230.954 233.112 224.475 240.454 207.202C247.796 189.928 236.567 195.974 228.793 179.995C223.895 169.926 225.169 159.518 226.783 153.193C187.64 164.297 157.656 197.127 150.685 237.84C172.308 260.061 200.163 231.629 205.041 249.521C210.223 268.522 203.314 275.864 203.314 275.864C203.314 275.864 191.654 295.298 191.654 307.389C191.654 315.772 217.138 343.87 232.771 360.322C235.964 361.031 239.21 361.589 242.504 362.005C241.678 353.387 242.923 341.732 253.84 335.893C272.41 325.96 275.865 289.253 275.865 289.253L258.591 276.729C258.591 276.728 249.954 275.001 229.226 268.524Z" fill="#477F3C"/>
<path d="M275.865 289.252L258.591 276.728C258.591 276.728 257.924 276.594 256.574 276.276V334.142C272.746 322.27 275.865 289.252 275.865 289.252Z" fill="#2E5E24"/>
<path d="M286.174 153.466C282.225 160.675 271.224 182.221 275.867 190.792C281.482 201.156 279.754 187.337 294.004 190.792C308.256 194.247 319.051 198.565 328.551 197.27C338.051 195.974 346.257 216.704 334.597 222.317C322.937 227.932 344.961 268.094 344.961 268.094L359.411 283.089C361.671 274.437 362.883 265.362 362.883 256.003C362.882 207.453 330.504 166.491 286.174 153.466Z" fill="#2E5E24"/>
<path d="M400.911 234.777L392.291 226.157C391.281 225.147 389.645 225.147 388.635 226.157C387.625 227.167 387.625 228.803 388.635 229.813L392.84 234.018H368.914C367.487 234.018 366.328 235.176 366.328 236.604C366.328 238.032 367.486 239.19 368.914 239.19H392.84L388.635 243.395C387.625 244.405 387.625 246.041 388.635 247.051C389.14 247.556 389.802 247.808 390.464 247.808C391.126 247.808 391.788 247.556 392.293 247.051L400.913 238.431C401.922 237.425 401.922 235.787 400.911 234.777Z" fill="#B54324"/>
<path d="M399.082 271.084H375.156L379.361 266.879C380.371 265.869 380.371 264.233 379.361 263.223C378.351 262.213 376.715 262.213 375.705 263.223L367.085 271.843C366.075 272.853 366.075 274.489 367.085 275.499L375.705 284.119C376.21 284.624 376.872 284.876 377.534 284.876C378.196 284.876 378.858 284.624 379.363 284.119C380.373 283.109 380.373 281.473 379.363 280.463L375.158 276.258H399.084C400.511 276.258 401.67 275.1 401.67 273.672C401.67 272.244 400.512 271.084 399.082 271.084Z" fill="#B54324"/>
<path d="M230.676 122.502L234.881 118.297V142.221C234.881 143.648 236.039 144.807 237.467 144.807C238.895 144.807 240.053 143.649 240.053 142.221V118.295L244.258 122.5C244.763 123.005 245.425 123.257 246.087 123.257C246.749 123.257 247.411 123.005 247.916 122.5C248.926 121.49 248.926 119.854 247.916 118.844L239.296 110.224C238.286 109.214 236.65 109.214 235.64 110.224L227.02 118.844C226.01 119.854 226.01 121.49 227.02 122.5C228.03 123.51 229.666 123.511 230.676 122.502Z" fill="#D35933"/>
<path d="M244.258 387.774L240.053 391.979V368.055C240.053 366.628 238.895 365.469 237.467 365.469C236.039 365.469 234.881 366.627 234.881 368.055V391.981L230.676 387.776C229.666 386.766 228.03 386.766 227.02 387.776C226.01 388.786 226.01 390.422 227.02 391.432L235.64 400.052C236.145 400.557 236.807 400.809 237.469 400.809C238.131 400.809 238.793 400.557 239.298 400.052L247.918 391.432C248.928 390.422 248.928 388.786 247.918 387.776C246.908 386.765 245.269 386.765 244.258 387.774Z" fill="#D35933"/>
<path d="M119.706 247.055C120.211 247.56 120.873 247.812 121.535 247.812C122.197 247.812 122.859 247.56 123.364 247.055C124.374 246.045 124.374 244.409 123.364 243.399L119.159 239.194H143.085C144.512 239.194 145.671 238.036 145.671 236.608C145.671 235.18 144.513 234.022 143.085 234.022H119.157L123.362 229.817C124.372 228.807 124.372 227.171 123.362 226.161C122.352 225.151 120.716 225.151 119.706 226.161L111.086 234.781C110.076 235.791 110.076 237.427 111.086 238.437L119.706 247.055Z" fill="#D35933"/>
<path d="M144.912 271.841L136.292 263.221C135.282 262.211 133.646 262.211 132.636 263.221C131.626 264.231 131.626 265.867 132.636 266.877L136.841 271.082H112.915C111.488 271.082 110.329 272.24 110.329 273.668C110.329 275.096 111.487 276.254 112.915 276.254H136.841L132.636 280.459C131.626 281.469 131.626 283.105 132.636 284.115C133.141 284.62 133.803 284.872 134.465 284.872C135.127 284.872 135.789 284.62 136.294 284.115L144.914 275.495C145.922 274.489 145.922 272.851 144.912 271.841Z" fill="#D35933"/>
<path d="M164.88 320.048C163.87 319.038 162.234 319.038 161.224 320.048L144.307 336.965V331.019C144.307 329.592 143.149 328.433 141.721 328.433C140.293 328.433 139.135 329.591 139.135 331.019V343.209C139.135 344.636 140.293 345.795 141.721 345.795H153.911C155.338 345.795 156.497 344.637 156.497 343.209C156.497 341.781 155.339 340.623 153.911 340.623H147.962L164.88 323.705C165.89 322.694 165.89 321.058 164.88 320.048Z" fill="#D35933"/>
<path d="M189.261 345.5H177.071C175.644 345.5 174.485 346.658 174.485 348.086C174.485 349.514 175.643 350.672 177.071 350.672H183.018L166.1 367.588C165.09 368.598 165.09 370.234 166.1 371.244C166.605 371.749 167.267 372.001 167.929 372.001C168.591 372.001 169.253 371.749 169.758 371.244L186.676 354.326V360.273C186.676 361.7 187.834 362.859 189.262 362.859C190.69 362.859 191.848 361.701 191.848 360.273V348.083C191.847 346.658 190.688 345.5 189.261 345.5Z" fill="#D35933"/>
<path d="M141.719 181.841C143.146 181.841 144.305 180.683 144.305 179.255V173.309L161.222 190.226C161.727 190.731 162.389 190.983 163.051 190.983C163.713 190.983 164.375 190.731 164.88 190.226C165.89 189.216 165.89 187.58 164.88 186.57L147.962 169.652H153.911C155.338 169.652 156.497 168.494 156.497 167.066C156.497 165.638 155.339 164.48 153.911 164.48H141.721C140.294 164.48 139.135 165.638 139.135 167.066V179.256C139.133 180.684 140.291 181.841 141.719 181.841Z" fill="#D35933"/>
<path d="M189.261 147.415C187.834 147.415 186.675 148.573 186.675 150.001V155.948L169.757 139.03C168.747 138.02 167.111 138.02 166.101 139.03C165.091 140.04 165.091 141.676 166.101 142.686L183.019 159.603H177.072C175.645 159.603 174.486 160.761 174.486 162.189C174.486 163.617 175.644 164.775 177.072 164.775H189.262C190.689 164.775 191.848 163.617 191.848 162.189V149.999C191.847 148.573 190.688 147.415 189.261 147.415Z" fill="#D35933"/>
<path d="M281.322 131.774L277.117 135.979V112.055C277.117 110.628 275.959 109.469 274.531 109.469C273.103 109.469 271.945 110.627 271.945 112.055V135.981L267.74 131.776C266.73 130.766 265.094 130.766 264.084 131.776C263.074 132.786 263.074 134.422 264.084 135.432L272.704 144.052C273.209 144.557 273.871 144.809 274.533 144.809C275.195 144.809 275.857 144.557 276.362 144.052L284.982 135.432C285.992 134.422 285.992 132.786 284.982 131.776C283.972 130.765 282.333 130.765 281.322 131.774Z" fill="#B54324"/>
<path d="M276.359 366.225C275.349 365.215 273.713 365.215 272.703 366.225L264.083 374.845C263.073 375.855 263.073 377.491 264.083 378.501C265.093 379.511 266.729 379.511 267.739 378.501L271.944 374.296V398.222C271.944 399.649 273.102 400.808 274.53 400.808C275.958 400.808 277.116 399.65 277.116 398.222V374.296L281.321 378.501C281.826 379.006 282.488 379.258 283.15 379.258C283.812 379.258 284.474 379.006 284.979 378.501C285.989 377.491 285.989 375.855 284.979 374.845L276.359 366.225Z" fill="#B54324"/>
<path d="M322.738 164.776C323.4 164.776 324.062 164.524 324.567 164.019L341.485 147.101V153.05C341.485 154.477 342.643 155.636 344.071 155.636C345.499 155.636 346.657 154.478 346.657 153.05V140.86C346.657 139.433 345.499 138.274 344.071 138.274H331.881C330.454 138.274 329.295 139.432 329.295 140.86C329.295 142.288 330.453 143.446 331.881 143.446H337.827L320.91 160.363C319.9 161.373 319.9 163.009 320.91 164.019C321.415 164.524 322.077 164.776 322.738 164.776Z" fill="#B54324"/>
<path d="M346.36 188.399C346.36 189.826 347.518 190.985 348.946 190.985H361.136C362.563 190.985 363.722 189.827 363.722 188.399C363.722 186.971 362.564 185.813 361.136 185.813H355.189L372.107 168.895C373.117 167.885 373.117 166.249 372.107 165.239C371.097 164.229 369.461 164.229 368.451 165.239L351.534 182.157V176.21C351.534 174.783 350.376 173.624 348.948 173.624C347.52 173.624 346.362 174.782 346.362 176.21V188.4H346.36V188.399Z" fill="#B54324"/>
<path d="M344.071 354.642C342.644 354.642 341.485 355.8 341.485 357.228V363.177L324.567 346.259C323.557 345.249 321.921 345.249 320.911 346.259C319.901 347.269 319.901 348.905 320.911 349.915L337.828 366.832H331.882C330.455 366.832 329.296 367.99 329.296 369.418C329.296 370.846 330.454 372.004 331.882 372.004H344.072C345.499 372.004 346.658 370.846 346.658 369.418V357.228C346.657 355.8 345.498 354.642 344.071 354.642Z" fill="#B54324"/>
<path d="M355.188 324.463H361.135C362.562 324.463 363.721 323.305 363.721 321.877C363.721 320.449 362.563 319.291 361.135 319.291H348.945C347.518 319.291 346.359 320.449 346.359 321.877V334.067C346.359 335.494 347.517 336.653 348.945 336.653C350.373 336.653 351.531 335.495 351.531 334.067V328.12L368.448 345.038C368.953 345.543 369.615 345.795 370.277 345.795C370.939 345.795 371.601 345.543 372.106 345.038C373.116 344.028 373.116 342.392 372.106 341.382L355.188 324.463Z" fill="#B54324"/>
</svg>
