<svg height="638pt" viewBox="-129 -20 638 638.66704" width="638pt" xmlns="http://www.w3.org/2000/svg">
  <path
    d="m372.441406 402.625c0-104.40625-173.816406-386.269531-181.214844-398.207031-1.941406-2.769531-5.105468-4.417969-8.488281-4.417969-3.378906 0-6.542969 1.648438-8.484375 4.417969-7.398437 11.9375-181.222656 293.800781-181.222656 398.207031 0 108.140625 85.101562 196.125 189.707031 196.125s189.703125-87.984375 189.703125-196.125zm-189.703125 176.15625c-93.589843 0-169.738281-79.015625-169.738281-176.15625 0-86.183594 134.285156-314.871094 169.738281-373.738281 35.457031 58.910156 169.734375 287.554687 169.734375 373.738281 0 97.140625-76.140625 176.15625-169.734375 176.15625zm0 0"
    fill="#000000"/>
</svg>
