<svg width="32" height="32" viewBox="0 0 32 32" fill="none" xmlns="http://www.w3.org/2000/svg">
<path d="M4.46489 7.58838C6.7117 4.50726 10.024 2.48552 13.7914 1.89572C14.5395 1.77858 15.2874 1.7207 16.0303 1.7207C19.0291 1.7207 21.9423 2.66441 24.4117 4.46512C27.3398 6.60047 29.3102 9.69827 30.005 13.2343C29.5369 13.222 29.0862 13.2226 28.6531 13.234V10.582C28.6531 10.1071 28.268 9.72201 27.793 9.72201C27.318 9.72201 26.933 10.1071 26.933 10.582V13.341C26.8424 13.35 26.7528 13.3596 26.6642 13.3695V11.0121C26.6642 10.5372 26.2791 10.1521 25.8042 10.1521C25.3292 10.1521 24.9441 10.5372 24.9441 11.0121V13.6331C23.0842 13.9998 21.8498 14.5229 21.2675 14.8096V12.1207L21.2706 12.1218C21.3649 12.1549 21.4609 12.1706 21.5555 12.1706C21.9104 12.1705 22.2427 11.9491 22.367 11.5952C22.5243 11.1471 22.2885 10.6562 21.8403 10.4989L10.7658 6.61105C10.5557 6.53726 10.3249 6.54784 10.1224 6.64081L4.4562 9.23962C4.02447 9.43769 3.835 9.94811 4.03307 10.3799C4.18796 10.7177 4.5342 10.906 4.88423 10.8778V14.3032C3.87758 14.3974 2.84357 14.5168 1.78058 14.6665C2.01373 12.1321 2.9263 9.69827 4.46489 7.58838Z" fill="#7BCCDF"/>
<path d="M31.8039 13.5254C31.1429 9.30399 28.8776 5.59274 25.4253 3.07519C21.9729 0.557562 17.7466 -0.465005 13.5254 0.196181C9.30398 0.857108 5.59272 3.12241 3.07517 6.5748C0.55762 10.0271 -0.464863 14.2533 0.196065 18.4746C0.85708 22.696 3.12238 26.4073 6.57469 28.9248C9.34182 30.9427 12.6055 32 15.9659 32C16.7981 32 17.6367 31.9351 18.4745 31.8039C22.6958 31.1429 26.4072 28.8777 28.9247 25.4253C31.4424 21.9729 32.4649 17.7468 31.8039 13.5254ZM28.961 21.9955C27.8916 21.4319 25.6393 20.3805 22.2487 19.473C17.9817 18.3309 11.0312 17.218 1.90657 18.2747C1.90296 18.2526 1.89883 18.2307 1.89539 18.2085C1.80147 17.6088 1.746 17.0089 1.7276 16.4118C2.80985 16.2544 3.862 16.1287 4.88414 16.0304V16.43C4.88414 16.9049 5.26918 17.29 5.74417 17.29H20.4076C20.7534 17.29 21.0507 17.0855 21.1873 16.7912C21.754 16.9106 22.2883 17.0344 22.7851 17.1597C26.4204 18.0765 28.7949 19.2048 29.7875 19.7319C29.5777 20.5061 29.3018 21.263 28.961 21.9955ZM26.6903 25.4632C25.2273 24.7617 22.6438 23.7032 19.0068 22.8831C14.0477 21.765 8.65535 21.4172 2.97016 21.8479C2.69831 21.2397 2.46825 20.6104 2.28266 19.9631C11.0046 18.9774 17.638 20.0293 21.7175 21.1115C24.9759 21.976 27.1497 22.991 28.1421 23.5105C27.952 23.8168 27.7497 24.1175 27.5351 24.4118C27.2683 24.7776 26.9861 25.1279 26.6903 25.4632ZM22.9871 28.4572C22.9465 28.4338 22.904 28.4126 22.8586 28.3956C19.1814 27.0224 13.1646 25.4097 5.33841 25.5002C4.78335 24.8798 4.28608 24.2146 3.851 23.5111C14.8923 22.8123 22.2644 25.3593 25.3924 26.7583C24.6498 27.4092 23.844 27.9772 22.9871 28.4572ZM6.60419 10.8464H14.5303V15.57H10.8684V14.5954C10.8684 14.1205 10.4834 13.7353 10.0084 13.7353C9.53343 13.7353 9.1484 14.1205 9.1484 14.5954V15.57H6.60419V10.8464ZM19.5476 11.5167V15.57H16.2503V10.9817V10.3592L18.5385 11.1625L19.5476 11.5167ZM8.82856 9.1264L10.5237 8.34894L12.7384 9.1264H8.82856ZM23.8727 15.6664C25.2987 15.2535 27.437 14.8609 30.2389 14.9633C30.3144 15.978 30.2826 16.988 30.1452 17.9791C28.9755 17.3935 26.8738 16.4746 23.8727 15.6664ZM4.46488 7.58825C6.71169 4.50713 10.024 2.48539 13.7914 1.89559C14.5395 1.77845 15.2874 1.72057 16.0303 1.72057C19.0291 1.72057 21.9423 2.66427 24.4117 4.46499C27.3398 6.60034 29.3102 9.69814 30.005 13.2341C29.5369 13.2219 29.0862 13.2224 28.6531 13.2339V10.5819C28.6531 10.107 28.268 9.72188 27.793 9.72188C27.318 9.72188 26.933 10.107 26.933 10.5819V13.3409C26.8424 13.3499 26.7528 13.3594 26.6642 13.3694V11.012C26.6642 10.5371 26.2791 10.152 25.8041 10.152C25.3292 10.152 24.9441 10.5371 24.9441 11.012V13.633C23.0841 13.9996 21.8498 14.5228 21.2675 14.8095V12.1206L21.2706 12.1217C21.3649 12.1548 21.4609 12.1704 21.5555 12.1704C21.9104 12.1704 22.2427 11.949 22.367 11.5951C22.5243 11.1469 22.2885 10.656 21.8403 10.4987L10.7658 6.61092C10.5557 6.53713 10.3249 6.54771 10.1224 6.64068L4.45619 9.23949C4.02446 9.43756 3.835 9.94798 4.03306 10.3798C4.18795 10.7175 4.5342 10.9059 4.88423 10.8777V14.303C3.87757 14.3972 2.84356 14.5167 1.78057 14.6664C2.01373 12.1319 2.9263 9.69814 4.46488 7.58825ZM18.2085 30.1045C14.4411 30.6947 10.6694 29.782 7.58823 27.5351C7.45235 27.436 7.31922 27.3341 7.18746 27.2308C12.8937 27.3643 17.487 28.4132 20.7295 29.4733C19.9181 29.7562 19.0756 29.9687 18.2085 30.1045Z" fill="#3B4A5E"/>
<path d="M22.9872 28.4568C22.9465 28.4334 22.904 28.4121 22.8586 28.3952C19.1815 27.0219 13.1646 25.4093 5.33843 25.4998C4.78337 24.8793 4.2861 24.2142 3.85101 23.5106C14.8924 22.8118 22.2644 25.3589 25.3924 26.7579C24.6498 27.4087 23.844 27.9768 22.9872 28.4568Z" fill="#5FB99F"/>
<path d="M6.60419 10.8461H14.5303V15.5697H10.8684V14.5951C10.8684 14.1202 10.4834 13.735 10.0084 13.735C9.53343 13.735 9.1484 14.1202 9.1484 14.5951V15.5697H6.60419V10.8461Z" fill="#E6EAEE"/>
<path d="M19.5476 11.5164V15.5697H16.2503V10.9814V10.3589L18.5385 11.1622L19.5476 11.5164Z" fill="#E6EAEE"/>
<path d="M8.82855 9.12609L10.5237 8.34863L12.7384 9.12609H8.82855Z" fill="#E6EAEE"/>
<path d="M23.8727 15.6668C25.2987 15.2539 27.437 14.8613 30.2389 14.9637C30.3144 15.9785 30.2827 16.9884 30.1452 17.9796C28.9755 17.3939 26.8738 16.475 23.8727 15.6668Z" fill="#509A84"/>
<path d="M26.6903 25.4633C25.2273 24.7617 22.6438 23.7032 19.0068 22.8831C14.0477 21.765 8.65535 21.4173 2.97016 21.848C2.6983 21.2398 2.46825 20.6104 2.28265 19.9632C11.0046 18.9774 17.638 20.0293 21.7175 21.1115C24.9759 21.976 27.1497 22.991 28.1421 23.5105C27.952 23.8168 27.7497 24.1176 27.5351 24.4119C27.2683 24.7777 26.9861 25.1279 26.6903 25.4633Z" fill="#509A84"/>
<path d="M18.2085 30.1046C14.4411 30.6948 10.6694 29.782 7.58823 27.5351C7.45235 27.4361 7.31921 27.3342 7.18746 27.2309C12.8937 27.3643 17.487 28.4132 20.7295 29.4734C19.9181 29.7562 19.0756 29.9688 18.2085 30.1046Z" fill="#509A84"/>
<path d="M28.961 21.9954C27.8916 21.4317 25.6393 20.3804 22.2487 19.4729C17.9817 18.3307 11.0312 17.2179 1.90657 18.2746C1.90296 18.2525 1.89883 18.2306 1.89539 18.2084C1.80148 17.6087 1.746 17.0088 1.7276 16.4117C2.80985 16.2543 3.86201 16.1286 4.88415 16.0303V16.4298C4.88415 16.9047 5.26918 17.2899 5.74417 17.2899H20.4076C20.7534 17.2899 21.0507 17.0853 21.1873 16.791C21.754 16.9105 22.2883 17.0343 22.7851 17.1596C26.4204 18.0764 28.7949 19.2047 29.7875 19.7318C29.5777 20.506 29.3018 21.2628 28.961 21.9954Z" fill="#5FB99F"/>
</svg>
