<svg width="256" height="256" viewBox="0 0 256 256" fill="none" xmlns="http://www.w3.org/2000/svg">
<g clip-path="url(#clip0)">
<path d="M35.719 60.7051C53.6935 36.0562 80.1919 19.8822 110.331 15.1638C116.316 14.2267 122.299 13.7637 128.242 13.7637C152.233 13.7637 175.538 21.3133 195.293 35.719C218.718 52.8018 234.482 77.5842 240.04 105.872C236.295 105.774 232.689 105.779 229.224 105.87V84.6543C229.224 80.8551 226.144 77.7741 222.344 77.7741C218.544 77.7741 215.464 80.8551 215.464 84.6543V106.726C214.739 106.798 214.023 106.875 213.313 106.954V88.0951C213.313 84.2959 210.233 81.2149 206.433 81.2149C202.633 81.2149 199.553 84.2959 199.553 88.0951V109.063C184.673 111.996 174.799 116.181 170.14 118.475V96.9637L170.165 96.9726C170.919 97.2375 171.687 97.3627 172.444 97.3627C175.283 97.362 177.942 95.5911 178.936 92.7599C180.194 89.1746 178.308 85.2474 174.722 83.989L86.1261 52.8865C84.4453 52.2961 82.5993 52.3808 80.979 53.1245L35.6495 73.915C32.1957 75.4995 30.68 79.5829 32.2645 83.0375C33.5036 85.7393 36.2736 87.2461 39.0738 87.0204V114.423C31.0205 115.177 22.7485 116.133 14.2446 117.33C16.1098 97.0545 23.4104 77.5842 35.719 60.7051Z" fill="#7BCCDF"/>
<path d="M254.431 108.203C249.143 74.432 231.021 44.7419 203.402 24.6015C175.783 4.4605 141.973 -3.72004 108.203 1.56945C74.4318 6.85687 44.7417 24.9793 24.6013 52.5984C4.46096 80.2168 -3.7189 114.026 1.56852 147.797C6.85664 181.568 24.9791 211.258 52.5975 231.398C74.7346 247.541 100.844 256 127.727 256C134.384 256 141.093 255.481 147.796 254.431C181.567 249.143 211.258 231.021 231.398 203.402C251.539 175.783 259.719 141.974 254.431 108.203ZM231.688 175.964C223.133 171.455 205.114 163.044 177.99 155.784C143.854 146.647 88.2493 137.744 15.2525 146.198C15.2236 146.021 15.1906 145.845 15.1631 145.668C14.4118 140.87 13.968 136.071 13.8208 131.295C22.4788 130.036 30.896 129.03 39.0731 128.243V131.44C39.0731 135.239 42.1534 138.32 45.9533 138.32H163.261C166.027 138.32 168.406 136.684 169.498 134.329C174.032 135.285 178.306 136.275 182.281 137.278C211.363 144.612 230.359 153.639 238.3 157.856C236.621 164.049 234.414 170.104 231.688 175.964ZM213.522 203.706C201.819 198.094 181.151 189.625 152.054 183.065C112.382 174.12 69.2428 171.338 23.7613 174.784C21.5864 169.918 19.746 164.883 18.2612 159.705C88.0367 151.819 141.104 160.234 173.74 168.892C199.807 175.808 217.197 183.928 225.137 188.084C223.616 190.534 221.998 192.94 220.281 195.295C218.147 198.221 215.889 201.023 213.522 203.706ZM183.897 227.658C183.572 227.471 183.232 227.301 182.868 227.165C153.452 216.179 105.317 203.278 42.7073 204.002C38.2668 199.038 34.2887 193.717 30.808 188.088C119.139 182.498 178.115 202.875 203.139 214.067C197.199 219.274 190.752 223.818 183.897 227.658ZM52.8335 86.7716H116.242V124.56H86.9476V116.763C86.9476 112.964 83.8673 109.883 80.0674 109.883C76.2675 109.883 73.1872 112.964 73.1872 116.763V124.56H52.8335V86.7716ZM156.38 92.1333V124.56H130.002V87.8538V82.8739L148.308 89.3L156.38 92.1333ZM70.6285 73.0112L84.1893 66.7915L101.907 73.0112H70.6285ZM190.982 125.331C202.39 122.028 219.496 118.887 241.911 119.706C242.515 127.824 242.261 135.904 241.162 143.833C231.804 139.148 214.99 131.797 190.982 125.331ZM35.719 60.706C53.6936 36.0571 80.1919 19.8831 110.331 15.1647C116.316 14.2276 122.299 13.7646 128.243 13.7646C152.233 13.7646 175.538 21.3142 195.293 35.7199C218.718 52.8027 234.482 77.5851 240.04 105.873C236.295 105.775 232.689 105.779 229.224 105.871V84.6552C229.224 80.856 226.144 77.775 222.344 77.775C218.544 77.775 215.464 80.856 215.464 84.6552V106.727C214.739 106.799 214.023 106.875 213.313 106.955V88.096C213.313 84.2968 210.233 81.2158 206.433 81.2158C202.633 81.2158 199.553 84.2968 199.553 88.096V109.064C184.673 111.997 174.799 116.182 170.14 118.476V96.9645L170.165 96.9735C170.919 97.2384 171.687 97.3636 172.444 97.3636C175.283 97.3629 177.942 95.5919 178.936 92.7607C180.194 89.1755 178.308 85.2483 174.722 83.9899L86.1261 52.8874C84.4453 52.297 82.5993 52.3817 80.979 53.1254L35.6496 73.9159C32.1957 75.5004 30.68 79.5838 32.2645 83.0384C33.5036 85.7402 36.2736 87.247 39.0738 87.0213V114.424C31.0206 115.178 22.7485 116.133 14.2446 117.331C16.1098 97.0554 23.4104 77.5851 35.719 60.706ZM145.668 240.836C115.529 245.558 85.3548 238.256 60.7058 220.281C59.6188 219.488 58.5537 218.673 57.4997 217.847C103.15 218.914 139.896 227.305 165.836 235.787C159.345 238.05 152.605 239.75 145.668 240.836Z" fill="#3B4A5E"/>
<path d="M183.897 227.657C183.572 227.47 183.232 227.3 182.869 227.164C153.452 216.178 105.317 203.277 42.7074 204.001C38.2669 199.038 34.2888 193.716 30.8081 188.088C119.139 182.498 178.115 202.874 203.139 214.066C197.199 219.273 190.752 223.817 183.897 227.657Z" fill="#5FB99F"/>
<path d="M52.8336 86.7711H116.242V124.56H86.9477V116.762C86.9477 112.963 83.8674 109.882 80.0675 109.882C76.2676 109.882 73.1873 112.963 73.1873 116.762V124.56H52.8336V86.7711Z" fill="#E6EAEE"/>
<path d="M156.381 92.1328V124.56H130.003V87.8533V82.8734L148.308 89.2995L156.381 92.1328Z" fill="#E6EAEE"/>
<path d="M70.6286 73.0107L84.1894 66.791L101.907 73.0107H70.6286Z" fill="#E6EAEE"/>
<path d="M190.982 125.332C202.39 122.029 219.496 118.888 241.911 119.708C242.515 127.826 242.261 135.905 241.162 143.835C231.804 139.149 214.99 131.798 190.982 125.332Z" fill="#509A84"/>
<path d="M213.522 203.706C201.819 198.094 181.151 189.626 152.054 183.065C112.382 174.12 69.2428 171.338 23.7613 174.784C21.5864 169.918 19.746 164.883 18.2612 159.705C88.0367 151.819 141.104 160.234 173.74 168.892C199.807 175.808 217.197 183.928 225.137 188.084C223.616 190.535 221.998 192.941 220.281 195.295C218.147 198.221 215.889 201.024 213.522 203.706Z" fill="#509A84"/>
<path d="M145.668 240.836C115.529 245.558 85.3548 238.256 60.7058 220.281C59.6188 219.489 58.5537 218.673 57.4997 217.847C103.15 218.915 139.896 227.306 165.836 235.787C159.345 238.05 152.605 239.75 145.668 240.836Z" fill="#509A84"/>
<path d="M231.688 175.966C223.133 171.457 205.114 163.046 177.99 155.786C143.854 146.649 88.2492 137.746 15.2524 146.2C15.2236 146.023 15.1905 145.847 15.163 145.67C14.4117 140.872 13.9679 136.073 13.8207 131.296C22.4787 130.037 30.8959 129.032 39.0731 128.245V131.442C39.0731 135.241 42.1533 138.322 45.9532 138.322H163.261C166.027 138.322 168.406 136.686 169.498 134.331C174.032 135.287 178.306 136.277 182.281 137.279C211.363 144.614 230.359 153.641 238.3 157.857C236.621 164.051 234.414 170.106 231.688 175.966Z" fill="#5FB99F"/>
<path d="M199.071 240.141C223.41 240.141 243.141 220.41 243.141 196.071C243.141 171.731 223.41 152 199.071 152C174.731 152 155 171.731 155 196.071C155 220.41 174.731 240.141 199.071 240.141Z" fill="#0052B4" stroke="#3B4A5E" stroke-width="10"/>
<path d="M199.418 169.87L200.83 174.216H205.399L201.703 176.902L203.115 181.248L199.418 178.562L195.721 181.248L197.133 176.902L193.436 174.216H198.006L199.418 169.87Z" fill="#FFDA44"/>
<path d="M180.646 177.646L184.717 179.72L187.948 176.489L187.233 181.002L191.305 183.077L186.792 183.792L186.077 188.305L184.002 184.233L179.489 184.948L182.72 181.717L180.646 177.646Z" fill="#FFDA44"/>
<path d="M172.87 196.418L177.216 195.006V190.437L179.902 194.133L184.248 192.721L181.562 196.418L184.248 200.115L179.902 198.703L177.216 202.4V197.83L172.87 196.418Z" fill="#FFDA44"/>
<path d="M180.646 215.189L182.72 211.118L179.489 207.887L184.002 208.602L186.077 204.53L186.792 209.043L191.305 209.758L187.234 211.833L187.948 216.346L184.717 213.115L180.646 215.189Z" fill="#FFDA44"/>
<path d="M199.418 222.965L198.006 218.619H193.436L197.133 215.933L195.721 211.588L199.418 214.274L203.115 211.588L201.703 215.933L205.399 218.619H200.83L199.418 222.965Z" fill="#FFDA44"/>
<path d="M218.19 215.189L214.118 213.115L210.887 216.346L211.602 211.833L207.531 209.758L212.044 209.043L212.759 204.53L214.833 208.602L219.346 207.887L216.115 211.118L218.19 215.189Z" fill="#FFDA44"/>
<path d="M225.965 196.418L221.619 197.83V202.4L218.933 198.703L214.588 200.115L217.274 196.418L214.588 192.721L218.934 194.133L221.619 190.437V195.006L225.965 196.418Z" fill="#FFDA44"/>
<path d="M218.19 177.646L216.115 181.717L219.346 184.948L214.833 184.233L212.759 188.305L212.044 183.791L207.531 183.076L211.602 181.002L210.887 176.489L214.118 179.72L218.19 177.646Z" fill="#FFDA44"/>
</g>
<defs>
<clipPath id="clip0">
<rect width="256" height="256" fill="white"/>
</clipPath>
</defs>
</svg>
