<svg width="340" height="339" viewBox="0 0 340 339" fill="none" xmlns="http://www.w3.org/2000/svg">
<path d="M21.0199 98.0425V247.582H189.614C190.699 251.124 193.541 254.254 198.169 256.962C204.305 260.552 211.736 262.351 220.445 262.351C229.16 262.351 236.586 260.552 242.725 256.962C242.725 256.962 260.525 249.951 266.016 249.558C271.508 249.166 282.84 246.467 288.722 250.771C294.603 255.071 301.701 260.903 307.586 260.903C313.467 260.903 338.175 261.295 338.175 261.295V247.585V227.265V98.0425H21.0199Z" fill="white"/>
<path d="M21.0199 98.0425V247.582H189.614C190.699 251.124 193.541 254.254 198.169 256.962C204.305 260.552 211.736 262.351 220.445 262.351C229.16 262.351 236.586 260.552 242.725 256.962C242.725 256.962 260.524 249.95 266.016 249.558C271.508 249.166 282.84 246.467 288.722 250.771C294.603 255.071 301.701 260.903 307.586 260.903C313.467 260.903 338.175 261.295 338.175 261.295V247.585V227.265V98.0425H21.0199Z" stroke="white" stroke-width="0.87" stroke-miterlimit="10" stroke-linejoin="round"/>
<path d="M20.9962 265.424L229.009 265.565L172.476 197.516L146.802 224.568L121.302 236.257L104.384 211.884L97.4164 228.228L90.0175 211.746L77.8604 195.051L20.9962 165.819V265.424Z" fill="#00A88E"/>
<path d="M256.293 79.1735L247.365 86.7807C247.365 86.7807 245.523 90.0608 244.819 90.7923C243.982 91.6536 241.935 92.6358 239.546 93.9661C236.473 95.671 233.073 97.3671 230.615 99.8124C227.132 103.29 225.325 107.918 224.248 112.419C222.687 118.938 220.608 122.616 213.7 124.463C210.755 125.253 202.489 125.749 198.485 125.946C198.11 125.964 179.547 126.238 177.403 126.15C176.495 126.115 166.456 125.858 164.823 125.522C164.498 125.457 159.84 122.23 157.09 121.787C155.623 121.551 154.157 121.69 153.095 122.138C152.595 122.348 151.705 122.911 150.886 123.899C149.638 125.398 149.351 125.799 148.162 126.297C147.772 126.463 143.434 127.643 143.233 127.704C142.635 127.902 142.552 128.129 142.552 128.129L142.893 128.415C142.893 128.415 151.152 128.436 151.477 128.415C151.803 128.392 154.94 128.958 158.619 128.97C160.234 128.976 161.999 129.563 163.463 129.678C169.224 130.12 190.078 133.185 195.764 133.975C204.935 135.25 227.01 142.294 234.956 143.488C245.738 145.108 257.443 143.827 266.149 142.075C282.124 138.857 296.109 136.497 313.163 134.324C314.837 134.111 326.627 132.477 327.014 132.427C329.936 132.058 329.821 130.731 329.821 130.731C329.821 130.731 329.744 129.752 327.869 129.816C325.628 129.902 315.132 130.492 313.246 130.592C298.992 131.353 277.463 130.341 271.996 129.123C271.292 129.026 270.922 128.929 269.724 128.477C265.374 126.761 263.869 121.672 265.132 112.77C265.945 107.054 273.374 71.0649 273.374 71.0649V71C273.374 71 273.172 71.0413 272.948 71.4248C272.56 72.1061 261.4 91.925 261.4 91.925L264.617 75.0145L255.444 87.8367L256.293 79.1735Z" fill="#034EA2"/>
<path d="M122.151 90.02L113.764 78.2773C113.764 78.2773 113.513 79.8908 112.123 81.991C108.175 87.9582 100.137 95.878 88.7459 104.32C88.1634 104.751 83.0444 108.55 81.347 109.957C79.9896 111.087 80.3977 112.467 81.0069 113.617C81.6072 114.753 82.7191 116.594 83.2219 117.706C85.3333 122.381 85.0376 126.195 81.347 129.543C79.963 130.799 78.1 131.917 75.3143 133.129C74.5424 133.466 72.8509 134.141 71.3191 134.542C68.8912 135.174 64.1183 135.799 61.2025 136.02C58.7805 136.206 53.2653 136.218 50.5772 136.303C48.0961 136.38 37.7547 136.339 35.1021 136.303C25.2339 136.168 22.5221 135.74 22.5221 135.74C22.5221 135.74 20.1859 134.067 18.6127 133.274C16.655 132.209 14.4992 131.82 12.8343 132.006C11.8022 132.065 10.3325 132.404 9.43351 133.203C9.03428 133.557 8.95444 133.622 8.58183 134.12C7.63552 135.389 6.99972 136.07 5.86119 136.519C5.19582 136.778 1.66787 137.639 0.851677 137.926C0.0325293 138.206 0 138.347 0 138.347L0.591442 138.628H9.17919C9.17919 138.628 12.1334 139.232 14.1887 139.232C15.3006 139.232 15.4012 139.229 16.4096 139.232C17.4209 139.235 18.0804 139.442 18.867 139.616C19.6566 139.79 20.8543 139.955 21.771 140.144C22.6877 140.332 32.0325 141.386 36.6339 141.937C39.9992 142.341 44.9408 142.849 48.0222 143.489C51.6654 144.247 57.0742 145.359 60.1793 146.306C61.0043 146.556 68.5127 148.704 69.1899 148.913C76.0831 151.066 82.4944 152.783 92.7411 153.842C101.494 154.674 108.633 154.683 117.733 153.349C125.43 152.4 131.901 150.642 140.683 148.769C151.013 146.571 161.966 145.704 170.948 144.683C174.774 144.25 182.076 143.096 184.888 142.645C188.076 142.129 187.523 140.949 187.523 140.949C187.523 140.949 187.289 140.029 185.562 140.105C185.13 140.123 179.086 140.666 177.524 140.793C174.186 141.058 169.155 141.188 164.655 141.164C159.811 141.135 152.947 140.925 146.293 140.318C133.518 139.2 127.831 138.613 123.94 137.781C122.733 137.489 121.184 137.147 121.201 136.153C121.213 135.433 121.778 134.825 123.115 133.528C125.333 131.377 124.99 129.764 125.081 123.313C125.208 114.405 126.214 103.503 126.063 102.63C125.936 101.907 125.105 101.615 124.363 101.993C123.336 102.521 121.216 104.456 121.216 104.456C121.216 104.456 121.056 104.09 121.216 103.615C121.639 102.329 123.336 99.4766 124.02 98.2614C124.646 97.1464 124.791 96.7098 124.788 96.288C124.783 95.9252 124.493 95.5093 123.342 95.7276C122.65 95.8544 122.39 95.9282 121.642 95.94C120.77 95.9547 119.794 95.4887 120.282 93.8958C120.639 92.7366 122.151 90.02 122.151 90.02Z" fill="#034EA2"/>
<path d="M52.7892 132.921C52.7892 132.921 52.2894 129.794 52.3604 126.505C52.4313 123.222 52.7892 120.172 52.7892 120.172C52.7892 120.172 53.5728 121.308 54.318 122.143C58.7154 127.072 63.719 128.992 72.3363 128.691C75.332 128.588 77.4375 128.06 77.4375 128.06C77.4375 128.06 75.5774 129.125 73.4423 129.889C64.0473 133.248 52.7892 132.921 52.7892 132.921Z" fill="#034EA2"/>
<path d="M20.9962 130.522V97.7632H92.1467M128.358 97.7632H227.897" stroke="#00A88E" stroke-width="0.865" stroke-miterlimit="3.864"/>
<path d="M21.0228 265.492L21.0258 147.641" stroke="#034EA2" stroke-width="0.865" stroke-miterlimit="3.864"/>
<path d="M198.148 218.157C198.148 218.157 198.453 218.423 198.666 218.653C201.658 221.88 211.494 233.938 211.494 233.938C211.494 233.938 220.194 237.864 235.214 237.46C242.406 237.271 250.538 235.268 254.341 234.572C255.82 234.298 257.209 234.047 259.525 233.793C267.583 232.911 271.25 232.911 277.375 236.82C278.886 237.784 294.506 247.232 295.559 247.884C301.31 251.424 309.673 250.642 312.988 249.577C319.675 247.424 324.838 245.689 333.65 246.964C334.762 247.129 337.897 247.81 337.897 247.81C337.897 247.81 329.286 241.516 325.317 239.286C319.982 236.292 314.384 234.994 309.165 235.973C308.127 236.171 309.082 235.902 309.082 235.902C309.082 235.902 297.652 238.649 291.655 238.932C289.014 239.059 281.964 239.687 274.311 232.599C270.721 228.997 268.012 226.564 266.492 225.62C263.139 223.526 258.697 222.998 254.764 222.947C253.454 222.93 243.275 223.26 234.956 223.508C226.786 223.753 211.636 222.738 204.098 220.128C202.501 219.579 198.148 218.157 198.148 218.157Z" fill="#00A88E"/>
<path d="M338.752 265.072L338.412 256.763C338.412 256.763 333.236 254.137 326.257 254.014C321.644 253.931 316.791 255.468 308.996 257.184C305.598 257.934 299.415 258.291 295.313 255.633C292.007 253.489 289.331 251.486 286.98 249.152C285.868 248.043 284.877 246.819 283.076 245.067C279.119 241.224 277.567 240.365 273.894 240.065C268.059 239.59 262.816 240.731 256.81 241.265C248.61 241.994 234.22 243.637 215.238 238.094C214.144 237.776 214.217 237.599 214.217 237.599C214.217 237.599 216.5 239.958 217.361 240.846C224.032 247.71 237.174 263.455 237.174 263.455C237.174 263.455 238.038 263.025 239.854 262.161C255.234 254.822 269.269 252.68 271.933 252.256C279.528 251.049 285.542 251.049 290.635 254.512C292.096 255.5 292.072 255.429 293.696 256.485C299.362 260.161 308.532 266.066 313.246 267.612C318.297 269.272 321.827 269.361 326.163 268.316C331.45 267.045 338.752 265.072 338.752 265.072Z" fill="#00A88E"/>
<path d="M272.271 97.7695H339V265.101" stroke="#034EA2" stroke-width="0.865" stroke-miterlimit="3.864"/>
<path d="M153.435 156.733L150.714 163.707H141.707L148.931 168.211L146.125 175.535L153.435 170.954L160.745 175.535L157.942 168.281L165.252 163.704H156.156L153.435 156.733ZM186.242 151.026L183.607 157.999H174.683L181.907 162.438L179.015 169.836L186.236 165.329L193.635 169.836L190.749 162.512L198.142 158.002H188.957L186.242 151.026ZM219.141 156.869L216.509 163.774H207.499L214.726 168.355L211.917 175.614L219.23 171.172L226.54 175.614L223.651 168.355L230.964 163.774H221.862L219.141 156.869ZM240.995 177.018L238.274 183.991H229.344L236.565 188.498L233.679 195.823L241.072 191.242L248.385 195.823L245.404 188.566L252.803 183.988H243.704L240.995 177.018ZM249.326 203.648L246.685 210.624H237.594L244.902 215.125L242.101 222.452L249.408 217.874L256.642 222.452L253.832 215.196L261.146 210.621H252.043L249.326 203.648ZM122.917 203.648L120.282 210.55H111.274L118.578 215.06L115.692 222.381L123.002 217.877L130.395 222.381L127.506 215.125L134.902 210.547H125.72L122.917 203.648ZM131.587 177.018L128.866 183.991H119.856L127.08 188.498L124.28 195.823L131.587 191.242L138.983 195.823L136.091 188.566L143.401 183.988H134.222L131.587 177.018Z" stroke="#034EA2" stroke-width="0.21" stroke-miterlimit="3.864"/>
</svg>
