<svg width="212" height="212" viewBox="0 0 212 212" fill="none" xmlns="http://www.w3.org/2000/svg">
<path d="M41.7047 41.7607C77.2215 6.27042 134.781 6.27042 170.283 41.7607L159.57 52.4664L207.8 68.526L191.712 20.3331L180.998 31.054C139.562 -10.3513 72.4196 -10.3513 30.9918 31.054C4.48771 57.5382 -4.97684 94.537 2.44477 128.609L19.6927 134.36C9.34737 102.833 16.6354 66.8111 41.7047 41.7607Z" fill="#C7CFDA"/>
<path d="M192.304 77.6348C202.648 109.161 195.367 145.185 170.283 170.235C134.766 205.725 77.2215 205.725 41.7047 170.235L52.4184 159.529L4.20453 143.47L20.2762 191.663L36.3478 175.59L30.9909 180.958C72.4196 222.347 139.576 222.347 180.997 180.958C207.516 154.458 216.972 117.475 209.558 83.3889L192.304 77.6348Z" fill="#C7CFDA"/>
<path d="M198.052 91.0955C194.226 66.6629 181.115 45.183 161.134 30.612C141.152 16.0405 116.691 10.1221 92.26 13.9489C67.8274 17.7742 46.3474 30.8853 31.7764 50.8669C17.2054 70.8481 11.2875 95.3081 15.1128 119.74C18.9386 144.173 32.0497 165.653 52.0309 180.224C68.0464 191.903 86.936 198.022 106.385 198.022C111.201 198.022 116.055 197.646 120.904 196.887C145.336 193.062 166.817 179.951 181.388 159.969C195.959 139.988 201.877 115.528 198.052 91.0955ZM181.598 140.119C175.408 136.856 162.372 130.771 142.749 125.519C118.052 118.908 77.8239 112.467 25.0128 118.583C24.9919 118.456 24.968 118.329 24.9481 118.2C24.4045 114.729 24.0835 111.257 23.977 107.801C30.2408 106.891 36.3304 106.163 42.2463 105.594V107.906C42.2463 110.655 44.4748 112.884 47.224 112.884H132.093C134.094 112.884 135.815 111.7 136.605 109.997C139.885 110.688 142.978 111.405 145.853 112.13C166.894 117.436 180.636 123.967 186.381 127.018C185.167 131.498 183.57 135.879 181.598 140.119ZM168.456 160.189C159.988 156.129 145.035 150.002 123.985 145.256C95.283 138.784 64.0732 136.772 31.1686 139.264C29.5952 135.744 28.2637 132.102 27.1895 128.356C77.6701 122.65 116.063 128.738 139.674 135.002C158.533 140.006 171.114 145.88 176.858 148.887C175.758 150.66 174.587 152.4 173.345 154.104C171.801 156.221 170.167 158.248 168.456 160.189ZM147.022 177.517C146.787 177.382 146.541 177.259 146.278 177.161C124.996 169.213 90.1719 159.879 44.8755 160.403C41.663 156.812 38.7849 152.962 36.2667 148.89C100.171 144.846 142.839 159.588 160.943 167.685C156.646 171.452 151.982 174.739 147.022 177.517ZM52.2016 75.5903H98.0759V102.929H76.8822V97.2882C76.8822 94.5396 74.6537 92.3106 71.9045 92.3106C69.1554 92.3106 66.9269 94.5396 66.9269 97.2882V102.929H52.2016V75.5903ZM127.115 79.4693V102.929H108.031V76.3732V72.7704L121.275 77.4195L127.115 79.4693ZM65.0757 65.635L74.8866 61.1353L87.705 65.635H65.0757ZM152.148 103.487C160.401 101.097 172.777 98.8248 188.994 99.4176C189.431 105.291 189.247 111.136 188.452 116.873C181.682 113.483 169.517 108.165 152.148 103.487ZM39.8198 56.7326C52.8238 38.8997 71.9946 27.1984 93.7996 23.7847C98.1292 23.1067 102.458 22.7718 106.758 22.7718C124.114 22.7718 140.975 28.2337 155.267 38.6558C172.215 51.0148 183.619 68.9441 187.64 89.4096C184.931 89.3389 182.322 89.3419 179.815 89.4081V74.0591C179.815 71.3105 177.587 69.0815 174.838 69.0815C172.089 69.0815 169.86 71.3105 169.86 74.0591V90.0273C169.336 90.0796 168.817 90.1349 168.304 90.1926V76.5485C168.304 73.7998 166.076 71.5708 163.327 71.5708C160.577 71.5708 158.349 73.7998 158.349 76.5485V91.7182C147.584 93.8402 140.44 96.8681 137.07 98.5276V82.9646L137.088 82.9711C137.633 83.1627 138.189 83.2533 138.736 83.2533C140.79 83.2528 142.714 81.9716 143.433 79.9233C144.343 77.3294 142.979 74.4882 140.385 73.5778L76.2878 51.076C75.0718 50.6489 73.7363 50.7101 72.5641 51.2482L39.7695 66.2896C37.2707 67.4359 36.1741 70.3901 37.3205 72.8894C38.217 74.8441 40.221 75.9342 42.2468 75.771V95.5963C36.4205 96.1413 30.4359 96.8327 24.2836 97.6993C25.633 83.0303 30.9148 68.9441 39.8198 56.7326ZM119.365 187.052C97.5597 190.468 75.7298 185.185 57.897 172.18C57.1105 171.607 56.34 171.017 55.5774 170.419C88.604 171.192 115.189 177.263 133.956 183.399C129.26 185.036 124.383 186.266 119.365 187.052Z" fill="#3B4A5E"/>
</svg>
