<svg width="512" height="512" viewBox="0 0 512 512" fill="none" xmlns="http://www.w3.org/2000/svg">
<path d="M286.618 221.76C286.579 221.655 286.534 221.555 286.483 221.456L172.355 1.486C171.881 0.574 170.94 0 169.911 0C168.882 0 167.941 0.574 167.467 1.486L53.3396 221.456C53.2876 221.555 53.2426 221.656 53.2046 221.76C41.1765 253.965 42.4075 288.924 56.6736 320.197C70.9387 351.472 96.5309 375.317 128.735 387.343C141.925 392.269 155.749 394.985 169.827 395.413C169.855 395.414 169.883 395.414 169.911 395.414C169.939 395.414 169.967 395.414 169.995 395.413C184.073 394.983 197.898 392.268 211.086 387.343C243.289 375.317 268.882 351.471 283.148 320.197C297.413 288.924 298.646 253.965 286.618 221.76Z" fill="#68CCEA"/>
<path d="M178.712 373.344C151.354 346.386 136.133 310.385 135.85 271.973C135.849 271.85 135.856 271.725 135.871 271.602L166.544 3.26562L53.3396 221.456C53.2876 221.555 53.2426 221.656 53.2046 221.76C41.1765 253.965 42.4075 288.924 56.6736 320.197C70.9387 351.472 96.5309 375.317 128.735 387.343C141.925 392.269 155.749 394.985 169.827 395.413C169.855 395.414 169.883 395.414 169.911 395.414C169.939 395.414 169.967 395.414 169.995 395.413C180.258 395.1 190.385 393.557 200.231 390.843C192.596 385.765 185.39 379.922 178.712 373.344Z" fill="#5ABCE2"/>
<path d="M463.27 280.779C463.231 280.675 463.186 280.574 463.135 280.475L406.861 172.014C406.387 171.102 405.446 170.528 404.417 170.528C403.388 170.528 402.447 171.101 401.973 172.014L345.7 280.475C345.648 280.574 345.603 280.675 345.565 280.779C339.504 297.007 340.125 314.623 347.314 330.381C354.501 346.14 367.397 358.156 383.627 364.217C390.273 366.698 397.24 368.066 404.333 368.283C404.361 368.284 404.389 368.284 404.417 368.284C404.445 368.284 404.473 368.284 404.501 368.283C411.592 368.066 418.559 366.698 425.206 364.217C458.702 351.708 475.778 314.277 463.27 280.779Z" fill="#5ABCE2"/>
<path d="M463.27 280.78C463.231 280.676 463.186 280.575 463.135 280.476L406.861 172.015C406.387 171.103 405.446 170.529 404.417 170.529C404.412 170.529 404.406 170.531 404.4 170.531L382.248 299.352C382.227 299.473 382.214 299.595 382.209 299.717C381.271 318.785 387.813 337.073 400.631 351.216C406.123 357.276 412.491 362.254 419.471 366.052C421.405 365.528 423.319 364.924 425.206 364.219C458.702 351.709 475.778 314.278 463.27 280.78Z" fill="#68CCEA"/>
<path d="M351.095 452.145L313.599 379.874C313.125 378.962 312.184 378.388 311.155 378.388C310.126 378.388 309.185 378.962 308.711 379.874L271.211 452.145C271.159 452.244 271.114 452.347 271.076 452.45C262.565 475.246 274.184 500.718 296.98 509.233C301.503 510.919 306.244 511.851 311.07 512C311.099 512.001 311.127 512.001 311.155 512.001C311.183 512.001 311.211 512.001 311.24 512C316.062 511.851 320.803 510.921 325.33 509.232C348.125 500.719 359.744 475.246 351.231 452.449C351.192 452.344 351.146 452.243 351.095 452.145Z" fill="#5ABCE2"/>
<path d="M351.23 452.449C351.191 452.344 351.146 452.243 351.095 452.145L313.6 379.874C313.125 378.962 312.184 378.388 311.155 378.388C310.862 378.388 310.581 378.445 310.311 378.533L294.917 469.099C294.895 469.221 294.883 469.348 294.876 469.473C294.07 486.607 302.056 502.155 314.847 511.741C318.424 511.338 321.938 510.498 325.33 509.233C348.125 500.718 359.744 475.245 351.23 452.449Z" fill="#68CCEA"/>
</svg>
