<svg width="29" height="29" viewBox="0 0 29 29" fill="none" xmlns="http://www.w3.org/2000/svg">
<path d="M24.9268 17.2499C20.7287 22.2796 16.3713 19.4231 14.9528 18.2541C16.0499 17.0592 16.5488 16.4079 18.4534 14.8426C20.4222 15.6451 23.9393 14.1221 23.9393 14.1221C21.5716 14.7405 19.7634 14.3901 19.1206 14.2205C19.2569 14.1119 21.5928 12.424 22.2998 11.4479C24.2552 11.5084 25.8701 9.83149 25.8701 9.83149C25.8154 9.78701 24.8278 10.5433 22.9576 10.634C24.8943 7.79431 24.8055 5.18211 24.8055 5.18211C24.8055 5.18211 24.0905 7.56605 22.2713 10.1815C21.8988 8.32558 22.3736 7.0625 22.3188 7.01984C22.3188 7.01984 21.0537 9.10442 21.6362 11.0209C20.6414 12.1556 19.0735 13.1358 18.4968 13.5744C18.4534 13.4563 17.85 11.4771 18.4362 8.55128C18.4362 8.55128 16.8421 12.2293 17.8387 14.1374C16.6167 15.0745 16.2917 15.3049 14.2512 17.5821C9.63128 14.1297 13.599 7.95475 17.0594 6.5141C20.6173 5.03261 22.1015 5.33015 25.3618 0C28.9321 5.28202 28.3481 13.1489 24.9268 17.2499ZM5.20636 16.7135C7.30743 17.6728 8.76536 18.9753 9.76678 20.2216C9.7781 20.1837 9.79417 20.1552 9.80549 20.1118C11.709 13.2772 1.25 14.2278 1.25 14.2278C1.25 14.2278 2.69478 16.4473 3.50045 18.8681C4.43174 21.6736 8.23873 24.0057 9.60572 20.6748C8.61891 19.3476 7.207 17.8953 5.20636 16.7135ZM14.9532 18.2504C14.9382 18.2391 14.2304 17.601 14.2403 17.5897C12.4474 19.5609 11.7477 21.2451 11.5775 23.3899C11.3062 22.6519 10.7642 21.4715 9.76495 20.222C9.71857 20.386 9.66269 20.5334 9.60426 20.6748C10.667 22.1024 11.0786 24.0509 11.3204 24.689C11.3204 26.4713 11.5151 27.3625 11.6721 28.8484C11.6721 28.8484 12.6326 29.415 12.9003 28.3576C12.3613 27.4642 11.8291 21.3053 14.9532 18.2504Z" fill="#3B4A5E"/>
</svg>
