<svg width="29" height="29" viewBox="0 0 29 29" fill="none" xmlns="http://www.w3.org/2000/svg">
<path d="M9.8472 14.2242C10.861 14.2242 11.6827 15.0459 11.6827 16.0592C11.6827 17.0726 10.861 17.8945 9.8472 17.8945C8.83358 17.8945 8.01184 17.0726 8.01184 16.0592C8.01184 15.0459 8.83358 14.2242 9.8472 14.2242Z" fill="#C7CFDA"/>
<path d="M27.7212 15.698L28.9657 5.8874L20.0384 2.5L9.33002 7.61421L0 3.67441L1.25986 14.1408L0.0523754 24.4472L9.96557 26.3065L20.0767 24.3811L29 26.44L27.7212 15.698ZM20.0054 3.53921L27.9129 6.51872L27.3685 10.8086L19.487 8.81516L20.0054 3.53921ZM18.9594 4.0838L18.5422 8.57543L18.5353 8.57383L13.0784 9.2776L13.0457 9.39797C13.0388 9.42394 12.4057 11.7628 11.7385 12.8264C11.3066 12.5725 10.821 12.4025 10.3021 12.3394L9.85976 8.42855L18.9594 4.0838ZM18.1251 14.1026L13.3823 14.8176C13.1269 14.0951 12.6582 13.4746 12.0497 13.0307C12.6706 12.0398 13.2309 10.1213 13.372 9.61493L18.5063 8.95234L18.1251 14.1026ZM8.89508 8.47624L9.33335 12.3489C7.89174 12.5474 6.70936 13.5652 6.27597 14.9175L2.23177 14.2916L1.84342 10.541C3.18389 10.4523 4.18941 10.0161 4.83379 9.23783C5.4147 8.5373 5.58177 7.70852 5.61373 7.09077L8.89508 8.47624ZM1.16756 5.21341L5.24488 6.93496C5.2332 7.50339 5.10465 8.32816 4.54768 9.00031C3.96663 9.70084 3.04246 10.0927 1.79626 10.1713L1.16756 5.21341ZM1.11494 23.6667L2.11799 15.249L6.10654 15.867C6.10355 15.9309 6.09713 15.9942 6.09713 16.0595C6.09713 16.9362 6.40158 17.7419 6.90844 18.3815L4.83698 20.0447L4.18429 24.2418L1.11494 23.6667ZM8.92916 25.1319L4.54985 24.3106L5.18241 20.2441L7.15371 18.6619C7.75846 19.2869 8.57678 19.7041 9.4911 19.7902L8.92916 25.1319ZM6.84158 16.0595C6.84158 14.4017 8.19007 13.0534 9.84721 13.0534C11.5052 13.0534 12.8537 14.4017 12.8537 16.0595C12.8537 17.7165 11.5052 19.0648 9.84721 19.0648C8.19002 19.0651 6.84158 17.7165 6.84158 16.0595ZM9.96431 25.3259L9.87984 25.31L10.4649 19.7537C12.2392 19.4576 13.5978 17.9159 13.5978 16.0586C13.5978 15.9582 13.5905 15.8601 13.5827 15.7614L18.2186 15.0624L18.6056 19.0159C16.5718 19.1115 15.0515 19.7366 14.0946 20.8914C12.9788 22.2391 12.9262 23.9195 12.9839 24.7502L9.96431 25.3259ZM13.3553 24.6801C13.3104 23.8916 13.3755 22.3442 14.3818 21.1294C15.2718 20.055 16.7076 19.4753 18.6415 19.3874L19.0535 23.594L13.3553 24.6801ZM19.4524 9.18932L27.3223 11.1791L26.8503 14.8964L19.0798 13.9585L19.4524 9.18932ZM25.7801 18.1076L22.1995 17.682L22.8552 24.0328L19.9865 23.4163L19.173 14.9198L19.2566 14.9067L26.7684 15.8602L27.8797 25.1926L23.2312 24.1204L22.6174 18.1065L25.8088 18.4768L25.7801 18.1076Z" fill="#C7CFDA"/>
</svg>
