<svg width="29" height="29" viewBox="0 0 29 29" fill="none" xmlns="http://www.w3.org/2000/svg">
<path d="M27.9456 20.0099C28.0641 20.1171 28.216 20.1738 28.3699 20.1738C28.4562 20.1738 28.5426 20.1562 28.6252 20.1196C28.8534 20.0187 29.0003 19.793 29.0003 19.5434V13.239C29.0003 13.0612 28.9253 12.8916 28.7942 12.7724L14.9244 0.1636C14.6836 -0.0545332 14.3167 -0.0545332 14.0759 0.1636L0.206154 12.7724C0.0750225 12.8916 0 13.0612 0 13.239V19.5434C0 19.793 0.146893 20.0187 0.375113 20.1196C0.603963 20.2205 0.870009 20.177 1.05473 20.0099L3.78265 17.5297V27.7391H0.630442C0.282438 27.7391 0 28.0209 0 28.3696C0 28.7182 0.282438 29 0.630442 29H28.3699C28.7179 29 29.0003 28.7182 29.0003 28.3696C29.0003 28.0209 28.7179 27.7391 28.3699 27.7391H25.2177V17.5297L27.9456 20.0099ZM10.0871 27.7391V22.0651L17.6524 27.7391H10.0871ZM18.9132 27.1087L11.3479 21.4347H18.9132V27.1087ZM23.9568 27.7391H20.1741V20.8043C20.1741 20.4556 19.8917 20.1738 19.5437 20.1738H9.45662C9.44086 20.1738 9.42762 20.1814 9.41249 20.1826C9.37025 20.1858 9.33117 20.1959 9.29019 20.2072C9.2511 20.2186 9.21264 20.2287 9.17671 20.2463C9.14266 20.2633 9.1143 20.286 9.0834 20.3094C9.04747 20.3365 9.01406 20.3636 8.98442 20.3976C8.97497 20.409 8.96173 20.414 8.9529 20.426C8.93777 20.4455 8.93462 20.4695 8.92264 20.4903C8.90058 20.5281 8.8804 20.5653 8.86653 20.6076C8.85266 20.6492 8.84636 20.6895 8.84131 20.7324C8.83753 20.757 8.82618 20.779 8.82618 20.8043V27.7391H5.04353V16.3836L14.5002 7.78627L23.9568 16.3836V27.7391ZM14.9244 6.46802C14.804 6.35895 14.6521 6.3041 14.5002 6.3041C14.3482 6.3041 14.1963 6.35895 14.0759 6.46802L1.26088 18.1179V13.5176L14.5002 1.48185L27.7394 13.5176V18.1179L14.9244 6.46802Z" fill="#ffffff"/>
<path d="M17.0219 15.1304H11.9784C11.6304 15.1304 11.348 15.4122 11.348 15.7608C11.348 16.1094 11.6304 16.3913 11.9784 16.3913H17.0219C17.3699 16.3913 17.6524 16.1094 17.6524 15.7608C17.6524 15.4122 17.3699 15.1304 17.0219 15.1304Z" fill="#ffffff"/>
<path d="M17.0219 15.1304H11.9784C11.6304 15.1304 11.348 15.4122 11.348 15.7608C11.348 16.1094 11.6304 16.3913 11.9784 16.3913H17.0219C17.3699 16.3913 17.6524 16.1094 17.6524 15.7608C17.6524 15.4122 17.3699 15.1304 17.0219 15.1304Z" fill="#ffffff"/>
</svg>
